<?xml version="1.0" encoding="utf-8"?>
<!-- Generator: Adobe Illustrator 23.0.5, SVG Export Plug-In . SVG Version: 6.00 Build 0)  -->
<svg version="1.1" xmlns="http://www.w3.org/2000/svg" xmlns:xlink="http://www.w3.org/1999/xlink" x="0px" y="0px"
	 viewBox="0 0 150 150" style="enable-background:new 0 0 150 150;" xml:space="preserve">
<style type="text/css">
	.st0{fill:#2D2D2D;}
	.st1{fill:#FFFFFF;}
	.st2{display:none;opacity:0.18;fill:#00BBDC;}
	.st3{fill:#00BBDC;}
	.st4{display:none;opacity:0.18;fill:#FFFFFF;}
	.st5{display:none;opacity:0.18;fill:#FCFCFC;}
	.st6{fill:#FCFCFC;}
</style>
<g id="earn_money">
</g>
<g id="find_parking">
</g>
<g id="parking_services">
</g>
<g id="parking_technology">
</g>
<g id="for_drivers">
</g>
<g id="for_parking_pwner">
</g>
<g id="book__x26__pay">
</g>
<g id="arrive_and_park">
</g>
<g id="smart_parking">
</g>
<g id="find_parking_1_">
</g>
<g id="earn_money_1_">
	<circle class="st3" cx="74.5" cy="74.5" r="72.5"/>
	<g transform="translate(0 -0.004)">
		<g transform="translate(25.143 8.995)">
			<path class="st1" d="M64.44,32.24c0.04-0.16,0.07-0.33,0.08-0.5v-10.6c0-0.98-0.79-1.77-1.77-1.77s-1.77,0.79-1.77,1.77v7.95
				c-4.02-2.89-8.86-4.43-13.81-4.41h-0.15c-3.75-0.01-7.44,0.88-10.76,2.61v-7.92c0-0.98-0.79-1.77-1.77-1.77s-1.77,0.79-1.77,1.77
				v10.19c-10.43,8.12-12.3,23.16-4.18,33.59c4.48,5.75,11.33,9.15,18.62,9.23h0.15c13.18-0.19,23.71-11.03,23.52-24.22
				C70.75,42.24,68.47,36.57,64.44,32.24L64.44,32.24z M47.3,68.84h-0.13c-11.22-0.11-20.23-9.29-20.12-20.51
				c0.11-11.02,8.98-19.94,19.99-20.12h0.13c11.22,0.11,20.23,9.29,20.12,20.51C67.19,59.74,58.32,68.67,47.3,68.84z"/>
		</g>
		<g transform="translate(32.967 0.004)">
			<path class="st1" d="M26.67,16c-0.98,0-1.77,0.79-1.77,1.77v3.54c0,0.98,0.79,1.77,1.77,1.77s1.77-0.79,1.77-1.77v-3.54
				C28.44,16.79,27.64,16,26.67,16z"/>
		</g>
		<g transform="translate(56.943 1.502)">
			<path class="st1" d="M30.96,16.26c-0.98,0-1.77,0.79-1.77,1.77v3.54c0,0.98,0.79,1.77,1.77,1.77s1.77-0.79,1.77-1.77v-3.54
				C32.73,17.06,31.93,16.26,30.96,16.26z"/>
		</g>
		<g transform="translate(16.483 34.469)">
			<path class="st1" d="M23.72,22.16c-0.98,0-1.77,0.79-1.77,1.77v14.14c0,0.98,0.79,1.77,1.77,1.77s1.77-0.79,1.77-1.77V23.93
				C25.49,22.95,24.69,22.16,23.72,22.16z"/>
		</g>
		<g transform="translate(16.483 25.478)">
			<path class="st1" d="M23.72,20.55c-0.98,0-1.77,0.79-1.77,1.77v3.54c0,0.98,0.79,1.77,1.77,1.77s1.77-0.79,1.77-1.77v-3.54
				C25.49,21.35,24.69,20.55,23.72,20.55z"/>
		</g>
		<g transform="translate(73.426 20.983)">
			<path class="st1" d="M33.91,19.75c-0.98,0-1.77,0.79-1.77,1.77l0,0v14.14c0,0.98,0.79,1.77,1.77,1.77s1.77-0.79,1.77-1.77V21.52
				C35.68,20.54,34.88,19.75,33.91,19.75L33.91,19.75z"/>
		</g>
		<g transform="translate(73.426 11.992)">
			<path class="st1" d="M33.91,18.14c-0.98,0-1.77,0.79-1.77,1.77v3.54c0,0.98,0.79,1.77,1.77,1.77s1.77-0.79,1.77-1.77v-3.54
				C35.68,18.93,34.88,18.14,33.91,18.14z"/>
		</g>
		<g transform="translate(32.993 34.925)">
			<g transform="translate(0 0)">
				<ellipse class="st1" cx="26.68" cy="23.42" rx="1.77" ry="1.18"/>
			</g>
		</g>
		<g transform="translate(53.89 34.925)">
			<g transform="translate(0 0)">
				<ellipse class="st1" cx="30.54" cy="23.42" rx="1.77" ry="1.18"/>
			</g>
		</g>
		<g transform="translate(0 58.445)">
			<path class="st1" d="M123.23,26.45H103.8c-2.24,0.01-4.23,1.42-4.98,3.54h-8.84c-0.95,0-1.73,0.76-1.76,1.71l-14.74-3.34
				c-1.06-0.24-2.17-0.16-3.18,0.25l-13.83,5.49c-1.74,0.68-3.08,2.11-3.63,3.89l-27.02-7.93c-1.62-0.48-3.38-0.17-4.74,0.85
				C19.77,31.87,19,33.4,19,35.03v3.83c0,1.76,0.9,3.39,2.38,4.34L41,55.9c0.17,0.11,0.37,0.19,0.57,0.24l29.22,6.67
				c0.79,0.18,1.62,0.18,2.41,0l15.38-3.53c0.32,0.46,0.84,0.73,1.4,0.74h8.84c0.74,2.11,2.74,3.53,4.98,3.54h19.44
				c0.98,0,1.77-0.79,1.77-1.77V28.22C125,27.24,124.21,26.45,123.23,26.45C123.23,26.45,123.23,26.45,123.23,26.45z M87.79,55.84
				l-15.37,3.53c-0.27,0.06-0.56,0.06-0.83,0l-28.92-6.6L23.3,40.23c-0.47-0.3-0.76-0.81-0.76-1.37v-3.83c0-0.51,0.25-1,0.67-1.3
				c0.46-0.35,1.07-0.46,1.63-0.29l28.05,8.24c0.88,2.53,3.27,4.22,5.95,4.21H72c0.98,0,1.77-0.79,1.77-1.77s-0.79-1.77-1.77-1.77
				H58.82c-1.46,0.04-2.68-1.12-2.72-2.58c0.01-1.07,0.68-2.02,1.68-2.4l13.83-5.49c0.35-0.14,0.73-0.17,1.1-0.09l15.19,3.44
				L87.79,55.84z M98.5,56.49h-7.07V33.53h7.07V56.49z M121.46,60.03H103.8c-0.98,0-1.77-0.79-1.77-1.77v-26.5
				c0-0.98,0.79-1.77,1.77-1.77h17.67L121.46,60.03z"/>
		</g>
		<g transform="translate(75.193 80.923)">
			<path class="st1" d="M39.52,30.48h-5.31c-0.98,0-1.77,0.79-1.77,1.77c0,0.98,0.79,1.77,1.77,1.77h5.31
				c0.98,0,1.77-0.79,1.77-1.77C41.29,31.27,40.5,30.48,39.52,30.48z"/>
		</g>
	</g>
	<g>
		<path class="st1" d="M81.03,52.36c-0.11-0.11-0.25-0.16-0.41-0.16h-3.08c-0.2-1-0.59-1.86-1.15-2.6h4.2
			c0.17,0,0.31-0.05,0.41-0.16c0.11-0.11,0.16-0.25,0.16-0.41v-1.84c0-0.17-0.05-0.31-0.16-0.41c-0.11-0.11-0.25-0.16-0.42-0.16h-15
			c-0.17,0-0.31,0.05-0.41,0.16C65.05,46.88,65,47.01,65,47.18v2.4c0,0.16,0.06,0.29,0.17,0.41s0.25,0.17,0.41,0.17h2.61
			c2.54,0,4.15,0.68,4.83,2.04h-7.45c-0.17,0-0.31,0.05-0.41,0.16C65.05,52.46,65,52.6,65,52.77v1.84c0,0.17,0.05,0.31,0.16,0.41
			c0.11,0.11,0.25,0.16,0.41,0.16h7.7c-0.26,0.99-0.88,1.74-1.85,2.25c-0.97,0.52-2.24,0.78-3.83,0.78h-2.02
			c-0.16,0-0.29,0.06-0.41,0.17C65.06,58.5,65,58.64,65,58.79v2.29c0,0.16,0.05,0.29,0.16,0.4c2.31,2.45,5.3,5.88,8.98,10.3
			c0.11,0.14,0.26,0.22,0.45,0.22h3.52c0.25,0,0.43-0.11,0.52-0.32c0.12-0.22,0.1-0.42-0.07-0.61c-3.51-4.3-6.27-7.53-8.28-9.67
			c2.04-0.24,3.7-0.9,4.98-1.98c1.27-1.08,2.05-2.49,2.33-4.22h3.03c0.17,0,0.31-0.05,0.41-0.16c0.11-0.11,0.16-0.25,0.16-0.41
			v-1.84C81.19,52.6,81.14,52.47,81.03,52.36z"/>
	</g>
</g>
<g id="fastag">
</g>
<g id="Layer_14">
</g>
<g id="Layer_15">
</g>
<g id="Layer_16">
</g>
<g id="Layer_2">
</g>
</svg>
