<?xml version="1.0" encoding="utf-8"?>
<!-- Generator: Adobe Illustrator 23.0.5, SVG Export Plug-In . SVG Version: 6.00 Build 0)  -->
<svg version="1.1" xmlns="http://www.w3.org/2000/svg" xmlns:xlink="http://www.w3.org/1999/xlink" x="0px" y="0px"
	 viewBox="0 0 150 150" style="enable-background:new 0 0 150 150;" xml:space="preserve">
<style type="text/css">
	.st0{fill:#2D2D2D;}
	.st1{fill:#FFFFFF;}
	.st2{display:none;opacity:0.18;fill:#00BBDC;}
	.st3{fill:#00BBDC;}
	.st4{display:none;opacity:0.18;fill:#FFFFFF;}
	.st5{display:none;opacity:0.18;fill:#FCFCFC;}
	.st6{fill:#FCFCFC;}
</style>
<g id="earn_money">
</g>
<g id="find_parking">
</g>
<g id="parking_services">
</g>
<g id="parking_technology">
</g>
<g id="for_drivers">
</g>
<g id="for_parking_pwner">
</g>
<g id="book__x26__pay">
</g>
<g id="arrive_and_park">
</g>
<g id="smart_parking">
</g>
<g id="find_parking_1_">
</g>
<g id="earn_money_1_">
</g>
<g id="fastag">
</g>
<g id="Layer_14">
</g>
<g id="Layer_15">
	<circle class="st3" cx="75.5" cy="74.5" r="72.5"/>
	<g transform="translate(-28 -84)">
		<path class="st1" d="M156.15,112.48h-27.94c-2.37,0.1-2.6,0.01-5.39,0h-3.72c-0.16,0-0.31,0.02-0.46,0.07
			c-0.38-0.34-2.25,1.23-1.39,3.24v25.31c0,1.02,0.83,1.85,1.85,1.85c1.02,0,1.85-0.83,1.85-1.85v-24.91h33.34v44.46h-9.26v-21.3
			c0-1.99-1.27-3.75-3.16-4.39c3.37-2.73,3.89-7.68,1.16-11.05s-7.68-3.89-11.05-1.16c-3.37,2.73-3.89,7.68-1.16,11.05
			c0.31,0.39,0.66,0.74,1.04,1.06c-2.06,0.52-3.5,2.37-3.5,4.49v8.34h-10.19c-2.56,0-4.63,2.07-4.63,4.63
			c0,2.56,2.07,4.63,4.63,4.63h10.19v3.71h-7.42c-1.02,0-1.85,0.83-1.85,1.85v35.19c0,1.02,0.83,1.85,1.85,1.85h35.2
			c1.02,0,1.85-0.83,1.85-1.85v-83.36C158,113.31,157.17,112.48,156.15,112.48C156.15,112.48,156.15,112.48,156.15,112.48z
			 M136.93,124.7c2.29,0,4.15,1.86,4.15,4.15c0,2.29-1.86,4.15-4.15,4.15c-2.29,0-4.15-1.86-4.15-4.15
			C132.79,126.56,134.64,124.71,136.93,124.7z M117.25,152.3c0-0.51,0.41-0.93,0.93-0.93h12.04c1.02,0,1.85-0.83,1.85-1.85v-10.19
			c0-0.51,0.42-0.93,0.93-0.93c0.51,0,0.92,0.41,0.93,0.93v11.45c0,1.35-1.1,2.45-2.45,2.45h-13.3
			C117.66,153.23,117.25,152.82,117.25,152.3z M132.07,156.9c3.15-0.31,5.55-2.96,5.56-6.12v-11.45c0-0.31-0.03-0.62-0.09-0.93h2.87
			c0.51,0,0.93,0.41,0.93,0.93v21.3h-9.26V156.9z M154.3,195.84H122.8v-31.49h31.49L154.3,195.84z"/>
		<path class="st1" d="M111.28,170.54l-10.22-18.22c-0.33-0.58-0.95-0.95-1.62-0.95h-38.5c-0.67,0-1.29,0.36-1.62,0.95l-10.22,18.21
			c-4.76,3.86-5.5,10.85-1.64,15.61c0.86,1.06,1.9,1.95,3.08,2.63v4.27c0,3.58,2.9,6.48,6.48,6.48c3.58,0,6.48-2.9,6.48-6.48v-2.78
			h33.35v2.78c0,3.58,2.9,6.48,6.48,6.48c3.58,0,6.48-2.9,6.48-6.48v-4.27c5.31-3.06,7.14-9.85,4.07-15.16
			C113.23,172.44,112.34,171.4,111.28,170.54z M62.04,155.08h36.32l7.33,13.06c-0.47-0.06-0.94-0.09-1.41-0.09H75.45l13.09-7.67
			c0.89-0.5,1.2-1.64,0.7-2.53c-0.5-0.89-1.64-1.2-2.53-0.7c-0.01,0.01-0.03,0.02-0.04,0.03L68.5,167.82
			c-0.11,0.06-0.21,0.14-0.31,0.22H56.12c-0.47,0-0.94,0.03-1.41,0.09L62.04,155.08z M59.82,193.05c0,1.53-1.24,2.78-2.78,2.78
			c-1.53,0-2.78-1.24-2.78-2.78v-2.94c0.61,0.1,1.23,0.16,1.85,0.16h3.71V193.05z M106.13,193.05c0,1.53-1.24,2.78-2.78,2.78
			s-2.78-1.24-2.78-2.78c0,0,0,0,0-0.01v-2.78h3.71c0.62,0,1.24-0.05,1.85-0.16V193.05z M104.28,186.57H56.12
			c-4.09-0.15-7.29-3.59-7.14-7.68c0.14-3.88,3.26-6.99,7.14-7.14h48.16c4.09,0.15,7.29,3.59,7.14,7.68
			C111.27,183.31,108.16,186.43,104.28,186.57L104.28,186.57z"/>
		<path class="st1" d="M100.79,173.29c-2.95,0-5.34,2.39-5.34,5.34c0,2.95,2.39,5.34,5.34,5.34c2.95,0,5.34-2.39,5.34-5.34l0,0
			C106.13,175.69,103.74,173.29,100.79,173.29z M100.79,180.27c-0.9,0-1.63-0.73-1.63-1.63c0-0.9,0.73-1.63,1.63-1.63
			c0.9,0,1.63,0.73,1.63,1.63C102.42,179.54,101.69,180.27,100.79,180.27z"/>
		<path class="st1" d="M59.99,173.29c-2.97,0-5.38,2.41-5.38,5.38c0,2.97,2.41,5.38,5.38,5.38c2.97,0,5.38-2.41,5.38-5.38l0,0
			C65.37,175.7,62.97,173.3,59.99,173.29z M59.99,180.35c-0.93,0-1.68-0.75-1.68-1.68c0-0.93,0.75-1.68,1.68-1.68
			c0.93,0,1.68,0.75,1.68,1.68l0,0C61.67,179.6,60.92,180.35,59.99,180.35z"/>
		<path class="st1" d="M133.92,168.05c-1.02,0-1.85,0.83-1.85,1.85v20.38c0,1.02,0.83,1.85,1.85,1.85c1.02,0,1.85-0.83,1.85-1.85
			c0,0,0,0,0,0v-11.12h5.56c3.07,0,5.56-2.48,5.56-5.55s-2.48-5.56-5.55-5.56c0,0-0.01,0-0.01,0L133.92,168.05z M143.18,173.61
			c0,1.02-0.83,1.85-1.85,1.85h-5.56v-3.71h5.56C142.35,171.76,143.18,172.58,143.18,173.61z"/>
	</g>
</g>
<g id="Layer_16">
</g>
<g id="Layer_2">
</g>
</svg>
