<?xml version="1.0" encoding="utf-8"?>
<!-- Generator: Adobe Illustrator 23.0.5, SVG Export Plug-In . SVG Version: 6.00 Build 0)  -->
<svg version="1.1" xmlns="http://www.w3.org/2000/svg" xmlns:xlink="http://www.w3.org/1999/xlink" x="0px" y="0px"
	 viewBox="0 0 150 150" style="enable-background:new 0 0 150 150;" xml:space="preserve">
<style type="text/css">
	.st0{fill:#2D2D2D;}
	.st1{fill:#FFFFFF;}
	.st2{display:none;opacity:0.18;fill:#00BBDC;}
	.st3{fill:#00BBDC;}
	.st4{display:none;opacity:0.18;fill:#FFFFFF;}
	.st5{display:none;opacity:0.18;fill:#FCFCFC;}
	.st6{fill:#FCFCFC;}
</style>
<g id="earn_money">
</g>
<g id="find_parking">
</g>
<g id="parking_services">
</g>
<g id="parking_technology">
</g>
<g id="for_drivers">
</g>
<g id="for_parking_pwner">
</g>
<g id="book__x26__pay">
</g>
<g id="arrive_and_park">
</g>
<g id="smart_parking">
</g>
<g id="find_parking_1_">
</g>
<g id="earn_money_1_">
</g>
<g id="fastag">
</g>
<g id="Layer_14">
	<circle class="st3" cx="75.5" cy="75.5" r="72.5"/>
	<g transform="translate(-8 -32)">
		<path class="st1" d="M52.9,132.97c-2.99,0-5.41,2.42-5.41,5.41c0,2.99,2.42,5.41,5.41,5.41c2.99,0,5.41-2.42,5.41-5.41l0,0
			C58.31,135.4,55.88,132.97,52.9,132.97z M52.9,140.19c-0.99,0-1.8-0.81-1.8-1.8s0.81-1.8,1.8-1.8s1.8,0.81,1.8,1.8
			S53.89,140.19,52.9,140.19z"/>
		<path class="st1" d="M121.44,132.97c-2.99,0-5.41,2.42-5.41,5.41s2.42,5.41,5.41,5.41c2.99,0,5.41-2.42,5.41-5.41v0
			C126.85,135.4,124.43,132.97,121.44,132.97z M121.44,140.19c-0.99,0-1.8-0.81-1.8-1.8s0.81-1.8,1.8-1.8c0.99,0,1.8,0.81,1.8,1.8
			S122.43,140.19,121.44,140.19z"/>
		<path class="st1" d="M139.4,129.38v-10.82c-0.01-5.97-4.84-10.81-10.82-10.82h-14.98l-4.96-13.22c-1.33-3.95-5.03-6.61-9.2-6.61
			H65.5c-4.14,0-7.82,2.62-9.17,6.53l-6.38,13.3h-2.47V68.09c0.01-3.98,3.23-7.21,7.21-7.21h23.43v5.41c0,0.99,0.81,1.8,1.8,1.8
			h14.42c0.99,0,1.8-0.81,1.8-1.8v-1.8h3.6c0.99,0,1.8-0.81,1.8-1.8s-0.81-1.8-1.8-1.8h-3.6v-3.6h3.6c0.99,0,1.8-0.81,1.8-1.8
			s-0.81-1.8-1.8-1.8h-3.6v-1.82c0-0.99-0.81-1.8-1.8-1.8H79.92c-0.99,0-1.8,0.81-1.8,1.8v5.41H54.68
			c-5.97,0.01-10.81,4.84-10.82,10.82v39.81c-5.2,0.88-9.01,5.38-9.02,10.66v10.82c-1.99,0.01-3.59,1.61-3.6,3.6v3.6
			c0.01,1.99,1.61,3.59,3.6,3.6h5.54c0.99,6.9,7.39,11.68,14.29,10.69c5.54-0.8,9.89-5.15,10.69-10.69h43.52
			c0.99,6.9,7.39,11.68,14.29,10.69c5.54-0.8,9.89-5.15,10.69-10.69h5.54c1.99-0.01,3.59-1.61,3.6-3.6v-3.6
			C142.99,131,141.39,129.39,139.4,129.38z M81.72,53.67h10.82v10.82H81.72V53.67z M109.77,107.75H87.13V96.93h18.58L109.77,107.75z
			 M38.46,120.37h3.6v1.8h-3.6L38.46,120.37z M40.39,136.59h-5.54v-3.6h6.63C40.93,134.13,40.57,135.34,40.39,136.59L40.39,136.59z
			 M52.88,147.41c-4.98,0-9.01-4.04-9.01-9.01c0-4.98,4.04-9.01,9.01-9.01s9.01,4.04,9.01,9.01
			C61.89,143.37,57.86,147.41,52.88,147.41C52.88,147.41,52.88,147.41,52.88,147.41z M108.89,136.59H65.37
			c-0.18-1.25-0.55-2.46-1.09-3.6h45.7C109.44,134.13,109.07,135.34,108.89,136.59L108.89,136.59z M121.37,147.41
			c-4.98,0-9.01-4.04-9.01-9.01c0-4.98,4.04-9.01,9.01-9.01c4.98,0,9.01,4.04,9.01,9.01C130.39,143.37,126.36,147.4,121.37,147.41
			L121.37,147.41z M130.39,129.38c-0.06,0-0.12,0-0.18,0.01c-4.9-4.82-12.76-4.82-17.66,0c-0.06-0.01-0.12-0.01-0.18-0.01H61.89
			c-0.06,0-0.12,0-0.18,0.01c-4.9-4.82-12.76-4.82-17.66,0c-0.06-0.01-0.12-0.01-0.18-0.01h-5.41v-3.6h5.41c0.99,0,1.8-0.81,1.8-1.8
			v-5.42c0-0.99-0.81-1.8-1.8-1.8h-5.18c0.83-3.18,3.7-5.4,6.98-5.41h5.41c0.69,0,1.33-0.4,1.62-1.02l6.92-14.42
			c0.03-0.07,0.06-0.14,0.08-0.21c0.83-2.49,3.16-4.18,5.79-4.18h33.96c1.63,0,3.19,0.65,4.33,1.8H65.5c-0.99,0-1.8,0.81-1.8,1.8
			v14.43c0,0.99,0.81,1.8,1.8,1.8h63.09c3.29,0,6.16,2.23,6.98,5.41h-5.18c-0.99,0-1.8,0.81-1.8,1.8v5.41c0,0.99,0.81,1.8,1.8,1.8
			h5.41v3.6L130.39,129.38z M83.52,96.93v10.82H67.3V96.93H83.52z M135.8,120.37v1.8h-3.6v-1.8H135.8z M139.4,136.59h-5.53
			c-0.18-1.25-0.55-2.46-1.09-3.6h6.63L139.4,136.59z"/>
		<path class="st1" d="M87.16,116.73h9.02c0.99,0,1.8-0.81,1.8-1.8s-0.81-1.8-1.8-1.8h-9.02c-0.99,0-1.8,0.81-1.8,1.8
			S86.17,116.73,87.16,116.73z"/>
	</g>
</g>
<g id="Layer_15">
</g>
<g id="Layer_16">
</g>
<g id="Layer_2">
</g>
</svg>
