<?xml version="1.0" encoding="utf-8"?>
<!-- Generator: Adobe Illustrator 23.0.5, SVG Export Plug-In . SVG Version: 6.00 Build 0)  -->
<svg version="1.1" xmlns="http://www.w3.org/2000/svg" xmlns:xlink="http://www.w3.org/1999/xlink" x="0px" y="0px"
	 viewBox="0 0 150 150" style="enable-background:new 0 0 150 150;" xml:space="preserve">
<style type="text/css">
	.st0{fill:#2D2D2D;}
	.st1{fill:#FFFFFF;}
	.st2{display:none;opacity:0.18;fill:#00BBDC;}
	.st3{fill:#00BBDC;}
	.st4{display:none;opacity:0.18;fill:#FFFFFF;}
	.st5{display:none;opacity:0.18;fill:#FCFCFC;}
	.st6{fill:#FCFCFC;}
</style>
<g id="earn_money">
</g>
<g id="find_parking">
</g>
<g id="parking_services">
</g>
<g id="parking_technology">
</g>
<g id="for_drivers">
</g>
<g id="for_parking_pwner">
</g>
<g id="book__x26__pay">
</g>
<g id="arrive_and_park">
</g>
<g id="smart_parking">
</g>
<g id="find_parking_1_">
	<circle class="st3" cx="74.5" cy="74.5" r="72.5"/>
	<path class="st1" d="M120.7,85.6h-4.81v3.21h-2.57l-1.84-11.96c-0.35-2.35-2.38-4.09-4.76-4.08h-31.4
		c-2.38-0.01-4.41,1.73-4.76,4.08l-1.84,11.96h-2.57V85.6h-4.81c-2.66,0-4.82,2.15-4.82,4.81c0,2.66,2.15,4.82,4.81,4.82
		c0,0,0,0,0.01,0h4.81v-3.21h2.08l-0.29,1.9c-3.12,2.08-5,5.59-5,9.34v9.63h3.21v3.21c0.01,1.13,0.31,2.24,0.89,3.21H53.3V67.42
		c12.12-2.66,19.79-14.64,17.13-26.76c-2.66-12.12-14.64-19.79-26.76-17.13S23.88,38.17,26.54,50.29
		c1.88,8.56,8.57,15.25,17.13,17.13v51.89H32.43v3.21h86.66v-3.21h-4.1c0.58-0.97,0.89-2.08,0.89-3.21v-3.21h3.21v-9.63
		c0-3.75-1.88-7.25-5-9.34l-0.29-1.9h2.08v3.21h4.81c2.66,0,4.81-2.16,4.81-4.81S123.35,85.6,120.7,85.6L120.7,85.6z M62.93,92.02
		h-1.6c-0.89,0.02-1.62-0.68-1.65-1.56c-0.02-0.89,0.68-1.62,1.56-1.65c0.03,0,0.06,0,0.08,0h1.61L62.93,92.02z M50.09,119.3h-3.21
		V74.37h3.21V119.3z M50.09,71.16h-3.21v-3.29c0.53,0.04,1.06,0.08,1.61,0.08c0.54,0,1.07-0.04,1.61-0.08L50.09,71.16z M48.48,64.74
		c-10.64,0-19.26-8.62-19.26-19.26s8.62-19.26,19.26-19.26c10.63,0,19.26,8.62,19.26,19.26C67.73,56.11,59.11,64.73,48.48,64.74
		L48.48,64.74z M73.72,77.33c0.12-0.78,0.79-1.36,1.59-1.36h31.4c0.79,0,1.47,0.58,1.58,1.36l2.31,15.04
		c-0.9-0.23-1.82-0.35-2.75-0.36h-33.7c-0.93,0-1.85,0.12-2.75,0.36L73.72,77.33z M66.14,109.67v-4.81h14.44v4.81L66.14,109.67z
		 M75.76,116.09c0,1.77-1.44,3.21-3.21,3.21c-1.77,0-3.21-1.44-3.21-3.21v-3.21h6.42V116.09z M78.08,119.3
		c0.58-0.97,0.89-2.08,0.89-3.21v-3.21h24.07v3.21c0.01,1.13,0.31,2.24,0.89,3.21L78.08,119.3z M83.79,109.67v-6.42
		c0-0.89,0.72-1.6,1.61-1.61h11.23c0.89,0,1.6,0.72,1.61,1.61v6.42H83.79z M112.68,116.09c0,1.77-1.44,3.21-3.21,3.21
		c-1.77,0-3.21-1.44-3.21-3.21v-3.21h6.42V116.09z M115.89,109.67h-14.44v-4.81h14.44L115.89,109.67z M115.72,101.65h-14.57
		c-0.68-1.92-2.49-3.2-4.52-3.21H85.39c-2.03,0.01-3.84,1.29-4.52,3.21H66.3c0.77-3.73,4.05-6.41,7.86-6.42h33.7
		C111.67,95.24,114.95,97.92,115.72,101.65z M120.7,92.02h-1.6v-3.21h1.61c0.89,0.02,1.59,0.76,1.56,1.65
		C122.24,91.31,121.55,92,120.7,92.02L120.7,92.02z"/>
	<g transform="translate(14.276 9.993)">
		<path class="st1" d="M37.42,24.26h-9.63v20.86H31v-8.02h6.42c3.55,0,6.42-2.87,6.42-6.42S40.96,24.26,37.42,24.26L37.42,24.26z
			 M37.42,33.88H31v-6.42h6.42c1.77,0,3.21,1.44,3.21,3.21C40.62,32.45,39.19,33.88,37.42,33.88z"/>
	</g>
	<g transform="translate(45.614 55.252)">
		<g transform="translate(0 0)">
			<rect x="32.11" y="30.16" class="st1" width="20.23" height="4.5"/>
		</g>
	</g>
	<g transform="translate(67.471 55.252)">
		<g transform="translate(0 0)">
			<rect x="33.86" y="30.16" class="st1" width="3.37" height="4.5"/>
		</g>
	</g>
	<g transform="translate(85.526 85.661)">
		<g transform="translate(0 0)">
			<rect x="37.16" y="33.48" class="st1" width="2.25" height="3.37"/>
		</g>
	</g>
	<g transform="translate(0 85.661)">
		<g transform="translate(0 0)">
			<rect x="26.02" y="33.48" class="st1" width="3.37" height="3.37"/>
		</g>
	</g>
</g>
<g id="earn_money_1_">
</g>
<g id="fastag">
</g>
<g id="Layer_14">
</g>
<g id="Layer_15">
</g>
<g id="Layer_16">
</g>
<g id="Layer_2">
</g>
</svg>
