<svg xmlns="http://www.w3.org/2000/svg" width="1314.626" height="417.941" viewBox="0 0 1314.626 417.941"><defs><style>.a{fill:#fcfcfc;}.b{fill:#fff;}.c{fill:#00bbdc;}.d{fill:none;stroke:#fff;stroke-miterlimit:10;stroke-width:0.1px;}</style></defs><g transform="translate(-613 -488.031)"><path class="a" d="M31.237,0A28.371,28.371,0,0,0,3,28.441C3,50.726,28.582,73.735,29.671,74.7a2.359,2.359,0,0,0,3.131,0c1.089-.969,26.671-23.979,26.671-46.264A28.371,28.371,0,0,0,31.237,0Zm0,43.924A15.687,15.687,0,1,1,46.924,28.237,15.7,15.7,0,0,1,31.237,43.924Z" transform="translate(1225.766 488.142)"/><path class="a" d="M31.237,0A28.371,28.371,0,0,0,3,28.441C3,50.726,28.582,73.735,29.671,74.7a2.359,2.359,0,0,0,3.131,0c1.089-.969,26.671-23.979,26.671-46.264A28.371,28.371,0,0,0,31.237,0Zm0,43.924A15.687,15.687,0,1,1,46.924,28.237,15.7,15.7,0,0,1,31.237,43.924Z" transform="translate(1680.527 563.514)"/><path class="a" d="M31.237,0A28.371,28.371,0,0,0,3,28.441C3,50.726,28.582,73.735,29.671,74.7a2.359,2.359,0,0,0,3.131,0c1.089-.969,26.671-23.979,26.671-46.264A28.371,28.371,0,0,0,31.237,0Zm0,43.924A15.687,15.687,0,1,1,46.924,28.237,15.7,15.7,0,0,1,31.237,43.924Z" transform="translate(847.135 508.912)"/><g transform="translate(613 488.031)"><rect class="b" width="7.159" height="35.077" transform="translate(750.788 28.038)"/><path class="b" d="M-139.758,2301.523H-123.5v-18.254h.984v-40.715h.984V2232.8s4.415-7.159,7.934-7.219c1.133.03,2.625,0,2.625,0s6.666,4.266,6.666,9.142v7.889l10.425-.037v-2.617l19.537-.061,6.741-7.814H-65.1V2214.1h6.383V2209l47.246-.265.134,3.644,5.168.045v18.457l2.663-.045v-3.975H4.4v3.916l3.907.029v-24.667s8.382-22.489,18.583-24.995c3.81-.027,8.9-.075,8.9-.075s13.169,4.43,18.9,24.354V2233.7l3.162.06-.12,6.144,40.953-.478-.045-96.283s1.343-.045,1.343-2.819h-5.19l.134-35.211h1.611l.133,4.885,2.224.1-.12-4.982,91.69.209v4.534h2.625v-4.921h2.684v35.614l-6.711.179s-.1,2.014,1.419,2.014c-.045,1.3.013,3.578.013,3.578l-.358,155.207h5.637v-7.517l1.208-.014V2257.23s-1.745-5.5-5.145-5.772a7.153,7.153,0,0,1-.045-1.3l5.19.031v-16.613l37.985-.717v-12.527l1.312-.06v-9.008l7.726-.03v7.875l19.656-.03s.164-2.7,1.462-2.744,1.387,2.774,1.387,2.774l19.642-.088V2208.76l9.068-.238v13.36h1.431v11.336h36.39l.223,13.317,3.714.044v1.015s-3.52,1.193-3.579,4.594,0,41.28,0,41.28l2.326.06.179,7.994h5.369v-14.316l3.758-.238V2275.4l9.247-4.057v-11.514s3.192-7.516,7.4-7.516,7.159,9.127,7.159,9.127v6.174l3.758-.089v-34l1.79-.179v-54.764l-2.088-.238.3-7.874,4.056-.06v-35.316l1.237.031v6.411l2.64-.059s7.878-3.344,7.282-31.619c1.537-.016,3.277-1.967,3.277-1.967s-2.565,30.841,8.292,33.7c.8,0,1.054,0,1.054,0v-6.5h1.451v34.987l5.518.9v6.979l-2.416.18.358,55.21,2.058.119V2246.4h8.44v-7.963l10.44.177v2.6l2.774-.089v-6.472l1.342-.12v-74.568l2.386.119v-9.305l28.873.118v9.187l9.068-.239v86.917h5.667v-18.435l6.085.18.537-22.251,3.7-.119V2094.46h2.565v-3.877h2.565v2.684l2.744.061v-2.745h3.937v2.714l3.907-.089v-3.937h10.29s1.969,4.922,5.19,4.922,5.48-.046,5.48-.046V2213.74l12.953-.09v-3.757l4.116.178v9.842l3.758-.088v9.664h2.864v15.481h2.505v-23.624l9.127-.135v-6.219s4.713-3.847,9.366-3.966,8.232,3.936,8.232,3.936l2.089-.179v-66.993h2.684V2098.04l2.6.09v-34.809h5.458v-25.056s10.559-15.211,26.308-15.032,24.876,14.854,24.876,14.854v25.234h6.622V2098.4l2.267.119v49.155l3.235-.015-.671,117,14.258-.058v-31.02l-2.863-.358-.12-4.057s4.772-2.864,6.2-5.369a22.021,22.021,0,0,1,2.833-.03v4.25l13.989-.282V2148.15H688.4v-49.573h2.684v-34.3l3.878.06v-25.711s10.082-15.751,27.263-15.392,26.01,16.108,26.01,16.108v24.578h4.772V2097.8l3.818-.238v50.347h1.67v153.612h17.478v-18.075l3.042.179v-13.6l-6.084.178.179-2.863,6.98-.238v-7.755l18.433.03V2146.719l5.549.119v-9.067l21.714-.24s2.864-.118,2.864,3.939v6.68l6.442-.24V2260.54l8.53.179h17.9v-23.086l3.758-.18v2.328l13.095-.3.149-2.476,3.758.359v23.354l28.992.09V2236.2l1.789.089v4.743l53.033-.06s8.8-12.245,14.57-12.6c1.357-.1,4.161-.1,4.161-.1s7.158.685,14.2,13.183c6.8.119,40.326-.12,40.326-.12v-24.458s-4.534-2.387-5.01-4.773.954-8.351.954-8.351l24.873-.292.987,8.136s-1.88,5.16-5.7,5.994c-.119,3.342-.238,23.146-.238,23.146l69.08-.715v3.34l-2.147.956.119,37.582h37.94v19.626h10.5V2380.8H-139.758Z" transform="translate(139.758 -1962.863)"/><rect class="b" width="2.863" height="27.203" transform="translate(752.697 3.699)"/><path class="b" d="M749.16,2029.421l19.328-38.9v2.625l-17.419,35.435Z" transform="translate(-16.387 -1957.119)"/><path class="b" d="M760.883,2024.406l9.664-29.828.6,2.5-8.709,27.323-1.551.477" transform="translate(-18.447 -1957.831)"/><path class="b" d="M778.54,1998.631l7.517,26.964h2.028l-8.59-26.964Z" transform="translate(-21.548 -1958.543)"/><path class="b" d="M779.12,1994.4l14.794,32.572,3.042.173L779.6,1993.565Z" transform="translate(-21.65 -1957.653)"/><rect class="b" width="2.863" height="27.203" transform="translate(859.36 2.983)"/><path class="b" d="M878.551,2028.553l19.328-38.9v2.625l-17.419,35.435Z" transform="translate(-39.116 -1956.967)"/><path class="b" d="M890.275,2023.537l9.664-29.828.6,2.506-8.709,27.322-1.551.477" transform="translate(-41.175 -1957.678)"/><path class="b" d="M907.932,1997.763l7.517,26.964h2.028l-8.59-26.964Z" transform="translate(-44.277 -1958.391)"/><path class="b" d="M908.511,1993.532,923.3,2026.1l3.877,2.028L908.988,1992.7Z" transform="translate(-44.378 -1957.5)"/><rect class="b" width="7.159" height="35.077" transform="translate(857.451 28.038)"/><path class="b" d="M152.69,2120.793h-3.1l-.245-16.942h2.983Z" transform="translate(88.974 -1977.025)"/><rect class="b" width="2.744" height="17.598" transform="translate(327.477 127.065)"/><path class="b" d="M1290.376,2236.15l.024-14.077h-3.991v-2.386h3.991v-8.949a7.6,7.6,0,0,1,6.95-4.414,7.9,7.9,0,0,1,7.079,4.535l-.177,8.782h4.2v2.282l-4.2-.045.352,14.117-1.789-.023-.425-15.368s-.082-1.587-1.051-1.612c-.91-.021-1.164,1.656-1.164,1.656l-.164,15.5h-4.444l-.418-15.452s.119-1.639-.925-1.639c-1.137,0-1.044,1.611-1.044,1.611l-.09,15.48Z" transform="translate(-110.76 -1995.025)"/><path class="b" d="M1081.32,2282.568v-8.49h-2.457v-1.47h2.457V2267.1a4.678,4.678,0,0,1,4.279-2.717,4.864,4.864,0,0,1,4.358,2.79l-.109,5.408h2.586v1.4l-2.586-.026.229,8.514-1.141,0-.234-9.3s-.051-.977-.647-.993c-.561-.014-.717,1.021-.717,1.021l-.082,9.294-2.755.072-.257-9.335s.074-1.01-.569-1.01c-.7,0-.643.991-.643.991l-.073,9.353Z" transform="translate(-74.303 -2005.225)"/><path class="b" d="M1301.43,2208.229h-4.564l1.432-12.617h1.6Z" transform="translate(-112.596 -1993.144)"/><path class="b" d="M1087.828,2264.12h-2.556l.8-7.069h.894Z" transform="translate(-75.428 -2003.936)"/><g transform="translate(243.274 128.377)"><rect class="b" width="0.895" height="17.807"/><rect class="b" width="0.895" height="17.807" transform="translate(2.446)"/><rect class="b" width="0.895" height="17.807" transform="translate(4.593)"/><rect class="b" width="0.895" height="17.807" transform="translate(6.801)"/><rect class="b" width="0.895" height="17.807" transform="translate(8.829)"/><rect class="b" width="0.895" height="17.807" transform="translate(10.917)"/><rect class="b" width="0.895" height="17.807" transform="translate(13.154)"/><rect class="b" width="0.895" height="17.807" transform="translate(15.525)"/><rect class="b" width="0.895" height="17.807" transform="translate(17.628)"/><rect class="b" width="0.895" height="17.807" transform="translate(19.686)"/><rect class="b" width="0.895" height="17.807" transform="translate(21.744)"/><rect class="b" width="0.895" height="17.807" transform="translate(23.847)"/><rect class="b" width="0.895" height="17.807" transform="translate(25.816)"/><rect class="b" width="0.895" height="17.807" transform="translate(27.784)"/><rect class="b" width="0.895" height="17.807" transform="translate(29.842)"/><rect class="b" width="0.895" height="17.807" transform="translate(31.856)"/><rect class="b" width="0.895" height="17.807" transform="translate(34.063)"/></g><g transform="translate(279.842 128.377)"><rect class="b" width="0.895" height="17.807"/><rect class="b" width="0.895" height="17.807" transform="translate(2.446)"/><rect class="b" width="0.895" height="17.807" transform="translate(4.593)"/><rect class="b" width="0.895" height="17.807" transform="translate(6.801)"/><rect class="b" width="0.895" height="17.807" transform="translate(8.829)"/><rect class="b" width="0.895" height="17.807" transform="translate(10.917)"/><rect class="b" width="0.895" height="17.807" transform="translate(13.154)"/><rect class="b" width="0.895" height="17.807" transform="translate(15.525)"/><rect class="b" width="0.895" height="17.807" transform="translate(17.628)"/><rect class="b" width="0.895" height="17.807" transform="translate(19.686)"/><rect class="b" width="0.895" height="17.807" transform="translate(21.744)"/><rect class="b" width="0.895" height="17.807" transform="translate(23.847)"/><rect class="b" width="0.895" height="17.807" transform="translate(25.816)"/><rect class="b" width="0.895" height="17.807" transform="translate(27.784)"/><rect class="b" width="0.895" height="17.807" transform="translate(29.842)"/><rect class="b" width="0.895" height="17.807" transform="translate(31.856)"/><rect class="b" width="0.895" height="17.807" transform="translate(34.063)"/></g><g transform="translate(315.994 128.377)"><rect class="b" width="0.895" height="17.807"/><rect class="b" width="0.895" height="17.807" transform="translate(2.446)"/><rect class="b" width="0.895" height="17.807" transform="translate(4.593)"/><rect class="b" width="0.895" height="17.807" transform="translate(6.801)"/><rect class="b" width="0.895" height="17.807" transform="translate(8.829)"/></g><rect class="b" width="91.876" height="1.611" transform="translate(238.345 128.377)"/><path class="b" d="M776.919,1952.446a2.446,2.446,0,1,1-2.446-2.446A2.446,2.446,0,0,1,776.919,1952.446Z" transform="translate(-20.404 -1950.001)"/><path class="b" d="M906.383,1952.446a2.445,2.445,0,1,1-2.446-2.446A2.445,2.445,0,0,1,906.383,1952.446Z" transform="translate(-43.146 -1950.001)"/><rect class="b" width="1.521" height="14.586" transform="translate(166.32 207.48)"/><rect class="b" width="1.521" height="14.586" transform="translate(169.049 207.48)"/><rect class="b" width="1.521" height="14.586" transform="translate(171.733 207.48)"/><rect class="b" width="1.521" height="14.586" transform="translate(174.239 207.48)"/><path class="b" d="M-107.9,2263.194c.537-.539.944-.344,1.422.248.988,1.222.86,5.936.86,5.936h-3.042S-109.014,2264.305-107.9,2263.194Z" transform="translate(134.305 -2004.96)"/><g transform="translate(374.187 236.146)"><path class="b" d="M325.23,2249.982H314.164v-1.692h1.28s.73-8,3.593-8.052h1.376s2.645,1.11,3.609,8.018c.466.005,1.209.056,1.209.056Z" transform="translate(-314.164 -2237.129)"/><path class="b" d="M320.142,2236.663c.336-.335.59-.214.888.156.616.762.537,3.706.537,3.706h-1.9S319.448,2237.358,320.142,2236.663Z" transform="translate(-315.125 -2236.467)"/></g><g transform="translate(425.013 234.714)"><path class="b" d="M386.886,2248.245H375.82v-1.694h1.28s.73-8,3.592-8.051h1.377s2.645,1.109,3.608,8.018c.467,0,1.209.055,1.209.055Z" transform="translate(-375.82 -2235.392)"/><path class="b" d="M381.8,2234.926c.335-.335.589-.214.888.155.617.763.537,3.707.537,3.707h-1.9S381.1,2235.62,381.8,2234.926Z" transform="translate(-376.781 -2234.73)"/></g><path class="c" d="M466.878,2294.838c.61-.608,1.07-.387,1.612.283,1.119,1.384.974,6.729.974,6.729h-3.449S465.618,2296.1,466.878,2294.838Z" transform="translate(33.36 -2010.511)"/><rect class="b" width="0.681" height="6.353" transform="translate(26.673 252.668)"/><g transform="translate(1007.073 161.575)"><path class="b" d="M1081.979,2146.005c.224.442.93.845,1.21,1.284.536.843,1.089,1.661,1.583,2.531.245.431.556,1.481.962,1.791a19.114,19.114,0,0,1,1.672,1.068,12.47,12.47,0,0,1,2.968,4.672,9.092,9.092,0,0,1,.5,1.8,12.733,12.733,0,0,1,1.834-3.706c1.321-2.13,2.48-4.177,4.72-5.479a15.1,15.1,0,0,1,7.871-1.689c1.537.1,3.085-.033,4.629.016.976.029,2.39-.129,3.214.517l-.023.036c-.075-.028-.154-.052-.233-.077l-.078.075c-2.08.13-4.222,1.479-6.024,2.456-1.76.957-3.719,1.3-5.525,2.153a13.777,13.777,0,0,0-5.285,4.34,9.475,9.475,0,0,0-1.841,4.472l.02.078c.238.246.474.492.7.749l.005.006a2.433,2.433,0,0,0,.733-.011c1.2-.2,2.093-1.044,3.214-1.431l.027.033a5.618,5.618,0,0,1-2.686,2.011c.271.032.551.04.829.054.177-.047.354-.091.536-.124,1.3-.233,2.37-.959,3.638-1.252l.066.112a8.179,8.179,0,0,1-2.344,1.355,13.381,13.381,0,0,1,3.187-.388c.062,0,.1.1.033.125-1.443.647-2.912,1.253-4.347,1.91a7.424,7.424,0,0,1-3.792.095,5.431,5.431,0,0,0,.94.911,6.751,6.751,0,0,1,.874.653l-.027.035c-.47-.246-1.012-.24-1.494-.506a4.365,4.365,0,0,1-1.113-.967l-.165-.182a9.224,9.224,0,0,1-2.661-.6,5.3,5.3,0,0,1-3-2.313c-.9-.03-1.9-.246-2.166-1.227l-.025-.132c-.068-.038-.131-.076-.187-.1a3.437,3.437,0,0,1-.757-.5l-.095-.018a.189.189,0,0,1-.046-.342,3.662,3.662,0,0,1,1.149-.4,1.153,1.153,0,0,1,1.161-.82,8.658,8.658,0,0,1,1.262.046q0-.218,0-.438c-.088-.679-.237-1.336-.4-2.044a21.952,21.952,0,0,0-2-3.065,9.042,9.042,0,0,1-1.191-3.437c-.384-1.467-1.834-2.66-2.09-4.11" transform="translate(-1081.911 -2146.005)"/></g><path class="b" d="M1176.138,2275.985s-4.428-6-8.768-8.51v19.288h-1.342v-19.1a17.322,17.322,0,0,0-6.031,8.353v.254l-.229-.6c.175-2.065.84-6.506,3.5-8.955,0,0-6.1-2.3-9.586,1.993.131-.385,2.574-6.818,9.3-6.025,0,0-2.966-7.023-8.354-6.469,0,0,6.074-1.91,9.706,3.288,0,0,1.418-5.977-1.352-9.471a11.128,11.128,0,0,1,3.85,7.766s1.69-5.929,5.91-7.045c0,0-2.65,2.953-2.551,8.774,0,0,5.267-3.253,9.792-1.523,0,0-5.977.744-8.287,5.089,0,0,5.845,1.224,8.616,8.2-.252-.276-4.592-5.089-10.186-4.262C1170.129,2267.029,1175.178,2270.355,1176.138,2275.985Z" transform="translate(-87.445 -2002.703)"/><path class="b" d="M1119.357,2304.128s-3.016-4.091-5.975-5.8v13.145h-.914V2298.46a11.8,11.8,0,0,0-4.11,5.692v.173l-.156-.41c.12-1.407.573-4.433,2.386-6.1,0,0-4.154-1.57-6.532,1.358.089-.261,1.753-4.647,6.339-4.106,0,0-2.021-4.786-5.693-4.408,0,0,4.14-1.3,6.614,2.241,0,0,.966-4.075-.921-6.454a7.581,7.581,0,0,1,2.623,5.292s1.152-4.04,4.028-4.8a9.057,9.057,0,0,0-1.739,5.979s3.59-2.217,6.674-1.039c0,0-4.073.507-5.65,3.467a8.91,8.91,0,0,1,5.872,5.588c-.17-.188-3.13-3.468-6.941-2.906A10.2,10.2,0,0,1,1119.357,2304.128Z" transform="translate(-78.728 -2009.099)"/><path class="b" d="M1409.825,2324.994s-3.609-4.892-7.146-6.936v15.719h-1.092v-15.561a14.108,14.108,0,0,0-4.914,6.805v.207l-.187-.49c.141-1.683.685-5.3,2.852-7.3,0,0-4.967-1.878-7.811,1.624.107-.312,2.1-5.555,7.581-4.909,0,0-2.417-5.723-6.807-5.272,0,0,4.95-1.556,7.909,2.68,0,0,1.155-4.87-1.1-7.718a9.067,9.067,0,0,1,3.136,6.328s1.377-4.83,4.816-5.741c0,0-2.16,2.406-2.079,7.149,0,0,4.292-2.649,7.979-1.24,0,0-4.869.606-6.753,4.146a10.655,10.655,0,0,1,7.02,6.68c-.2-.224-3.741-4.146-8.3-3.472C1404.928,2317.7,1409.042,2320.406,1409.825,2324.994Z" transform="translate(-129.224 -2012.156)"/><path class="b" d="M1447.548,2354.721s-3.348-3.817-6.632-5.414v12.272H1439.9v-12.149a11.473,11.473,0,0,0-4.562,5.314v.161l-.174-.381c.132-1.313.636-4.14,2.649-5.7,0,0-4.612-1.465-7.251,1.269a6.772,6.772,0,0,1,7.036-3.833s-2.243-4.468-6.318-4.115c0,0,4.595-1.214,7.342,2.091,0,0,1.072-3.8-1.023-6.024,0,0,2.814,1.877,2.912,4.939,0,0,1.278-3.772,4.471-4.481a7.664,7.664,0,0,0-1.931,5.582s3.985-2.07,7.408-.971c0,0-4.52.475-6.269,3.238a9.635,9.635,0,0,1,6.517,5.214c-.19-.176-3.473-3.237-7.7-2.711C1443,2349.024,1446.823,2351.14,1447.548,2354.721Z" transform="translate(-136.081 -2018.194)"/><path class="b" d="M351.531,2267.31l-.895.715v-54.762l.895-.716Z" transform="translate(53.616 -1996.119)"/><path class="b" d="M60.645,2199.466H72.413v-1.3H71.2s-.067-8.877-4.675-9.146c-4.519.223-4.452,9.1-4.452,9.1H60.645Z" transform="translate(104.556 -1991.987)"/><path class="b" d="M68.255,2188.5c0,.717-.331,1.3-.739,1.3s-.738-.58-.738-1.3.331-1.3.738-1.3S68.255,2187.781,68.255,2188.5Z" transform="translate(103.478 -1991.666)"/><ellipse class="b" cx="1.402" cy="1.521" rx="1.402" ry="1.521" transform="translate(1185.15 199.843)"/><g transform="translate(714.398 184.93)"><g transform="translate(0 0)"><path class="b" d="M733.761,2174.337H728.3a1.37,1.37,0,0,1-1.431,1.551c0,.2,0,.461,0,.461h6.89Z" transform="translate(-726.871 -2174.337)"/><path class="b" d="M733.761,2178.679H728.3a1.37,1.37,0,0,1-1.431,1.551c0,.2,0,.462,0,.462h6.89Z" transform="translate(-726.871 -2175.099)"/><path class="b" d="M733.761,2183.021H728.3a1.369,1.369,0,0,1-1.431,1.551c0,.206,0,.462,0,.462h6.89Z" transform="translate(-726.871 -2175.862)"/><path class="b" d="M733.761,2187.362H728.3a1.37,1.37,0,0,1-1.431,1.552c0,.2,0,.461,0,.461h6.89Z" transform="translate(-726.871 -2176.624)"/><path class="b" d="M733.761,2191.7H728.3a1.369,1.369,0,0,1-1.431,1.551c0,.205,0,.462,0,.462h6.89Z" transform="translate(-726.871 -2177.387)"/><path class="b" d="M733.761,2196.046H728.3a1.37,1.37,0,0,1-1.431,1.552c0,.2,0,.462,0,.462h6.89Z" transform="translate(-726.871 -2178.15)"/><path class="b" d="M733.761,2200.388H728.3a1.369,1.369,0,0,1-1.431,1.551c0,.205,0,.463,0,.463h6.89Z" transform="translate(-726.871 -2178.912)"/><path class="b" d="M733.761,2204.73H728.3a1.37,1.37,0,0,1-1.431,1.552c0,.2,0,.462,0,.462h6.89Z" transform="translate(-726.871 -2179.675)"/><path class="b" d="M733.761,2209.072H728.3a1.369,1.369,0,0,1-1.431,1.551c0,.2,0,.462,0,.462h6.89Z" transform="translate(-726.871 -2180.438)"/><path class="b" d="M733.761,2213.415H728.3a1.369,1.369,0,0,1-1.431,1.551c0,.206,0,.462,0,.462h6.89Z" transform="translate(-726.871 -2181.201)"/><path class="b" d="M733.761,2217.757H728.3a1.368,1.368,0,0,1-1.431,1.55c0,.206,0,.462,0,.462h6.89Z" transform="translate(-726.871 -2181.963)"/><path class="b" d="M733.761,2222.1H728.3a1.369,1.369,0,0,1-1.431,1.55c0,.205,0,.462,0,.462h6.89Z" transform="translate(-726.871 -2182.726)"/><path class="b" d="M733.761,2226.441H728.3a1.369,1.369,0,0,1-1.431,1.551c0,.2,0,.462,0,.462h6.89Z" transform="translate(-726.871 -2183.489)"/><path class="b" d="M733.761,2230.782H728.3a1.369,1.369,0,0,1-1.431,1.551c0,.206,0,.462,0,.462h6.89Z" transform="translate(-726.871 -2184.251)"/><path class="b" d="M733.761,2235.125H728.3a1.368,1.368,0,0,1-1.431,1.55c0,.206,0,.462,0,.462h6.89Z" transform="translate(-726.871 -2185.015)"/><path class="b" d="M733.761,2239.467H728.3a1.368,1.368,0,0,1-1.431,1.55c0,.206,0,.464,0,.464h6.89Z" transform="translate(-726.871 -2185.776)"/><path class="b" d="M733.761,2243.809H728.3a1.369,1.369,0,0,1-1.431,1.551c0,.2,0,.461,0,.461h6.89Z" transform="translate(-726.871 -2186.54)"/><path class="b" d="M733.761,2248.15H728.3a1.369,1.369,0,0,1-1.431,1.551c0,.206,0,.462,0,.462h6.89Z" transform="translate(-726.871 -2187.302)"/></g><g transform="translate(105.947 0.358)"><path class="b" d="M862.284,2174.771H856.9s.1,1.849-1.506,1.91c0,.205,0,.462,0,.462h6.89Z" transform="translate(-855.394 -2174.771)"/><path class="b" d="M862.284,2179.547h-5.459a1.368,1.368,0,0,1-1.431,1.55c0,.205,0,.463,0,.463h6.89Z" transform="translate(-855.394 -2175.609)"/><path class="b" d="M862.284,2183.889h-5.459a1.369,1.369,0,0,1-1.431,1.551c0,.2,0,.463,0,.463h6.89Z" transform="translate(-855.394 -2176.371)"/><path class="b" d="M862.284,2188.232h-5.459a1.369,1.369,0,0,1-1.431,1.551c0,.206,0,.462,0,.462h6.89Z" transform="translate(-855.394 -2177.136)"/><path class="b" d="M862.284,2192.573h-5.459a1.37,1.37,0,0,1-1.431,1.552c0,.2,0,.461,0,.461h6.89Z" transform="translate(-855.394 -2177.898)"/><path class="b" d="M862.284,2196.915h-5.459a1.369,1.369,0,0,1-1.431,1.551c0,.206,0,.463,0,.463h6.89Z" transform="translate(-855.394 -2178.661)"/><path class="b" d="M862.284,2201.257h-5.459a1.369,1.369,0,0,1-1.431,1.551c0,.2,0,.462,0,.462h6.89Z" transform="translate(-855.394 -2179.424)"/><path class="b" d="M862.284,2205.6h-5.459a1.37,1.37,0,0,1-1.431,1.552c0,.205,0,.462,0,.462h6.89Z" transform="translate(-855.394 -2180.186)"/><path class="b" d="M862.284,2209.941h-5.459a1.369,1.369,0,0,1-1.431,1.551c0,.205,0,.462,0,.462h6.89Z" transform="translate(-855.394 -2180.949)"/><path class="b" d="M862.284,2214.282h-5.459a1.369,1.369,0,0,1-1.431,1.552c0,.205,0,.462,0,.462h6.89Z" transform="translate(-855.394 -2181.711)"/><path class="b" d="M862.284,2218.625h-5.459a1.37,1.37,0,0,1-1.431,1.552c0,.2,0,.462,0,.462h6.89Z" transform="translate(-855.394 -2182.473)"/><path class="b" d="M862.284,2222.966h-5.459a1.37,1.37,0,0,1-1.431,1.552c0,.205,0,.463,0,.463h6.89Z" transform="translate(-855.394 -2183.237)"/><path class="b" d="M862.284,2227.308h-5.459a1.37,1.37,0,0,1-1.431,1.552c0,.2,0,.462,0,.462h6.89Z" transform="translate(-855.394 -2183.998)"/><path class="b" d="M862.284,2231.65h-5.459a1.369,1.369,0,0,1-1.431,1.551c0,.207,0,.463,0,.463h6.89Z" transform="translate(-855.394 -2184.761)"/><path class="b" d="M862.284,2235.992h-5.459a1.369,1.369,0,0,1-1.431,1.552c0,.2,0,.462,0,.462h6.89Z" transform="translate(-855.394 -2185.525)"/><path class="b" d="M862.284,2240.334h-5.459a1.369,1.369,0,0,1-1.431,1.551c0,.206,0,.462,0,.462h6.89Z" transform="translate(-855.394 -2186.287)"/><path class="b" d="M862.284,2244.675h-5.459a1.369,1.369,0,0,1-1.431,1.551c0,.207,0,.464,0,.464h6.89Z" transform="translate(-855.394 -2187.049)"/><path class="b" d="M862.284,2249.019h-5.459a1.368,1.368,0,0,1-1.431,1.55c0,.206,0,.463,0,.463h6.89Z" transform="translate(-855.394 -2187.814)"/></g><g transform="translate(77.312 0)"><path class="b" d="M820.657,2250.163h5.459a1.368,1.368,0,0,1,1.431-1.55c0-.206,0-.463,0-.463h-6.89Z" transform="translate(-820.657 -2187.302)"/><path class="b" d="M820.657,2245.821h5.459a1.369,1.369,0,0,1,1.431-1.551c0-.2,0-.461,0-.461h-6.89Z" transform="translate(-820.657 -2186.54)"/><path class="b" d="M820.657,2241.48h5.459a1.369,1.369,0,0,1,1.431-1.551c0-.206,0-.463,0-.463h-6.89Z" transform="translate(-820.657 -2185.776)"/><path class="b" d="M820.657,2237.137h5.459a1.369,1.369,0,0,1,1.431-1.551c0-.2,0-.462,0-.462h-6.89Z" transform="translate(-820.657 -2185.015)"/><path class="b" d="M820.657,2232.8h5.459a1.369,1.369,0,0,1,1.431-1.551c0-.206,0-.462,0-.462h-6.89Z" transform="translate(-820.657 -2184.251)"/><path class="b" d="M820.657,2228.454h5.459a1.369,1.369,0,0,1,1.431-1.551c0-.205,0-.463,0-.463h-6.89Z" transform="translate(-820.657 -2183.489)"/><path class="b" d="M820.657,2224.111h5.459a1.368,1.368,0,0,1,1.431-1.55c0-.206,0-.462,0-.462h-6.89Z" transform="translate(-820.657 -2182.726)"/><path class="b" d="M820.657,2219.769h5.459a1.37,1.37,0,0,1,1.431-1.551c0-.2,0-.461,0-.461h-6.89Z" transform="translate(-820.657 -2181.963)"/><path class="b" d="M820.657,2215.427h5.459a1.369,1.369,0,0,1,1.431-1.55c0-.205,0-.462,0-.462h-6.89Z" transform="translate(-820.657 -2181.201)"/><path class="b" d="M820.657,2211.085h5.459a1.369,1.369,0,0,1,1.431-1.551c0-.205,0-.462,0-.462h-6.89Z" transform="translate(-820.657 -2180.438)"/><path class="b" d="M820.657,2206.744h5.459a1.369,1.369,0,0,1,1.431-1.551c0-.206,0-.463,0-.463h-6.89Z" transform="translate(-820.657 -2179.675)"/><path class="b" d="M820.657,2202.4h5.459a1.369,1.369,0,0,1,1.431-1.551c0-.205,0-.462,0-.462h-6.89Z" transform="translate(-820.657 -2178.912)"/><path class="b" d="M820.657,2198.06h5.459a1.369,1.369,0,0,1,1.431-1.551c0-.2,0-.463,0-.463h-6.89Z" transform="translate(-820.657 -2178.15)"/><path class="b" d="M820.657,2193.718h5.459a1.37,1.37,0,0,1,1.431-1.552c0-.2,0-.461,0-.461h-6.89Z" transform="translate(-820.657 -2177.387)"/><path class="b" d="M820.657,2189.375h5.459a1.369,1.369,0,0,1,1.431-1.551c0-.2,0-.462,0-.462h-6.89Z" transform="translate(-820.657 -2176.624)"/><path class="b" d="M820.657,2185.034h5.459a1.369,1.369,0,0,1,1.431-1.551c0-.2,0-.462,0-.462h-6.89Z" transform="translate(-820.657 -2175.862)"/><path class="b" d="M820.657,2180.692h5.459a1.369,1.369,0,0,1,1.431-1.551c0-.205,0-.462,0-.462h-6.89Z" transform="translate(-820.657 -2175.099)"/><path class="b" d="M820.657,2176.349h5.459a1.368,1.368,0,0,1,1.431-1.55c0-.206,0-.463,0-.463h-6.89Z" transform="translate(-820.657 -2174.337)"/></g><g transform="translate(76.954 65.009)"><path class="b" d="M820.223,2329.025h5.459a1.369,1.369,0,0,1,1.431-1.551c0-.2,0-.462,0-.462h-6.89Z" transform="translate(-820.223 -2266.165)"/><path class="b" d="M820.223,2324.684h5.459a1.369,1.369,0,0,1,1.431-1.552c0-.2,0-.462,0-.462h-6.89Z" transform="translate(-820.223 -2265.402)"/><path class="b" d="M820.223,2320.341h5.459a1.369,1.369,0,0,1,1.431-1.551c0-.2,0-.462,0-.462h-6.89Z" transform="translate(-820.223 -2264.639)"/><path class="b" d="M820.223,2316h5.459a1.369,1.369,0,0,1,1.431-1.551c0-.205,0-.462,0-.462h-6.89Z" transform="translate(-820.223 -2263.877)"/><path class="b" d="M820.223,2311.657h5.459a1.368,1.368,0,0,1,1.431-1.55c0-.205,0-.463,0-.463h-6.89Z" transform="translate(-820.223 -2263.114)"/><path class="b" d="M820.223,2307.316h5.459a1.369,1.369,0,0,1,1.431-1.551c0-.205,0-.462,0-.462h-6.89Z" transform="translate(-820.223 -2262.351)"/><path class="b" d="M820.223,2302.973h5.459a1.369,1.369,0,0,1,1.431-1.551c0-.205,0-.462,0-.462h-6.89Z" transform="translate(-820.223 -2261.588)"/><path class="b" d="M820.223,2298.632h5.459a1.368,1.368,0,0,1,1.431-1.55c0-.206,0-.463,0-.463h-6.89Z" transform="translate(-820.223 -2260.824)"/><path class="b" d="M820.223,2294.289h5.459a1.369,1.369,0,0,1,1.431-1.551c0-.2,0-.462,0-.462h-6.89Z" transform="translate(-820.223 -2260.063)"/><path class="b" d="M820.223,2289.947h5.459a1.368,1.368,0,0,1,1.431-1.55c0-.206,0-.463,0-.463h-6.89Z" transform="translate(-820.223 -2259.3)"/><path class="b" d="M820.223,2285.606h5.459a1.369,1.369,0,0,1,1.431-1.551c0-.205,0-.462,0-.462h-6.89Z" transform="translate(-820.223 -2258.537)"/><path class="b" d="M820.223,2281.263h5.459a1.368,1.368,0,0,1,1.431-1.55c0-.205,0-.462,0-.462h-6.89Z" transform="translate(-820.223 -2257.774)"/><path class="b" d="M820.223,2276.922h5.459a1.369,1.369,0,0,1,1.431-1.551c0-.2,0-.462,0-.462h-6.89Z" transform="translate(-820.223 -2257.013)"/><path class="b" d="M820.223,2272.579h5.459a1.368,1.368,0,0,1,1.431-1.55c0-.206,0-.463,0-.463h-6.89Z" transform="translate(-820.223 -2256.249)"/><path class="b" d="M820.223,2268.238h5.459a1.369,1.369,0,0,1,1.431-1.551c0-.2,0-.462,0-.462h-6.89Z" transform="translate(-820.223 -2255.486)"/><path class="b" d="M820.223,2263.9h5.459a1.369,1.369,0,0,1,1.431-1.551c0-.205,0-.462,0-.462h-6.89Z" transform="translate(-820.223 -2254.724)"/><path class="b" d="M820.223,2259.554h5.459a1.369,1.369,0,0,1,1.431-1.551c0-.2,0-.462,0-.462h-6.89Z" transform="translate(-820.223 -2253.961)"/><path class="b" d="M820.223,2255.211h5.459a1.368,1.368,0,0,1,1.431-1.55c0-.206,0-.462,0-.462h-6.89Z" transform="translate(-820.223 -2253.199)"/></g><g transform="translate(183.17 0.112)"><path class="b" d="M949.072,2250.3h5.458a1.368,1.368,0,0,1,1.431-1.55c0-.206,0-.464,0-.464h-6.889Z" transform="translate(-949.072 -2187.439)"/><path class="b" d="M949.072,2245.958h5.458a1.37,1.37,0,0,1,1.431-1.551c0-.2,0-.463,0-.463h-6.889Z" transform="translate(-949.072 -2186.675)"/><path class="b" d="M949.072,2241.615h5.458a1.369,1.369,0,0,1,1.431-1.55c0-.206,0-.463,0-.463h-6.889Z" transform="translate(-949.072 -2185.912)"/><path class="b" d="M949.072,2237.273h5.458a1.369,1.369,0,0,1,1.431-1.55c0-.2,0-.462,0-.462h-6.889Z" transform="translate(-949.072 -2185.151)"/><path class="b" d="M949.072,2232.931h5.458a1.37,1.37,0,0,1,1.431-1.551c0-.2,0-.462,0-.462h-6.889Z" transform="translate(-949.072 -2184.387)"/><path class="b" d="M949.072,2228.59h5.458a1.37,1.37,0,0,1,1.431-1.551c0-.2,0-.462,0-.462h-6.889Z" transform="translate(-949.072 -2183.625)"/><path class="b" d="M949.072,2224.247h5.458a1.369,1.369,0,0,1,1.431-1.55c0-.205,0-.462,0-.462h-6.889Z" transform="translate(-949.072 -2182.862)"/><path class="b" d="M949.072,2219.906h5.458a1.369,1.369,0,0,1,1.431-1.55c0-.206,0-.462,0-.462h-6.889Z" transform="translate(-949.072 -2182.099)"/><path class="b" d="M949.072,2215.563h5.458a1.369,1.369,0,0,1,1.431-1.55c0-.206,0-.462,0-.462h-6.889Z" transform="translate(-949.072 -2181.337)"/><path class="b" d="M949.072,2211.221h5.458a1.368,1.368,0,0,1,1.431-1.549c0-.206,0-.463,0-.463h-6.889Z" transform="translate(-949.072 -2180.575)"/><path class="b" d="M949.072,2206.879h5.458a1.369,1.369,0,0,1,1.431-1.551c0-.206,0-.462,0-.462h-6.889Z" transform="translate(-949.072 -2179.812)"/><path class="b" d="M949.072,2202.538h5.458a1.37,1.37,0,0,1,1.431-1.551c0-.2,0-.462,0-.462h-6.889Z" transform="translate(-949.072 -2179.048)"/><path class="b" d="M949.072,2198.195h5.458a1.369,1.369,0,0,1,1.431-1.55c0-.206,0-.462,0-.462h-6.889Z" transform="translate(-949.072 -2178.286)"/><path class="b" d="M949.072,2193.854h5.458a1.369,1.369,0,0,1,1.431-1.55c0-.205,0-.463,0-.463h-6.889Z" transform="translate(-949.072 -2177.523)"/><path class="b" d="M949.072,2189.511h5.458a1.369,1.369,0,0,1,1.431-1.55c0-.206,0-.463,0-.463h-6.889Z" transform="translate(-949.072 -2176.76)"/><path class="b" d="M949.072,2185.169h5.458a1.37,1.37,0,0,1,1.431-1.551c0-.2,0-.462,0-.462h-6.889Z" transform="translate(-949.072 -2175.998)"/><path class="b" d="M949.072,2180.828h5.458a1.37,1.37,0,0,1,1.431-1.552c0-.205,0-.462,0-.462h-6.889Z" transform="translate(-949.072 -2175.234)"/><path class="b" d="M949.072,2176.485h5.458a1.369,1.369,0,0,1,1.431-1.551c0-.205,0-.462,0-.462h-6.889Z" transform="translate(-949.072 -2174.472)"/></g><g transform="translate(182.812 65.121)"><path class="b" d="M948.638,2329.161H954.1a1.369,1.369,0,0,1,1.431-1.551c0-.205,0-.464,0-.464h-6.889Z" transform="translate(-948.638 -2266.3)"/><path class="b" d="M948.638,2324.82H954.1a1.369,1.369,0,0,1,1.431-1.552c0-.205,0-.463,0-.463h-6.889Z" transform="translate(-948.638 -2265.536)"/><path class="b" d="M948.638,2320.477H954.1a1.369,1.369,0,0,1,1.431-1.551c0-.206,0-.463,0-.463h-6.889Z" transform="translate(-948.638 -2264.774)"/><path class="b" d="M948.638,2316.136H954.1a1.369,1.369,0,0,1,1.431-1.551c0-.205,0-.462,0-.462h-6.889Z" transform="translate(-948.638 -2264.012)"/><path class="b" d="M948.638,2311.793H954.1a1.369,1.369,0,0,1,1.431-1.551c0-.206,0-.463,0-.463h-6.889Z" transform="translate(-948.638 -2263.248)"/><path class="b" d="M948.638,2307.451H954.1a1.369,1.369,0,0,1,1.431-1.551c0-.206,0-.463,0-.463h-6.889Z" transform="translate(-948.638 -2262.485)"/><path class="b" d="M948.638,2303.109H954.1a1.369,1.369,0,0,1,1.431-1.551c0-.206,0-.462,0-.462h-6.889Z" transform="translate(-948.638 -2261.724)"/><path class="b" d="M948.638,2298.767H954.1a1.369,1.369,0,0,1,1.431-1.551c0-.206,0-.463,0-.463h-6.889Z" transform="translate(-948.638 -2260.96)"/><path class="b" d="M948.638,2294.425H954.1a1.369,1.369,0,0,1,1.431-1.551c0-.206,0-.463,0-.463h-6.889Z" transform="translate(-948.638 -2260.198)"/><path class="b" d="M948.638,2290.083H954.1a1.369,1.369,0,0,1,1.431-1.551c0-.206,0-.463,0-.463h-6.889Z" transform="translate(-948.638 -2259.435)"/><path class="b" d="M948.638,2285.74H954.1a1.368,1.368,0,0,1,1.431-1.55c0-.206,0-.463,0-.463h-6.889Z" transform="translate(-948.638 -2258.672)"/><path class="b" d="M948.638,2281.4H954.1a1.369,1.369,0,0,1,1.431-1.551c0-.207,0-.464,0-.464h-6.889Z" transform="translate(-948.638 -2257.909)"/><path class="b" d="M948.638,2277.057H954.1a1.369,1.369,0,0,1,1.431-1.551c0-.205,0-.462,0-.462h-6.889Z" transform="translate(-948.638 -2257.148)"/><path class="b" d="M948.638,2272.716H954.1a1.369,1.369,0,0,1,1.431-1.551c0-.206,0-.463,0-.463h-6.889Z" transform="translate(-948.638 -2256.384)"/><path class="b" d="M948.638,2268.373H954.1a1.369,1.369,0,0,1,1.431-1.551c0-.205,0-.462,0-.462h-6.889Z" transform="translate(-948.638 -2255.622)"/><path class="b" d="M948.638,2264.032H954.1a1.369,1.369,0,0,1,1.431-1.551c0-.206,0-.463,0-.463h-6.889Z" transform="translate(-948.638 -2254.859)"/><path class="b" d="M948.638,2259.69H954.1a1.369,1.369,0,0,1,1.431-1.551c0-.2,0-.462,0-.462h-6.889Z" transform="translate(-948.638 -2254.097)"/><path class="b" d="M948.638,2255.347H954.1a1.369,1.369,0,0,1,1.431-1.551c0-.206,0-.463,0-.463h-6.889Z" transform="translate(-948.638 -2253.333)"/></g><g transform="translate(182.812 129.772)"><path class="b" d="M948.638,2407.589H954.1a1.369,1.369,0,0,1,1.431-1.551c0-.206,0-.462,0-.462h-6.889Z" transform="translate(-948.638 -2344.728)"/><path class="b" d="M948.638,2403.247H954.1a1.368,1.368,0,0,1,1.431-1.551c0-.206,0-.463,0-.463h-6.889Z" transform="translate(-948.638 -2343.964)"/><path class="b" d="M948.638,2398.905H954.1a1.37,1.37,0,0,1,1.431-1.552c0-.2,0-.461,0-.461h-6.889Z" transform="translate(-948.638 -2343.202)"/><path class="b" d="M948.638,2394.562H954.1a1.369,1.369,0,0,1,1.431-1.551c0-.205,0-.463,0-.463h-6.889Z" transform="translate(-948.638 -2342.439)"/><path class="b" d="M948.638,2390.221H954.1a1.369,1.369,0,0,1,1.431-1.551c0-.205,0-.462,0-.462h-6.889Z" transform="translate(-948.638 -2341.677)"/><path class="b" d="M948.638,2385.878H954.1a1.369,1.369,0,0,1,1.431-1.551c0-.206,0-.463,0-.463h-6.889Z" transform="translate(-948.638 -2340.913)"/><path class="b" d="M948.638,2381.537H954.1a1.369,1.369,0,0,1,1.431-1.551c0-.205,0-.462,0-.462h-6.889Z" transform="translate(-948.638 -2340.151)"/><path class="b" d="M948.638,2377.194H954.1a1.368,1.368,0,0,1,1.431-1.55c0-.205,0-.463,0-.463h-6.889Z" transform="translate(-948.638 -2339.387)"/><path class="b" d="M948.638,2372.853H954.1a1.369,1.369,0,0,1,1.431-1.551c0-.2,0-.462,0-.462h-6.889Z" transform="translate(-948.638 -2338.626)"/><path class="b" d="M948.638,2368.511H954.1a1.369,1.369,0,0,1,1.431-1.551c0-.2,0-.463,0-.463h-6.889Z" transform="translate(-948.638 -2337.863)"/><path class="b" d="M948.638,2364.169H954.1a1.369,1.369,0,0,1,1.431-1.551c0-.205,0-.462,0-.462h-6.889Z" transform="translate(-948.638 -2337.1)"/><path class="b" d="M948.638,2359.826H954.1a1.368,1.368,0,0,1,1.431-1.55c0-.205,0-.463,0-.463h-6.889Z" transform="translate(-948.638 -2336.337)"/><path class="b" d="M948.638,2355.485H954.1a1.37,1.37,0,0,1,1.431-1.552c0-.2,0-.462,0-.462h-6.889Z" transform="translate(-948.638 -2335.576)"/><path class="b" d="M948.638,2351.142H954.1a1.368,1.368,0,0,1,1.431-1.55c0-.205,0-.462,0-.462h-6.889Z" transform="translate(-948.638 -2334.812)"/><path class="b" d="M948.638,2346.8H954.1a1.368,1.368,0,0,1,1.431-1.55c0-.205,0-.462,0-.462h-6.889Z" transform="translate(-948.638 -2334.05)"/><path class="b" d="M948.638,2342.458H954.1a1.368,1.368,0,0,1,1.431-1.55c0-.206,0-.463,0-.463h-6.889Z" transform="translate(-948.638 -2333.287)"/><path class="b" d="M948.638,2338.116H954.1a1.369,1.369,0,0,1,1.431-1.55c0-.205,0-.462,0-.462h-6.889Z" transform="translate(-948.638 -2332.524)"/><path class="b" d="M948.638,2333.774H954.1a1.368,1.368,0,0,1,1.431-1.55c0-.205,0-.462,0-.462h-6.889Z" transform="translate(-948.638 -2331.762)"/></g></g><path class="b" d="M1224.053,2273.014h-6.682l2.028-29.35h2.147Z" transform="translate(-98.633 -2001.585)"/><ellipse class="b" cx="2.983" cy="3.281" rx="2.983" ry="3.281" transform="translate(1119.096 246.524)"/><g transform="translate(784.822 138.041)"><path class="b" d="M812.3,2171.573h5.459a1.368,1.368,0,0,1,1.43-1.55c0-.205,0-.462,0-.462H812.3Z" transform="translate(-812.3 -2126.609)"/><path class="b" d="M812.3,2167.232h5.459a1.368,1.368,0,0,1,1.43-1.55c0-.205,0-.463,0-.463H812.3Z" transform="translate(-812.3 -2125.846)"/><path class="b" d="M812.3,2162.89h5.459a1.369,1.369,0,0,1,1.43-1.551c0-.205,0-.463,0-.463H812.3Z" transform="translate(-812.3 -2125.083)"/><path class="b" d="M812.3,2158.548h5.459a1.368,1.368,0,0,1,1.43-1.551c0-.205,0-.463,0-.463H812.3Z" transform="translate(-812.3 -2124.321)"/><path class="b" d="M812.3,2154.206h5.459a1.368,1.368,0,0,1,1.43-1.551c0-.205,0-.463,0-.463H812.3Z" transform="translate(-812.3 -2123.558)"/><path class="b" d="M812.3,2149.864h5.459a1.368,1.368,0,0,1,1.43-1.55c0-.2,0-.463,0-.463H812.3Z" transform="translate(-812.3 -2122.795)"/><path class="b" d="M812.3,2145.522h5.459a1.369,1.369,0,0,1,1.43-1.551c0-.2,0-.462,0-.462H812.3Z" transform="translate(-812.3 -2122.032)"/><path class="b" d="M812.3,2141.179h5.459a1.368,1.368,0,0,1,1.43-1.55c0-.2,0-.462,0-.462H812.3Z" transform="translate(-812.3 -2121.27)"/><path class="b" d="M812.3,2136.838h5.459a1.369,1.369,0,0,1,1.43-1.551c0-.205,0-.463,0-.463H812.3Z" transform="translate(-812.3 -2120.507)"/><path class="b" d="M812.3,2132.5h5.459a1.369,1.369,0,0,1,1.43-1.552c0-.205,0-.463,0-.463H812.3Z" transform="translate(-812.3 -2119.745)"/><path class="b" d="M812.3,2128.153h5.459a1.369,1.369,0,0,1,1.43-1.551c0-.2,0-.463,0-.463H812.3Z" transform="translate(-812.3 -2118.981)"/><path class="b" d="M812.3,2123.812h5.459a1.369,1.369,0,0,1,1.43-1.551c0-.206,0-.463,0-.463H812.3Z" transform="translate(-812.3 -2118.218)"/><path class="b" d="M812.3,2119.469h5.459a1.368,1.368,0,0,1,1.43-1.55c0-.205,0-.463,0-.463H812.3Z" transform="translate(-812.3 -2117.457)"/></g><g transform="translate(716.677 135.411)"><path class="b" d="M736.5,2114.267l-5.458.095a1.37,1.37,0,0,1-1.4,1.576c0,.2.008.461.008.461l6.888-.12Z" transform="translate(-729.634 -2114.267)"/><path class="b" d="M736.571,2118.608l-5.457.095a1.37,1.37,0,0,1-1.4,1.576c0,.206.008.461.008.461l6.888-.119Z" transform="translate(-729.647 -2115.029)"/><path class="b" d="M736.648,2122.95l-5.458.1a1.369,1.369,0,0,1-1.4,1.575c0,.2.008.463.008.463l6.889-.121Z" transform="translate(-729.661 -2115.792)"/><path class="b" d="M736.723,2127.29l-5.458.1a1.369,1.369,0,0,1-1.4,1.576c0,.2.009.462.009.462l6.888-.12Z" transform="translate(-729.674 -2116.554)"/><path class="b" d="M736.8,2131.632l-5.457.094a1.37,1.37,0,0,1-1.4,1.576c0,.205.007.463.007.463l6.889-.12Z" transform="translate(-729.687 -2117.317)"/><path class="b" d="M736.875,2135.973l-5.458.1a1.368,1.368,0,0,1-1.4,1.574c0,.205.008.463.008.463l6.888-.12Z" transform="translate(-729.701 -2118.08)"/><path class="b" d="M736.95,2140.314l-5.457.1a1.369,1.369,0,0,1-1.4,1.575c0,.206.008.462.008.462l6.888-.119Z" transform="translate(-729.714 -2118.842)"/><path class="b" d="M737.026,2144.656l-5.457.095a1.37,1.37,0,0,1-1.4,1.576c0,.206.007.462.007.462l6.889-.12Z" transform="translate(-729.727 -2119.605)"/><path class="b" d="M737.1,2149l-5.458.095a1.369,1.369,0,0,1-1.4,1.576c0,.2.008.463.008.463l6.887-.121Z" transform="translate(-729.741 -2120.368)"/><path class="b" d="M737.178,2153.338l-5.458.1a1.368,1.368,0,0,1-1.4,1.575c0,.205.009.464.009.464l6.888-.121Z" transform="translate(-729.754 -2121.129)"/><path class="b" d="M737.254,2157.68l-5.458.1a1.37,1.37,0,0,1-1.4,1.576c0,.2.008.463.008.463l6.888-.12Z" transform="translate(-729.767 -2121.893)"/><path class="b" d="M737.329,2162.021l-5.457.1a1.37,1.37,0,0,1-1.4,1.576c0,.205.009.463.009.463l6.888-.122Z" transform="translate(-729.78 -2122.655)"/><path class="b" d="M737.405,2166.362l-5.458.1a1.367,1.367,0,0,1-1.4,1.574c0,.206.008.463.008.463l6.889-.12Z" transform="translate(-729.794 -2123.418)"/></g><g transform="translate(1238.812 179.828)"><path class="b" d="M1363.066,2168.148c.115.228.479.436.623.662.276.435.562.856.817,1.3.125.223.286.764.5.925a9.848,9.848,0,0,1,.862.55,6.449,6.449,0,0,1,1.53,2.409,4.684,4.684,0,0,1,.257.927,6.585,6.585,0,0,1,.945-1.91,7.392,7.392,0,0,1,2.433-2.825,7.794,7.794,0,0,1,4.059-.871c.792.053,1.591-.017,2.387.007a2.95,2.95,0,0,1,1.656.267l-.011.019c-.039-.015-.08-.026-.12-.04l-.041.04a8.247,8.247,0,0,0-3.106,1.264c-.907.494-1.917.672-2.848,1.11a7.119,7.119,0,0,0-2.725,2.237,4.893,4.893,0,0,0-.949,2.307l.01.04c.122.127.244.254.359.385l0,0a1.185,1.185,0,0,0,.377-.005,10.507,10.507,0,0,0,1.657-.738l.014.018a2.906,2.906,0,0,1-1.385,1.035c.139.017.285.02.428.028.091-.023.182-.046.276-.064.67-.119,1.222-.493,1.876-.645l.033.057a4.206,4.206,0,0,1-1.208.7,6.85,6.85,0,0,1,1.643-.2c.031,0,.05.049.017.064-.744.334-1.5.646-2.241.985a3.839,3.839,0,0,1-1.955.049,2.805,2.805,0,0,0,.484.47,3.34,3.34,0,0,1,.45.336l-.013.018c-.242-.126-.522-.124-.771-.261a2.245,2.245,0,0,1-.573-.5l-.084-.094a4.739,4.739,0,0,1-1.373-.308,2.745,2.745,0,0,1-1.546-1.192c-.463-.015-.981-.126-1.117-.632l-.012-.068-.1-.053a1.817,1.817,0,0,1-.39-.257l-.048-.008a.1.1,0,0,1-.024-.177,1.932,1.932,0,0,1,.593-.207.6.6,0,0,1,.6-.423,4.513,4.513,0,0,1,.65.024c0-.076,0-.15,0-.225a10.618,10.618,0,0,0-.206-1.053,11.447,11.447,0,0,0-1.032-1.583,4.66,4.66,0,0,1-.615-1.771c-.2-.756-.945-1.371-1.078-2.119" transform="translate(-1363.03 -2168.148)"/></g><g transform="translate(893.228 136.914)"><path class="b" d="M943.807,2170.206h5.459a1.368,1.368,0,0,1,1.431-1.55c0-.205,0-.463,0-.463h-6.89Z" transform="translate(-943.807 -2125.242)"/><path class="b" d="M943.807,2165.865h5.459a1.37,1.37,0,0,1,1.431-1.552c0-.2,0-.462,0-.462h-6.89Z" transform="translate(-943.807 -2124.479)"/><path class="b" d="M943.807,2161.522h5.459a1.369,1.369,0,0,1,1.431-1.551c0-.2,0-.462,0-.462h-6.89Z" transform="translate(-943.807 -2123.717)"/><path class="b" d="M943.807,2157.18h5.459a1.37,1.37,0,0,1,1.431-1.552c0-.2,0-.462,0-.462h-6.89Z" transform="translate(-943.807 -2122.953)"/><path class="b" d="M943.807,2152.839h5.459a1.369,1.369,0,0,1,1.431-1.552c0-.205,0-.463,0-.463h-6.89Z" transform="translate(-943.807 -2122.192)"/><path class="b" d="M943.807,2148.5h5.459a1.369,1.369,0,0,1,1.431-1.551c0-.205,0-.462,0-.462h-6.89Z" transform="translate(-943.807 -2121.429)"/><path class="b" d="M943.807,2144.155h5.459a1.369,1.369,0,0,1,1.431-1.552c0-.205,0-.462,0-.462h-6.89Z" transform="translate(-943.807 -2120.666)"/><path class="b" d="M943.807,2139.812h5.459a1.369,1.369,0,0,1,1.431-1.552c0-.2,0-.462,0-.462h-6.89Z" transform="translate(-943.807 -2119.903)"/><path class="b" d="M943.807,2135.47h5.459a1.369,1.369,0,0,1,1.431-1.552c0-.2,0-.463,0-.463h-6.89Z" transform="translate(-943.807 -2119.14)"/><path class="b" d="M943.807,2131.129h5.459a1.37,1.37,0,0,1,1.431-1.552c0-.2,0-.461,0-.461h-6.89Z" transform="translate(-943.807 -2118.378)"/><path class="b" d="M943.807,2126.787h5.459a1.369,1.369,0,0,1,1.431-1.551c0-.205,0-.462,0-.462h-6.89Z" transform="translate(-943.807 -2117.615)"/><path class="b" d="M943.807,2122.445h5.459a1.37,1.37,0,0,1,1.431-1.552c0-.2,0-.461,0-.461h-6.89Z" transform="translate(-943.807 -2116.852)"/><path class="b" d="M943.807,2118.1h5.459a1.368,1.368,0,0,1,1.431-1.551c0-.206,0-.463,0-.463h-6.89Z" transform="translate(-943.807 -2116.089)"/></g><g transform="translate(823.787 137.864)"><path class="b" d="M866.43,2117.241l-5.458.094a1.368,1.368,0,0,1-1.4,1.575c0,.207.008.465.008.465l6.888-.121Z" transform="translate(-859.568 -2117.241)"/><path class="b" d="M866.505,2121.583l-5.457.1a1.368,1.368,0,0,1-1.4,1.575c0,.205.007.463.007.463l6.889-.121Z" transform="translate(-859.582 -2118.004)"/><path class="b" d="M866.582,2125.925l-5.458.095a1.37,1.37,0,0,1-1.4,1.576c0,.2.007.463.007.463l6.889-.12Z" transform="translate(-859.595 -2118.767)"/><path class="b" d="M866.657,2130.265l-5.457.1a1.369,1.369,0,0,1-1.4,1.575c0,.205.008.462.008.462l6.888-.12Z" transform="translate(-859.608 -2119.529)"/><path class="b" d="M866.734,2134.606l-5.457.1a1.369,1.369,0,0,1-1.4,1.574c0,.2.008.463.008.463l6.889-.121Z" transform="translate(-859.622 -2120.292)"/><path class="b" d="M866.809,2138.948l-5.458.1a1.368,1.368,0,0,1-1.4,1.575c0,.2.009.462.009.462l6.887-.12Z" transform="translate(-859.634 -2121.055)"/><path class="b" d="M866.884,2143.289l-5.457.1a1.37,1.37,0,0,1-1.4,1.576c0,.205.008.462.008.462l6.888-.12Z" transform="translate(-859.648 -2121.816)"/><path class="b" d="M866.96,2147.63l-5.457.1a1.368,1.368,0,0,1-1.4,1.574c0,.206.008.463.008.463l6.888-.121Z" transform="translate(-859.661 -2122.579)"/><path class="b" d="M867.036,2151.972l-5.457.1a1.37,1.37,0,0,1-1.4,1.577c0,.2.008.461.008.461l6.888-.12Z" transform="translate(-859.675 -2123.342)"/><path class="b" d="M867.112,2156.313l-5.458.095a1.369,1.369,0,0,1-1.4,1.576c0,.2.008.462.008.462l6.888-.121Z" transform="translate(-859.688 -2124.105)"/><path class="b" d="M867.188,2160.655l-5.458.1a1.368,1.368,0,0,1-1.4,1.575c0,.2.007.462.007.462l6.889-.12Z" transform="translate(-859.702 -2124.867)"/><path class="b" d="M867.264,2165l-5.458.095a1.37,1.37,0,0,1-1.4,1.576c0,.2.008.462.008.462l6.888-.12Z" transform="translate(-859.715 -2125.63)"/><path class="b" d="M867.339,2169.337l-5.458.1a1.369,1.369,0,0,1-1.4,1.576c0,.206.009.462.009.462l6.888-.12Z" transform="translate(-859.728 -2126.393)"/></g><path class="b" d="M1301.334,2201.366l9.739-32.095.864.6-9.968,31.723Z" transform="translate(-113.381 -1988.517)"/><path class="b" d="M1309.27,2177.027c-1.737-2.008-6.272-2.377-6.272-2.377s.813-3.082-.215-5.042c4.206-.581,8.4,2.268,8.4,2.268Z" transform="translate(-113.635 -1988.562)"/><path class="b" d="M1174.344,2182.473c0-.051.015-.1.015-.149a2.869,2.869,0,0,0-4.925-2,5.493,5.493,0,0,0-10.131-1.2,3.632,3.632,0,0,0-.85-.112,3.541,3.541,0,0,0-1.76.481,5.692,5.692,0,0,0-10.9.545,2.439,2.439,0,0,1-3.071,2.187,4.584,4.584,0,0,0-1.888.412,5.7,5.7,0,0,0-11.031,1.992,5.755,5.755,0,0,0,.094,1.011,4.611,4.611,0,0,0,.792,9.154l.033,0v0h11.709a4,4,0,0,0,1.619.36v0h14.823v-.023a3.551,3.551,0,0,0,3.28-3.019h11.236a4.869,4.869,0,0,0,.958-9.644Z" transform="translate(-82.595 -1989.644)"/><path class="b" d="M424.094,2087.777c0-.049.015-.1.015-.145a2.833,2.833,0,0,0-2.872-2.792,2.908,2.908,0,0,0-2.054.844,5.55,5.55,0,0,0-10.13-1.163,3.745,3.745,0,0,0-.85-.11,3.619,3.619,0,0,0-1.76.469,5.739,5.739,0,0,0-10.9.53,4.556,4.556,0,0,0-2.282,2.2,4.817,4.817,0,0,0-.789-.077,4.7,4.7,0,0,0-1.888.4,5.69,5.69,0,0,0-5.333-3.6,5.62,5.62,0,0,0-5.7,5.54,5.412,5.412,0,0,0,.094.981,4.475,4.475,0,0,0,.791,8.9l.032,0v0h11.71a4.088,4.088,0,0,0,1.619.35v0h14.823v-.023a3.511,3.511,0,0,0,3.28-2.933h11.236a4.723,4.723,0,0,0,.958-9.375Z" transform="translate(49.193 -1973.043)"/><g transform="translate(543.632 82.66)"><path class="b" d="M519.785,2050.275c.223.443.93.846,1.209,1.284.535.843,1.089,1.661,1.583,2.53.244.433.557,1.482.962,1.792a18.894,18.894,0,0,1,1.672,1.069,12.458,12.458,0,0,1,2.968,4.672,9.049,9.049,0,0,1,.5,1.8,12.741,12.741,0,0,1,1.835-3.706c1.322-2.129,2.481-4.176,4.72-5.478a15.105,15.105,0,0,1,7.872-1.69c1.537.1,3.084-.032,4.628.015.976.03,2.39-.129,3.214.518l-.022.036c-.076-.029-.155-.052-.234-.077l-.078.075c-2.081.129-4.223,1.478-6.025,2.456-1.76.957-3.719,1.3-5.524,2.153a13.765,13.765,0,0,0-5.285,4.34,9.475,9.475,0,0,0-1.842,4.472l.02.078c.238.244.474.492.7.749l.006.005a2.34,2.34,0,0,0,.733-.011c1.2-.2,2.093-1.044,3.214-1.429l.026.033a5.632,5.632,0,0,1-2.686,2.009c.271.032.551.04.829.054.175-.047.353-.091.535-.123,1.3-.233,2.37-.959,3.639-1.252l.065.111a8.179,8.179,0,0,1-2.343,1.355,13.352,13.352,0,0,1,3.186-.388c.062,0,.1.095.034.125-1.444.648-2.913,1.252-4.347,1.91a7.424,7.424,0,0,1-3.792.1,5.43,5.43,0,0,0,.94.911,6.7,6.7,0,0,1,.874.653l-.027.036c-.469-.246-1.012-.239-1.493-.507a4.321,4.321,0,0,1-1.113-.967l-.165-.182a9.152,9.152,0,0,1-2.663-.6,5.3,5.3,0,0,1-3-2.311c-.9-.031-1.9-.247-2.166-1.227l-.025-.131c-.068-.039-.13-.076-.188-.1a3.421,3.421,0,0,1-.756-.5l-.1-.016a.19.19,0,0,1-.046-.343,3.663,3.663,0,0,1,1.15-.4,1.153,1.153,0,0,1,1.16-.821,8.808,8.808,0,0,1,1.263.046c0-.145,0-.29,0-.437-.088-.679-.238-1.337-.4-2.043a22.068,22.068,0,0,0-2-3.066,9.04,9.04,0,0,1-1.191-3.437c-.384-1.467-1.834-2.66-2.091-4.109" transform="translate(-519.716 -2050.275)"/></g><path class="b" d="M-58.158,2161.335c0-.052.015-.1.015-.157a3.007,3.007,0,0,0-3.007-3.007,3,3,0,0,0-2.152.909,5.753,5.753,0,0,0-5.552-4.259,5.756,5.756,0,0,0-5.058,3.006,3.769,3.769,0,0,0-.889-.118,3.7,3.7,0,0,0-1.844.5,5.964,5.964,0,0,0-5.623-3.986,5.967,5.967,0,0,0-5.793,4.555,4.848,4.848,0,0,0-2.389,2.375,4.824,4.824,0,0,0-.827-.084,4.8,4.8,0,0,0-1.977.432,5.964,5.964,0,0,0-5.585-3.88,5.967,5.967,0,0,0-5.968,5.968,5.95,5.95,0,0,0,.1,1.056,4.828,4.828,0,0,0-4.007,4.753,4.835,4.835,0,0,0,4.836,4.836l.034,0v0h12.263a4.176,4.176,0,0,0,1.7.378v0h15.523v-.024a3.719,3.719,0,0,0,3.435-3.16h11.767a5.1,5.1,0,0,0,5.1-5.1A5.1,5.1,0,0,0-58.158,2161.335Z" transform="translate(134.305 -1985.874)"/><rect class="c" width="4.295" height="7.159" transform="translate(599.861 206.406)"/><rect class="c" width="4.295" height="7.159" transform="translate(599.861 218.217)"/><rect class="c" width="4.295" height="7.159" transform="translate(599.861 230.505)"/><rect class="c" width="4.295" height="7.159" transform="translate(599.861 243.205)"/><rect class="c" width="1.029" height="90.675" transform="translate(324.099 181.231)"/><rect class="c" width="1.029" height="90.675" transform="translate(243.207 181.231)"/><path class="b" d="M-34.1,2248.414v-1.107l.94-.011v-1.208h.671v1.164h1.044v1.162Z" transform="translate(121.198 -2002.011)"/><path class="b" d="M-23.824,2248.414v-1.107l.94-.011v-1.208h.671v1.164h1.044v1.162Z" transform="translate(119.393 -2002.011)"/><path class="b" d="M-13.983,2248.414v-1.107l.94-.011v-1.208h.671v1.164h1.044v1.162Z" transform="translate(117.664 -2002.011)"/><path class="b" d="M-4.575,2248.414v-1.107l.94-.011v-1.208h.671v1.164H-1.92v1.162Z" transform="translate(116.012 -2002.011)"/><path class="b" d="M5.086,2248.414v-1.107l.94-.011v-1.208H6.7v1.164H7.741v1.162Z" transform="translate(114.315 -2002.011)"/><path class="b" d="M351.16,2215.3s9.992,1.671,17.27,0a25.191,25.191,0,0,0,0,11.217s-13.661-.956-17.27,0C350.962,2221.15,351.16,2215.3,351.16,2215.3Z" transform="translate(53.54 -1996.601)"/><path class="c" d="M361.83,2222.088a1.581,1.581,0,1,1-1.58-1.582A1.581,1.581,0,0,1,361.83,2222.088Z" transform="translate(52.205 -1997.516)"/><rect class="c" width="41.52" height="1.678" transform="translate(736.232 186.943)"/><rect class="c" width="41.52" height="1.678" transform="translate(842.478 187.782)"/><path class="c" d="M1163.611,2313.784h-5.906v-9.731s.714-2.428,2.953-2.428a3.061,3.061,0,0,1,2.953,2.428Z" transform="translate(-88.152 -2011.766)"/><path class="c" d="M1183.584,2313.784h-5.906v-9.731s.714-2.428,2.953-2.428a3.061,3.061,0,0,1,2.953,2.428Z" transform="translate(-91.66 -2011.766)"/><path class="c" d="M1203.557,2313.784h-5.905v-9.731s.714-2.428,2.953-2.428a3.061,3.061,0,0,1,2.953,2.428Z" transform="translate(-95.169 -2011.766)"/><path class="c" d="M1249.365,2313.784h-5.906v-9.731s.714-2.428,2.953-2.428a3.062,3.062,0,0,1,2.954,2.428Z" transform="translate(-103.215 -2011.766)"/><path class="c" d="M1269.338,2313.784h-5.906v-9.731s.714-2.428,2.954-2.428a3.06,3.06,0,0,1,2.952,2.428Z" transform="translate(-106.723 -2011.766)"/><path class="c" d="M1289.312,2313.784h-5.906v-9.731s.713-2.428,2.953-2.428a3.06,3.06,0,0,1,2.953,2.428Z" transform="translate(-110.232 -2011.766)"/><rect class="c" width="17.121" height="5.369" transform="translate(630.911 138.101)"/><rect class="c" width="4.623" height="5.369" transform="translate(653.744 138.101)"/><rect class="c" width="4.623" height="5.369" transform="translate(634.849 173.332)"/><rect class="c" width="4.623" height="5.369" transform="translate(634.849 185.084)"/><rect class="c" width="4.295" height="24.048" transform="translate(942.399 221.562)"/><path class="c" d="M16.342,2301.255l.007-.05-.007-.049v-.132h-.019c-.131-1.489-1.843-2.671-3.956-2.671s-3.824,1.182-3.957,2.671H8.376v7.84h7.966V2301.6l.007-.051-.007-.049v-.243Z" transform="translate(113.737 -2011.192)"/><path class="c" d="M60.454,2300.958l.007-.051-.007-.048v-.133h-.018c-.132-1.488-1.844-2.67-3.956-2.67s-3.825,1.182-3.957,2.67h-.034v7.841h7.965V2301.3l.007-.049-.007-.05v-.243Z" transform="translate(105.988 -2011.14)"/><path class="c" d="M39.789,2300.958l.007-.051-.007-.048v-.133H39.77c-.132-1.488-1.843-2.67-3.956-2.67s-3.824,1.182-3.957,2.67h-.034v7.841h7.966V2301.3l.007-.049-.007-.05v-.243Z" transform="translate(109.618 -2011.14)"/><path class="c" d="M92.761,2301.255l.007-.05-.007-.049v-.132h-.019c-.131-1.489-1.843-2.671-3.956-2.671s-3.824,1.182-3.957,2.671H84.8v7.84h7.966V2301.6l.007-.051-.007-.049v-.243Z" transform="translate(100.313 -2011.192)"/><path class="c" d="M136.873,2300.958l.007-.051-.007-.048v-.133h-.018c-.132-1.488-1.843-2.67-3.956-2.67s-3.824,1.182-3.957,2.67h-.034v7.841h7.965V2301.3l.007-.049-.007-.05v-.243Z" transform="translate(92.565 -2011.14)"/><path class="c" d="M116.208,2300.958l.007-.051-.007-.048v-.133h-.019c-.132-1.488-1.843-2.67-3.956-2.67s-3.824,1.182-3.957,2.67h-.034v7.841h7.966V2301.3l.007-.049-.007-.05v-.243Z" transform="translate(96.195 -2011.14)"/><line class="d" y2="3.162" transform="translate(412.455 222.989)"/><line class="d" x1="3.161" transform="translate(410.875 224.57)"/><line class="d" x1="1.896" y2="2.53" transform="translate(411.507 223.305)"/><line class="d" x2="2.172" y2="2.298" transform="translate(411.369 223.424)"/><rect class="c" width="4.623" height="5.369" transform="translate(733.921 82.324)"/><rect class="c" width="4.623" height="5.369" transform="translate(733.921 90.675)"/><rect class="b" width="4.295" height="24.048" transform="translate(883.997 107.405)"/><rect class="c" width="6.149" height="14.228" transform="translate(315.365 181.231)"/><path class="b" d="M-106.448,2255.821a.686.686,0,0,1-.687.686.686.686,0,0,1-.686-.686.686.686,0,0,1,.686-.687A.686.686,0,0,1-106.448,2255.821Z" transform="translate(134.148 -2003.6)"/><path class="c" d="M333.631,2351.654h29.111v-23.861h-1.431s.358-20.879-13.124-20.879-13,20.521-13,20.521l-1.551.239Z" transform="translate(56.604 -2012.695)"/><ellipse class="c" cx="5.727" cy="5.727" rx="5.727" ry="5.727" transform="translate(523.264 219.828)"/><ellipse class="b" cx="0.358" cy="0.358" rx="0.358" ry="0.358" transform="translate(528.678 225.241)"/><path class="b" d="M501.753,2222.666l-.416-2.68.409-.94.419.974-.187,2.646Z" transform="translate(27.145 -1997.261)"/><path class="b" d="M501.955,2223.917l1.521,3.892.458.3-.056-.537-1.756-3.658Z" transform="translate(27.036 -1998.116)"/></g></g></svg>