<svg xmlns="http://www.w3.org/2000/svg" width="90.924" height="95.47" viewBox="0 0 90.924 95.47"><defs><style>.a{fill:#fcfcfc;}</style></defs><g transform="translate(-204.591 -784.53)"><g transform="translate(200.591 736.703)"><g transform="translate(4 100)"><path class="a" d="M77.381,236a9.381,9.381,0,1,0,9.381,9.381A9.381,9.381,0,0,0,77.381,236Zm0,13.711a4.33,4.33,0,1,1,4.33-4.33A4.33,4.33,0,0,1,77.381,249.711Z" transform="translate(-56.454 -211.465)"/><path class="a" d="M365.381,236a9.381,9.381,0,1,0,9.381,9.381A9.381,9.381,0,0,0,365.381,236Zm0,13.711a4.33,4.33,0,1,1,4.33-4.33A4.33,4.33,0,0,1,365.381,249.711Z" transform="translate(-292.498 -211.465)"/><path class="a" d="M89.4,116.785l-16.85-3.074-14.345-11.9A7.957,7.957,0,0,0,53.165,100H32.031a7.9,7.9,0,0,0-6.2,2.979L16.67,113.711H10.495A6.5,6.5,0,0,0,4,120.205v7.938a7.947,7.947,0,0,0,7.938,7.938h1.65a11.546,11.546,0,1,1,22.679,0H65.544a11.546,11.546,0,1,1,22.679,0h.207a6.5,6.5,0,0,0,6.495-6.495v-6.381a6.457,6.457,0,0,0-5.52-6.421Zm-53.652-5.239a2.165,2.165,0,0,1-2.165,2.165H24.069a1.082,1.082,0,0,1-.823-1.786l6.3-7.379a2.165,2.165,0,0,1,1.646-.758h2.4a2.165,2.165,0,0,1,2.165,2.165Zm27.869,2.218-20.658-.048a2.165,2.165,0,0,1-2.16-2.165v-5.6a2.165,2.165,0,0,1,2.165-2.165H53.349a2.165,2.165,0,0,1,1.341.465l9.6,7.577a1.082,1.082,0,0,1-.673,1.933Z" transform="translate(-4 -100)"/></g></g><g transform="translate(222.319 723.865)"><g transform="translate(19.65 88.634)"><g transform="translate(0 0)"><path class="a" d="M213.639,358.88a4.109,4.109,0,1,0,4.124,4.108A4.121,4.121,0,0,0,213.639,358.88Z" transform="translate(-209.516 -358.88)"/></g></g><g transform="translate(12.924 78.875)"><g transform="translate(0 0)"><path class="a" d="M158.715,258.994a14.242,14.242,0,0,0-20.093-.027,2.775,2.775,0,0,0,3.926,3.922,8.67,8.67,0,0,1,12.231.015,2.774,2.774,0,0,0,3.936-3.911Z" transform="translate(-137.807 -254.833)"/></g></g><g transform="translate(0 60.665)"><g transform="translate(0 0)"><path class="a" d="M46.754,70.157a32.567,32.567,0,0,0-45.94-.022,2.774,2.774,0,0,0,3.929,3.918,26.992,26.992,0,0,1,38.079.019,2.774,2.774,0,1,0,3.932-3.914Z" transform="translate(0 -60.665)"/></g></g><g transform="translate(6.624 70)"><path class="a" d="M104.133,166.958a23.172,23.172,0,0,0-32.689-.023,2.774,2.774,0,0,0,3.928,3.92,17.6,17.6,0,0,1,24.828.018,2.775,2.775,0,1,0,3.933-3.914Z" transform="translate(-70.628 -160.2)"/></g></g></g></svg>