<?xml version="1.0" encoding="utf-8"?>
<!-- Generator: Adobe Illustrator 23.0.5, SVG Export Plug-In . SVG Version: 6.00 Build 0)  -->
<svg version="1.1" xmlns="http://www.w3.org/2000/svg" xmlns:xlink="http://www.w3.org/1999/xlink" x="0px" y="0px"
	 viewBox="0 0 150 150" style="enable-background:new 0 0 150 150;" xml:space="preserve">
<style type="text/css">
	.st0{fill:#2D2D2D;}
	.st1{fill:#FFFFFF;}
	.st2{display:none;opacity:0.18;fill:#00BBDC;}
	.st3{fill:#00BBDC;}
	.st4{display:none;opacity:0.18;fill:#FFFFFF;}
	.st5{display:none;opacity:0.18;fill:#FCFCFC;}
	.st6{fill:#FCFCFC;}
</style>
<g id="earn_money">
</g>
<g id="find_parking">
</g>
<g id="parking_services">
</g>
<g id="parking_technology">
</g>
<g id="for_drivers">
</g>
<g id="for_parking_pwner">
</g>
<g id="book__x26__pay">
</g>
<g id="arrive_and_park">
</g>
<g id="smart_parking">
	<circle class="st3" cx="75.5" cy="75.5" r="72.5"/>
	<g transform="translate(-0.001)">
		<path class="st1" d="M82.96,35.28l6.43-3.99c-4.73-7.64-14.75-10-22.39-5.28c-2.14,1.33-3.95,3.13-5.28,5.28l6.44,3.99
			c2.52-4.09,7.87-5.36,11.96-2.85C81.28,33.15,82.25,34.12,82.96,35.28L82.96,35.28z"/>
		<path class="st1" d="M75.56,18.04c7.83-0.02,15.11,4.04,19.21,10.71l6.43-3.99c-8.76-14.16-27.33-18.54-41.5-9.79
			c-3.98,2.46-7.33,5.81-9.79,9.79l6.43,3.99C60.45,22.08,67.73,18.02,75.56,18.04z"/>
		<path class="st1" d="M80.05,41.24c0,2.48-2.01,4.49-4.49,4.48c-2.48,0-4.49-2.01-4.48-4.49c0-2.48,2.01-4.48,4.49-4.48
			C78.04,36.75,80.05,38.76,80.05,41.24C80.05,41.24,80.05,41.24,80.05,41.24z"/>
		<path class="st1" d="M113,88.89c0-20.68-16.76-37.44-37.44-37.44c-20.68,0-37.44,16.76-37.44,37.44
			c0,16.14,10.35,30.47,25.67,35.54V139h7.57v-12.91c2.79,0.32,5.61,0.32,8.4,0V139h7.57v-14.57
			C102.64,119.34,112.98,105.03,113,88.89L113,88.89z M75.56,118.76c-16.5,0-29.87-13.37-29.87-29.87s13.37-29.87,29.87-29.87
			s29.87,13.37,29.87,29.87l0,0C105.41,105.38,92.05,118.74,75.56,118.76z"/>
		<path class="st1" d="M79.45,71.96H66.21v37.9h7.57v-12.9h5.67c6.9,0,12.5-5.6,12.5-12.5C91.95,77.56,86.35,71.96,79.45,71.96
			L79.45,71.96L79.45,71.96z M79.45,89.4h-5.67v-9.86h5.67c2.72,0,4.93,2.21,4.93,4.93C84.39,87.19,82.18,89.4,79.45,89.4
			L79.45,89.4z"/>
	</g>
</g>
<g id="find_parking_1_">
</g>
<g id="earn_money_1_">
</g>
<g id="fastag">
</g>
<g id="Layer_14">
</g>
<g id="Layer_15">
</g>
<g id="Layer_16">
</g>
<g id="Layer_2">
</g>
</svg>
