<svg xmlns="http://www.w3.org/2000/svg" width="126" height="126" viewBox="0 0 126 126"><defs><style>.a{fill:#ccf7ff;}</style></defs><g transform="translate(-257 -3122)"><circle class="a" cx="63" cy="63" r="63" transform="translate(257 3122)"/><g transform="translate(278 3145.055)"><g transform="translate(25.013 62.877)"><path d="M155.992,385.174a1.709,1.709,0,0,0-.093-.308,1.66,1.66,0,0,0-.151-.282,1.59,1.59,0,0,0-.452-.452,1.616,1.616,0,0,0-.283-.151,1.537,1.537,0,0,0-.306-.093,1.612,1.612,0,0,0-.639,0,1.586,1.586,0,0,0-.308.093,1.662,1.662,0,0,0-.282.151,1.59,1.59,0,0,0-.452.452,1.551,1.551,0,0,0-.151.282,1.587,1.587,0,0,0-.093.308,1.573,1.573,0,0,0,0,.639,1.539,1.539,0,0,0,.093.306,1.515,1.515,0,0,0,.151.283,1.592,1.592,0,0,0,.452.452,1.652,1.652,0,0,0,.282.151,1.584,1.584,0,0,0,.308.093,1.575,1.575,0,0,0,.639,0,1.535,1.535,0,0,0,.306-.093,1.619,1.619,0,0,0,.283-.151,1.593,1.593,0,0,0,.452-.452,1.617,1.617,0,0,0,.151-.283,1.655,1.655,0,0,0,.093-.306,1.573,1.573,0,0,0,0-.639Z" transform="translate(-152.75 -383.857)"/></g><g transform="translate(0 50.77)"><path d="M75.325,323.851l-.02-.049c-1.507-3.527-5.042-4.83-9.225-3.4l-11.408,3.155A7.479,7.479,0,0,0,50.041,319L50,318.98l-12.54-4.256a12.934,12.934,0,0,0-10.435-4.8c-4.278,0-8.063,2.935-10.228,6.134H1.638A1.638,1.638,0,0,0,0,317.693v20.646a1.638,1.638,0,0,0,1.638,1.638h9.736a1.638,1.638,0,0,0,1.638-1.638v-1.414h4.566a1.638,1.638,0,0,0,1.638-1.638v-.471c2.662.232,3.537.737,5.982,2.147a99.1,99.1,0,0,0,9.838,5.023l.072.03a14.7,14.7,0,0,0,5.268.993,13.052,13.052,0,0,0,5.425-1.162l25.217-9.029c.045-.016.089-.034.132-.054C73.559,331.656,77.15,328.531,75.325,323.851ZM9.736,336.7H3.275v-17.37H9.736Zm6.2-3.051H13.011V319.331H15.94Zm53.9-3.889-25.205,9.025-.074.029-.066.029a10.614,10.614,0,0,1-8.155.139,94.86,94.86,0,0,1-9.508-4.856c-2.68-1.545-3.971-2.29-7.618-2.591V318.345c1.552-2.544,4.562-5.148,7.808-5.148a9.45,9.45,0,0,1,8.016,3.766,1.638,1.638,0,0,0,.869.693l13.014,4.417c2.079.78,3.177,2.56,2.672,4.335a3.191,3.191,0,0,1-3.92,2.2L33,323.961a1.638,1.638,0,0,0-.989,3.122l14.7,4.657.047.014a6.428,6.428,0,0,0,4.916-.571,6.422,6.422,0,0,0,3.072-3.88q.056-.2.1-.4l12.3-3.406c1.776-.607,4.107-.825,5.145,1.565C73.358,327.871,70.566,329.415,69.84,329.761Z" transform="translate(0 -309.922)"/></g><g transform="translate(55.553 20.243)"><path d="M342.494,124.815a1.591,1.591,0,0,0-.095-.308,1.552,1.552,0,0,0-.151-.282,1.591,1.591,0,0,0-.452-.452,1.66,1.66,0,0,0-.282-.151,1.631,1.631,0,0,0-.946-.093,1.538,1.538,0,0,0-.306.093,1.614,1.614,0,0,0-.283.151,1.59,1.59,0,0,0-.452.452,1.662,1.662,0,0,0-.151.282,1.59,1.59,0,0,0-.093.308,1.572,1.572,0,0,0,0,.639,1.541,1.541,0,0,0,.093.306,1.613,1.613,0,0,0,.151.283,1.59,1.59,0,0,0,.452.452,1.616,1.616,0,0,0,.283.151,1.653,1.653,0,0,0,.306.093,1.612,1.612,0,0,0,.319.033,1.641,1.641,0,0,0,.321-.033,1.731,1.731,0,0,0,.306-.093,1.661,1.661,0,0,0,.282-.151,1.591,1.591,0,0,0,.452-.452,1.517,1.517,0,0,0,.151-.283,1.542,1.542,0,0,0,.095-.306,1.653,1.653,0,0,0,0-.639Z" transform="translate(-339.25 -123.498)"/></g><g transform="translate(4.862 0.023)"><path d="M107.033,5.569H97.3a1.638,1.638,0,0,0-1.638,1.638V8.621H91.093a1.638,1.638,0,0,0-1.638,1.638v.471c-2.662-.232-3.537-.737-5.981-2.147A99.088,99.088,0,0,0,73.636,3.56l-.072-.03A13.932,13.932,0,0,0,62.871,3.7L56.282,6.057,50.728.5a1.638,1.638,0,0,0-2.316,0L30.176,18.738a1.624,1.624,0,0,0,0,2.316l31.16,31.16a1.769,1.769,0,0,0,2.316,0L80.3,35.566c.433.037.882.057,1.348.057,4.278,0,8.063-2.935,10.228-6.134h15.157a1.638,1.638,0,0,0,1.638-1.638V7.207A1.638,1.638,0,0,0,107.033,5.569ZM49.569,3.977,53.3,7.709a7.139,7.139,0,0,1-7.465,0ZM37.383,23.628,33.65,19.9l3.732-3.732a7.14,7.14,0,0,1,0,7.465ZM62.495,48.74l-3.732-3.732a7.13,7.13,0,0,1,7.463,0Zm6.091-6.091a10.406,10.406,0,0,0-12.182,0L39.742,25.987a10.406,10.406,0,0,0,0-12.183l3.736-3.736a10.406,10.406,0,0,0,12.183,0L59.2,13.61a6.49,6.49,0,0,0-4.873,3.57A9.333,9.333,0,1,0,65.061,28.734l5.529,1.876a10.455,10.455,0,0,0,1.735,8.3ZM58.63,26.55l.043.015,3.274,1.111a6.06,6.06,0,1,1-8.225-6.921A7.25,7.25,0,0,0,58.63,26.55Zm16.055,10a7.162,7.162,0,0,1-1.046-3.405,12.732,12.732,0,0,0,2.888,1.564ZM89.456,27.2c-1.552,2.544-4.562,5.149-7.807,5.149a11.919,11.919,0,0,1-1.708-.12h-.006a9.379,9.379,0,0,1-6.066-3.319c-.033-.049-.176-.235-.2-.266a1.632,1.632,0,0,0-.9-.75l-13.02-4.419c-2.078-.78-3.176-2.559-2.673-4.333v-.008A3.19,3.19,0,0,1,61,16.935l14.671,4.649a1.638,1.638,0,0,0,.989-3.122l-11.668-3.7-.1-.1,0,0L58.843,8.618l5.192-1.859.056-.021.017-.007.066-.028a10.613,10.613,0,0,1,8.155-.139,94.856,94.856,0,0,1,9.508,4.856c2.68,1.545,3.971,2.29,7.617,2.591Zm6.2-.985H92.731V11.9h2.928Zm9.736,0H98.934V8.844H105.4Z" transform="translate(-29.691 -0.023)"/></g></g></g></svg>