<?xml version="1.0" encoding="utf-8"?>
<!-- Generator: Adobe Illustrator 23.0.5, SVG Export Plug-In . SVG Version: 6.00 Build 0)  -->
<svg version="1.1" id="Layer_1" xmlns="http://www.w3.org/2000/svg" xmlns:xlink="http://www.w3.org/1999/xlink" x="0px" y="0px"
	 viewBox="0 0 167 167" style="enable-background:new 0 0 167 167;" xml:space="preserve">
<style type="text/css">
	.st0{fill:#1D2B44;}
	.st1{fill:#FFFFFF;}
</style>
<g transform="translate(-132 -5168)">
	<circle class="st0" cx="215.5" cy="5251.5" r="83.5"/>
	<g transform="translate(167 5198.905)">
		<path class="st1" d="M83.1,69.2H58.3c-0.9,0-1.5,0.7-1.5,1.6v12.4c0,0.9,0.7,1.6,1.5,1.6h24.8c0.9,0,1.6-0.7,1.6-1.5c0,0,0,0,0,0
			V70.7C84.7,69.9,84,69.2,83.1,69.2C83.1,69.2,83.1,69.2,83.1,69.2z M81.6,81.6H59.9v-9.3h21.7V81.6z"/>
		<path class="st1" d="M63,75.4h15.5v3.1H63V75.4z"/>
		<path class="st1" d="M83.1,35.1H58.3c-0.9,0-1.5,0.7-1.5,1.5v27.9c0,0.9,0.7,1.6,1.5,1.6c0,0,0,0,0,0h24.8c0.9,0,1.6-0.7,1.6-1.5
			c0,0,0,0,0,0V36.6C84.7,35.8,84,35.1,83.1,35.1C83.1,35.1,83.1,35.1,83.1,35.1z M75.4,63h-9.3v-6.2c0-2.6,2.1-4.7,4.6-4.7
			s4.7,2.1,4.7,4.6c0,0,0,0,0,0V63z M81.6,63h-3.1v-6.2c0-4.3-3.5-7.8-7.8-7.8S63,52.5,63,56.8V63h-3.1V38.2h21.7V63z"/>
		<path class="st1" d="M94,94v-4.7c0-0.9-0.7-1.6-1.5-1.6h0h-1.5V32h1.6c0.9,0,1.5-0.7,1.6-1.5c0-0.3-0.1-0.6-0.3-0.9l-6.2-9.3
			c-0.3-0.4-0.8-0.7-1.3-0.7h-31c-0.5,0-1,0.3-1.3,0.7l-6.2,9.3c-0.5,0.7-0.3,1.7,0.4,2.1c0.3,0.2,0.6,0.3,0.9,0.3h1.6v23.2H10.3
			c-3.4,0-6.2,2.8-6.2,6.2c0,3.4,2.8,6.2,6.2,6.2h40.3v20.2H49c-0.9,0-1.5,0.7-1.5,1.6l0,0V94h-31V76.9c0-3.4-2.8-6.2-6.2-6.2
			s-6.2,2.8-6.2,6.2c0,0,0,0,0,0V94H1v3.1h96.1V94H94z M56.1,22.7h29.3l4.1,6.2H51.9L56.1,22.7z M29.5,58.3h4.9l-6.2,6.2h-4.9
			L29.5,58.3z M19,64.5H14l6.2-6.2h4.9L19,64.5z M38.8,58.3h4.9l-6.2,6.2h-4.9L38.8,58.3z M7.2,61.4c0-1.7,1.4-3.1,3.1-3.1h5.6
			l-6.1,6.1C8.3,64.2,7.2,62.9,7.2,61.4z M41.9,64.5l6.2-6.2h2.5v6.2H41.9z M53.7,32h34.1v55.8H53.7V32z M50.6,90.9h40.3V94H50.6
			V90.9z M10.3,73.8c1.7,0,3.1,1.4,3.1,3.1v7.8H7.2v-7.8C7.2,75.2,8.6,73.8,10.3,73.8C10.3,73.8,10.3,73.8,10.3,73.8z M7.2,87.8h6.2
			V94H7.2V87.8z"/>
		<path class="st1" d="M24.2,41.3c11.1,0,20.1-9,20.1-20.1S35.4,1,24.2,1C13.1,1,4.1,10,4.1,21.1C4.1,32.3,13.1,41.3,24.2,41.3z
			 M24.2,4.1c9.4,0,17,7.6,17,17s-7.6,17-17,17s-17-7.6-17-17C7.2,11.7,14.8,4.1,24.2,4.1z"/>
	</g>
	<g transform="translate(111.194 5210.355)">
		<path class="st1" d="M85.8,4.7c-0.1-0.1-0.2-0.1-0.3-0.1H83c-0.1-0.8-0.5-1.5-0.9-2.1h3.4c0.2,0,0.5-0.2,0.5-0.4c0,0,0,0,0,0V0.5
			c0-0.2-0.2-0.5-0.4-0.5c0,0,0,0,0,0H73.3c-0.2,0-0.5,0.2-0.5,0.4c0,0,0,0,0,0v1.9c0,0.3,0.2,0.5,0.5,0.5h2.1
			c2.1,0,3.4,0.6,3.9,1.7h-6.1c-0.2,0-0.5,0.2-0.5,0.4c0,0,0,0,0,0v1.5C72.8,6.8,73,7,73.2,7c0,0,0,0,0,0h6.3
			c-0.2,0.8-0.8,1.5-1.5,1.8c-1,0.5-2,0.7-3.1,0.6h-1.6c-0.3,0-0.5,0.2-0.5,0.5v1.9c0,0.1,0,0.2,0.1,0.3c1.9,2,4.3,4.8,7.3,8.4
			c0.1,0.1,0.2,0.2,0.4,0.2h2.9c0.2,0,0.4-0.1,0.4-0.3c0.1-0.2,0.1-0.4-0.1-0.5c-2.9-3.5-5.1-6.1-6.7-7.9c1.5-0.1,2.9-0.7,4-1.6
			c1-0.9,1.7-2.1,1.9-3.4h2.5C85.7,7,86,6.8,86,6.5c0,0,0,0,0,0V5C86,4.9,85.9,4.8,85.8,4.7z"/>
	</g>
</g>
</svg>
