<?xml version="1.0" encoding="utf-8"?>
<!-- Generator: Adobe Illustrator 23.0.5, SVG Export Plug-In . SVG Version: 6.00 Build 0)  -->
<svg version="1.1" id="Layer_1" xmlns="http://www.w3.org/2000/svg" xmlns:xlink="http://www.w3.org/1999/xlink" x="0px" y="0px"
	 viewBox="0 0 167 167" style="enable-background:new 0 0 167 167;" xml:space="preserve">
<style type="text/css">
	.st0{fill:#1D2B44;}
	.st1{fill:#FFFFFF;}
</style>
<g transform="translate(-132 -4932)">
	<circle class="st0" cx="215.5" cy="5015.5" r="83.5"/>
	<g transform="translate(170 4965.19)">
		<g transform="translate(44.396 10.702)">
			<path class="st1" d="M35.1,6c-6-6-15.2-7.7-23-4.2c-0.9,0.4-1.4,1.5-0.9,2.5s1.5,1.4,2.5,0.9c6.4-2.8,13.8-1.5,18.8,3.5
				c6.6,6.6,6.6,17.2,0,23.8c-6.6,6.6-17.2,6.6-23.8,0c-4.9-4.9-6.3-12.2-3.6-18.6c0.4-0.9,0-2-1-2.5c-0.9-0.4-2,0-2.5,1l0,0
				C-2.8,22.9,2,35,12.4,39.5c10.4,4.5,22.6-0.3,27-10.8C42.8,21,41.1,12,35.1,6L35.1,6z"/>
		</g>
		<g transform="translate(49.88 16.112)">
			<path class="st1" d="M3.3,0.6c-0.7-0.7-1.9-0.7-2.6,0L0.6,0.6c-0.7,0.7-0.7,1.9,0,2.6s1.9,0.7,2.6,0l0.1-0.1C4,2.5,4,1.3,3.3,0.6
				C3.3,0.6,3.3,0.6,3.3,0.6z"/>
		</g>
		<path class="st1" d="M65,0C48,0,34.2,13.8,34.2,30.8c0,5,1.2,10,3.6,14.4c0.5,0.9,1.6,1.3,2.5,0.8s1.3-1.6,0.8-2.5
			c-7-13.2-1.9-29.6,11.3-36.6s29.6-1.9,36.6,11.3c5.1,9.7,3.9,21.5-3.1,29.9c-0.1,0.1-0.1,0.1-0.2,0.2L68.9,69.8
			c-1.1-0.4-2.3-0.6-3.6-0.6h-4.6l-5.3-12.6c-1.3-3.2-4.5-5.2-7.9-5.2H25.6c-3.4,0-6.6,2.1-7.9,5.2l-5.3,12.6h-2.1
			C4.6,69.2,0,73.8,0,79.5V89c0,1,0.8,1.9,1.9,1.9l0,0l9.1,0c1,3.6,4.8,5.7,8.4,4.7c2.3-0.6,4-2.4,4.7-4.7h29.9
			c1,3.6,4.8,5.7,8.4,4.7c2.3-0.6,4-2.4,4.7-4.7l6.7,0l0,0c1,0,1.9-0.8,1.9-1.9c0,0,0,0,0,0v-9.6c0-2.9-1.3-5.7-3.5-7.7l16.7-21.4
			c0,0,0.1-0.1,0.1-0.1C99.6,37,97.6,17.6,84.4,6.9C78.9,2.4,72.1,0,65,0z M70.9,76H67l-1-3C68,73.2,69.8,74.3,70.9,76z M38.4,55.1
			h9c1.9,0,3.7,1.2,4.5,3l4.7,11.1H38.4V55.1z M3.7,79.5c0-0.6,0.1-1.2,0.3-1.8h2.5c0.8,0,1.5,0.7,1.5,1.5s-0.7,1.5-1.5,1.5
			c0,0,0,0,0,0H3.7V79.5z M17.5,92.1c-1.7,0-3.1-1.4-3.1-3.1c0-1.7,1.4-3,3-3s3,1.4,3.1,3C20.5,90.7,19.2,92.1,17.5,92.1L17.5,92.1z
			 M34.7,87.1H24c-1-3.6-4.8-5.7-8.4-4.7c-2.3,0.6-4,2.4-4.7,4.7l-7.2,0v-2.8h2.7c2.9,0,5.2-2.4,5.1-5.3c0-2.7-2.1-4.9-4.8-5.1
			c1-0.6,2.2-1,3.4-1h24.4L34.7,87.1z M34.7,69.2H16.5l4.7-11.1c0.8-1.8,2.5-3,4.5-3h9L34.7,69.2z M60.5,92.1c-1.7,0-3-1.4-3-3.1
			c0-1.7,1.4-3,3.1-3c1.7,0,3,1.4,3,3C63.5,90.7,62.2,92.1,60.5,92.1L60.5,92.1z M71.9,87.2l-4.9,0c-1-3.6-4.8-5.7-8.4-4.7
			c-2.3,0.6-4,2.4-4.7,4.7H38.4V72.9h23.7l1.8,5.5c0.2,0.8,1,1.3,1.8,1.3h6.2L71.9,87.2z"/>
		<g transform="translate(59.256 20.456)">
			<path class="st1" d="M7.3,0H1.9C0.8,0,0,0.8,0,1.9c0,0,0,0,0,0v18.5c0,1,0.8,1.9,1.9,1.9c1,0,1.9-0.8,1.9-1.9v-5.9h3.5
				c4,0,7.3-3.2,7.4-7.2c0-4-3.2-7.3-7.2-7.4C7.4,0,7.3,0,7.3,0L7.3,0z M7.3,10.8H3.7V3.7h3.5c1.9,0,3.5,1.6,3.5,3.5
				S9.2,10.8,7.3,10.8C7.3,10.8,7.3,10.8,7.3,10.8L7.3,10.8z"/>
		</g>
		<g transform="translate(27.284 77.226)">
			<path class="st1" d="M1.9,0C0.8,0,0,0.8,0,1.9l0,0v0c0,1,0.8,1.9,1.9,1.9c1,0,1.9-0.8,1.9-1.9v0C3.7,0.8,2.9,0,1.9,0
				C1.9,0,1.9,0,1.9,0z"/>
		</g>
	</g>
</g>
</svg>
