<?xml version="1.0" encoding="utf-8"?>
<!-- Generator: Adobe Illustrator 23.0.5, SVG Export Plug-In . SVG Version: 6.00 Build 0)  -->
<svg version="1.1" id="Layer_1" xmlns="http://www.w3.org/2000/svg" xmlns:xlink="http://www.w3.org/1999/xlink" x="0px" y="0px"
	 viewBox="0 0 167 167" style="enable-background:new 0 0 167 167;" xml:space="preserve">
<style type="text/css">
	.st0{fill:#1D2B44;}
	.st1{fill:#FFFFFF;}
</style>
<g transform="translate(-180 -9716)">
	<circle class="st0" cx="263.5" cy="9799.5" r="83.5"/>
	<g transform="translate(203 9752.729)">
		<path class="st1" d="M36.7,66c-1,0-1.8,0.8-1.8,1.8l0,0v3.7c0,1,0.8,1.8,1.8,1.8s1.8-0.8,1.8-1.8v-3.7C38.5,66.9,37.7,66,36.7,66z
			"/>
		<path class="st1" d="M18.3,78.9c0,1-0.8,1.8-1.8,1.8s-1.8-0.8-1.8-1.8c0-1,0.8-1.8,1.8-1.8C17.5,77,18.3,77.9,18.3,78.9
			C18.3,78.9,18.3,78.9,18.3,78.9z"/>
		<path class="st1" d="M56.9,78.9c0,1-0.8,1.8-1.8,1.8s-1.8-0.8-1.8-1.8c0-1,0.8-1.8,1.8-1.8C56,77,56.9,77.9,56.9,78.9
			C56.9,78.9,56.9,78.9,56.9,78.9z"/>
		<path class="st1" d="M27,56.2c0.7,0.7,1.9,0.7,2.6,0c0.7-0.7,0.7-1.9,0-2.6l0,0l-1.3-1.3l1.3-1.3c0.7-0.7,0.7-1.9,0-2.6
			c-0.7-0.7-1.9-0.7-2.6,0L24.4,51c-0.7,0.7-0.7,1.9,0,2.6L27,56.2z"/>
		<path class="st1" d="M37.2,20.2h6.7l-6.3,8.1c-0.9,1.2-0.6,3,0.6,3.8c0.5,0.3,1,0.5,1.6,0.5c0.6,0,1.1-0.2,1.6-0.5L64.5,16
			c1.3-0.8,1.6-2.6,0.8-3.8C64.8,11.5,63.9,11,63,11h-6.7l7.2-6.2c1.1-1,1.3-2.7,0.3-3.9c-0.5-0.6-1.3-0.9-2-0.9h-7.8
			c-0.9,0-1.8,0.3-2.5,1l-16,14.4c-1.1,1-1.2,2.8-0.2,3.9C35.7,19.8,36.5,20.2,37.2,20.2L37.2,20.2z M53.9,3.7h5.3l-9.1,7.8
			c-0.8,0.7-0.9,1.8-0.2,2.6c0.3,0.4,0.9,0.6,1.4,0.6h8.7l-15.8,11l4.8-6.2c0.6-0.8,0.5-2-0.3-2.6c-0.3-0.3-0.7-0.4-1.1-0.4h-8.1
			L53.9,3.7z"/>
		<path class="st1" d="M106.4,22H78.8c-2,0-3.6,1.6-3.6,3.6v42.2h-5.5V51.2c0-1.4-0.4-2.8-1.2-4l-4.8-7.2c-1.3-2-3.6-3.3-6.1-3.2
			H30.2c-2.3,0-4.4,1.1-5.8,2.9l-9.1,12.1l-10.6,4C1.9,56.7,0,59.4,0,62.5v14.6c0,2,1.6,3.6,3.7,3.7h3.9c1,5,5.9,8.2,10.8,7.2
			c3.6-0.7,6.4-3.6,7.2-7.2H46c1,5,5.9,8.2,10.8,7.2c3.6-0.7,6.4-3.6,7.2-7.2h2c2,0,3.7-1.6,3.7-3.7v-5.5h5.5v5.5
			c0,2,1.6,3.6,3.6,3.6h27.6c2,0,3.6-1.6,3.6-3.6V25.7C110.1,23.6,108.4,22,106.4,22z M42.2,58.7V40.4H55v18.3H42.2z M58.7,53.2H66
			v5.5h-7.3L58.7,53.2z M60.6,42l4.8,7.2c0.1,0.1,0.1,0.2,0.2,0.4h-6.9v-9C59.5,40.8,60.2,41.3,60.6,42L60.6,42z M27.3,41.8
			c0.7-0.9,1.8-1.4,2.9-1.4h8.3v18.3H22.9l-4.1-5.5L27.3,41.8z M16.5,84.4c-3,0-5.5-2.5-5.5-5.5s2.5-5.5,5.5-5.5s5.5,2.5,5.5,5.5
			l0,0C22,81.9,19.5,84.4,16.5,84.4z M55,84.4c-3,0-5.5-2.5-5.5-5.5s2.5-5.5,5.5-5.5s5.5,2.5,5.5,5.5l0,0
			C60.5,81.9,58.1,84.4,55,84.4C55,84.4,55,84.4,55,84.4L55,84.4z M64,77c-1-5-5.9-8.2-10.8-7.2c-3.6,0.7-6.4,3.6-7.2,7.2H25.5
			c-1-5-5.9-8.2-10.8-7.2c-3.6,0.7-6.4,3.6-7.2,7.2l-3.9,0V66h3.7c1,0,1.8-0.8,1.8-1.8s-0.8-1.8-1.8-1.8H3.7c0-1.5,1-2.8,2.3-3.3
			l9.9-3.7l4.7,6.2c0.3,0.5,0.9,0.7,1.5,0.7h44v7.3c0,0,0,0.1,0,0.1V77L64,77z M78.9,58.7h7.3V66c0,1-0.8,1.8-1.8,1.8h-5.5
			L78.9,58.7z M88.1,51.4c-1,0-1.8-0.8-1.8-1.8v-1.8h3.7v1.8C89.9,50.5,89.1,51.4,88.1,51.4C88.1,51.4,88.1,51.4,88.1,51.4
			L88.1,51.4z M89.9,54.7c2.2-0.8,3.7-2.8,3.7-5.2v-9.2c0-1-0.8-1.8-1.8-1.8c-1,0-1.8,0.8-1.8,1.8V44h-3.7v-3.7c0-1-0.8-1.8-1.8-1.8
			c-1,0-1.8,0.8-1.8,1.8v9.2c0,2.3,1.5,4.4,3.7,5.2V55h-7.3V33l18.3,0l0,22h-7.4L89.9,54.7z M78.9,77v-5.5h5.5c3,0,5.5-2.5,5.5-5.5
			v-7.3h7.4c2,0,3.6-1.6,3.6-3.6V33c0-2-1.6-3.6-3.6-3.6H78.8v-3.7l27.5,0l0,51.4L78.9,77z"/>
		<path class="st1" d="M100.9,64.2c0,1-0.8,1.8-1.8,1.8s-1.8-0.8-1.8-1.8c0-1,0.8-1.8,1.8-1.8C100.1,62.4,100.9,63.2,100.9,64.2
			C100.9,64.2,100.9,64.2,100.9,64.2z"/>
		<path class="st1" d="M100.9,71.5c0,1-0.8,1.8-1.8,1.8s-1.8-0.8-1.8-1.8c0-1,0.8-1.8,1.8-1.8C100.1,69.7,100.9,70.5,100.9,71.5
			C100.9,71.5,100.9,71.5,100.9,71.5z"/>
	</g>
</g>
</svg>
