<?xml version="1.0" encoding="utf-8"?>
<!-- Generator: Adobe Illustrator 23.0.5, SVG Export Plug-In . SVG Version: 6.00 Build 0)  -->
<svg version="1.1" id="Layer_1" xmlns="http://www.w3.org/2000/svg" xmlns:xlink="http://www.w3.org/1999/xlink" x="0px" y="0px"
	 viewBox="0 0 167 167" style="enable-background:new 0 0 167 167;" xml:space="preserve">
<style type="text/css">
	.st0{fill:#1D2B44;}
	.st1{fill:#FFFFFF;}
</style>
<g transform="translate(-533 -9413)">
	<circle class="st0" cx="616.5" cy="9496.5" r="83.5"/>
	<g transform="translate(571 9451)">
		<g transform="translate(2 2)">
			<path class="st1" d="M85.6,17.4H60.3L51.8,2.9h1.5l27.3,11.5c0.7,0.3,1.6,0,1.9-0.8c0.3-0.7,0-1.6-0.8-1.9L54.2,0.1
				C54,0,53.8,0,53.7,0H33.3c-0.2,0-0.4,0-0.6,0.1L5.2,11.7c-0.5,0.2-0.9,0.8-0.9,1.3v4.3H1.5C0.6,17.4,0,18,0,18.8l0,0v5.8
				c0,0.8,0.6,1.4,1.5,1.4v7.2c0,4,3.2,7.2,7.2,7.2c2.3,0,4.5-1.1,5.8-2.9c2.3,3.2,6.8,3.9,10,1.6c0.6-0.4,1.1-1,1.6-1.6
				c2.3,3.2,6.8,3.9,10,1.6c0.6-0.4,1.1-1,1.6-1.6c2.3,3.2,6.8,3.9,10,1.6c0.6-0.4,1.1-1,1.6-1.6c2.3,3.2,6.8,3.9,10,1.6
				c0.6-0.4,1.1-1,1.6-1.6c2.3,3.2,6.8,3.9,10,1.6c0.6-0.4,1.1-1,1.6-1.6c1.4,1.8,3.5,2.9,5.8,2.9v43.5H39.9V53.6
				c0-0.8-0.6-1.5-1.5-1.5l0,0H14.5c-0.8,0-1.4,0.6-1.4,1.5l0,0v30.4H8.7V44.7c0-0.8-0.6-1.5-1.4-1.5s-1.5,0.6-1.5,1.4c0,0,0,0,0,0
				v40.8c0,0.8,0.6,1.4,1.5,1.4h72.5c0.8,0,1.4-0.6,1.4-1.4V40c2.6-1.2,4.3-3.8,4.3-6.6v-2.9c0-0.8-0.6-1.5-1.5-1.5
				c-0.8,0-1.4,0.6-1.4,1.5v2.9c0,2.4-1.9,4.4-4.3,4.4c-2.4,0-4.4-1.9-4.4-4.3c0,0,0,0,0,0v-7.2h11.6c0.8,0,1.5-0.6,1.5-1.4
				c0,0,0,0,0,0v-5.8C87,18,86.4,17.4,85.6,17.4z M16,84.1v-29h21v29H16z M48.5,2.9l8.5,14.5H30.1l8.5-14.5H48.5z M7.3,14L33.6,2.9
				h1.5l-8.5,14.5H7.3V14z M8.7,37.7c-2.4,0-4.3-1.9-4.3-4.3v-7.3H13v7.2C13.1,35.8,11.1,37.7,8.7,37.7C8.7,37.7,8.7,37.7,8.7,37.7z
				 M20.3,37.7c-2.4,0-4.4-1.9-4.4-4.3v-7.3h8.7v7.2C24.6,35.8,22.7,37.7,20.3,37.7C20.3,37.7,20.3,37.7,20.3,37.7z M31.9,37.7
				c-2.4,0-4.4-1.9-4.4-4.3v-7.3h8.7v7.2C36.3,35.8,34.3,37.7,31.9,37.7L31.9,37.7z M43.5,37.7c-2.4,0-4.3-1.9-4.3-4.3v-7.3h8.7v7.2
				C47.9,35.8,45.9,37.7,43.5,37.7L43.5,37.7z M55.1,37.7c-2.4,0-4.3-1.9-4.3-4.3v-7.3h8.7v7.2C59.5,35.8,57.5,37.7,55.1,37.7
				L55.1,37.7z M71,33.3c0,2.4-1.9,4.4-4.3,4.4c-2.4,0-4.4-1.9-4.4-4.3c0,0,0,0,0,0v-7.3H71V33.3z M84.1,23.2H2.9v-2.9h81.2V23.2z"
				/>
			<path class="st1" d="M59.4,43.5c-4,0-7.2,3.2-7.3,7.3v1.5h-4.3c-0.8,0-1.4,0.6-1.5,1.4l-1.5,26.1c0,0.8,0.6,1.5,1.4,1.5
				c0,0,0.1,0,0.1,0h26.1c0.8,0,1.5-0.6,1.5-1.4c0,0,0-0.1,0-0.1L73.5,71c0-0.8-0.7-1.4-1.5-1.4s-1.4,0.7-1.4,1.5l0.4,7.2h-23
				l1.3-23.2h3v4.3c0,0.8,0.6,1.5,1.5,1.5s1.5-0.6,1.5-1.5v-4.3h8.7v4.3c0,0.8,0.6,1.5,1.5,1.5s1.4-0.6,1.4-1.5l0,0v-4.3h3l0.6,10.2
				c0,0.8,0.7,1.4,1.5,1.4s1.4-0.7,1.4-1.5l0,0l-0.6-11.6c0-0.8-0.7-1.4-1.5-1.4h-4.3v-1.5C66.7,46.7,63.5,43.5,59.4,43.5z
				 M55.1,52.2v-1.5c0-2.4,1.9-4.3,4.3-4.3c2.4,0,4.4,1.9,4.4,4.3v1.5H55.1z"/>
			<path class="st1" d="M59.4,62.3c-3.2,0-5.8,2.6-5.8,5.8c0,3.2,2.6,5.8,5.8,5.8c3.2,0,5.8-2.6,5.8-5.8l0,0
				C65.3,64.9,62.7,62.3,59.4,62.3z M59.4,71c-1.6,0-2.9-1.3-2.9-2.9c0-1.6,1.3-2.9,2.9-2.9c1.6,0,2.9,1.3,2.9,2.9S61.1,71,59.4,71
				C59.4,71,59.4,71,59.4,71z"/>
			<path class="st1" d="M31.9,63.8c-0.8,0-1.5,0.6-1.5,1.5l0,0V71c0,0.8,0.6,1.5,1.4,1.5s1.5-0.6,1.5-1.4c0,0,0,0,0,0v-5.8
				C33.3,64.4,32.7,63.8,31.9,63.8z"/>
		</g>
	</g>
</g>
</svg>
