<?xml version="1.0" encoding="utf-8"?>
<!-- Generator: Adobe Illustrator 23.0.5, SVG Export Plug-In . SVG Version: 6.00 Build 0)  -->
<svg version="1.1" id="Layer_1" xmlns="http://www.w3.org/2000/svg" xmlns:xlink="http://www.w3.org/1999/xlink" x="0px" y="0px"
	 viewBox="0 0 168 167" style="enable-background:new 0 0 168 167;" xml:space="preserve">
<style type="text/css">
	.st0{fill:#1D2B44;}
	.st1{fill:#FFFFFF;}
</style>
<g transform="translate(-887 -9413)">
	<ellipse class="st0" cx="971" cy="9496.5" rx="84" ry="83.5"/>
	<g transform="translate(916.227 9391.491)">
		<path class="st1" d="M26.9,89.7H14.8c-1.4,0-2.6,1.2-2.6,2.6v15.2c0,1.4,1.2,2.6,2.6,2.6h12.1c1.4,0,2.6-1.2,2.6-2.6V92.2
			C29.5,90.8,28.3,89.7,26.9,89.7z M19.2,106.7h-3.7v-5.2h3.7L19.2,106.7z M19.2,98.2h-3.7V93h3.7L19.2,98.2z M26.1,106.7h-3.7v-5.2
			h3.7V106.7z M26.1,98.2h-3.7V93h3.7V98.2z"/>
		<path class="st1" d="M21.5,134.2h1.3c0.9,0,1.7-0.7,1.7-1.6s-0.7-1.7-1.6-1.7c0,0-0.1,0-0.1,0h-1.3c-0.9,0-1.7,0.7-1.7,1.6
			S20.5,134.1,21.5,134.2C21.4,134.2,21.4,134.2,21.5,134.2z"/>
		<path class="st1" d="M50.4,89.7c-1.4,0-2.6,1.2-2.6,2.6v15.2c0,1.4,1.2,2.6,2.6,2.6h12.1c1.4,0,2.6-1.2,2.6-2.6V92.2
			c0-1.4-1.2-2.6-2.6-2.6H50.4z M54.8,106.7h-3.7v-5.2h3.7V106.7z M54.8,98.2h-3.7V93h3.7V98.2z M61.8,106.7h-3.7v-5.2h3.7V106.7z
			 M61.8,98.2h-3.7V93h3.7V98.2z"/>
		<path class="st1" d="M57.1,134.2h1.3c0.9,0,1.7-0.7,1.7-1.6c0-0.9-0.7-1.7-1.6-1.7c0,0-0.1,0-0.1,0h-1.3c-0.9,0-1.7,0.7-1.7,1.6
			C55.4,133.4,56.1,134.1,57.1,134.2C57.1,134.2,57.1,134.2,57.1,134.2z"/>
		<path class="st1" d="M86.1,89.7c-1.4,0-2.6,1.2-2.6,2.6v15.2c0,1.4,1.2,2.6,2.6,2.6h12.1c1.4,0,2.6-1.2,2.6-2.6V92.2
			c0-1.4-1.2-2.6-2.6-2.6H86.1z M90.5,106.7h-3.7v-5.2h3.7V106.7z M90.5,98.2h-3.7V93h3.7V98.2z M97.4,106.7h-3.7v-5.2h3.7V106.7z
			 M97.4,98.2h-3.7V93h3.7V98.2z"/>
		<path class="st1" d="M92.8,134.2h1.3c0.9,0,1.7-0.7,1.7-1.6c0-0.9-0.7-1.7-1.6-1.7c0,0-0.1,0-0.1,0h-1.3c-0.9,0-1.6,0.8-1.6,1.7
			C91.2,133.4,91.9,134.1,92.8,134.2z"/>
		<path class="st1" d="M111.6,141.9v-29.2c0-0.9-0.8-1.6-1.7-1.6c-0.9,0-1.6,0.7-1.6,1.6v29.2h-7.5v-24.4c0-1.4-1.2-2.6-2.6-2.6
			H86.1c-1.4,0-2.6,1.2-2.6,2.6v24.4H76V80.6c0-0.3,0.1-0.6,0.3-0.8l15.9-18.5L108,79.8c0.2,0.2,0.3,0.5,0.3,0.8v24.4
			c0,0.9,0.7,1.7,1.6,1.7c0.9,0,1.7-0.7,1.7-1.6c0,0,0-0.1,0-0.1V80.6c0-1.1-0.4-2.1-1.1-2.9L94,58.4c-0.1-0.1-0.1-0.1-0.2-0.2
			c-1-0.8-2.4-0.8-3.4,0c-0.1,0.1-0.1,0.1-0.2,0.2L74.3,77l-5.4-6.2c-0.6-0.7-1.6-0.9-2.3-0.3c-0.7,0.6-0.9,1.6-0.3,2.3
			c0,0,0.1,0.1,0.1,0.1l5.9,6.9c0.2,0.2,0.3,0.5,0.3,0.8v61.2h-7.5v-24.4c0-1.4-1.2-2.6-2.6-2.6H50.4c-1.4,0-2.6,1.2-2.6,2.6v24.4
			h-7.5V80.6c0-0.3,0.1-0.6,0.3-0.8l15.9-18.5l4.9,5.7c0.6,0.7,1.6,0.8,2.3,0.2s0.8-1.6,0.2-2.3c0,0,0,0,0,0l-5.6-6.5
			c-0.1-0.1-0.1-0.1-0.2-0.2c-1-0.8-2.4-0.8-3.4,0c-0.1,0.1-0.1,0.1-0.2,0.2L38.7,77l-16-18.6c-0.1-0.1-0.1-0.1-0.2-0.2
			c-1-0.8-2.4-0.8-3.4,0c-0.1,0.1-0.1,0.1-0.2,0.2L2.4,77.6c-0.7,0.8-1.1,1.9-1.1,2.9v61.3c-0.9,0.2-1.5,1-1.3,1.9
			c0.1,0.8,0.8,1.3,1.6,1.3h109.6c0.9,0,1.7-0.7,1.7-1.7C113,142.7,112.4,142,111.6,141.9L111.6,141.9z M26.2,141.8H15.5v-17.4h10.6
			L26.2,141.8z M26.2,121.1H15.5v-2.9h10.6L26.2,121.1z M37,141.8h-7.5v-24.4c0-1.4-1.2-2.6-2.6-2.6H14.8c-1.4,0-2.6,1.2-2.6,2.6
			v24.4H4.7V80.6c0-0.3,0.1-0.6,0.3-0.8l15.9-18.5l15.9,18.5c0.2,0.2,0.3,0.5,0.3,0.8V141.8z M61.8,141.8H51.2v-17.4h10.6V141.8z
			 M61.8,121.1H51.2v-2.9h10.6V121.1z M97.4,141.8H86.8v-17.4h10.6V141.8z M97.4,121.1H86.8v-2.9h10.6V121.1z"/>
	</g>
</g>
</svg>
