<?xml version="1.0" encoding="utf-8"?>
<!-- Generator: Adobe Illustrator 23.0.5, SVG Export Plug-In . SVG Version: 6.00 Build 0)  -->
<svg version="1.1" id="Layer_1" xmlns="http://www.w3.org/2000/svg" xmlns:xlink="http://www.w3.org/1999/xlink" x="0px" y="0px"
	 viewBox="0 0 167 167" style="enable-background:new 0 0 167 167;" xml:space="preserve">
<style type="text/css">
	.st0{fill:#1D2B44;}
	.st1{fill:#FFFFFF;}
</style>
<g transform="translate(-179 -9413)">
	<circle class="st0" cx="262.5" cy="9496.5" r="83.5"/>
	<g transform="translate(216 9438.543)">
		<g transform="translate(0 14.457)">
			<g transform="translate(0 0)">
				<path class="st1" d="M23.9,46.4h45.3c1,0,1.8-0.8,1.8-1.8c0-0.5-0.2-1-0.6-1.4L47.8,22.9c-0.7-0.6-1.7-0.6-2.4,0L22.7,43.3
					c-0.7,0.7-0.8,1.8-0.1,2.6C22.9,46.2,23.4,46.4,23.9,46.4L23.9,46.4z M48.4,42.8V28.3l16.1,14.5L48.4,42.8z M44.7,28.3v14.5
					H28.6L44.7,28.3z"/>
				<path class="st1" d="M83.8,72.4c-0.5,0-1,0-1.5,0.1V48.7c1.1,0.7,2.4,1,3.6,1l0,0c2,0,4-0.9,5.3-2.4c2.6-2.9,2.4-7.4-0.5-10.1
					c0,0,0,0,0,0l-7.9-7.1V13.3c0-1-0.8-1.8-1.8-1.8l0,0H69.2c-1,0-1.8,0.8-1.8,1.8v0v3L51.3,1.8c-2.7-2.5-6.8-2.5-9.6,0l-14.6,13
					c-0.8,0.7-0.8,1.8-0.2,2.6s1.8,0.8,2.6,0.2c0,0,0,0,0,0l14.6-13c1.3-1.2,3.4-1.2,4.7,0L88.3,40c1.4,1.3,1.6,3.5,0.3,4.9
					c0,0,0,0,0,0c-1.3,1.4-3.5,1.6-5,0.3L47.8,13c-0.7-0.6-1.7-0.6-2.4,0L9.5,45.2c-1.4,1.3-3.7,1.2-5-0.3c-1.3-1.4-1.2-3.6,0.3-4.9
					c0,0,0,0,0,0l12.6-11.4c0.7-0.7,0.8-1.8,0.1-2.6s-1.8-0.8-2.6-0.1L2.4,37.3c-2.9,2.6-3.2,7.1-0.5,10.1c0,0,0,0,0,0
					c2.3,2.5,6,3.1,9,1.4v23.9c-5-0.9-9.8,2.6-10.7,7.6c-0.4,2.4,0.2,4.9,1.6,6.9c0.3,0.5,0.9,0.8,1.5,0.8h86.7
					c0.6,0,1.1-0.3,1.5-0.8c3-4.2,2-10-2.2-12.9C87.6,73,85.7,72.4,83.8,72.4L83.8,72.4z M71,15.1h8.2v11.8L71,19.6V15.1z
					 M14.4,45.6l32.1-28.9l32.1,28.9V74c-0.7,0.5-1.4,1.1-2,1.8c-1.4-0.3-2.8,0-4,0.7c-2.3-2.7-6.3-3-9-0.7
					c-0.5,0.4-0.9,0.8-1.2,1.3c-0.2,0.3-0.3,0.6-0.3,1v6.1h-5V72c0-5.9-4.8-10.7-10.7-10.7S35.9,66.1,35.9,72c0,0,0,0,0,0v12.2h-5
					v-6.1c0-0.4-0.1-0.7-0.3-1c-1.9-2.9-5.9-3.7-8.8-1.8c-0.5,0.3-0.9,0.7-1.3,1.2c-1.2-0.7-2.6-1-4-0.7c-0.6-0.7-1.2-1.3-2-1.8
					L14.4,45.6L14.4,45.6z M4.2,84.2C2.8,81.4,4,78,6.8,76.6c2.7-1.3,5.9-0.3,7.4,2.2c0.5,0.9,1.6,1.2,2.5,0.7c0,0,0,0,0,0
					c0.3-0.2,0.6-0.2,0.9-0.2c0.7,0,1.3,0.4,1.6,1.1c0.4,0.9,1.5,1.4,2.4,1c0.5-0.2,0.9-0.7,1.1-1.3c0.3-1.5,1.8-2.4,3.2-2.1
					c0.5,0.1,1,0.4,1.4,0.8v5.4H4.2z M39.5,84.2V72c0-3.9,3.2-7,7-7s7,3.2,7,7l0,0v12.2H39.5z M88.9,84.2h-23v-5.4
					c1-1.1,2.8-1.1,3.9-0.1c0.4,0.4,0.7,0.9,0.8,1.4c0.2,1,1.2,1.6,2.2,1.4c0.6-0.1,1.1-0.5,1.3-1.1c0.3-0.6,0.9-1.1,1.6-1.1
					c0.3,0,0.6,0.1,0.9,0.2c0.9,0.5,2,0.2,2.5-0.6c0,0,0,0,0,0c1.6-2.7,5-3.6,7.7-2.1C89.2,78.3,90.2,81.5,88.9,84.2L88.9,84.2z"/>
			</g>
			<g transform="translate(20.425 19.906)">
				<path class="st1" d="M1.8,3.6C0.8,3.6,0,2.8,0,1.8S0.8,0,1.8,0c1,0,1.8,0.8,1.8,1.8c0,0.1,0,0.2,0,0.4C3.4,3,2.7,3.6,1.8,3.6z"
					/>
			</g>
			<g transform="translate(20.306 50.932)">
				<path class="st1" d="M14.5,14.5H1.8c-1,0-1.8-0.8-1.8-1.8V1.8C0,0.8,0.8,0,1.8,0h12.7c1,0,1.8,0.8,1.8,1.8v10.9
					C16.3,13.7,15.5,14.5,14.5,14.5z M3.6,10.9h9V3.6h-9V10.9z"/>
			</g>
			<g transform="translate(56.454 50.932)">
				<path class="st1" d="M14.5,14.5H1.8c-1,0-1.8-0.8-1.8-1.8V1.8C0,0.8,0.8,0,1.8,0h12.7c1,0,1.8,0.8,1.8,1.8v10.9
					C16.3,13.7,15.5,14.5,14.5,14.5z M3.6,10.9h9V3.6h-9V10.9z"/>
			</g>
		</g>
	</g>
</g>
</svg>
