<svg id="Layer_1" data-name="Layer 1" xmlns="http://www.w3.org/2000/svg" viewBox="0 0 167 167"><defs><style>.cls-1{fill:#1d2b44;}.cls-2{fill:#fff;}</style></defs><title>valet</title><circle class="cls-1" cx="83.5" cy="83.5" r="83.5"/><path class="cls-2" d="M121.63,54.34a8.89,8.89,0,0,0,2.07-5.71V35.79H105.9V48.63A8.84,8.84,0,0,0,108,54.34a16.36,16.36,0,0,0-9.57,14.91V95.58a4.67,4.67,0,0,0,4.68,4.68,5.12,5.12,0,0,0,.56,0v31.43h2.81V98.83a4.65,4.65,0,0,0,1.32-3.25V92h14v3.56a4.7,4.7,0,0,0,1.31,3.25v32.83H126V100.23a5.25,5.25,0,0,0,.56,0,4.68,4.68,0,0,0,4.69-4.68V69.25A16.51,16.51,0,0,0,121.63,54.34ZM108.71,38.61h12.18v3.93H108.71Zm0,6.74h12.18v3.28a6.09,6.09,0,0,1-12.18,0ZM105,95.58a1.88,1.88,0,0,1-3.75,0h0V92H105Zm0-6.37h-3.75v-3H105Zm23.42,6.37a1.87,1.87,0,1,1-3.74,0h0V92h3.74Zm0-6.37h-3.74v-3h3.74Zm0-5.81h-3.74V68.12h-2.81V89.21H107.77V68.12H105V83.39h-3.75V69.25a13.59,13.59,0,0,1,9.22-12.87,8.84,8.84,0,0,0,8.74,0,13.66,13.66,0,0,1,9.22,12.87Z" transform="translate(0 0)"/><path class="cls-2" d="M113.39,97.55h2.81v34.1h-2.81Z" transform="translate(0 0)"/><path class="cls-2" d="M80,90.14A5.76,5.76,0,0,0,75.16,89L64.5,91.1a4.7,4.7,0,0,0,.93,9.32H76.3A5.8,5.8,0,0,0,80,90.14ZM76.3,97.6H65.43a1.89,1.89,0,0,1-.37-3.74L75.71,91.7a3.05,3.05,0,0,1,.6-.06,3,3,0,0,1,0,6Z" transform="translate(0 0)"/><path class="cls-2" d="M35.15,92.08H55.76v2.81H35.15Z" transform="translate(0 0)"/><path class="cls-2" d="M35.15,98H55.76v2.82H35.15Z" transform="translate(0 0)"/><path class="cls-2" d="M35.15,103.82H55.76v2.82H35.15Z" transform="translate(0 0)"/><path class="cls-2" d="M87.25,66.53H77L68.89,54.35H35.15v2.81H67.38L80.93,77.62l-5.56,3.9H35.15v2.81H76.26L82.48,80l3,4.51V107.1a4.22,4.22,0,0,1-4.22,4.21H35.15v2.82h25.2v8a9.65,9.65,0,0,0,19.3,0v-8h1.6a7,7,0,0,0,7-7V83.63l-4.5-6.79h3.48a5.16,5.16,0,0,0,.14-10.31ZM76.85,122.1a6.84,6.84,0,1,1-13.68,0h0v-8H76.85ZM87.25,74H81.92l-3.1-4.69h8.43a2.35,2.35,0,0,1,0,4.69Z" transform="translate(0 0)"/><path class="cls-2" d="M40.62,71.91l5.83-5.83,2,2L42.61,73.9Z" transform="translate(0 0)"/><path class="cls-2" d="M48.44,64.09l2-2,2,2-2,2Z" transform="translate(0 0)"/><path class="cls-2" d="M50.74,71.91l5.83-5.83,2,2L52.72,73.9Z" transform="translate(0 0)"/><path class="cls-2" d="M58.56,64.09l2-2,2,2-2,2Z" transform="translate(0 0)"/><path class="cls-2" d="M77.69,104.76H80.5v2.81H77.69Z" transform="translate(0 0)"/><path class="cls-2" d="M113.77,65.5h2.81V81.62h-2.81Z" transform="translate(0 0)"/><path class="cls-2" d="M113.77,59.88h2.81v2.81h-2.81Z" transform="translate(0 0)"/></svg>