<?xml version="1.0" encoding="utf-8"?>
<!-- Generator: Adobe Illustrator 23.0.5, SVG Export Plug-In . SVG Version: 6.00 Build 0)  -->
<svg version="1.1" id="Layer_1" xmlns="http://www.w3.org/2000/svg" xmlns:xlink="http://www.w3.org/1999/xlink" x="0px" y="0px"
	 viewBox="0 0 167 167" style="enable-background:new 0 0 167 167;" xml:space="preserve">
<style type="text/css">
	.st0{fill:#1D2B44;}
	.st1{fill:#FFFFFF;}
</style>
<g transform="translate(-1242 -9413)">
	<circle class="st0" cx="1325.5" cy="9496.5" r="83.5"/>
	<g transform="translate(1281 9448.145)">
		<path class="st1" d="M89.4,21.3H88V11.1c0-0.5-0.3-1-0.7-1.2l0,0L72.8,1.2c-0.5-0.3-1-0.3-1.5,0L56.8,9.9l0,0
			c-0.4,0.3-0.7,0.7-0.7,1.2v10.1h-1.4c-0.8,0-1.4,0.6-1.4,1.4l0,0v21.7H38.7v-4.3c0-0.8-0.6-1.4-1.4-1.4c0,0,0,0,0,0h-4.4
			c-0.7-6.1-5.5-10.8-11.5-11.5V16.7c2.3-0.8,3.4-3.3,2.6-5.5c-0.8-2.3-3.3-3.4-5.5-2.6s-3.4,3.3-2.6,5.5c0.4,1.2,1.4,2.2,2.6,2.6
			v10.5c-6,0.7-10.8,5.5-11.5,11.5H2.4c-0.8,0-1.4,0.6-1.4,1.4c0,0,0,0,0,0v49.3c0,0.8,0.6,1.4,1.4,1.4h87c0.8,0,1.4-0.6,1.4-1.4
			V22.7C90.9,21.9,90.2,21.3,89.4,21.3z M72,4.1l9.3,5.6H62.8L72,4.1z M59,12.6h26.1v8.7h-2.9v-5.8h-2.9v5.8h-2.9v-5.8h-2.9v5.8
			h-2.9v-5.8h-2.9v5.8h-2.9v-5.8h-2.9v5.8H59L59,12.6z M59,88H32.9V47.4H59V88z M30,53.2H9.7v-2.9H30L30,53.2z M30,64.8H9.7v-2.9H30
			L30,64.8z M30,76.4H9.7v-2.9H30L30,76.4z M30,88H9.7v-2.9H30L30,88z M19.8,11.1c0.8,0,1.4,0.6,1.4,1.4c0,0.8-0.6,1.4-1.4,1.4
			c-0.8,0-1.4-0.6-1.4-1.4l0,0C18.4,11.8,19,11.1,19.8,11.1z M19.8,30c5,0,9.3,3.7,10,8.7H9.8C10.5,33.7,14.8,30,19.8,30z M3.9,41.6
			h31.9v2.9h-4.3c-0.8,0-1.4,0.6-1.4,1.4l0,0v1.4H8.2c-0.8,0-1.4,0.6-1.4,1.4v5.8c0,0.8,0.6,1.4,1.4,1.4c0,0,0,0,0,0H30V59H8.2
			c-0.8,0-1.4,0.6-1.4,1.4v5.8c0,0.8,0.6,1.4,1.4,1.4H30v2.9H8.2c-0.8,0-1.4,0.6-1.4,1.4v5.8c0,0.8,0.6,1.4,1.4,1.4H30v2.9H8.2
			c-0.8,0-1.4,0.6-1.4,1.4V88H3.9V41.6z M88,88H61.9v-5.8h23.2v-2.9H61.9v-2.9h23.2v-2.9H61.9v-2.9h23.2v-2.9H61.9v-2.9h23.2v-2.9
			H61.9V59h23.2v-2.9H61.9v-2.9h23.2v-2.9H61.9v-2.9h23.2v-2.9h-29V24.2H88V88z"/>
		<path class="st1" d="M10.7,18.6l0.8,0.8l2-2l-0.8-0.8c-2.2-2.2-2.2-5.7,0-7.8l0.8-0.8l-2-2.1l-0.8,0.8C7.4,9.9,7.4,15.3,10.7,18.6
			C10.7,18.6,10.7,18.6,10.7,18.6z"/>
		<path class="st1" d="M7.2,23.8l2.1-2L9,21.5C4.1,16.6,4.1,8.6,9,3.7c0,0,0,0,0,0l0.2-0.2l-2.1-2L7,1.7c-6,6-6,15.8,0,21.8
			c0,0,0,0,0,0L7.2,23.8z"/>
		<path class="st1" d="M26.1,17.4l2,2l0.8-0.8c3.3-3.3,3.3-8.6,0-11.9c0,0,0,0,0,0l-0.8-0.8l-2,2l0.8,0.8c2.2,2.2,2.2,5.7,0,7.8
			L26.1,17.4z"/>
		<path class="st1" d="M34.3,12.6c0,3.3-1.3,6.5-3.7,8.9l-0.2,0.2l2.1,2l0.2-0.2c6-6,6-15.8,0-21.8c0,0,0,0,0,0l-0.2-0.2l-2,2
			l0.2,0.3C33,6.1,34.3,9.3,34.3,12.6z"/>
		<path class="st1" d="M37.2,59H43c0.8,0,1.4-0.6,1.5-1.4c0,0,0,0,0,0v-5.8c0-0.8-0.7-1.4-1.5-1.4c0,0,0,0,0,0h-5.8
			c-0.8,0-1.4,0.6-1.4,1.4v5.8C35.8,58.3,36.4,59,37.2,59C37.2,59,37.2,59,37.2,59z M38.7,53.2h2.9v2.9h-2.9V53.2z"/>
		<path class="st1" d="M48.8,59h5.8c0.8,0,1.4-0.6,1.5-1.4c0,0,0,0,0,0v-5.8c0-0.8-0.7-1.4-1.5-1.4c0,0,0,0,0,0h-5.8
			c-0.8,0-1.4,0.6-1.4,1.4v5.8C47.4,58.3,48,59,48.8,59C48.8,59,48.8,59,48.8,59z M50.3,53.2h2.9v2.9h-2.9V53.2z"/>
		<path class="st1" d="M48.8,70.6h5.8c0.8,0,1.4-0.6,1.5-1.4c0,0,0,0,0,0v-5.8c0-0.8-0.7-1.4-1.5-1.4c0,0,0,0,0,0h-5.8
			c-0.8,0-1.4,0.6-1.4,1.4v5.8C47.4,69.9,48,70.6,48.8,70.6C48.8,70.6,48.8,70.6,48.8,70.6z M50.3,64.8h2.9v2.9h-2.9V64.8z"/>
		<path class="st1" d="M37.2,70.6H43c0.8,0,1.4-0.6,1.5-1.4c0,0,0,0,0,0v-5.8c0-0.8-0.7-1.4-1.5-1.4c0,0,0,0,0,0h-5.8
			c-0.8,0-1.4,0.6-1.4,1.4v5.8C35.8,69.9,36.4,70.6,37.2,70.6C37.2,70.6,37.2,70.6,37.2,70.6z M38.7,64.8h2.9v2.9h-2.9V64.8z"/>
		<path class="st1" d="M37.2,82.2H43c0.8,0,1.4-0.6,1.5-1.4c0,0,0,0,0,0v-5.8c0-0.8-0.7-1.4-1.5-1.4c0,0,0,0,0,0h-5.8
			c-0.8,0-1.4,0.6-1.4,1.4v5.8C35.8,81.5,36.4,82.2,37.2,82.2C37.2,82.2,37.2,82.2,37.2,82.2z M38.7,76.4h2.9v2.9h-2.9V76.4z"/>
		<path class="st1" d="M48.8,82.2h5.8c0.8,0,1.4-0.6,1.5-1.4c0,0,0,0,0,0v-5.8c0-0.8-0.7-1.4-1.5-1.4c0,0,0,0,0,0h-5.8
			c-0.8,0-1.4,0.6-1.4,1.4v5.8C47.4,81.5,48,82.2,48.8,82.2C48.8,82.2,48.8,82.2,48.8,82.2z M50.3,76.4h2.9v2.9h-2.9V76.4z"/>
		<path class="st1" d="M59,27.1h26.1V30H59V27.1z"/>
		<path class="st1" d="M59,32.9h26.1v2.9H59V32.9z"/>
		<path class="st1" d="M59,38.7h26.1v2.9H59V38.7z"/>
	</g>
</g>
</svg>
