<?xml version="1.0" encoding="utf-8"?>
<!-- Generator: Adobe Illustrator 23.0.5, SVG Export Plug-In . SVG Version: 6.00 Build 0)  -->
<svg version="1.1" id="Layer_1" xmlns="http://www.w3.org/2000/svg" xmlns:xlink="http://www.w3.org/1999/xlink" x="0px" y="0px"
	 viewBox="0 0 167 167" style="enable-background:new 0 0 167 167;" xml:space="preserve">
<style type="text/css">
	.st0{fill:#1D2B44;}
	.st1{fill:#FFFFFF;}
</style>
<g transform="translate(-1272 -6686)">
	<g transform="translate(1092 -3030)">
		<circle class="st0" cx="263.5" cy="9799.5" r="83.5"/>
	</g>
	<g transform="translate(1254.32 6716)">
		<g transform="translate(60.68 0)">
			<path class="st1" d="M81.6,88.6c-0.2-14.5-15.1-18.8-26-22c-1.3-0.4-2.5-0.7-3.6-1.1v-6c2.2-1.4,4.2-3.2,5.7-5.3h6.6
				c3.2,0,5.9-2.6,5.9-5.9v-7.1c0.4-0.9,0.6-2,0.6-3v-2.2c0-1-0.2-2-0.6-3v-3.7C70.3,13.2,57.1,0,40.8,0S11.4,13.2,11.4,29.4V33
				c0,0,0,0.1,0,0.1c-0.4,0.9-0.6,2-0.6,3v2.2c0,4.2,3.4,7.6,7.6,7.6h1.7c1.2,5.7,4.6,10.6,9.5,13.6v6c-1.1,0.4-2.4,0.7-3.6,1.1
				C15.1,69.7,0.2,74,0,88.6c0,0,0,0,0,0v16.3c0,1.2,0.9,2.1,2.1,2.1c0,0,0,0,0,0h6.2c1.2,0,2.1-0.9,2.1-2.1c0-1.2-0.9-2.1-2.1-2.1
				l0,0H4.2V88.6c0.1-5.1,2.4-8.9,7.3-12c3.5-2,7.2-3.6,11.1-4.7l5,9.8c0.5,1,1.8,1.4,2.9,0.9c0.1,0,0.1-0.1,0.2-0.1L33,81l1.9,7.3
				l-3.3,14.5h-4.5c-1.2,0-2.1,0.9-2.1,2.1c0,1.2,0.9,2.1,2.1,2.1h52.5c1.2,0,2.1-0.9,2.1-2.1L81.6,88.6
				C81.6,88.6,81.6,88.6,81.6,88.6L81.6,88.6z M54.5,70.6l0.4,0.1l-3.6,7l-6.8-4.6l5.7-3.9C51.6,69.8,53,70.2,54.5,70.6L54.5,70.6z
				 M40.8,75.7l4.2,2.8l-2,7.6h-4.3l-2-7.6L40.8,75.7z M40.8,70.7l-7.1-4.8v-4.4c4.6,1.6,9.5,1.6,14.1,0v4.4L40.8,70.7z M57.8,29.8
				L57.8,29.8c-4.4-2.8-8.1-5.1-13.9-3.5c-0.1,0-0.1,0-0.2,0.1c-1.2,0.5-2.3,0.9-3.4,1.3c-6.6,2.5-10.2,3.9-16.6,3.8v-1.7
				c0-9.4,7.6-17,17-17S57.8,20.4,57.8,29.8L57.8,29.8L57.8,29.8z M66.1,48.4c0,0.9-0.8,1.7-1.7,1.7h-4.2c0.6-1.3,1-2.8,1.3-4.2h1.7
				c1,0,1.9-0.2,2.8-0.5L66.1,48.4L66.1,48.4z M66.7,38.3c0,1.9-1.5,3.4-3.4,3.4H62c0-0.1,0-9,0-9h1.3c1.9,0,3.4,1.5,3.4,3.4
				L66.7,38.3L66.7,38.3z M18.3,41.7c-1.9,0-3.4-1.5-3.4-3.4v-2.2c0-1.9,1.5-3.4,3.4-3.4h1.3c0,0,0,8.9,0,9L18.3,41.7z M19.7,28.5
				h-1.3c-0.9,0-1.9,0.2-2.8,0.5C15.8,15.1,27.3,4,41.2,4.2C54.9,4.4,65.9,15.4,66.1,29c-0.9-0.3-1.8-0.5-2.8-0.5H62
				c-0.7-11.7-10.7-20.6-22.4-20C28.9,9.2,20.3,17.8,19.7,28.5L19.7,28.5z M23.9,43.6L23.9,43.6c-0.1-0.7-0.1-1.4-0.1-2v-5.9
				c7.2,0.2,11.4-1.5,18.1-4c1.1-0.4,2.1-0.8,3.3-1.3c3.9-1.1,6.2,0.3,10.3,3c0.7,0.5,1.5,1,2.3,1.5v6.8c0,3-0.8,5.9-2.3,8.5H40.8
				c-1.2,0-2.1,0.9-2.1,2.1s0.9,2.1,2.1,2.1h11.3c-7,6.3-17.8,5.6-24-1.4C25.8,50.3,24.3,47,23.9,43.6z M30.3,77.8l-3.6-7l0.4-0.1
				c1.5-0.4,2.9-0.8,4.2-1.3l5.7,3.9L30.3,77.8z M35.9,102.8l2.8-12.5h4.2l2.8,12.5H35.9z M77.5,102.8H50.1l-3.3-14.5l1.9-7.3
				l2.3,1.5c1,0.6,2.3,0.4,2.9-0.6c0-0.1,0.1-0.1,0.1-0.2l5-9.8c3.9,1.1,7.6,2.7,11.1,4.7c4.9,3.1,7.2,6.9,7.3,12L77.5,102.8
				L77.5,102.8z"/>
			<path class="st1" d="M69.2,92.4H58.7c-1.2,0-2.1,0.9-2.1,2.1s0.9,2.1,2.1,2.1c0,0,0,0,0,0h10.5c1.2,0,2.1-0.9,2.1-2.1
				S70.4,92.4,69.2,92.4C69.2,92.4,69.2,92.4,69.2,92.4z"/>
			<path class="st1" d="M17.7,102.8c-1.2,0-2.1,0.9-2.1,2.1s0.9,2.1,2.1,2.1c0,0,0,0,0,0h0c1.2,0,2.1-0.9,2.1-2.1
				C19.8,103.8,18.8,102.8,17.7,102.8z"/>
		</g>
	</g>
</g>
</svg>
