<svg id="Layer_1" data-name="Layer 1" xmlns="http://www.w3.org/2000/svg" viewBox="0 0 167 167"><defs><style>.cls-1{fill:#1d2b44;}.cls-2{fill:#fff;}</style></defs><title>staffing</title><circle class="cls-1" cx="83.5" cy="83.5" r="83.5"/><path class="cls-2" d="M73.14,85.9c-.2,5.24,1.79,9.49,5.46,11.67a9.89,9.89,0,0,0,10.13,0c3.67-2.18,5.66-6.43,5.46-11.67-.24-6.52-5.58-9.68-10.44-9.85h-.17C78.72,76.22,73.38,79.38,73.14,85.9Zm4.64.17c.14-3.78,3.24-5.26,5.89-5.38,2.64.12,5.74,1.6,5.89,5.38.13,3.49-1,6.23-3.2,7.51a5.26,5.26,0,0,1-5.39,0c-2.16-1.28-3.33-4-3.19-7.51Zm32.35-.17c-.2,5.24,1.8,9.49,5.46,11.67a9.91,9.91,0,0,0,10.14,0c3.66-2.18,5.65-6.43,5.46-11.67-.25-6.52-5.59-9.67-10.45-9.85h-.16C115.72,76.22,110.38,79.38,110.13,85.9Zm4.64.17c.14-3.78,3.24-5.26,5.89-5.38,2.65.12,5.75,1.6,5.89,5.38.13,3.49-1,6.23-3.19,7.51a5.28,5.28,0,0,1-5.4,0C115.8,92.3,114.64,89.56,114.77,86.07ZM97.1,53.82a9.89,9.89,0,0,0,10.13,0c3.67-2.18,5.66-6.43,5.46-11.67-.24-6.52-5.58-9.68-10.44-9.85h-.17c-4.85.17-10.2,3.33-10.44,9.85C91.44,47.39,93.43,51.64,97.1,53.82Zm-.82-11.5c.14-3.79,3.24-5.26,5.89-5.38,2.64.12,5.74,1.6,5.89,5.38.13,3.49-1,6.22-3.2,7.51a5.31,5.31,0,0,1-5.39,0c-2.16-1.28-3.33-4-3.2-7.51ZM41.6,97.57a9.89,9.89,0,0,0,10.13,0c3.67-2.18,5.66-6.43,5.46-11.67-.24-6.52-5.58-9.68-10.44-9.85h-.17c-4.86.17-10.2,3.33-10.44,9.85C36,91.14,37.94,95.39,41.6,97.57Zm-.82-11.5c.14-3.79,3.24-5.26,5.89-5.38,2.64.12,5.75,1.6,5.89,5.38.13,3.49-1,6.22-3.2,7.51a5.26,5.26,0,0,1-5.39,0c-2.16-1.28-3.32-4-3.19-7.51ZM98.3,123.15a2.32,2.32,0,0,1-4.56.85l-2-11c-.7-3.8-4.53-5.48-8-5.48s-7.32,1.73-8,5.52l-1.54,8.36H84.66a2.32,2.32,0,1,1,0,4.64H71.31a2.41,2.41,0,0,1-1.78-.9,2.46,2.46,0,0,1-.5-2l2-11c1.18-6.42,7.17-9.29,12.58-9.29s11.4,2.87,12.59,9.29Zm3.86-59c-3.48,0-7.32,1.7-8,5.5a2.32,2.32,0,1,1-4.56-.85c1.19-6.41,7.17-9.29,12.58-9.29s11.4,2.88,12.59,9.29a2.32,2.32,0,1,1-4.56.85c-.7-3.8-4.54-5.5-8-5.5Zm31.28,61.7a2.31,2.31,0,0,1-2.7-1.84h0l-2.05-11c-.7-3.8-4.54-5.48-8-5.48s-7.33,1.73-8,5.53l-1.54,8.35h10.56a2.32,2.32,0,1,1,0,4.64H108.31a2.43,2.43,0,0,1-2.28-2.86l2-11c1.19-6.42,7.18-9.29,12.59-9.29s11.4,2.87,12.59,9.29l2,11a2.32,2.32,0,0,1-1.86,2.7Zm-73.34-72a9.89,9.89,0,0,0,10.13,0c3.67-2.18,5.66-6.43,5.46-11.67-.24-6.52-5.58-9.68-10.44-9.85h-.17c-4.86.17-10.2,3.33-10.44,9.85C54.45,47.39,56.44,51.64,60.1,53.82Zm-.83-11.5c.15-3.79,3.25-5.26,5.9-5.38,2.64.12,5.75,1.6,5.89,5.38.13,3.49-1,6.22-3.2,7.51a5.31,5.31,0,0,1-5.39,0c-2.16-1.28-3.32-4-3.19-7.51Zm2,80.83a2.32,2.32,0,0,1-4.56.85l-2-11c-.7-3.8-4.54-5.48-8-5.48s-7.32,1.73-8,5.52l-1.54,8.36H48.34a2.32,2.32,0,0,1,0,4.64h-14a2.34,2.34,0,0,1-1.78-.9,2.39,2.39,0,0,1-.5-2l2-11c1.19-6.42,7.18-9.29,12.59-9.29s11.4,2.87,12.59,9.29Zm3.87-59c-3.49,0-7.33,1.7-8,5.5a2.32,2.32,0,1,1-4.56-.85h0c1.19-6.41,7.18-9.29,12.59-9.29s11.4,2.88,12.58,9.29a2.32,2.32,0,0,1-4.55.91v-.06c-.7-3.8-4.53-5.5-8-5.5Z" transform="translate(0 0)"/></svg>