<?xml version="1.0" encoding="utf-8"?>
<!-- Generator: Adobe Illustrator 23.0.5, SVG Export Plug-In . SVG Version: 6.00 Build 0)  -->
<svg version="1.1" id="Layer_1" xmlns="http://www.w3.org/2000/svg" xmlns:xlink="http://www.w3.org/1999/xlink" x="0px" y="0px"
	 viewBox="0 0 167 167" style="enable-background:new 0 0 167 167;" xml:space="preserve">
<style type="text/css">
	.st0{fill:#1D2B44;}
	.st1{fill:#FFFFFF;}
</style>
<g transform="translate(-1014 -5168)">
	<circle class="st0" cx="1097.5" cy="5251.5" r="83.5"/>
	<g transform="translate(1044.729 5210.298)">
		<g transform="translate(17.168 20.03)">
			<path class="st1" d="M10.9,9.3c-1.2,2.1-3.8,2.8-5.9,1.6S2.2,7.1,3.4,5c0.8-1.3,2.2-2.1,3.7-2.1V0C3.2,0,0,3.2,0,7.2
				c0,4,3.2,7.2,7.2,7.1c2.6,0,4.9-1.4,6.2-3.6L10.9,9.3z"/>
		</g>
		<path class="st1" d="M63,42.9h12.9c7.1,0,12.9-5.8,12.9-12.9v-8.6c0-7.1-5.8-12.9-12.9-12.9H58.3L55.4,0H36.2l-2.9,8.6H15.7
			C7,8.6,0,15.6,0,24.3v1.4h8.7c0,0.5-0.1,0.9-0.1,1.4c0,8.7,7.1,15.7,15.7,15.7h21.5c0,2.4,1,4.8,2.9,6.4v20.8c0,4,3.2,7.2,7.2,7.2
			h21.5v4.3c0,3.9,3.2,7.1,7.2,7.2h4.3V54.4h-4.3c-3.9,0-7.1,3.2-7.2,7.2v4.3H60.1V49.3C61.9,47.7,62.9,45.4,63,42.9z M80.1,61.5
			c0-2.4,1.9-4.3,4.3-4.3h1.4v28.6h-1.4c-2.4,0-4.3-1.9-4.3-4.3L80.1,61.5z M38.2,2.9h15.1l1.9,5.7H36.3L38.2,2.9z M75.8,11.4
			c5.5,0,10,4.5,10,10v1.4H31.4c-0.4-4.6-2.9-8.8-6.7-11.4L75.8,11.4z M2.9,22.9c0.8-7.1,7.1-12.1,14.2-11.4
			c0.9,0.1,1.8,0.3,2.7,0.6c-5.1,1.6-9.1,5.6-10.6,10.8H2.9z M11.4,27.2c0-6.9,5.5-12.6,12.4-12.9c3,2.4,4.8,6.1,4.8,10v1.4h8.5
			c0.1,0.5,0.1,1,0.1,1.4c0,7.1-5.8,12.9-12.9,12.9S11.4,34.3,11.4,27.2z M46.3,40.1H33.3c4.2-2.9,6.7-7.7,6.7-12.9
			c0-0.5,0-1-0.1-1.4h45.9V30c0,5.5-4.5,10-10,10H62.4c-1.6-4.5-6.5-6.8-10.9-5.2C49.1,35.7,47.1,37.6,46.3,40.1z M74.4,68.7h2.9
			v5.7h-2.9V68.7z M71.5,68.7v5.7H55.8c-2.4,0-4.3-1.9-4.3-4.3l0,0V51c1.8,0.7,3.9,0.7,5.7,0v14.8c0,1.6,1.3,2.9,2.9,2.9L71.5,68.7z
			 M54.4,48.6c-3.2,0-5.7-2.6-5.7-5.7s2.6-5.7,5.7-5.7c3.2,0,5.7,2.6,5.7,5.7l0,0C60.1,46.1,57.5,48.6,54.4,48.6z"/>
		<g transform="translate(65.811 28.614)">
			<path class="st1" d="M0,0v8.6h11.4V0H0z M8.6,5.7H2.9V2.9h5.7V5.7z"/>
		</g>
		<g transform="translate(33.229 14.327)">
			<g transform="translate(0 0)">
				<rect x="0" y="0.4" class="st1" width="22" height="3"/>
			</g>
		</g>
		<g transform="translate(65.104 17.225)">
			<g transform="translate(0 0)">
				<rect x="0.2" y="0.5" class="st1" width="3" height="2"/>
			</g>
		</g>
		<g transform="translate(70.899 17.225)">
			<g transform="translate(0 0)">
				<rect x="0.4" y="0.5" class="st1" width="3" height="2"/>
			</g>
		</g>
		<g transform="translate(76.695 17.225)">
			<g transform="translate(0 0)">
				<rect x="-0.4" y="0.5" class="st1" width="3" height="2"/>
			</g>
		</g>
	</g>
</g>
</svg>
