<svg id="Layer_1" data-name="Layer 1" xmlns="http://www.w3.org/2000/svg" viewBox="0 0 167 167"><defs><style>.cls-1{fill:#1d2b44;}.cls-2{fill:#fff;}</style></defs><title>mobile pos</title><circle class="cls-1" cx="83.5" cy="83.5" r="83.5"/><path class="cls-2" d="M91.42,34.54H89a1.38,1.38,0,1,0,0,2.76h2.4a1.38,1.38,0,0,0,0-2.76Z" transform="translate(0 0)"/><path class="cls-2" d="M84.86,34.54H73.25a1.38,1.38,0,0,0,0,2.76H84.86a1.38,1.38,0,0,0,0-2.76Z" transform="translate(0 0)"/><path class="cls-2" d="M91.42,28.44H89a1.38,1.38,0,1,0,0,2.76h2.4a1.38,1.38,0,0,0,0-2.76Z" transform="translate(0 0)"/><path class="cls-2" d="M84.86,28.44H73.25a1.38,1.38,0,1,0,0,2.76H84.86a1.38,1.38,0,0,0,0-2.76Z" transform="translate(0 0)"/><path class="cls-2" d="M91.42,40.66H89a1.38,1.38,0,1,0,0,2.76h2.39a1.38,1.38,0,0,0,0-2.76Z" transform="translate(0 0)"/><path class="cls-2" d="M84.86,40.66H73.25a1.38,1.38,0,1,0,0,2.76H84.86a1.38,1.38,0,0,0,0-2.76Z" transform="translate(0 0)"/><path class="cls-2" d="M91.81,127.66a1.38,1.38,0,0,0,1.38-1.38v-7.89a1.38,1.38,0,1,0-2.76,0v7.89a1.37,1.37,0,0,0,1.36,1.38Z" transform="translate(0 0)"/><path class="cls-2" d="M91.81,133.78a1.39,1.39,0,0,0,1.38-1.38v-2a1.38,1.38,0,0,0-2.76,0v2A1.39,1.39,0,0,0,91.81,133.78Z" transform="translate(0 0)"/><path class="cls-2" d="M68.24,76.46a4.7,4.7,0,1,0,4.69,4.7,4.69,4.69,0,0,0-4.69-4.7Zm0,6.63a1.94,1.94,0,1,1,1.93-1.93A1.94,1.94,0,0,1,68.24,83.09Z" transform="translate(0 0)"/><path class="cls-2" d="M68.24,88.05a4.7,4.7,0,1,0,4.69,4.7h0a4.69,4.69,0,0,0-4.67-4.7Zm0,6.6a1.93,1.93,0,1,1,1.93-1.93A1.93,1.93,0,0,1,68.24,94.65Z" transform="translate(0 0)"/><path class="cls-2" d="M68.24,99.62a4.7,4.7,0,1,0,4.69,4.69h0a4.69,4.69,0,0,0-4.67-4.69Zm0,6.63a1.94,1.94,0,1,1,1.93-1.94,1.94,1.94,0,0,1-1.93,1.94Z" transform="translate(0 0)"/><path class="cls-2" d="M83.41,76.46a4.7,4.7,0,1,0,4.7,4.7,4.69,4.69,0,0,0-4.7-4.7Zm0,6.63a1.94,1.94,0,1,1,1.94-1.93A1.94,1.94,0,0,1,83.41,83.09Z" transform="translate(0 0)"/><path class="cls-2" d="M83.41,88.05a4.7,4.7,0,1,0,4.7,4.7h0a4.7,4.7,0,0,0-4.68-4.7Zm0,6.6a1.93,1.93,0,1,1,1.94-1.93A1.93,1.93,0,0,1,83.41,94.65Z" transform="translate(0 0)"/><path class="cls-2" d="M83.41,99.62a4.7,4.7,0,1,0,4.7,4.69h0a4.69,4.69,0,0,0-4.68-4.69Zm0,6.63a1.94,1.94,0,1,1,1.94-1.94,1.94,1.94,0,0,1-1.94,1.94Z" transform="translate(0 0)"/><path class="cls-2" d="M98.59,76.46a4.7,4.7,0,1,0,4.69,4.7h0a4.68,4.68,0,0,0-4.67-4.7Zm0,6.63a1.94,1.94,0,1,1,1.93-1.93A1.94,1.94,0,0,1,98.59,83.09Z" transform="translate(0 0)"/><path class="cls-2" d="M98.59,88.05a4.7,4.7,0,1,0,4.69,4.7h0a4.68,4.68,0,0,0-4.67-4.7Zm0,6.6a1.93,1.93,0,1,1,1.93-1.93A1.93,1.93,0,0,1,98.59,94.65Z" transform="translate(0 0)"/><path class="cls-2" d="M98.59,99.62a4.7,4.7,0,1,0,4.69,4.69h0a4.68,4.68,0,0,0-4.67-4.69Zm0,6.63a1.94,1.94,0,1,1,1.93-1.94,1.94,1.94,0,0,1-1.93,1.94Z" transform="translate(0 0)"/><path class="cls-2" d="M82.38,67.7a1.27,1.27,0,0,0,.85-.3l5.43-4.25A1.38,1.38,0,0,0,87,61l-4.35,3.4-.71-.92a1.38,1.38,0,0,0-2.21,1.65h0s0,0,0,0l1.57,2A1.41,1.41,0,0,0,82.38,67.7Z" transform="translate(0 0)"/><path class="cls-2" d="M102.94,53.4h-39a1.38,1.38,0,0,0-1.38,1.38V72.85a1.38,1.38,0,0,0,1.38,1.38h6a1.38,1.38,0,0,0,0-2.76H65.27V56.16h36.27V71.47H79.14a1.38,1.38,0,1,0,0,2.76h23.78a1.39,1.39,0,0,0,1.38-1.38V54.78A1.35,1.35,0,0,0,103,53.4Z" transform="translate(0 0)"/><path class="cls-2" d="M105.1,46.89H97.42v-12h10.35a1.38,1.38,0,0,0,1.38-1.38v0L109,29.91a7.19,7.19,0,0,0-7.19-7.17h-27a7.2,7.2,0,0,0-7.17,7.17v17H61.73A5.74,5.74,0,0,0,56,52.61v57.7A5.75,5.75,0,0,0,61.73,116H66.3v17.39a4.8,4.8,0,0,0,4.78,4.78H95.74a4.79,4.79,0,0,0,4.78-4.78V116h4.58a5.75,5.75,0,0,0,5.73-5.73V52.61a5.73,5.73,0,0,0-5.73-5.72ZM97.4,29.94a4.43,4.43,0,1,1,8.85,0v0l.07,2.11H97.4Zm-27,0a4.42,4.42,0,0,1,4.42-4.42H96.18a7.23,7.23,0,0,0-1.54,4.44v17H70.4ZM97.77,133.41a2,2,0,0,1-2,2H71.09a2,2,0,0,1-2-2V116H97.74Zm10.28-23.09a3,3,0,0,1-3,3H61.73a3,3,0,0,1-3-3V52.62a3,3,0,0,1,3-3H105.1a3,3,0,0,1,3,3Z" transform="translate(0 0)"/></svg>