<?xml version="1.0" encoding="utf-8"?>
<!-- Generator: Adobe Illustrator 23.0.5, SVG Export Plug-In . SVG Version: 6.00 Build 0)  -->
<svg version="1.1" id="Layer_1" xmlns="http://www.w3.org/2000/svg" xmlns:xlink="http://www.w3.org/1999/xlink" x="0px" y="0px"
	 viewBox="0 0 167 167" style="enable-background:new 0 0 167 167;" xml:space="preserve">
<style type="text/css">
	.st0{fill:#1D2B44;}
	.st1{fill:#FFFFFF;}
</style>
<g transform="translate(-902 -6067)">
	<g transform="translate(722 -3649)">
		<circle class="st0" cx="263.5" cy="9799.5" r="83.5"/>
	</g>
	<g transform="translate(886.15 6098.102)">
		<g transform="translate(58.85)">
			<path class="st1" d="M77.7,73.5L77.7,73.5c-0.1-0.2-0.2-0.3-0.3-0.5c-0.1-0.1-0.1-0.2-0.2-0.2c-0.1-0.1-0.1-0.2-0.2-0.3
				c-0.1-0.1-0.2-0.2-0.3-0.4c0,0-0.1-0.1-0.1-0.1l-0.1-0.1c-0.1-0.1-0.2-0.3-0.3-0.4l-0.1-0.1c-0.1-0.1-0.2-0.3-0.3-0.4
				c0-0.1-0.1-0.1-0.1-0.2c-0.1-0.1-0.2-0.2-0.3-0.3c-0.1-0.1-0.1-0.2-0.2-0.2c-0.1-0.1-0.1-0.1-0.2-0.2c-2.1-2.1-4.7-3.7-7.6-4.6
				c0,0-0.1,0-0.2,0L53.5,63c0,0,0,0-0.1,0c-0.6-0.1-1.3,0-1.9,0.2c-0.5-0.6-0.8-1.4-0.8-2.1v-2.5c0.9-0.6,1.7-1.2,2.5-1.9
				c3.5-3,5.6-7.3,6-11.8c2.5-0.1,4.5-2.2,4.5-4.7v-3.6c0-1.4-0.6-2.8-1.7-3.7v-8.2c5-2.5,6.1-5.3,6.1-7.3c0-3.5-3.2-7.8-8.4-11.3
				C47.9-2,32.3-2,20.5,6c-5.2,3.5-8.4,7.9-8.4,11.3c0,2,1.1,4.9,6.1,7.3v8.2c-1.1,0.9-1.7,2.2-1.7,3.7v3.6c0,2.5,2,4.6,4.5,4.7
				c0.4,4.6,2.6,8.8,6,11.8c0.8,0.7,1.6,1.3,2.5,1.9v2.5c0,0.8-0.3,1.5-0.8,2.1c-0.6-0.3-1.3-0.4-2-0.2L13,65.5c-0.1,0-0.1,0-0.2,0
				c-2.9,0.8-5.5,2.4-7.6,4.5c-0.1,0.1-0.1,0.1-0.2,0.2c-0.1,0.1-0.1,0.2-0.2,0.2c-0.1,0.1-0.2,0.2-0.3,0.3c0,0.1-0.1,0.1-0.1,0.2
				c-0.1,0.1-0.2,0.3-0.3,0.4c0,0-0.1,0.1-0.1,0.1c-0.1,0.1-0.2,0.3-0.3,0.4c0,0,0,0-0.1,0.1s0,0.1-0.1,0.1
				c-0.1,0.1-0.2,0.2-0.3,0.4c-0.1,0.1-0.1,0.2-0.2,0.3C3,72.8,2.9,72.9,2.9,73c-0.1,0.1-0.2,0.3-0.3,0.4l0,0.1
				c-1.7,2.8-2.6,6-2.6,9.2v1.9c0,0.8,0.7,1.5,1.5,1.5s1.5-0.7,1.5-1.5v-1.9c0-1.5,0.2-2.9,0.6-4.3c0.9,0.7,2,1.1,3.1,1.1
				c0.2,0,0.4,0,0.5,0c1.3-0.1,2.5-0.8,3.4-1.8l1.7-2.1c1.5-1.9,1.5-4.7-0.2-6.5c0.4-0.2,0.9-0.3,1.3-0.5l8.8-1.6l7,9.8
				c0.7,1,1.8,1.5,2.9,1.5c0.5,0,1-0.1,1.4-0.3l0.5-0.2l2,2.4l-2.9,21.1H14.1V88.7c0-0.8-0.7-1.5-1.5-1.5c-0.8,0-1.5,0.7-1.5,1.5
				v12.4H5c-1,0-1.9-0.9-1.9-1.9l0,0v-7.6c0-0.8-0.7-1.5-1.5-1.5S0,90.8,0,91.6v7.6c0,2.7,2.2,4.9,5,5h70.3c2.7,0,4.9-2.2,5-5V82.7
				C80.2,79.4,79.3,76.2,77.7,73.5z M10,73.6l-1.7,2.1c-0.7,0.9-1.9,1-2.8,0.3c0,0,0,0,0,0l-0.6-0.5c0.1-0.2,0.3-0.5,0.4-0.7l0,0
				c0.1-0.2,0.3-0.4,0.4-0.6c0-0.1,0.1-0.1,0.1-0.2c0.1-0.2,0.2-0.3,0.4-0.5c0,0,0.1-0.1,0.1-0.1c0.1-0.2,0.3-0.4,0.4-0.5
				c0-0.1,0.1-0.1,0.1-0.1c0.2-0.2,0.3-0.3,0.5-0.5l0,0c0.6-0.6,1.2-1.1,1.9-1.6l0.3,0.3C10.6,71.5,10.7,72.7,10,73.6
				C10,73.6,10,73.6,10,73.6L10,73.6z M70.5,70.8l0.3-0.3c0.7,0.5,1.3,1,1.9,1.6l0,0c0.2,0.2,0.3,0.3,0.5,0.5c0,0,0.1,0.1,0.1,0.1
				c0.2,0.2,0.3,0.3,0.4,0.5c0,0,0.1,0.1,0.1,0.1c0.1,0.2,0.3,0.3,0.4,0.5c0,0.1,0.1,0.1,0.1,0.2c0.1,0.2,0.3,0.4,0.4,0.6l0,0
				c0.1,0.2,0.3,0.5,0.4,0.7L74.6,76c-0.9,0.7-2.1,0.6-2.8-0.3c0,0,0,0,0,0l-1.7-2.1C69.5,72.7,69.6,71.5,70.5,70.8L70.5,70.8z
				 M52.3,66.3L52.3,66.3l0.4-0.3c0.1-0.1,0.2-0.1,0.2-0.1l1.6,0.3l-6.2,8.6c-0.2,0.2-0.4,0.3-0.7,0.2l-4.5-1.9L52.3,66.3z
				 M40.1,71.6L31.2,65c0.9-1.1,1.3-2.5,1.3-3.9v-0.9c2.4,1,4.9,1.5,7.5,1.5h0c2.6,0,5.1-0.5,7.5-1.5v0.9c0,1.4,0.5,2.8,1.3,3.9
				L40.1,71.6z M43.1,76.4l-1.4,1.6h-3.2l-1.4-1.6l3-1.3L43.1,76.4z M18.2,21.2c-2-1.2-3-2.5-3-3.9c0-2.8,3.7-6.5,7.1-8.8
				c10.8-7.4,25-7.4,35.8,0c3.4,2.3,7.1,6.1,7.1,8.8c0,1.3-1.1,2.7-3,3.9v-2.8c0-2.2-1.5-4-3.5-4.6c-6.3-1.7-12.8-2.6-19.4-2.7h0
				c-5.9,0.1-11.8,1-17.5,2.7c-2,0.6-3.4,2.4-3.4,4.5L18.2,21.2z M23.5,26.6L23.5,26.6c-0.2-0.1-0.3-0.2-0.4-0.2L23,26.3
				c-0.1-0.1-0.1-0.1-0.2-0.2c0,0-0.1-0.1-0.1-0.1s-0.1-0.1-0.2-0.1s-0.1-0.1-0.2-0.1s-0.1-0.1-0.1-0.1c-0.1-0.1-0.1-0.1-0.2-0.2
				c0,0-0.1-0.1-0.1-0.1l0,0h25.6c0.8,0,1.5-0.7,1.5-1.5c0-0.8-0.7-1.5-1.5-1.5l0,0H21.2v-3.9c0-0.7,0.5-1.4,1.2-1.6
				c5.4-1.6,11.1-2.4,16.7-2.6h0c6.3,0.1,12.5,1,18.6,2.6c0.7,0.2,1.3,0.9,1.3,1.6v3.8h-4.1c-0.8,0-1.5,0.6-1.6,1.5
				c0,0.8,0.6,1.5,1.5,1.6c0,0,0.1,0,0.1,0h3.4l0,0c0,0-0.1,0.1-0.1,0.1c-0.1,0.1-0.1,0.1-0.2,0.2c0,0-0.1,0.1-0.1,0.1
				s-0.1,0.1-0.2,0.1S57.7,26,57.6,26s-0.1,0.1-0.1,0.1c-0.1,0.1-0.1,0.1-0.2,0.2l-0.1,0.1c-0.1,0.1-0.2,0.1-0.3,0.2l-0.1,0
				c-0.7,0.4-1.5,0.8-2.3,1.1c0,0,0,0-0.1,0c-4.6,1.7-9.5,2.5-14.4,2.4c-4.9,0.1-9.8-0.7-14.4-2.4c0,0,0,0-0.1,0
				C24.9,27.4,24.2,27,23.5,26.6z M23.6,30.1v3c-0.8-0.4-1.6-0.6-2.4-0.8v-3.5C22,29.3,22.8,29.8,23.6,30.1z M56.6,30.1
				c0.8-0.4,1.6-0.8,2.4-1.4v3.5c-0.8,0.1-1.6,0.4-2.4,0.8V30.1z M29,54.4c-3.2-2.8-5-6.8-5.1-11.1c0-0.8-0.7-1.5-1.5-1.5h-1.2
				c-0.9,0-1.7-0.8-1.7-1.7v-3.6c0-0.5,0.2-1,0.6-1.3c0.8,0.1,1.7,0.3,2.4,0.8l0,0c0.1,0.1,0.2,0.2,0.3,0.3l0,0
				c0.1,0,0.1,0.1,0.2,0.1s0.1,0.1,0.1,0.1l0,0c0,0,0.1,0.1,0.1,0.1l0,0c0.1,0,0.1,0.1,0.2,0.1l0,0c0.1,0,0.1,0.1,0.2,0.1l0,0
				c0,0,0.1,0,0.1,0l0,0c0.1,0,0.1,0,0.2,0l0,0c0.1,0,0.1,0,0.2,0h0c0,0,0.1,0,0.1,0h0.1c0.1,0,0.1,0,0.2,0l0,0c0.1,0,0.1,0,0.2,0
				l0.1,0c0,0,0.1,0,0.1,0l0.1,0c0.1,0,0.1,0,0.2-0.1c0.8-0.3,1.3-1.1,1.3-1.9v-3.6c4.4,1.3,8.9,1.9,13.5,1.9
				c4.6,0,9.1-0.6,13.5-1.9V35c0,0.9,0.5,1.6,1.3,1.9c0.1,0,0.1,0,0.2,0.1l0.1,0c0,0,0.1,0,0.1,0l0,0c0.1,0,0.2,0,0.4,0h0
				c0,0,0.1,0,0.1,0h0c0.1,0,0.2,0,0.4-0.1l0,0c0,0,0.1,0,0.1,0l0,0c0.1,0,0.1,0,0.2-0.1l0,0c0.1,0,0.1-0.1,0.2-0.1l0,0
				c0,0,0.1-0.1,0.1-0.1l0,0c0,0,0.1-0.1,0.1-0.1s0.1-0.1,0.2-0.1l0,0c0.1,0,0.1-0.1,0.2-0.1l0,0c0.1,0,0.1-0.1,0.2-0.1l0,0
				c0.1,0,0.1-0.1,0.2-0.1l0,0c0.1,0,0.1-0.1,0.2-0.1l0,0c0.1,0,0.1-0.1,0.2-0.1l0,0c0.1,0,0.1-0.1,0.2-0.1l0,0c0.1,0,0.1,0,0.2-0.1
				h0c0.1,0,0.1,0,0.2-0.1h0c0.4-0.1,0.8-0.2,1.2-0.2c0.4,0.3,0.6,0.8,0.6,1.3v3.6c0,0.9-0.8,1.7-1.7,1.7h-1.2
				c-0.8,0-1.5,0.7-1.5,1.5c0,4.2-1.9,8.3-5.1,11.1C44.9,60.1,35.3,60.1,29,54.4L29,54.4z M32.5,75.1c-0.2,0.1-0.5,0-0.7-0.2
				l-6.2-8.6l1.6-0.3c0.1,0,0.2,0,0.2,0.1l0.4,0.3h0l9.1,6.8L32.5,75.1z M36.4,101.1l2.8-20h1.9l2.8,20L36.4,101.1z M75.3,101.1
				h-6.1V88.7c0-0.8-0.7-1.5-1.5-1.5c-0.8,0-1.5,0.7-1.5,1.5v12.4H46.9L44,80.1l2-2.4l0.5,0.2c0.5,0.2,0.9,0.3,1.4,0.3
				c1.2,0,2.3-0.6,2.9-1.5l7-9.8l8.8,1.6c0.5,0.1,0.9,0.3,1.3,0.5c-1.6,1.8-1.7,4.6-0.2,6.5l1.7,2.1c0.8,1,2.1,1.7,3.4,1.8
				c0.2,0,0.4,0,0.5,0c1.1,0,2.2-0.4,3.1-1.1c0.4,1.4,0.6,2.9,0.6,4.3v16.5l0,0C77.2,100.3,76.3,101.1,75.3,101.1L75.3,101.1z"/>
		</g>
		<g transform="translate(109.268 87.218)">
			<path class="st1" d="M10.5,0h-8C1.1,0,0,1.1,0,2.5v4.3c0,1.4,1.1,2.5,2.5,2.5h8c1.4,0,2.5-1.1,2.5-2.5V2.5C13,1.1,11.9,0,10.5,0z
				 M3.1,6.2V3.1H10v3.2H3.1z"/>
		</g>
		<g transform="translate(75.633 87.218)">
			<path class="st1" d="M10.5,0h-8C1.1,0,0,1.1,0,2.5v4.3c0,1.4,1.1,2.5,2.5,2.5h8c1.4,0,2.5-1.1,2.5-2.5V2.5C13,1.1,11.9,0,10.5,0z
				 M10,6.2H3.1V3.1H10V6.2z"/>
		</g>
	</g>
</g>
</svg>
