<?xml version="1.0" encoding="utf-8"?>
<!-- Generator: Adobe Illustrator 23.0.5, SVG Export Plug-In . SVG Version: 6.00 Build 0)  -->
<svg version="1.1" id="Layer_1" xmlns="http://www.w3.org/2000/svg" xmlns:xlink="http://www.w3.org/1999/xlink" x="0px" y="0px"
	 viewBox="0 0 145 145" style="enable-background:new 0 0 145 145;" xml:space="preserve">
<style type="text/css">
	.st0{fill:#1D2B44;}
	.st1{fill:#FFFFFF;}
</style>
<g transform="translate(-761 -5960)">
	<circle class="st0" cx="833.5" cy="6032.5" r="72.5"/>
	<g transform="translate(779 5956.516)">
		<path class="st1" d="M26,101.1c-2.5,0-4.5,2-4.5,4.5c0,2.5,2,4.5,4.5,4.5s4.5-2,4.5-4.5l0,0C30.5,103.1,28.5,101.1,26,101.1z
			 M26,107.1c-0.8,0-1.5-0.7-1.5-1.5s0.7-1.5,1.5-1.5s1.5,0.7,1.5,1.5S26.9,107.1,26,107.1z"/>
		<path class="st1" d="M83.1,101.1c-2.5,0-4.5,2-4.5,4.5s2,4.5,4.5,4.5c2.5,0,4.5-2,4.5-4.5v0C87.6,103.1,85.6,101.1,83.1,101.1z
			 M83.1,107.1c-0.8,0-1.5-0.7-1.5-1.5s0.7-1.5,1.5-1.5s1.5,0.7,1.5,1.5S83.9,107.1,83.1,107.1z"/>
		<path class="st1" d="M98.1,98.1v-9c0-5-4-9-9-9H76.6l-4.1-11c-1.1-3.3-4.2-5.5-7.7-5.5H36.5c-3.4,0-6.5,2.2-7.6,5.4l-5.3,11.1
			h-2.1V47c0-3.3,2.7-6,6-6h19.5v4.5c0,0.8,0.7,1.5,1.5,1.5h12c0.8,0,1.5-0.7,1.5-1.5V44h3c0.8,0,1.5-0.7,1.5-1.5S65.9,41,65.1,41
			h-3v-3h3c0.8,0,1.5-0.7,1.5-1.5S65.9,35,65.1,35h-3v-1.5c0-0.8-0.7-1.5-1.5-1.5h-12c-0.8,0-1.5,0.7-1.5,1.5V38H27.5c-5,0-9,4-9,9
			v33.2c-4.3,0.7-7.5,4.5-7.5,8.9v9c-1.7,0-3,1.3-3,3v3c0,1.7,1.3,3,3,3h4.6c0.8,5.7,6.2,9.7,11.9,8.9c4.6-0.7,8.2-4.3,8.9-8.9h36.3
			c0.8,5.7,6.2,9.7,11.9,8.9c4.6-0.7,8.2-4.3,8.9-8.9h4.6c1.7,0,3-1.3,3-3v-3C101.1,99.4,99.8,98.1,98.1,98.1z M50.1,35h9v9h-9V35z
			 M73.4,80.1H54.6v-9h15.5L73.4,80.1z M14,90.6h3v1.5h-3L14,90.6z M15.6,104.1H11v-3h5.5C16.1,102.1,15.8,103.1,15.6,104.1
			L15.6,104.1z M26,113.1c-4.1,0-7.5-3.4-7.5-7.5c0-4.1,3.4-7.5,7.5-7.5s7.5,3.4,7.5,7.5C33.5,109.8,30.2,113.1,26,113.1
			C26,113.1,26,113.1,26,113.1z M72.7,104.1H36.4c-0.1-1-0.5-2.1-0.9-3h38.1C73.2,102.1,72.9,103.1,72.7,104.1L72.7,104.1z
			 M83.1,113.1c-4.1,0-7.5-3.4-7.5-7.5s3.4-7.5,7.5-7.5c4.1,0,7.5,3.4,7.5,7.5C90.6,109.8,87.3,113.1,83.1,113.1L83.1,113.1z
			 M90.6,98.1c-0.1,0-0.1,0-0.2,0c-4.1-4-10.6-4-14.7,0c-0.1,0-0.1,0-0.2,0H33.5c-0.1,0-0.1,0-0.2,0c-4.1-4-10.6-4-14.7,0
			c-0.1,0-0.1,0-0.2,0H14v-3h4.5c0.8,0,1.5-0.7,1.5-1.5v-4.5c0-0.8-0.7-1.5-1.5-1.5h-4.3c0.7-2.7,3.1-4.5,5.8-4.5h4.5
			c0.6,0,1.1-0.3,1.4-0.9l5.8-12c0-0.1,0-0.1,0.1-0.2c0.7-2.1,2.6-3.5,4.8-3.5h28.3c1.4,0,2.7,0.5,3.6,1.5H36.5
			c-0.8,0-1.5,0.7-1.5,1.5v12c0,0.8,0.7,1.5,1.5,1.5h52.6c2.7,0,5.1,1.9,5.8,4.5h-4.3c-0.8,0-1.5,0.7-1.5,1.5v4.5
			c0,0.8,0.7,1.5,1.5,1.5h4.5v3L90.6,98.1z M51.6,71.1v9H38v-9H51.6z M95.1,90.6v1.5h-3v-1.5H95.1z M98.1,104.1h-4.6
			c-0.1-1-0.5-2.1-0.9-3h5.5L98.1,104.1z"/>
		<path class="st1" d="M54.6,87.6h7.5c0.8,0,1.5-0.7,1.5-1.5s-0.7-1.5-1.5-1.5h-7.5c-0.8,0-1.5,0.7-1.5,1.5S53.7,87.6,54.6,87.6z"/>
	</g>
</g>
</svg>
