<?xml version="1.0" encoding="utf-8"?>
<!-- Generator: Adobe Illustrator 23.0.5, SVG Export Plug-In . SVG Version: 6.00 Build 0)  -->
<svg version="1.1" id="Layer_1" xmlns="http://www.w3.org/2000/svg" xmlns:xlink="http://www.w3.org/1999/xlink" x="0px" y="0px"
	 viewBox="0 0 145 145" style="enable-background:new 0 0 145 145;" xml:space="preserve">
<style type="text/css">
	.st0{fill:#1D2B44;}
	.st1{fill:#FFFFFF;}
</style>
<g transform="translate(-1334 -5960)">
	<circle class="st0" cx="1406.5" cy="6032.5" r="72.5"/>
	<g transform="translate(1331 5912.724)">
		<path class="st1" d="M116.4,84H94.2c-1.9,0.1-2.1,0-4.3,0h-3c-0.1,0-0.2,0-0.4,0.1c-0.3-0.3-1.8,1-1.1,2.6v20.1
			c0,0.8,0.7,1.5,1.5,1.5c0.8,0,1.5-0.7,1.5-1.5V86.9H115v35.4h-7.4v-16.9c0-1.6-1-3-2.5-3.5c2.7-2.2,3.1-6.1,0.9-8.8
			c-2.2-2.7-6.1-3.1-8.8-0.9c-2.7,2.2-3.1,6.1-0.9,8.8c0.2,0.3,0.5,0.6,0.8,0.8c-1.6,0.4-2.8,1.9-2.8,3.6v6.6h-8.1
			c-2,0-3.7,1.6-3.7,3.7c0,2,1.6,3.7,3.7,3.7h8.1v2.9h-5.9c-0.8,0-1.5,0.7-1.5,1.5v28c0,0.8,0.7,1.5,1.5,1.5h28
			c0.8,0,1.5-0.7,1.5-1.5V85.5C117.9,84.7,117.3,84,116.4,84C116.4,84,116.4,84,116.4,84z M101.1,93.7c1.8,0,3.3,1.5,3.3,3.3
			c0,1.8-1.5,3.3-3.3,3.3s-3.3-1.5-3.3-3.3C97.9,95.2,99.3,93.7,101.1,93.7z M85.5,115.7c0-0.4,0.3-0.7,0.7-0.7h9.6
			c0.8,0,1.5-0.7,1.5-1.5v-8.1c0-0.4,0.3-0.7,0.7-0.7c0.4,0,0.7,0.3,0.7,0.7v9.1c0,1.1-0.9,1.9-1.9,1.9H86.2
			C85.8,116.4,85.5,116.1,85.5,115.7z M97.3,119.4c2.5-0.2,4.4-2.4,4.4-4.9v-9.1c0-0.2,0-0.5-0.1-0.7h2.3c0.4,0,0.7,0.3,0.7,0.7v17
			h-7.4V119.4z M115,150.3H89.9v-25.1H115L115,150.3z"/>
		<path class="st1" d="M80.7,130.2l-8.1-14.5c-0.3-0.5-0.8-0.8-1.3-0.8H40.7c-0.5,0-1,0.3-1.3,0.8l-8.1,14.5
			c-3.8,3.1-4.4,8.6-1.3,12.4c0.7,0.8,1.5,1.6,2.5,2.1v3.4c0,2.8,2.3,5.2,5.2,5.2s5.2-2.3,5.2-5.2v-2.2h26.5v2.2
			c0,2.8,2.3,5.2,5.2,5.2c2.8,0,5.2-2.3,5.2-5.2v-3.4c4.2-2.4,5.7-7.8,3.2-12.1C82.3,131.7,81.6,130.9,80.7,130.2z M41.6,117.9h28.9
			l5.8,10.4c-0.4,0-0.7-0.1-1.1-0.1H52.2l10.4-6.1c0.7-0.4,1-1.3,0.6-2c-0.4-0.7-1.3-1-2-0.6c0,0,0,0,0,0L46.7,128
			c-0.1,0.1-0.2,0.1-0.2,0.2h-9.6c-0.4,0-0.7,0-1.1,0.1L41.6,117.9z M39.8,148.1c0,1.2-1,2.2-2.2,2.2c-1.2,0-2.2-1-2.2-2.2v-2.3
			c0.5,0.1,1,0.1,1.5,0.1h2.9V148.1z M76.6,148.1c0,1.2-1,2.2-2.2,2.2s-2.2-1-2.2-2.2c0,0,0,0,0,0v-2.2h2.9c0.5,0,1,0,1.5-0.1V148.1
			z M75.2,143H36.8c-3.3-0.1-5.8-2.9-5.7-6.1c0.1-3.1,2.6-5.6,5.7-5.7h38.3c3.3,0.1,5.8,2.9,5.7,6.1C80.7,140.4,78.3,142.8,75.2,143
			L75.2,143z"/>
		<path class="st1" d="M72.4,132.4c-2.3,0-4.3,1.9-4.3,4.3s1.9,4.3,4.3,4.3s4.3-1.9,4.3-4.3l0,0C76.6,134.3,74.7,132.4,72.4,132.4z
			 M72.4,137.9c-0.7,0-1.3-0.6-1.3-1.3c0-0.7,0.6-1.3,1.3-1.3c0.7,0,1.3,0.6,1.3,1.3C73.7,137.4,73.1,137.9,72.4,137.9z"/>
		<path class="st1" d="M39.9,132.4c-2.4,0-4.3,1.9-4.3,4.3c0,2.4,1.9,4.3,4.3,4.3c2.4,0,4.3-1.9,4.3-4.3l0,0
			C44.2,134.3,42.3,132.4,39.9,132.4z M39.9,138c-0.7,0-1.3-0.6-1.3-1.3s0.6-1.3,1.3-1.3c0.7,0,1.3,0.6,1.3,1.3l0,0
			C41.3,137.4,40.7,138,39.9,138z"/>
		<path class="st1" d="M98.8,128.2c-0.8,0-1.5,0.7-1.5,1.5v16.2c0,0.8,0.7,1.5,1.5,1.5c0.8,0,1.5-0.7,1.5-1.5c0,0,0,0,0,0v-8.8h4.4
			c2.4,0,4.4-2,4.4-4.4s-2-4.4-4.4-4.4c0,0,0,0,0,0L98.8,128.2z M106.1,132.6c0,0.8-0.7,1.5-1.5,1.5h-4.4v-2.9h4.4
			C105.5,131.2,106.1,131.8,106.1,132.6z"/>
	</g>
</g>
</svg>
