<svg xmlns="http://www.w3.org/2000/svg" width="167" height="167" viewBox="0 0 167 167"><defs><style>.a{fill:#00bbdc;}.b{fill:#fff;}</style></defs><g transform="translate(-533 -9413)"><circle class="a" cx="83.5" cy="83.5" r="83.5" transform="translate(533 9413)"/><g transform="translate(571 9451)"><g transform="translate(2 2)"><path class="b" d="M87.55,19.4H62.284L53.826,4.9H55.36L82.64,16.387a1.45,1.45,0,1,0,1.125-2.674l-27.55-11.6A1.438,1.438,0,0,0,55.65,2H35.35a1.438,1.438,0,0,0-.563.113l-27.55,11.6A1.45,1.45,0,0,0,6.35,15.05V19.4H3.45A1.45,1.45,0,0,0,2,20.85v5.8A1.45,1.45,0,0,0,3.45,28.1v7.25A7.228,7.228,0,0,0,16.5,39.655a7.183,7.183,0,0,0,11.6,0,7.183,7.183,0,0,0,11.6,0,7.183,7.183,0,0,0,11.6,0,7.183,7.183,0,0,0,11.6,0,7.183,7.183,0,0,0,11.6,0A7.224,7.224,0,0,0,80.3,42.6V86.1H41.875V55.65a1.45,1.45,0,0,0-1.45-1.45H16.5a1.45,1.45,0,0,0-1.45,1.45V86.1H10.7V46.744a1.45,1.45,0,1,0-2.9,0V87.55A1.45,1.45,0,0,0,9.25,89h72.5a1.45,1.45,0,0,0,1.45-1.45V41.985a7.25,7.25,0,0,0,4.35-6.635v-2.9a1.45,1.45,0,1,0-2.9,0v2.9a4.35,4.35,0,1,1-8.7,0V28.1h11.6A1.45,1.45,0,0,0,89,26.65v-5.8A1.45,1.45,0,0,0,87.55,19.4ZM17.95,86.1v-29H38.975v29ZM50.468,4.9l8.458,14.5H32.074L40.532,4.9ZM9.25,16.013,35.64,4.9h1.531L28.716,19.4H9.25ZM10.7,39.7a4.35,4.35,0,0,1-4.35-4.35V28.1h8.7v7.25A4.35,4.35,0,0,1,10.7,39.7Zm11.6,0a4.35,4.35,0,0,1-4.35-4.35V28.1h8.7v7.25A4.35,4.35,0,0,1,22.3,39.7Zm11.6,0a4.35,4.35,0,0,1-4.35-4.35V28.1h8.7v7.25A4.35,4.35,0,0,1,33.9,39.7Zm11.6,0a4.35,4.35,0,0,1-4.35-4.35V28.1h8.7v7.25A4.35,4.35,0,0,1,45.5,39.7Zm11.6,0a4.35,4.35,0,0,1-4.35-4.35V28.1h8.7v7.25A4.35,4.35,0,0,1,57.1,39.7Zm15.95-4.35a4.35,4.35,0,1,1-8.7,0V28.1h8.7ZM86.1,25.2H4.9V22.3H86.1Z" transform="translate(-2 -2)"/><path class="b" d="M47.5,32a7.259,7.259,0,0,0-7.25,7.25V40.7H35.9a1.45,1.45,0,0,0-1.45,1.369L33,68.169a1.45,1.45,0,0,0,1.45,1.531h26.1A1.45,1.45,0,0,0,62,68.169l-.483-8.7a1.452,1.452,0,0,0-2.9.162l.4,7.169H35.983l1.289-23.2h2.978v4.35a1.45,1.45,0,1,0,2.9,0V43.6h8.7v4.35a1.45,1.45,0,1,0,2.9,0V43.6h2.978L58.3,53.831a1.452,1.452,0,0,0,2.9-.162l-.644-11.6A1.45,1.45,0,0,0,59.1,40.7h-4.35V39.25A7.259,7.259,0,0,0,47.5,32Zm-4.35,8.7V39.25a4.35,4.35,0,0,1,8.7,0V40.7Z" transform="translate(11.949 11.5)"/><path class="b" d="M44.8,45a5.8,5.8,0,1,0,5.8,5.8A5.8,5.8,0,0,0,44.8,45Zm0,8.7a2.9,2.9,0,1,1,2.9-2.9A2.9,2.9,0,0,1,44.8,53.7Z" transform="translate(14.65 17.35)"/><path class="b" d="M24.45,46A1.45,1.45,0,0,0,23,47.45v5.8a1.45,1.45,0,1,0,2.9,0v-5.8A1.45,1.45,0,0,0,24.45,46Z" transform="translate(7.45 17.8)"/></g></g></g></svg>