<svg xmlns="http://www.w3.org/2000/svg" width="167" height="167" viewBox="0 0 167 167"><defs><style>.a{fill:#00bbdc;}.b{fill:#fff;}</style></defs><g transform="translate(-1014 -4696)"><circle class="a" cx="83.5" cy="83.5" r="83.5" transform="translate(1014 4696)"/><g transform="translate(1047 4729.502)"><path class="b" d="M84.7,73.5a14.484,14.484,0,0,0-11.879,6.258A12.443,12.443,0,0,0,60.775,78.27a14.394,14.394,0,0,0-2.049-1.88v-29.9a24.052,24.052,0,1,0-17.318,0v29.9c-.331.249-.652.511-.962.788a14.411,14.411,0,0,0-20.873,1.739A12.511,12.511,0,0,0,1,89.859v5.773a2.886,2.886,0,0,0,2.886,2.886H96.247a2.886,2.886,0,0,0,2.886-2.886v-7.7A14.448,14.448,0,0,0,84.7,73.5ZM31.787,24.052a18.28,18.28,0,1,1,18.28,18.28A18.3,18.3,0,0,1,31.787,24.052ZM52.953,47.931V73.794a14.43,14.43,0,0,0-5.773,0V47.931a24.06,24.06,0,0,0,5.773,0ZM93.361,92.746H6.773V89.859A6.729,6.729,0,0,1,18.3,85.132a2.886,2.886,0,0,0,4.674-.817,8.647,8.647,0,0,1,15.072-1.16,2.886,2.886,0,0,0,4.809,0,8.643,8.643,0,0,1,14.628.325,2.886,2.886,0,0,0,4.129.873,6.672,6.672,0,0,1,9.548,1.961,2.886,2.886,0,0,0,5.225-.742,8.654,8.654,0,0,1,16.981,2.364Z" transform="translate(0 -0.018)"/><path class="b" d="M233.951,63.44A8.514,8.514,0,0,0,225.384,55h-6.429a1.924,1.924,0,0,0-1.924,1.924v23.09a1.924,1.924,0,1,0,3.848,0V71.9c1.494-.008,3.482-.018,4.505-.018A8.515,8.515,0,0,0,233.951,63.44Zm-13.073-4.592h4.505a4.594,4.594,0,1,1,0,9.184c-1.025,0-3.009.01-4.505.018Z" transform="translate(-174.462 -44.435)"/><ellipse class="b" cx="3.5" cy="2.5" rx="3.5" ry="2.5" transform="translate(65 55.498)"/><ellipse class="b" cx="2.5" cy="3.5" rx="2.5" ry="3.5" transform="translate(83 62.498)"/><ellipse class="b" cx="2.5" cy="3.5" rx="2.5" ry="3.5" transform="translate(81 27.498)"/><ellipse class="b" cx="3.5" cy="3" rx="3.5" ry="3" transform="translate(86 12.498)"/><ellipse class="b" cx="3" cy="3.5" rx="3" ry="3.5" transform="translate(91 44.498)"/><circle class="b" cx="3" cy="3" r="3" transform="translate(75 -0.502)"/><ellipse class="b" cx="3.5" cy="2.5" rx="3.5" ry="2.5" transform="translate(28 55.498)"/><ellipse class="b" cx="3" cy="3.5" rx="3" ry="3.5" transform="translate(12 62.498)"/><ellipse class="b" cx="2.5" cy="3.5" rx="2.5" ry="3.5" transform="translate(14 27.498)"/><circle class="b" cx="3" cy="3" r="3" transform="translate(8 12.498)"/><ellipse class="b" cx="2.5" cy="3.5" rx="2.5" ry="3.5" transform="translate(4 44.498)"/><ellipse class="b" cx="2.5" cy="3" rx="2.5" ry="3" transform="translate(19 -0.502)"/></g></g></svg>