<svg xmlns="http://www.w3.org/2000/svg" width="167" height="167" viewBox="0 0 167 167"><defs><style>.a{fill:#00bbdc;}.b{fill:#fff;}</style></defs><g transform="translate(-132 -4932)"><circle class="a" cx="83.5" cy="83.5" r="83.5" transform="translate(132 4932)"/><g transform="translate(170 4965.19)"><g transform="translate(44.396 10.702)"><path class="b" d="M272.39,63.221a20.591,20.591,0,0,0-22.982-4.231,1.871,1.871,0,0,0,1.531,3.415,16.938,16.938,0,0,1,18.8,3.462,16.842,16.842,0,1,1-27.384,5.251,1.871,1.871,0,0,0-3.438-1.478,20.587,20.587,0,1,0,33.469-6.419Z" transform="translate(-237.247 -57.189)"/></g><g transform="translate(49.88 16.112)"><path class="b" d="M269.829,86.658a1.872,1.872,0,0,0-2.646-.015l-.079.079a1.871,1.871,0,1,0,2.641,2.651l.069-.069A1.871,1.871,0,0,0,269.829,86.658Z" transform="translate(-266.553 -86.102)"/></g><path class="b" d="M64.983,0A30.835,30.835,0,0,0,37.726,45.237a1.871,1.871,0,1,0,3.307-1.752,27.087,27.087,0,1,1,44.841,4.581,1.838,1.838,0,0,0-.158.222L68.9,69.835a10.215,10.215,0,0,0-3.563-.638H60.7L55.364,56.633a8.572,8.572,0,0,0-7.9-5.231H25.627a8.573,8.573,0,0,0-7.9,5.231L12.39,69.2H10.265A10.277,10.277,0,0,0,0,79.462v9.569A1.871,1.871,0,0,0,1.871,90.9h0l9.086-.014a6.791,6.791,0,0,0,13.057,0H53.937a6.791,6.791,0,0,0,13.057,0l6.731.013h0A1.871,1.871,0,0,0,75.6,89.031V79.462a10.241,10.241,0,0,0-3.47-7.685L88.808,50.409q.054-.07.1-.144A30.828,30.828,0,0,0,64.983,0Zm5.889,76.02H67.037l-.971-3.039A6.53,6.53,0,0,1,70.872,76.02ZM38.415,55.144H47.46A4.836,4.836,0,0,1,51.918,58.1l4.713,11.1H38.415ZM3.743,79.462A6.5,6.5,0,0,1,4,77.64H6.454a1.468,1.468,0,1,1,0,2.936H3.743Zm13.747,12.6a3.05,3.05,0,1,1,3.05-3.05A3.054,3.054,0,0,1,17.489,92.067Zm17.183-4.922H24.018a6.791,6.791,0,0,0-13.058,0l-7.218.012V84.318H6.454a5.21,5.21,0,0,0,.388-10.4,6.482,6.482,0,0,1,3.424-.974H34.672Zm0-17.948H16.455l4.713-11.1a4.836,4.836,0,0,1,4.459-2.951h9.045Zm25.794,22.87a3.05,3.05,0,1,1,3.051-3.05A3.054,3.054,0,0,1,60.466,92.067Zm11.391-4.911L67,87.147a6.791,6.791,0,0,0-13.058,0H38.415V72.939H62.123l1.765,5.522a1.872,1.872,0,0,0,1.782,1.3h6.187Z"/><g transform="translate(59.256 20.456)"><path class="b" d="M323.932,109.316h-5.4a1.871,1.871,0,0,0-1.871,1.871v18.541a1.871,1.871,0,1,0,3.743,0v-5.869h3.529a7.272,7.272,0,1,0,0-14.543Zm0,10.8H320.4v-7.058h3.529a3.529,3.529,0,1,1,0,7.058Z" transform="translate(-316.66 -109.316)"/></g><g transform="translate(27.284 77.226)"><path class="b" d="M147.676,412.689a1.871,1.871,0,0,0-1.871,1.871v.022a1.871,1.871,0,1,0,3.743,0v-.022A1.871,1.871,0,0,0,147.676,412.689Z" transform="translate(-145.805 -412.689)"/></g></g></g></svg>