<svg xmlns="http://www.w3.org/2000/svg" width="167" height="167" viewBox="0 0 167 167"><defs><style>.a{fill:#00bbdc;}.b{fill:#fff;}</style></defs><g transform="translate(-132 -4696)"><circle class="a" cx="83.5" cy="83.5" r="83.5" transform="translate(132 4696)"/><g transform="translate(129.35 4728.976)"><path class="b" d="M158.478,373.169a3.725,3.725,0,0,0-3.721,3.721v2.823a3.721,3.721,0,1,0,7.442,0V376.89A3.726,3.726,0,0,0,158.478,373.169Zm.732,6.544a.733.733,0,0,1-.732.732h0a.733.733,0,0,1-.732-.732V376.89a.732.732,0,1,1,1.464,0Z" transform="translate(-87.366 -298.809)"/><path class="b" d="M323.614,373.169a3.725,3.725,0,0,0-3.721,3.721v2.823a3.721,3.721,0,1,0,7.443,0V376.89A3.725,3.725,0,0,0,323.614,373.169Zm.732,6.544a.732.732,0,0,1-1.465,0V376.89a.732.732,0,0,1,1.465,0Z" transform="translate(-219.596 -298.809)"/><path class="b" d="M223.58,385.707h-17.5a1.494,1.494,0,1,0,0,2.989h17.5a1.494,1.494,0,1,0,0-2.989Z" transform="translate(-127.263 -308.849)"/><path class="b" d="M223.58,403.767h-17.5a1.494,1.494,0,1,0,0,2.989h17.5a1.494,1.494,0,1,0,0-2.989Z" transform="translate(-127.263 -323.31)"/><path class="b" d="M158.478,114.383a3.725,3.725,0,0,0,3.721-3.721V108.3a3.721,3.721,0,1,0-7.442,0v2.36A3.725,3.725,0,0,0,158.478,114.383Zm-.732-6.081a.732.732,0,1,1,1.464,0v2.36a.733.733,0,0,1-.732.732h0a.733.733,0,0,1-.732-.732Z" transform="translate(-87.366 -83.742)"/><path class="b" d="M323.614,114.383a3.725,3.725,0,0,0,3.721-3.721V108.3a3.721,3.721,0,1,0-7.443,0v2.36A3.726,3.726,0,0,0,323.614,114.383Zm-.732-6.081a.732.732,0,1,1,1.465,0v2.36a.732.732,0,0,1-1.465,0Z" transform="translate(-219.596 -83.742)"/><path class="b" d="M206.077,120.108h17.5a1.494,1.494,0,1,0,0-2.989h-17.5a1.494,1.494,0,1,0,0,2.989Z" transform="translate(-127.263 -93.781)"/><path class="b" d="M206.077,138.168h17.5a1.494,1.494,0,1,0,0-2.989h-17.5a1.494,1.494,0,0,0,0,2.989Z" transform="translate(-127.263 -108.242)"/><path class="b" d="M127.986,0H120.3a1.494,1.494,0,0,0-1.494,1.494v44.02H107.291a5.291,5.291,0,0,0,.541-2.335V40.844h.823a4.519,4.519,0,0,0,2.977-7.92,9.381,9.381,0,0,0,1.544-5.179V26.438a9.459,9.459,0,0,0-5.625-8.636l-.046-.293H108.7a4.411,4.411,0,0,0,0-8.823h-2.565l-.227-1.461A8.5,8.5,0,0,0,97.469,0H77.662a8.5,8.5,0,0,0-8.437,7.226L69,8.687H66.433a4.411,4.411,0,0,0,0,8.823h1.193l-.046.293a9.458,9.458,0,0,0-5.624,8.636v1.307A9.38,9.38,0,0,0,63.5,32.924a4.518,4.518,0,0,0,2.977,7.92H66.9v2.335a5.291,5.291,0,0,0,.541,2.335H56.325V1.494A1.494,1.494,0,0,0,54.83,0H47.145A1.494,1.494,0,0,0,45.65,1.494v28.2a1.494,1.494,0,0,0,2.989,0v-5.32l4.7,3.563V46.507l-4.7-3.563V35.67a1.494,1.494,0,1,0-2.989,0v64.859a1.494,1.494,0,0,0,1.494,1.494h80.842a1.494,1.494,0,0,0,1.494-1.494V1.494A1.5,1.5,0,0,0,127.986,0Zm-1.494,51.764-4.7,3.564V50.259l4.7-3.564Zm0-31.144-4.7,3.564V19.115l4.7-3.564Zm-4.7,7.315,4.7-3.564V42.944l-4.7,3.564Zm0,31.144,4.7-3.564V74.088l-4.7,3.564Zm0,22.324,4.7-3.564v5.069l-4.7,3.564Zm4.7-78.415V11.8l-4.7,3.564V2.989Zm-21.65,40.19a2.335,2.335,0,1,1-4.671,0V40.844h4.671v2.335ZM77.548,40.844H97.183v2.335a5.291,5.291,0,0,0,.541,2.335H77.007a5.291,5.291,0,0,0,.541-2.335ZM108.7,11.676a1.422,1.422,0,0,1,0,2.845H107.04l-.443-2.845ZM72.179,7.685a5.522,5.522,0,0,1,5.483-4.7H97.469a5.522,5.522,0,0,1,5.483,4.7l1.452,9.333c-.223-.016-.448-.027-.675-.027h-2.984a7.038,7.038,0,0,0-13.936,0H71.4c-.227,0-.452.011-.675.027ZM97.7,16.991H89.853a4.044,4.044,0,0,1,7.846,0ZM66.433,14.52a1.422,1.422,0,0,1,0-2.845h2.1L68.09,14.52ZM64.945,27.745V26.438A6.464,6.464,0,0,1,71.4,19.98h32.327a6.465,6.465,0,0,1,6.458,6.458v1.307a6.409,6.409,0,0,1-1.435,4.058l-.1,0H66.477l-.1,0A6.41,6.41,0,0,1,64.945,27.745Zm0,8.577a1.534,1.534,0,0,1,1.533-1.532h42.177a1.532,1.532,0,0,1,0,3.065H66.477A1.534,1.534,0,0,1,64.944,36.322Zm4.943,6.857V40.844h4.671v2.335a2.335,2.335,0,1,1-4.671,0ZM118.805,48.5V99.035H107.29a5.291,5.291,0,0,0,.541-2.335V94.364h.823a4.518,4.518,0,0,0,2.977-7.92,9.38,9.38,0,0,0,1.544-5.178V80.2a1.494,1.494,0,1,0-2.989,0v1.066a6.409,6.409,0,0,1-1.435,4.057l-.1,0H66.477l-.1,0a6.411,6.411,0,0,1-1.435-4.057V79.959A6.464,6.464,0,0,1,71.4,73.5H103.73a6.444,6.444,0,0,1,4.957,2.319A1.494,1.494,0,0,0,110.98,73.9a9.442,9.442,0,0,0-3.429-2.583l-.045-.291H108.7a4.411,4.411,0,0,0,0-8.823h-2.565l-.227-1.461a8.5,8.5,0,0,0-8.437-7.225H77.662a8.5,8.5,0,0,0-8.437,7.226L69,62.207H66.433a4.411,4.411,0,0,0,0,8.823h1.193l-.046.293a9.459,9.459,0,0,0-5.624,8.637v1.307A9.379,9.379,0,0,0,63.5,86.444a4.518,4.518,0,0,0,2.977,7.92H66.9V96.7a5.291,5.291,0,0,0,.541,2.335H56.325V48.5ZM69.888,96.7V94.364h4.671V96.7a2.335,2.335,0,1,1-4.671,0ZM66.477,88.31h42.177a1.532,1.532,0,0,1,0,3.065H66.477a1.532,1.532,0,1,1,0-3.065ZM77.548,96.7V94.364H97.183V96.7a5.291,5.291,0,0,0,.541,2.335H77.007A5.291,5.291,0,0,0,77.548,96.7Zm22.624,0V94.364h4.671V96.7a2.335,2.335,0,1,1-4.671,0ZM106.6,65.2h2.1a1.422,1.422,0,0,1,0,2.845H107.04Zm-5.853,5.316a7.038,7.038,0,0,0-13.937,0H71.4c-.227,0-.451.011-.674.027l1.452-9.333a5.521,5.521,0,0,1,5.483-4.7H97.469a5.522,5.522,0,0,1,5.483,4.7l1.452,9.334c-.224-.016-.448-.027-.674-.027Zm-3.045,0H89.853a4.044,4.044,0,0,1,7.846,0ZM68.09,68.041H66.433a1.422,1.422,0,0,1,0-2.845h2.1ZM48.639,55.516l4.7,3.563V77.651l-4.7-3.563Zm0,22.324,4.7,3.563v5.069l-4.7-3.563Zm4.7-74.851V15.363l-4.7-3.563V2.989Zm-4.7,17.631V15.552l4.7,3.563v5.069Zm4.7,29.638v5.069l-4.7-3.563V46.7Zm-4.7,48.776V86.66l4.7,3.563v8.812Zm73.155,0V90.224l4.7-3.564V99.035Z" transform="translate(0)"/></g></g></svg>