<svg xmlns="http://www.w3.org/2000/svg" width="167" height="167" viewBox="0 0 167 167"><defs><style>.a{fill:#00bbdc;}.b{fill:#fff;}</style></defs><g transform="translate(-132 -5168)"><circle class="a" cx="83.5" cy="83.5" r="83.5" transform="translate(132 5168)"/><g transform="translate(167 5198.905)"><path class="b" d="M63.349,45H38.55A1.55,1.55,0,0,0,37,46.55v12.4a1.55,1.55,0,0,0,1.55,1.55h24.8a1.55,1.55,0,0,0,1.55-1.55V46.55A1.55,1.55,0,0,0,63.349,45ZM61.8,57.4H40.1V48.1H61.8Z" transform="translate(19.797 24.197)"/><path class="b" d="M41,49H56.5v3.1H41Z" transform="translate(21.997 26.396)"/><path class="b" d="M63.349,23H38.55A1.55,1.55,0,0,0,37,24.55v27.9A1.55,1.55,0,0,0,38.55,54h24.8a1.55,1.55,0,0,0,1.55-1.55V24.55A1.55,1.55,0,0,0,63.349,23ZM55.6,50.9H46.3V44.7a4.65,4.65,0,1,1,9.3,0Zm6.2,0H58.7V44.7a7.75,7.75,0,1,0-15.5,0v6.2H40.1V26.1H61.8Z" transform="translate(19.797 12.098)"/><path class="b" d="M94,87.4v-4.65a1.55,1.55,0,0,0-1.55-1.55H90.9V25.4h1.55a1.549,1.549,0,0,0,1.29-2.409l-6.2-9.3A1.55,1.55,0,0,0,86.246,13h-31a1.552,1.552,0,0,0-1.29.69l-6.2,9.3a1.55,1.55,0,0,0,1.29,2.41H50.6V48.648H10.3a6.2,6.2,0,0,0,0,12.4H50.6V81.2h-1.55a1.55,1.55,0,0,0-1.55,1.55V87.4h-31V70.347a6.2,6.2,0,1,0-12.4,0V87.4H1v3.1H97.1V87.4ZM56.077,16.1h29.34l4.134,6.2H51.944ZM29.54,51.748h4.916l-6.2,6.2H23.341Zm-10.583,6.2H14.041l6.2-6.2h4.916Zm19.882-6.2h4.916l-6.2,6.2H32.64ZM7.2,54.848a3.1,3.1,0,0,1,3.1-3.1h5.558L9.717,57.889A3.1,3.1,0,0,1,7.2,54.848Zm34.74,3.1,6.2-6.2H50.6v6.2ZM53.7,25.4H87.8V81.2H53.7ZM50.6,84.3H90.9v3.1H50.6ZM10.3,67.247a3.1,3.1,0,0,1,3.1,3.1V78.1H7.2v-7.75A3.1,3.1,0,0,1,10.3,67.247ZM7.2,81.2h6.2v6.2H7.2Z" transform="translate(0 6.599)"/><path class="b" d="M23.149,41.3A20.149,20.149,0,1,0,3,21.149,20.172,20.172,0,0,0,23.149,41.3Zm0-37.2A17.049,17.049,0,1,1,6.1,21.149,17.069,17.069,0,0,1,23.149,4.1Z" transform="translate(1.1)"/></g><g transform="translate(111.194 5210.355)"><path class="b" d="M85.837,4.676a.456.456,0,0,0-.337-.132H82.993a5.073,5.073,0,0,0-.938-2.111H85.47a.45.45,0,0,0,.469-.469V.469A.451.451,0,0,0,85.47,0h-12.2a.451.451,0,0,0-.469.469V2.418a.476.476,0,0,0,.469.469H75.4q3.093,0,3.928,1.656H73.275a.451.451,0,0,0-.469.469v1.5a.451.451,0,0,0,.469.469h6.259a2.864,2.864,0,0,1-1.5,1.832,6.615,6.615,0,0,1-3.115.63H73.275a.476.476,0,0,0-.469.469V11.77a.438.438,0,0,0,.132.323q2.814,2.99,7.3,8.37a.432.432,0,0,0,.367.176h2.858a.425.425,0,0,0,.425-.264.4.4,0,0,0-.059-.5q-4.28-5.248-6.728-7.857a7.434,7.434,0,0,0,4.046-1.612,5.48,5.48,0,0,0,1.891-3.43H85.5a.452.452,0,0,0,.469-.469v-1.5A.456.456,0,0,0,85.837,4.676Z"/></g></g></svg>