<svg xmlns="http://www.w3.org/2000/svg" width="167" height="167" viewBox="0 0 167 167"><defs><style>.a{fill:#00bbdc;}.b{fill:#fff;}</style></defs><g transform="translate(-1014 -4932)"><circle class="a" cx="83.5" cy="83.5" r="83.5" transform="translate(1014 4932)"/><g transform="translate(1054 4966)"><path class="b" d="M74.188,99H12.313A10.327,10.327,0,0,1,2,88.688V10.313A10.327,10.327,0,0,1,12.313,0H74.188A10.327,10.327,0,0,1,84.5,10.313V88.688A10.327,10.327,0,0,1,74.188,99ZM12.313,4.125a6.2,6.2,0,0,0-6.187,6.188V88.688a6.2,6.2,0,0,0,6.188,6.188H74.188a6.2,6.2,0,0,0,6.188-6.187V10.313a6.2,6.2,0,0,0-6.187-6.187Z"/><path class="b" d="M26.313,15.125h-8.25a2.063,2.063,0,0,1,0-4.125h8.25a2.063,2.063,0,1,1,0,4.125Z" transform="translate(43.75 34.375)"/><path class="b" d="M26.313,12.125h-8.25a2.063,2.063,0,0,1,0-4.125h8.25a2.063,2.063,0,0,1,0,4.125Z" transform="translate(43.75 25)"/><path class="b" d="M26.313,18.125h-8.25a2.063,2.063,0,0,1,0-4.125h8.25a2.063,2.063,0,1,1,0,4.125Z" transform="translate(43.75 43.75)"/><path class="b" d="M26.313,21.125h-8.25a2.063,2.063,0,0,1,0-4.125h8.25a2.063,2.063,0,1,1,0,4.125Z" transform="translate(43.75 53.125)"/><path class="b" d="M60.688,24.125H7.063a2.063,2.063,0,0,1,0-4.125H60.688a2.063,2.063,0,0,1,0,4.125Z" transform="translate(9.375 62.5)"/><path class="b" d="M25.625,49.25A20.625,20.625,0,1,1,46.25,28.625,20.648,20.648,0,0,1,25.625,49.25Zm0-37.125a16.5,16.5,0,1,0,16.5,16.5A16.517,16.517,0,0,0,25.625,12.125Z" transform="translate(9.375 25)"/><path class="b" d="M8.381,43.813a2.06,2.06,0,0,1-1.46-3.519L19.445,27.771V10.063a2.063,2.063,0,1,1,4.125,0V28.625a2.077,2.077,0,0,1-.6,1.46L9.842,43.211A2.072,2.072,0,0,1,8.381,43.813Z" transform="translate(13.493 25)"/></g></g></svg>