<svg xmlns="http://www.w3.org/2000/svg" width="167" height="167" viewBox="0 0 167 167"><defs><style>.a{fill:#00bbdc;}.b{fill:#fff;}</style></defs><g transform="translate(-889 -9716)"><circle class="a" cx="83.5" cy="83.5" r="83.5" transform="translate(889 9716)"/><g transform="translate(923 9735.544)"><g transform="translate(0 17.188)"><path class="b" d="M95.948,101.438H94.7v-24.4a1.478,1.478,0,1,0-2.955,0v24.4H60.4V61.27H90.535a1.209,1.209,0,0,1,1.208,1.208v7.6a1.478,1.478,0,0,0,2.955,0v-7.6a4.168,4.168,0,0,0-4.163-4.163H60.4V31.462a4.183,4.183,0,0,0-3.813-4.147V24.351a4.183,4.183,0,0,0-3.838-4.15l-38.269-3a4.166,4.166,0,0,0-4.488,4.15v2.366a4.164,4.164,0,0,0-3.813,4.147v73.573H4.925a4.925,4.925,0,1,0,0,9.851H95.948a4.925,4.925,0,1,0,0-9.851Zm-83-80.086a1.207,1.207,0,0,1,1.3-1.2l38.269,3a1.214,1.214,0,0,1,1.113,1.2v2.731L12.944,23.894V21.352ZM9.131,27.866a1.207,1.207,0,0,1,1.3-1.2l45.894,3.6a1.214,1.214,0,0,1,1.113,1.2v69.976H53.312V80.282a2.442,2.442,0,0,0-2.439-2.439H37.144a2.442,2.442,0,0,0-2.439,2.439v9.586a1.478,1.478,0,0,0,2.955,0V80.8h12.7v20.64h-12.7V96.776a1.478,1.478,0,0,0-2.955,0v4.662H9.131Zm86.817,80.468H4.925a1.97,1.97,0,1,1,0-3.94H95.948a1.97,1.97,0,1,1,0,3.94Z" transform="translate(0 -17.188)"/><path class="b" d="M65.513,123.4h5.981a2.553,2.553,0,0,0,2.55-2.55v-4.6a2.553,2.553,0,0,0-2.55-2.55H65.513a2.553,2.553,0,0,0-2.55,2.55v4.6A2.553,2.553,0,0,0,65.513,123.4Zm.405-6.746h5.171v3.791H65.918Z" transform="translate(-50.558 -94.687)"/><path class="b" d="M141.207,123.4h5.981a2.553,2.553,0,0,0,2.55-2.55v-4.6a2.553,2.553,0,0,0-2.55-2.55h-5.981a2.553,2.553,0,0,0-2.55,2.55v4.6A2.553,2.553,0,0,0,141.207,123.4Zm.405-6.746h5.17v3.791h-5.17Z" transform="translate(-111.339 -94.687)"/><path class="b" d="M216.9,123.4h5.981a2.553,2.553,0,0,0,2.55-2.55v-4.6a2.553,2.553,0,0,0-2.55-2.55H216.9a2.553,2.553,0,0,0-2.55,2.55v4.6A2.553,2.553,0,0,0,216.9,123.4Zm.405-6.746h5.17v3.791h-5.17Z" transform="translate(-172.119 -94.687)"/><path class="b" d="M65.513,190.84h5.981a2.553,2.553,0,0,0,2.55-2.55v-4.6a2.553,2.553,0,0,0-2.55-2.55H65.513a2.553,2.553,0,0,0-2.55,2.55v4.6A2.553,2.553,0,0,0,65.513,190.84Zm.405-6.746h5.171v3.791H65.918Z" transform="translate(-50.558 -148.837)"/><path class="b" d="M141.207,190.84h5.981a2.553,2.553,0,0,0,2.55-2.55v-4.6a2.553,2.553,0,0,0-2.55-2.55h-5.981a2.553,2.553,0,0,0-2.55,2.55v4.6A2.553,2.553,0,0,0,141.207,190.84Zm.405-6.746h5.17v3.791h-5.17Z" transform="translate(-111.339 -148.837)"/><path class="b" d="M216.9,190.84h5.981a2.553,2.553,0,0,0,2.55-2.55v-4.6a2.553,2.553,0,0,0-2.55-2.55H216.9a2.553,2.553,0,0,0-2.55,2.55v4.6A2.553,2.553,0,0,0,216.9,190.84Zm.405-6.746h5.17v3.791h-5.17Z" transform="translate(-172.119 -148.837)"/><path class="b" d="M65.513,258.276h5.981a2.553,2.553,0,0,0,2.55-2.55v-4.6a2.553,2.553,0,0,0-2.55-2.55H65.513a2.553,2.553,0,0,0-2.55,2.55v4.6A2.553,2.553,0,0,0,65.513,258.276Zm.405-6.746h5.171v3.791H65.918Z" transform="translate(-50.558 -202.987)"/><path class="b" d="M79.037,325.052H65.8a2.84,2.84,0,0,0-2.837,2.837v4.027a2.84,2.84,0,0,0,2.837,2.837H79.037a2.84,2.84,0,0,0,2.837-2.837v-4.027A2.84,2.84,0,0,0,79.037,325.052Zm-.118,6.746h-13v-3.791h13Z" transform="translate(-50.558 -264.397)"/><path class="b" d="M141.207,258.276h5.981a2.553,2.553,0,0,0,2.55-2.55v-4.6a2.553,2.553,0,0,0-2.55-2.55h-5.981a2.553,2.553,0,0,0-2.55,2.55v4.6A2.553,2.553,0,0,0,141.207,258.276Zm.405-6.746h5.17v3.791h-5.17Z" transform="translate(-111.339 -202.987)"/><path class="b" d="M216.9,258.276h5.981a2.553,2.553,0,0,0,2.55-2.55v-4.6a2.553,2.553,0,0,0-2.55-2.55H216.9a2.553,2.553,0,0,0-2.55,2.55v4.6A2.553,2.553,0,0,0,216.9,258.276Zm.405-6.746h5.17v3.791h-5.17Z" transform="translate(-172.119 -202.987)"/><path class="b" d="M333.822,280.218A2.721,2.721,0,0,0,331.1,277.5h-6.034a2.721,2.721,0,0,0-2.718,2.718V285a2.721,2.721,0,0,0,2.718,2.718H331.1A2.721,2.721,0,0,0,333.822,285Zm-2.955,4.549h-5.56v-4.312h5.56Z" transform="translate(-258.842 -226.214)"/><path class="b" d="M331.1,346.717h-6.034a2.721,2.721,0,0,0-2.718,2.718v4.786a2.721,2.721,0,0,0,2.718,2.718H331.1a2.721,2.721,0,0,0,2.718-2.718v-4.786A2.721,2.721,0,0,0,331.1,346.717Zm-.237,7.267h-5.56v-4.312h5.56Z" transform="translate(-258.842 -281.794)"/><path class="b" d="M403.583,280.218a2.721,2.721,0,0,0-2.718-2.718H394.83a2.721,2.721,0,0,0-2.718,2.718V285a2.721,2.721,0,0,0,2.718,2.718h6.034A2.721,2.721,0,0,0,403.583,285Zm-2.955,4.549h-5.56v-4.312h5.56Z" transform="translate(-314.858 -226.214)"/><path class="b" d="M400.864,346.717H394.83a2.721,2.721,0,0,0-2.718,2.718v4.786a2.721,2.721,0,0,0,2.718,2.718h6.034a2.721,2.721,0,0,0,2.718-2.718v-4.786A2.721,2.721,0,0,0,400.864,346.717Zm-.237,7.267h-5.56v-4.312h5.56Z" transform="translate(-314.858 -281.794)"/></g></g></g></svg>