<svg xmlns="http://www.w3.org/2000/svg" width="167" height="167" viewBox="0 0 167 167"><defs><style>.a{fill:#00bbdc;}.b{fill:#fff;}</style></defs><g transform="translate(-180 -9716)"><circle class="a" cx="83.5" cy="83.5" r="83.5" transform="translate(180 9716)"/><g transform="translate(203 9752.729)"><path class="b" d="M153.834,288A1.834,1.834,0,0,0,152,289.834V293.5a1.834,1.834,0,0,0,3.669,0v-3.669A1.834,1.834,0,0,0,153.834,288Zm0,0" transform="translate(-117.147 -221.963)"/><path class="b" d="M67.669,337.834A1.834,1.834,0,1,1,65.834,336,1.834,1.834,0,0,1,67.669,337.834Zm0,0" transform="translate(-49.325 -258.957)"/><path class="b" d="M235.669,337.834A1.834,1.834,0,1,1,233.834,336,1.834,1.834,0,0,1,235.669,337.834Zm0,0" transform="translate(-178.803 -258.957)"/><path class="b" d="M107.133,216.931a1.834,1.834,0,1,0,2.594-2.594l-1.3-1.3,1.3-1.3a1.834,1.834,0,1,0-2.594-2.594l-2.594,2.594a1.835,1.835,0,0,0,0,2.594Zm0,0" transform="translate(-80.155 -160.761)"/><path class="b" d="M153.178,20.178h6.694l-6.327,8.1a2.751,2.751,0,0,0,2.22,4.357,2.825,2.825,0,0,0,1.574-.488l23.134-16.105a2.752,2.752,0,0,0-1.521-5.039h-6.7l7.208-6.178A2.751,2.751,0,0,0,177.682,0H169.86a3.717,3.717,0,0,0-2.487.954l-16.029,14.43a2.751,2.751,0,0,0,1.834,4.795ZM169.857,3.669h5.319l-9.065,7.78a1.834,1.834,0,0,0,1.192,3.226h8.724l-15.776,10.98,4.827-6.183a1.835,1.835,0,0,0-1.444-2.963h-8.058Zm0,0" transform="translate(-115.941)"/><path class="b" d="M106.423,96H78.848a3.645,3.645,0,0,0-3.639,3.639v42.22h-5.5V125.166a7.247,7.247,0,0,0-1.224-4.035l-4.8-7.208a7.266,7.266,0,0,0-6.06-3.249H30.24a7.314,7.314,0,0,0-5.824,2.913l-9.053,12.068L4.724,129.644A7.313,7.313,0,0,0,0,136.464v14.581A3.669,3.669,0,0,0,3.655,154.7H7.521a9.172,9.172,0,0,0,17.976,0H46.043a9.172,9.172,0,0,0,17.976,0h2.034a3.657,3.657,0,0,0,3.653-3.654v-5.517h5.5v5.533a3.645,3.645,0,0,0,3.639,3.639h27.575a3.645,3.645,0,0,0,3.639-3.639V99.639A3.645,3.645,0,0,0,106.423,96ZM42.191,132.687V114.343H55.031v18.344Zm16.509-5.5h7.337v5.5H58.7Zm1.926-11.232,4.8,7.209a3.265,3.265,0,0,1,.167.354H58.7v-8.988A3.594,3.594,0,0,1,60.626,115.952Zm-33.277-.163a3.625,3.625,0,0,1,2.89-1.446h8.282v18.344H22.93l-4.127-5.5ZM16.51,158.368a5.5,5.5,0,1,1,5.5-5.5A5.5,5.5,0,0,1,16.51,158.368Zm38.522,0a5.5,5.5,0,1,1,5.5-5.5A5.5,5.5,0,0,1,55.031,158.368Zm8.988-7.337a9.172,9.172,0,0,0-17.976,0H25.5a9.172,9.172,0,0,0-17.976,0l-3.852.014V140.025H7.338a1.834,1.834,0,1,0,0-3.669H3.685a3.623,3.623,0,0,1,2.33-3.276l9.853-3.694,4.678,6.237a1.834,1.834,0,0,0,1.467.734H66.037v7.286a.127.127,0,0,0,0,.1v7.286Zm14.859-18.344h7.337v7.337a1.834,1.834,0,0,1-1.834,1.834h-5.5Zm9.172-7.337a1.834,1.834,0,0,1-1.834-1.834v-1.834h3.669v1.834A1.834,1.834,0,0,1,88.05,125.35Zm1.834,3.331a5.5,5.5,0,0,0,3.669-5.165v-9.172a1.834,1.834,0,1,0-3.669,0v3.669H86.215v-3.669a1.834,1.834,0,1,0-3.669,0v9.172a5.5,5.5,0,0,0,3.669,5.165v.338H78.878V107.006l18.344-.028.03,22.04H89.884Zm-11.006,22.35v-5.5h5.5a5.5,5.5,0,0,0,5.5-5.5v-7.337h7.367a3.645,3.645,0,0,0,3.639-3.639V106.976a3.645,3.645,0,0,0-3.639-3.639h-18.4V99.668l27.541-.03.03,51.392Zm0,0" transform="translate(0 -73.987)"/><path class="b" d="M427.669,273.834A1.834,1.834,0,1,1,425.834,272,1.834,1.834,0,0,1,427.669,273.834Zm0,0" transform="translate(-326.778 -209.631)"/><path class="b" d="M427.669,305.834A1.834,1.834,0,1,1,425.834,304,1.834,1.834,0,0,1,427.669,305.834Zm0,0" transform="translate(-326.778 -234.294)"/></g></g></svg>