<svg xmlns="http://www.w3.org/2000/svg" width="123.907" height="104.561" viewBox="0 0 123.907 104.561"><defs><style>.a{fill:#2d2d2d;}</style></defs><g transform="translate(0 -39.97)"><g transform="translate(96.048 50.035)"><path class="a" d="M404.409,81.562h-6.048a1.327,1.327,0,0,0-1.474,1.2h0v19.559c0,.812.963,1.234,1.956,1.234.963,0,1.956-.421,1.956-1.234V95.343h3.37c3.972,0,7.071-1.9,7.071-6.831v-.18C411.239,83.4,408.23,81.562,404.409,81.562Zm2.919,7.252c0,2.347-1.2,3.46-3.159,3.46H400.8V84.992h3.37c1.956,0,3.159,1.113,3.159,3.46Z" transform="translate(-396.886 -81.562)"/></g><g transform="translate(27.636 48.823)"><g transform="translate(0 0)"><path class="a" d="M157.486,85.412a30.243,30.243,0,0,0-42.77,0,1.765,1.765,0,1,0,2.5,2.5,26.713,26.713,0,0,1,37.778,0,1.765,1.765,0,0,0,2.5-2.5Z" transform="translate(-114.198 -76.554)"/></g></g><g transform="translate(34.919 59.131)"><g transform="translate(0 0)"><path class="a" d="M173.012,124.98a19.967,19.967,0,0,0-28.206,0,1.765,1.765,0,0,0,2.5,2.5,16.433,16.433,0,0,1,23.214,0,1.765,1.765,0,0,0,2.5-2.5Z" transform="translate(-144.289 -119.148)"/></g></g><g transform="translate(42.085 69.262)"><g transform="translate(0 0)"><path class="a" d="M188.293,163.877a9.82,9.82,0,0,0-13.872,0,1.765,1.765,0,1,0,2.5,2.5,6.287,6.287,0,0,1,8.88,0,1.765,1.765,0,1,0,2.5-2.5Z" transform="translate(-173.903 -161.009)"/></g></g><g transform="translate(15.001 93.594)"><path class="a" d="M133.846,274.467c-.764-.42-1.517-.881-2.239-1.369l-11.675-7.887a21.275,21.275,0,0,0-11.953-3.659H86.549a21.219,21.219,0,0,0-15.071,6.226,28.606,28.606,0,0,1-7.014,5.132,4.592,4.592,0,0,0,2.117,8.668h7.306a1.765,1.765,0,0,0,0-3.53H66.58a1.062,1.062,0,0,1-.49-2,32.133,32.133,0,0,0,7.879-5.764,17.71,17.71,0,0,1,12.579-5.2h4.8v12.965H85.482a1.765,1.765,0,1,0,0,3.53h48.4a2.635,2.635,0,0,0,2.632-2.632A5.12,5.12,0,0,0,133.846,274.467Zm-38.969,3.58V265.082h13.1a17.758,17.758,0,0,1,9.977,3.054l11.675,7.887c.811.548,1.657,1.065,2.515,1.536a1.644,1.644,0,0,1,.548.487Z" transform="translate(-61.987 -261.552)"/></g><g transform="translate(45.047 116.302)"><path class="a" d="M193.36,355.388h-5.452a1.765,1.765,0,0,0,0,3.53h5.452a1.765,1.765,0,0,0,0-3.53Z" transform="translate(-186.142 -355.388)"/></g><g transform="translate(0 39.97)"><g transform="translate(0 0)"><path class="a" d="M122.384,114.821l-.558-.925a14.529,14.529,0,0,0-9.589-6.737l-4.557-.906v-23.1h11.793a4.408,4.408,0,0,0,4.4-4.4V44.374a4.408,4.408,0,0,0-4.4-4.4H85.1a4.408,4.408,0,0,0-4.4,4.4v13.04a1.765,1.765,0,1,0,3.53,0V44.374A.874.874,0,0,1,85.1,43.5h34.377a.874.874,0,0,1,.873.873V78.751a.874.874,0,0,1-.873.873H85.1a.874.874,0,0,1-.873-.873V68.889a1.765,1.765,0,0,0-3.53,0v9.861a4.408,4.408,0,0,0,4.4,4.4H98.469v21.267l-2.343-.466a24.888,24.888,0,0,1-8.475-4.006L75.976,92.062a26.671,26.671,0,0,0-14.983-4.587H39.563a26.6,26.6,0,0,0-18.891,7.8,23.18,23.18,0,0,1-11.636,6.281l-2.534.531A8.214,8.214,0,0,0,0,110.1v17.1a5.17,5.17,0,0,0,3.068,4.72l7.031,3.125a11.7,11.7,0,0,0,22.76.961H91.481a11.7,11.7,0,0,0,22.532,0h3.349a6.553,6.553,0,0,0,6.545-6.545V120.3A10.617,10.617,0,0,0,122.384,114.821ZM102,83.154h2.15v22.4l-2.15-.428ZM27.377,138.6a8.18,8.18,0,0,1-13.225-9.181l.033-.073c.042-.09.086-.178.131-.266.021-.042.043-.083.065-.124.041-.076.083-.152.127-.228q.045-.078.092-.155c.04-.067.081-.133.124-.2s.078-.118.118-.176.079-.116.12-.173.1-.129.146-.193.076-.1.116-.149c.058-.072.119-.142.179-.212.035-.04.068-.081.1-.12q.135-.15.278-.294l.024-.025.056-.053c.081-.079.162-.158.245-.233l.066-.057c.083-.073.166-.146.251-.216l.024-.019a8.2,8.2,0,0,1,10.3.01l.011.008c.091.074.181.152.269.231l.048.042q.154.139.3.287c.106.106.209.216.309.327.044.049.085.1.128.149s.1.121.154.183.11.14.163.211c.03.039.06.079.089.119q.1.134.188.27l.031.047A8.193,8.193,0,0,1,27.377,138.6Zm81.154,0A8.18,8.18,0,0,1,95.9,128.342l.03-.046q.091-.137.189-.271c.029-.04.058-.079.088-.118.053-.071.108-.142.164-.212s.1-.121.152-.181.085-.1.129-.15c.1-.111.2-.22.309-.327a8.18,8.18,0,0,1,11.568,0c.106.106.209.216.309.327.044.049.085.1.128.149s.1.121.153.182.11.14.164.211l.089.119c.065.089.128.179.188.27l.031.046A8.194,8.194,0,0,1,108.531,138.6Zm11.846-9.152h0a3.019,3.019,0,0,1-3.015,3.015h-2.906a11.563,11.563,0,0,0-2.6-7.005l-.032-.041c-.1-.123-.2-.243-.311-.363-.027-.03-.053-.062-.08-.092-.112-.124-.228-.245-.347-.364-.02-.02-.038-.042-.059-.062a11.639,11.639,0,0,0-5.419-3.08,11.886,11.886,0,0,0-5.164-.125,11.629,11.629,0,0,0-5.978,3.2c-.02.02-.038.041-.058.061-.119.12-.235.242-.348.366-.027.029-.051.06-.077.089-.107.121-.212.242-.314.366l-.03.038a11.566,11.566,0,0,0-2.6,7.008H33.3a11.565,11.565,0,0,0-2.608-7.016l-.022-.028c-.106-.13-.217-.258-.33-.384l-.061-.07q-.2-.218-.408-.429a11.723,11.723,0,0,0-16.561,0c-.13.13-.257.264-.38.4-.037.04-.072.081-.108.121q-.131.148-.256.3l-.11.135q-.13.162-.253.327c-.026.034-.052.068-.077.1q-.332.454-.616.935l-.016.027q-.139.236-.266.479l-.008.014A11.636,11.636,0,0,0,10,131.131l-5.5-2.445a1.637,1.637,0,0,1-.971-1.494V110.1a4.669,4.669,0,0,1,3.7-4.55l2.534-.531a26.7,26.7,0,0,0,13.4-7.236,23.087,23.087,0,0,1,16.4-6.775H60.993A23.154,23.154,0,0,1,74,94.987l11.675,7.887a28.149,28.149,0,0,0,9.763,4.544l16.11,3.2a10.991,10.991,0,0,1,7.254,5.1l.558.925a7.079,7.079,0,0,1,1.016,3.654Z" transform="translate(0 -39.97)"/></g></g><g transform="translate(16.234 127.462)"><g transform="translate(0 0)"><path class="a" d="M76.228,403.07a5.359,5.359,0,1,0,0,7.579A5.324,5.324,0,0,0,76.228,403.07Zm-2.5,5.082a1.829,1.829,0,1,1,0-2.586A1.817,1.817,0,0,1,73.732,408.152Z" transform="translate(-67.08 -401.5)"/></g></g><g transform="translate(97.39 127.462)"><g transform="translate(0 0)"><path class="a" d="M411.576,403.07a5.359,5.359,0,1,0,1.569,3.789A5.323,5.323,0,0,0,411.576,403.07Zm-2.5,5.082a1.828,1.828,0,1,1,.536-1.293A1.816,1.816,0,0,1,409.08,408.152Z" transform="translate(-402.43 -401.5)"/></g></g></g></svg>