<svg xmlns="http://www.w3.org/2000/svg" width="167" height="167" viewBox="0 0 167 167"><defs><style>.a{fill:#00bbdc;}.b{fill:#fff;}</style></defs><g transform="translate(-1243 -9716)"><circle class="a" cx="83.5" cy="83.5" r="83.5" transform="translate(1243 9716)"/><g transform="translate(1275 9742.145)"><path class="b" d="M98.886,57.519H85.1V50.428a1.97,1.97,0,0,0-1.508-1.915l-7.836-1.888A25.607,25.607,0,0,0,52.4,24.9V19.7H74.066a1.97,1.97,0,0,0,1.393-3.363L68.972,9.849l6.486-6.486A1.97,1.97,0,0,0,74.066,0H50.428a1.97,1.97,0,0,0-1.97,1.97V24.9A25.607,25.607,0,0,0,25.1,46.625l-7.836,1.888a1.97,1.97,0,0,0-1.508,1.915v7.091H1.97A1.97,1.97,0,0,0,0,59.489v39.4a1.97,1.97,0,0,0,1.97,1.97H41.564a1.97,1.97,0,0,0,0-3.94H19.7v-3.94H81.158v3.94H59.292a1.97,1.97,0,1,0,0,3.94H98.886a1.97,1.97,0,0,0,1.97-1.97v-39.4A1.97,1.97,0,0,0,98.886,57.519ZM52.4,3.94H69.311L64.794,8.456a1.97,1.97,0,0,0,0,2.786l4.517,4.516H52.4Zm-1.97,24.82A21.546,21.546,0,0,1,71.563,45.615L50.889,40.634a1.971,1.971,0,0,0-.923,0L29.293,45.615A21.547,21.547,0,0,1,50.428,28.76ZM19.7,51.98l30.73-7.4,30.73,7.4v5.54H19.7Zm11.819,9.479V89.037h-3.94V61.459Zm3.94,0h9.061V89.037H35.457Zm13,0H52.4V89.037h-3.94Zm7.879,0H65.4V89.037H56.338Zm13,0h3.94V89.037h-3.94ZM3.94,96.916V61.459h19.7V89.037H19.7v-5.91a1.97,1.97,0,0,0-1.97-1.97H9.849a1.97,1.97,0,0,0-1.97,1.97v7.879a1.97,1.97,0,0,0,1.97,1.97h5.91v3.94Zm11.819-7.879h-3.94V85.1h3.94Zm81.158,7.879H85.1v-3.94h5.91a1.97,1.97,0,0,0,1.97-1.97V83.127a1.97,1.97,0,0,0-1.97-1.97H83.127a1.97,1.97,0,0,0-1.97,1.97v5.91h-3.94V61.459h19.7ZM85.1,89.037V85.1h3.94v3.94Z"/><path class="b" d="M412,333.97v7.879a1.97,1.97,0,0,0,1.97,1.97h7.879a1.97,1.97,0,0,0,1.97-1.97V333.97a1.97,1.97,0,0,0-1.97-1.97H413.97A1.97,1.97,0,0,0,412,333.97Zm3.94,1.97h3.94v3.94h-3.94Z" transform="translate(-330.842 -266.601)"/><path class="b" d="M41.97,343.819h7.879a1.97,1.97,0,0,0,1.97-1.97V333.97a1.97,1.97,0,0,0-1.97-1.97H41.97A1.97,1.97,0,0,0,40,333.97v7.879A1.97,1.97,0,0,0,41.97,343.819Zm1.97-7.879h3.94v3.94H43.94Z" transform="translate(-32.121 -266.601)"/><circle class="b" cx="2" cy="2" r="2" transform="translate(48 96.856)"/></g></g></svg>