<svg xmlns="http://www.w3.org/2000/svg" width="168" height="167" viewBox="0 0 168 167"><defs><style>.a{fill:#00bbdc;}.b{fill:#fff;}</style></defs><g transform="translate(-887 -9413)"><ellipse class="a" cx="84" cy="83.5" rx="84" ry="83.5" transform="translate(887 9413)"/><g transform="translate(916.227 9391.491)"><path class="b" d="M69.961,202.946h-12.1a2.582,2.582,0,0,0-2.579,2.579v15.2a2.582,2.582,0,0,0,2.579,2.579h12.1a2.582,2.582,0,0,0,2.579-2.579v-15.2A2.582,2.582,0,0,0,69.961,202.946ZM62.254,220H58.586V214.78h3.668Zm0-8.525H58.586v-5.215h3.668ZM69.231,220H65.563V214.78h3.668Zm0-8.525H65.563v-5.215h3.668Z" transform="translate(-43.082 -113.29)"/><path class="b" d="M91.468,392.957h1.319a1.655,1.655,0,1,0,0-3.309H91.468a1.655,1.655,0,1,0,0,3.309Z" transform="translate(-69.999 -258.803)"/><path class="b" d="M219.452,202.946a2.582,2.582,0,0,0-2.579,2.579v15.2a2.582,2.582,0,0,0,2.579,2.579h12.1a2.582,2.582,0,0,0,2.579-2.579v-15.2a2.582,2.582,0,0,0-2.579-2.579ZM223.85,220h-3.668V214.78h3.668Zm0-8.525h-3.668v-5.215h3.668ZM230.828,220h-3.668V214.78h3.668Zm0-8.525h-3.668v-5.215h3.668Z" transform="translate(-169.028 -113.29)"/><path class="b" d="M253.065,392.957h1.319a1.655,1.655,0,1,0,0-3.309h-1.319a1.655,1.655,0,1,0,0,3.309Z" transform="translate(-195.946 -258.803)"/><path class="b" d="M381.049,202.946a2.582,2.582,0,0,0-2.579,2.579v15.2a2.582,2.582,0,0,0,2.579,2.579h12.1a2.582,2.582,0,0,0,2.579-2.579v-15.2a2.582,2.582,0,0,0-2.579-2.579Zm4.4,17.049h-3.668V214.78h3.668Zm0-8.525h-3.668v-5.215h3.668ZM392.425,220h-3.668V214.78h3.668Zm0-8.525h-3.668v-5.215h3.668Z" transform="translate(-294.975 -113.29)"/><path class="b" d="M414.663,392.957h1.319a1.655,1.655,0,1,0,0-3.309h-1.319a1.655,1.655,0,0,0,0,3.309Z" transform="translate(-321.894 -258.803)"/><path class="b" d="M111.607,141.853V112.668a1.655,1.655,0,0,0-3.309,0v29.156h-7.539V117.465a2.582,2.582,0,0,0-2.579-2.579h-12.1a2.582,2.582,0,0,0-2.579,2.579v24.359H75.957V80.58a1.192,1.192,0,0,1,.287-.776L92.127,61.293,108.011,79.8a1.192,1.192,0,0,1,.287.775v24.367a1.655,1.655,0,1,0,3.309,0V80.58a4.5,4.5,0,0,0-1.085-2.93L94,58.392a1.67,1.67,0,0,0-.19-.189,2.607,2.607,0,0,0-3.362,0,1.69,1.69,0,0,0-.19.189L74.3,76.986l-5.351-6.237A1.655,1.655,0,1,0,66.44,72.9l5.921,6.9a1.192,1.192,0,0,1,.287.776v61.244H65.109V117.465a2.582,2.582,0,0,0-2.579-2.579h-12.1a2.582,2.582,0,0,0-2.579,2.579v24.359H40.307V80.58a1.193,1.193,0,0,1,.287-.776L56.477,61.293l4.932,5.748a1.655,1.655,0,1,0,2.512-2.155l-5.572-6.494a1.69,1.69,0,0,0-.19-.189,2.606,2.606,0,0,0-3.362,0,1.613,1.613,0,0,0-.19.188L38.652,76.986,22.7,58.392a1.665,1.665,0,0,0-.19-.188,2.606,2.606,0,0,0-3.362,0,1.669,1.669,0,0,0-.19.189L2.432,77.649a4.5,4.5,0,0,0-1.085,2.93v61.274a1.654,1.654,0,0,0,.307,3.279H111.3a1.654,1.654,0,0,0,.308-3.279Zm-85.457-.03H15.5V124.441H26.149Zm0-20.692H15.5v-2.937H26.149ZM37,141.824H29.458V117.465a2.582,2.582,0,0,0-2.579-2.579h-12.1a2.582,2.582,0,0,0-2.58,2.579v24.359H4.656V80.58a1.193,1.193,0,0,1,.287-.776L20.826,61.293,36.71,79.8A1.192,1.192,0,0,1,37,80.58Zm24.8,0H51.154V124.441H61.8Zm0-20.692H51.154v-2.937H61.8Zm35.65,20.692H86.8V124.441H97.45Zm0-20.692H86.8v-2.937H97.45Z" transform="translate(0)"/></g></g></svg>