<?xml version="1.0" encoding="utf-8"?>
<!-- Generator: Adobe Illustrator 23.0.5, SVG Export Plug-In . SVG Version: 6.00 Build 0)  -->
<svg version="1.1" xmlns="http://www.w3.org/2000/svg" xmlns:xlink="http://www.w3.org/1999/xlink" x="0px" y="0px"
	 viewBox="0 0 150 150" style="enable-background:new 0 0 150 150;" xml:space="preserve">
<style type="text/css">
	.st0{fill:#2D2D2D;}
	.st1{fill:#FFFFFF;}
	.st2{display:none;opacity:0.18;fill:#00BBDC;}
	.st3{fill:#00BBDC;}
	.st4{display:none;opacity:0.18;fill:#FFFFFF;}
	.st5{display:none;opacity:0.18;fill:#FCFCFC;}
	.st6{fill:#FCFCFC;}
</style>
<g id="earn_money">
</g>
<g id="find_parking">
</g>
<g id="parking_services">
</g>
<g id="parking_technology">
	<g transform="translate(-0.001)">
		<path class="st1" d="M66.03,117.55H26.77c-1.46,0-2.64-1.18-2.64-2.64v-13.68c0-1.46,1.18-2.64,2.64-2.64h39.27
			c1.46,0,2.64,1.18,2.64,2.64v13.68C68.67,116.37,67.49,117.55,66.03,117.55z M29.41,112.27h33.98v-8.39H29.41V112.27z"/>
		<path class="st1" d="M147.47,23.3c-0.01-0.7-0.3-1.37-0.8-1.85l-10.03-9.7c-1.05-1.01-2.72-0.99-3.73,0.06L80.53,65.95V37.71
			c-0.01-8.03-6.52-14.54-14.55-14.55H26.82c-8.03,0.01-14.54,6.52-14.55,14.55v91.65c0,1.46,1.18,2.64,2.64,2.64c0,0,0,0,0,0h82.26
			c1.46,0,2.64-1.18,2.64-2.64s-1.18-2.64-2.64-2.64l0,0H80.53V78.74c0-3.73,2.93-6.81,6.66-7h0.08c0.08,0,0.17,0,0.25,0
			c3.87,0,7,3.14,7.01,7.01v26.58c0,1.46,1.18,2.64,2.64,2.64c1.46,0,2.64-1.18,2.64-2.64V78.74c0-1.46-0.26-2.91-0.77-4.27
			l47.68-49.29C147.21,24.68,147.48,24,147.47,23.3L147.47,23.3z M121.1,44.08l-4.08,4.22l3.53-16.13l5.99-6.19L123,42.11
			L121.1,44.08z M100.73,65.14l3.53-16.13l9.29-9.61l-3.53,16.13L100.73,65.14z M17.56,37.71c0.01-5.12,4.15-9.26,9.27-9.27h39.15
			c5.12,0.01,9.26,4.15,9.27,9.27v46.43h-5.28V36.36c0-1.46-1.18-2.64-2.64-2.64l0,0H25.48c-1.46,0-2.64,1.18-2.64,2.64v47.78h-5.28
			V37.71z M64.68,84.14H28.12V39h36.56V84.14z M17.56,89.42h57.69v37.3H17.56V89.42z M90.33,66.78l0.95-4.36l5.99-6.19l-2.72,12.43
			C93.28,67.77,91.85,67.13,90.33,66.78L90.33,66.78z M129.98,34.89l3.54-16.13l1.34-1.39l6.23,6.03L129.98,34.89z"/>
		<path class="st1" d="M87.53,88.43c-1.46,0-2.64-1.18-2.64-2.64v-4.4c0-1.46,1.18-2.64,2.64-2.64c1.46,0,2.64,1.18,2.64,2.64v4.4
			C90.17,87.25,88.99,88.43,87.53,88.43C87.53,88.43,87.53,88.43,87.53,88.43z"/>
		<path class="st1" d="M97.18,120.3c-0.17,0-0.35-0.02-0.52-0.05c-0.17-0.03-0.33-0.08-0.49-0.15c-0.32-0.13-0.61-0.33-0.86-0.57
			c-0.12-0.12-0.23-0.26-0.33-0.4c-0.09-0.14-0.18-0.3-0.24-0.46c-0.07-0.16-0.12-0.33-0.15-0.49c-0.03-0.17-0.05-0.34-0.05-0.51
			c0-0.17,0.02-0.35,0.05-0.52c0.03-0.17,0.08-0.33,0.15-0.49c0.07-0.16,0.15-0.31,0.24-0.46c0.1-0.14,0.21-0.28,0.33-0.4
			c0.12-0.12,0.26-0.23,0.4-0.33c0.14-0.1,0.3-0.18,0.46-0.24c0.16-0.07,0.32-0.12,0.49-0.15c0.87-0.17,1.76,0.1,2.38,0.72
			c0.25,0.25,0.44,0.54,0.57,0.86c0.07,0.16,0.12,0.32,0.15,0.49c0.03,0.17,0.05,0.34,0.05,0.52c0,0.17-0.02,0.35-0.05,0.51
			c-0.13,0.69-0.54,1.29-1.12,1.68c-0.14,0.09-0.3,0.18-0.46,0.24C97.87,120.23,97.52,120.3,97.18,120.3L97.18,120.3z"/>
	</g>
</g>
<g id="for_drivers">
</g>
<g id="for_parking_pwner">
</g>
<g id="book__x26__pay">
</g>
<g id="arrive_and_park">
</g>
<g id="smart_parking">
</g>
<g id="find_parking_1_">
</g>
<g id="earn_money_1_">
</g>
<g id="fastag">
</g>
<g id="Layer_14">
</g>
<g id="Layer_15">
</g>
<g id="Layer_16">
</g>
<g id="Layer_2">
</g>
</svg>
