<?xml version="1.0" encoding="utf-8"?>
<!-- Generator: Adobe Illustrator 23.0.5, SVG Export Plug-In . SVG Version: 6.00 Build 0)  -->
<svg version="1.1" xmlns="http://www.w3.org/2000/svg" xmlns:xlink="http://www.w3.org/1999/xlink" x="0px" y="0px"
	 viewBox="0 0 150 150" style="enable-background:new 0 0 150 150;" xml:space="preserve">
<style type="text/css">
	.st0{fill:#2D2D2D;}
	.st1{fill:#FFFFFF;}
	.st2{display:none;opacity:0.18;fill:#00BBDC;}
	.st3{fill:#00BBDC;}
	.st4{display:none;opacity:0.18;fill:#FFFFFF;}
	.st5{display:none;opacity:0.18;fill:#FCFCFC;}
	.st6{fill:#FCFCFC;}
</style>
<g id="earn_money">
</g>
<g id="find_parking">
</g>
<g id="parking_services">
</g>
<g id="parking_technology">
</g>
<g id="for_drivers">
	<circle class="st2" cx="75.5" cy="77.5" r="72.5"/>
	<g transform="translate(16.195 21.056)">
		<g transform="translate(0)">
			<path class="st3" d="M61.32,46.74h-4.14c-1.14,0-2.07,0.93-2.07,2.07c0,1.14,0.93,2.07,2.07,2.07h4.14
				c1.14,0,2.07-0.93,2.07-2.07C63.39,47.66,62.46,46.74,61.32,46.74L61.32,46.74z"/>
		</g>
	</g>
	<g transform="translate(15.468 23.965)">
		<g transform="translate(0)">
			<path class="st3" d="M64.12,52.1h-8.27c-1.14,0-2.07,0.93-2.07,2.07c0,1.14,0.93,2.07,2.07,2.07h8.27c1.14,0,2.07-0.93,2.07-2.07
				C66.19,53.02,65.26,52.1,64.12,52.1z"/>
		</g>
	</g>
	<g transform="translate(11.831 15.964)">
		<g transform="translate(0)">
			<path class="st3" d="M57.42,37.36h-8.27c-1.14,0-2.07,0.93-2.07,2.07c0,1.14,0.93,2.07,2.07,2.07h2.07v2.07
				c0,1.14,0.93,2.07,2.07,2.07c1.14,0,2.07-0.93,2.07-2.07v-2.07h2.07c1.14,0,2.07-0.93,2.07-2.07
				C59.48,38.28,58.56,37.36,57.42,37.36L57.42,37.36z"/>
		</g>
	</g>
	<g transform="translate(19.105 15.964)">
		<g transform="translate(0)">
			<path class="st3" d="M70.82,37.36h-8.27c-1.14,0-2.07,0.93-2.07,2.07c0,1.14,0.93,2.07,2.07,2.07h2.07v2.07
				c0,1.14,0.93,2.07,2.07,2.07c1.14,0,2.07-0.93,2.07-2.07l0,0v-2.07h2.07c1.14,0,2.07-0.93,2.07-2.07
				C72.89,38.28,71.96,37.36,70.82,37.36L70.82,37.36z"/>
		</g>
	</g>
	<g transform="translate(0)">
		<path class="st3" d="M125.32,123.8l-2.76-8.61c-1.27-3.37-3.24-6.43-5.78-8.98c-1.71-1.48-3.51-2.84-5.4-4.08l-0.19-0.13
			c-0.84-0.48-1.71-0.91-2.6-1.27c-3.03-1.24-6.26-1.89-9.53-1.9l-6.82-6.8c-0.01-1.85,0.1-3.69,0.32-5.52
			c0.26-2.19,0.63-4.36,1.1-6.51c2.56-2.8,4.14-6.36,4.5-10.14c0.26,0.08,0.53,0.12,0.8,0.13c0.38,0,0.75-0.06,1.11-0.18
			c1.07-0.36,4.31-1.44,4.31-14.39c0-1.39,0-5.63-2.84-6.91c-0.46-0.2-0.95-0.3-1.45-0.3c0.32-2.3,0.19-4.63-0.38-6.88
			c5.68-3.64,8.81-8.41,8.81-13.52C108.53,16.65,94,7.94,75.45,7.94s-33.08,8.71-33.08,19.83c0,5.12,3.13,9.87,8.81,13.53
			c-0.56,2.25-0.69,4.58-0.37,6.88c-0.5,0-0.99,0.1-1.45,0.3c-2.84,1.28-2.84,5.52-2.84,6.91c0,12.96,3.24,14.04,4.31,14.39
			c0.36,0.12,0.73,0.18,1.11,0.18c0.27-0.01,0.54-0.06,0.8-0.13c0.36,3.78,1.94,7.34,4.5,10.14c0.48,2.16,0.85,4.34,1.1,6.54
			c0.22,1.83,0.33,3.67,0.32,5.51l-6.82,6.79c-3.27,0.02-6.51,0.67-9.54,1.91c-0.89,0.37-1.75,0.79-2.59,1.27l-0.19,0.13
			c-1.89,1.24-3.69,2.6-5.4,4.08c-2.57,2.57-4.56,5.67-5.82,9.08l-2.73,8.53c-1.04,3.27,0.77,6.76,4.03,7.8
			c0.61,0.19,1.25,0.29,1.89,0.29h41.24c0.21,0.07,0.43,0.1,0.65,0.1h4.14c0.21,0,0.41-0.03,0.61-0.1h41.28
			c3.43,0,6.21-2.78,6.21-6.2C125.62,125.05,125.52,124.41,125.32,123.8L125.32,123.8z M95.15,100.78l-3.34,2.86
			c-2.36-1.47-4.91-2.62-7.58-3.41l5.59-4.79L95.15,100.78z M79.11,99.17c-2.43-0.29-4.88-0.29-7.31,0l-9.02-7.75
			c-0.02-1.81-0.13-3.61-0.34-5.4c-0.02-0.19-0.06-0.4-0.08-0.59c1.25,1.16,2.57,2.33,4.06,3.54c5.27,4.27,12.81,4.27,18.08,0
			c1.49-1.21,2.82-2.38,4.06-3.54c-0.02,0.19-0.06,0.39-0.08,0.57c-0.21,1.79-0.33,3.6-0.34,5.4L79.11,99.17z M99.83,52.34
			c0.36,0.98,0.5,2.02,0.43,3.06c0.28,3.48-0.21,6.99-1.42,10.27c-0.33-0.29-0.62-0.6-0.88-0.95c-0.12-4.02,0.28-8.05,1.18-11.97
			c0.21-0.17,0.45-0.31,0.7-0.42L99.83,52.34z M46.51,27.77c0-8.51,13.25-15.69,28.94-15.69s28.94,7.19,28.94,15.69
			c-0.08,2.4-1.03,4.68-2.66,6.44c0.18-0.2,0.33-0.43,0.43-0.69c0.22-0.5,0.22-1.07,0-1.57c-0.1-0.25-0.25-0.48-0.43-0.68
			c-0.1-0.09-0.2-0.17-0.31-0.25c-0.12-0.08-0.24-0.14-0.37-0.18c-0.12-0.06-0.24-0.1-0.37-0.13c-0.97-0.23-1.97,0.3-2.32,1.24
			c-0.22,0.5-0.22,1.07,0,1.57c0.11,0.25,0.25,0.48,0.43,0.68c0.81,0.8,2.12,0.8,2.93,0c-0.89,1.04-1.9,1.96-3.01,2.77
			c-0.17-0.06-0.34-0.09-0.52-0.11H52.71c-0.18,0.01-0.36,0.05-0.53,0.11C48.93,35,46.82,31.57,46.51,27.77z M94.54,41.02
			c-3.03,2.19-9.95,4.14-19.08,4.14s-16.07-1.95-19.09-4.14H94.54z M52.94,64.7c-0.26,0.35-0.56,0.67-0.88,0.95
			c-1.21-3.28-1.7-6.78-1.42-10.27c-0.08-1.04,0.07-2.08,0.43-3.06c0.25,0.1,0.48,0.24,0.69,0.41
			C52.66,56.66,53.06,60.68,52.94,64.7z M56.84,69.7c0-0.46,0.02-0.92,0.05-1.34c0.61-6.24,0.08-12.53-1.57-18.58l0,0
			c-0.36-1.34-0.54-2.72-0.55-4.1c0-0.25,0.04-0.49,0.05-0.73c6.39,3.19,13.49,4.69,20.62,4.36c7.13,0.33,14.23-1.17,20.62-4.36
			c0,0.24,0.05,0.49,0.05,0.73c-0.01,1.38-0.19,2.75-0.55,4.08C93.93,55.8,93.4,62.1,94,68.35c0.04,0.44,0.05,0.9,0.05,1.35
			c0,4.01-4.33,9.71-12.18,16.08c-3.75,3.04-9.11,3.04-12.86,0C61.17,79.41,56.84,73.7,56.84,69.7z M61.08,95.43l5.57,4.79
			c-2.67,0.79-5.22,1.94-7.58,3.41l-3.34-2.86L61.08,95.43z M31.49,127.76c-1.15,0.01-2.08-0.92-2.09-2.06
			c0-0.22,0.03-0.43,0.1-0.64l2.7-8.42c1.06-2.82,2.7-5.39,4.83-7.52c0.18-0.18,0.7-0.6,4.8-3.58c0.65-0.37,1.33-0.7,2.02-0.99
			c2.56-1.05,5.3-1.6,8.07-1.6l3.67,3.13c-0.72,0.61-1.42,1.24-2.09,1.91c-5.29,5.28-8.48,12.3-8.98,19.76H31.47L31.49,127.76z
			 M56.97,127.76c0.71-5.97,4.25-11.22,9.51-14.13c0.46-0.26,0.94-0.47,1.42-0.69l0,0l2.96,14.82H56.97z M80.06,127.76l2.96-14.82
			c0.48,0.22,0.96,0.44,1.42,0.7c5.25,2.91,8.78,8.17,9.49,14.13H80.06z M98.08,127.76c-0.73-7.47-5.08-14.11-11.65-17.75
			c-1.39-0.77-2.86-1.39-4.38-1.85c-0.03,0-0.07,0-0.1,0s-0.06-0.03-0.1-0.04c-0.11-0.01-0.22-0.01-0.33,0
			c-0.13-0.01-0.26-0.01-0.39,0c-0.14,0.03-0.27,0.07-0.4,0.13c-0.25,0.07-0.48,0.21-0.65,0.4c-0.1,0.08-0.19,0.17-0.27,0.27
			c-0.08,0.12-0.14,0.24-0.2,0.37c-0.05,0.09-0.1,0.18-0.14,0.27c0,0.03,0,0.07,0,0.1c0,0.03-0.03,0.05-0.03,0.09l-3.6,18.01h-0.78
			l-3.61-18.01c0-0.03-0.03-0.06-0.04-0.09s0-0.07,0-0.1c-0.04-0.1-0.09-0.19-0.14-0.28c-0.05-0.13-0.12-0.25-0.2-0.37
			c-0.08-0.1-0.18-0.2-0.28-0.28c-0.18-0.19-0.4-0.33-0.66-0.4c-0.13-0.05-0.26-0.1-0.39-0.12c-0.13-0.01-0.26-0.01-0.39,0
			c-0.11-0.01-0.22-0.01-0.33,0c-0.03,0-0.06,0.03-0.1,0.04c-0.04,0.01-0.07,0-0.1,0c-1.52,0.46-2.99,1.07-4.37,1.84
			c-6.57,3.64-10.93,10.28-11.65,17.75h-4.15c0.5-6.36,3.26-12.34,7.79-16.84c1.12-1.12,2.34-2.14,3.63-3.06
			c9.25-6.41,21.5-6.41,30.75,0c1.3,0.91,2.51,1.93,3.64,3.06c4.53,4.5,7.29,10.47,7.79,16.84h-4.16L98.08,127.76z M121.08,126.91
			c-0.39,0.54-1.01,0.86-1.68,0.85h-13.05c-0.49-7.46-3.68-14.48-8.97-19.76c-0.67-0.67-1.37-1.3-2.09-1.91l3.67-3.13
			c2.77,0.01,5.51,0.55,8.07,1.6c0.69,0.29,1.37,0.62,2.02,0.99c4.1,2.98,4.62,3.41,4.81,3.59c2.1,2.11,3.74,4.63,4.81,7.42
			l2.73,8.53C121.59,125.71,121.47,126.38,121.08,126.91L121.08,126.91z"/>
	</g>
	<g transform="translate(9.648 6.544)">
		<g transform="translate(0)">
			<path class="st3" d="M46.59,20.61c-0.2-0.19-0.43-0.33-0.68-0.43c-0.5-0.23-1.07-0.23-1.57,0c-0.25,0.1-0.48,0.25-0.68,0.43
				c-0.38,0.4-0.59,0.92-0.6,1.47c-0.01,0.27,0.05,0.54,0.16,0.78c0.11,0.25,0.25,0.48,0.43,0.68c0.2,0.18,0.43,0.33,0.68,0.43
				c0.77,0.33,1.66,0.16,2.25-0.43c0.18-0.2,0.33-0.43,0.43-0.68c0.11-0.25,0.16-0.51,0.16-0.78C47.18,21.53,46.97,21,46.59,20.61z"
				/>
		</g>
	</g>
	<g transform="translate(12.558 6.546)">
		<path class="st3" d="M51.93,20.6c-0.09-0.1-0.19-0.18-0.31-0.25c-0.11-0.08-0.23-0.14-0.35-0.18c-0.12-0.06-0.26-0.11-0.4-0.13
			c-0.68-0.13-1.37,0.08-1.86,0.57c-0.38,0.4-0.59,0.92-0.6,1.47c-0.01,1.13,0.9,2.06,2.03,2.07c0,0,0,0,0,0h0.05
			c1.14-0.01,2.06-0.93,2.07-2.07C52.55,21.53,52.33,21,51.93,20.6z"/>
	</g>
	<g transform="translate(18.377 6.546)">
		<g transform="translate(0)">
			<path class="st3" d="M62.67,20.6c-0.1-0.09-0.21-0.18-0.33-0.25c-0.11-0.08-0.23-0.14-0.35-0.18c-0.12-0.06-0.26-0.1-0.39-0.13
				c-0.68-0.13-1.37,0.08-1.86,0.57c-0.38,0.4-0.59,0.92-0.6,1.47c-0.01,0.55,0.21,1.08,0.6,1.47c0.2,0.18,0.43,0.33,0.68,0.43
				c1.04,0.44,2.24-0.05,2.68-1.09c0.11-0.26,0.16-0.53,0.16-0.81C63.26,21.53,63.05,21.01,62.67,20.6z"/>
		</g>
	</g>
	<g transform="translate(15.468 6.542)">
		<g transform="translate(0)">
			<path class="st3" d="M55.86,20c-0.56,0-1.09,0.22-1.48,0.61c-0.8,0.82-0.8,2.12,0,2.94c0.82,0.81,2.13,0.8,2.94-0.02
				c0.37-0.37,0.58-0.88,0.6-1.4c0,0,0-0.03,0-0.04C57.93,20.94,57.01,20.01,55.86,20C55.87,20,55.86,20,55.86,20z"/>
		</g>
	</g>
	<g transform="translate(21.287 6.546)">
		<path class="st3" d="M68.04,20.6c-0.49-0.49-1.2-0.7-1.88-0.57c-0.13,0.02-0.26,0.07-0.37,0.13c-0.13,0.04-0.26,0.11-0.37,0.18
			c-0.11,0.08-0.21,0.16-0.31,0.25c-0.38,0.4-0.59,0.92-0.6,1.47c-0.01,1.13,0.9,2.06,2.03,2.07c0,0,0,0,0,0h0.04
			c0.27,0,0.54-0.06,0.78-0.16c0.25-0.11,0.48-0.25,0.68-0.43c0.38-0.39,0.6-0.92,0.6-1.47C68.62,21.52,68.41,21,68.04,20.6z"/>
	</g>
	<g transform="translate(24.196 6.542)">
		<g transform="translate(0)">
			<path class="st3" d="M71.94,20c-0.56,0-1.09,0.22-1.48,0.61c-0.38,0.39-0.6,0.92-0.6,1.47c-0.01,0.55,0.21,1.08,0.6,1.47
				c0.2,0.18,0.43,0.33,0.68,0.43c1.04,0.44,2.24-0.05,2.68-1.09c0.1-0.24,0.16-0.51,0.16-0.77v-0.04
				C73.99,20.94,73.08,20.01,71.94,20z"/>
		</g>
	</g>
	<g transform="translate(8.194 8)">
		<g transform="translate(0)">
			<path class="st3" d="M43.89,23.29c-0.48-0.49-1.18-0.71-1.86-0.57c-0.13,0.02-0.26,0.07-0.37,0.13
				c-0.13,0.04-0.26,0.11-0.37,0.18c-0.11,0.08-0.21,0.16-0.31,0.25c-0.19,0.2-0.33,0.43-0.43,0.68c-0.11,0.25-0.16,0.51-0.16,0.78
				c-0.01,1.13,0.9,2.06,2.03,2.07c0,0,0,0,0,0h0.04c1.14-0.01,2.06-0.93,2.07-2.07C44.5,24.19,44.28,23.67,43.89,23.29z"/>
		</g>
	</g>
	<g transform="translate(11.103 8.01)">
		<g transform="translate(0)">
			<path class="st3" d="M49.72,23.96c-0.1-0.25-0.25-0.48-0.43-0.68c-0.83-0.77-2.11-0.77-2.94,0c-0.19,0.2-0.33,0.43-0.43,0.68
				c-0.12,0.24-0.17,0.51-0.16,0.78c0,1.14,0.93,2.07,2.07,2.06c1.14,0,2.07-0.93,2.06-2.07C49.88,24.47,49.83,24.21,49.72,23.96
				L49.72,23.96z"/>
		</g>
	</g>
	<g transform="translate(14.013 8.002)">
		<g transform="translate(0)">
			<path class="st3" d="M54.63,23.29c-0.1-0.09-0.21-0.18-0.33-0.25c-0.11-0.08-0.23-0.14-0.35-0.18c-0.12-0.06-0.26-0.11-0.4-0.13
				c-0.68-0.13-1.37,0.08-1.86,0.57c-0.19,0.2-0.33,0.43-0.43,0.68c-0.11,0.25-0.16,0.51-0.16,0.78c-0.01,0.55,0.21,1.08,0.6,1.47
				c0.8,0.81,2.11,0.82,2.92,0.02c0.4-0.39,0.62-0.93,0.61-1.48C55.22,24.21,55.01,23.69,54.63,23.29z"/>
		</g>
	</g>
	<g transform="translate(16.922 8.002)">
		<g transform="translate(0)">
			<path class="st3" d="M60.43,23.97c-0.1-0.25-0.25-0.48-0.43-0.68c-0.2-0.18-0.43-0.33-0.68-0.43c-0.77-0.32-1.66-0.15-2.25,0.43
				c-0.19,0.2-0.33,0.43-0.43,0.68c-0.12,0.24-0.17,0.51-0.16,0.78c0,1.14,0.93,2.07,2.07,2.06c1.14,0,2.07-0.93,2.06-2.07
				C60.59,24.48,60.54,24.21,60.43,23.97L60.43,23.97z"/>
		</g>
	</g>
	<g transform="translate(19.832 8.001)">
		<g transform="translate(0)">
			<path class="st3" d="M63.89,22.69c-1.14,0-2.07,0.93-2.07,2.07c-0.01,0.55,0.21,1.08,0.6,1.47c0.81,0.81,2.12,0.81,2.93,0
				c0.81-0.81,0.81-2.12,0-2.93C64.96,22.9,64.44,22.68,63.89,22.69L63.89,22.69z"/>
		</g>
	</g>
	<g transform="translate(22.742 7.997)">
		<g transform="translate(0)">
			<path class="st3" d="M69.26,22.68c-0.56,0-1.09,0.22-1.48,0.61c-0.38,0.39-0.6,0.92-0.6,1.47c-0.01,0.55,0.21,1.08,0.6,1.47
				c0.81,0.81,2.13,0.8,2.93-0.01c0.81-0.81,0.8-2.13-0.01-2.93C70.32,22.9,69.8,22.68,69.26,22.68L69.26,22.68z"/>
		</g>
	</g>
</g>
<g id="for_parking_pwner">
</g>
<g id="book__x26__pay">
</g>
<g id="arrive_and_park">
</g>
<g id="smart_parking">
</g>
<g id="find_parking_1_">
</g>
<g id="earn_money_1_">
</g>
<g id="fastag">
</g>
<g id="Layer_14">
</g>
<g id="Layer_15">
</g>
<g id="Layer_16">
</g>
<g id="Layer_2">
</g>
</svg>
