<svg xmlns="http://www.w3.org/2000/svg" width="37.399" height="37.39" viewBox="0 0 37.399 37.39"><defs><style>.a{fill:#00bbdc;}</style></defs><path class="a" d="M34.175,37.2V14.8l.58.346a2.413,2.413,0,0,0,2.462-4.151L34.779,9.539V2.814H29.953V6.662L21.129,1.4a2.839,2.839,0,0,0-2.86,0L2.182,10.993A2.415,2.415,0,0,0,1.337,14.3a2.412,2.412,0,0,0,3.307.844l.578-.344V37.2H1V38.4H38.4V37.2ZM31.16,4.021h2.413v4.8L31.16,7.381ZM4.028,14.106a1.241,1.241,0,0,1-1.653-.423A1.208,1.208,0,0,1,2.8,12.029L18.887,2.434a1.612,1.612,0,0,1,1.624,0L36.6,12.03a1.208,1.208,0,0,1,.422,1.653,1.242,1.242,0,0,1-1.652.423L21.129,5.62a2.794,2.794,0,0,0-2.86,0Zm13.861-3.45a1.81,1.81,0,1,1,1.81,1.81A1.812,1.812,0,0,1,17.889,10.656ZM19.7,7.64a3.019,3.019,0,0,0-3.016,3.016,2.985,2.985,0,0,0,.619,1.81H9.138l9.748-5.808a1.614,1.614,0,0,1,1.625,0l9.748,5.808H22.1a2.985,2.985,0,0,0,.619-1.81A3.019,3.019,0,0,0,19.7,7.64ZM6.428,14.08l.685-.408h25.17l.685.408V37.2H29.349V35.99a9.662,9.662,0,0,0-6.966-9.263,4.826,4.826,0,1,0-5.37,0,9.662,9.662,0,0,0-6.966,9.263V37.2H6.428Zm9.651,8.639h.1a4.688,4.688,0,0,0,2.967-1.048l.382.255a4.708,4.708,0,0,0,2.62.793h1.165a3.619,3.619,0,1,1-7.238,0Zm.213-1.212a3.613,3.613,0,0,1,6.814.005h-.955a3.5,3.5,0,0,1-1.95-.591l-1.183-.789-.349.35a3.49,3.49,0,0,1-2.377,1.024Zm4.262,8.981,2.067-2.412c.193.072.383.148.569.233l-.37,4.068Zm.794-2.78L19.7,29.635l-1.65-1.925a8.382,8.382,0,0,1,3.3,0Zm-4.573.369,2.067,2.412-2.267,1.889-.37-4.068c.186-.084.376-.161.569-.232Zm-1.723.867.53,5.83,2.168-1.807-.41,4.227H11.254V35.99A8.441,8.441,0,0,1,15.053,28.945Zm4.016,2.926.63-.525.63.525.516,5.325H18.553Zm2.578,1.1,2.168,1.807.53-5.83a8.44,8.44,0,0,1,3.8,7.044V37.2H22.056Z" transform="translate(-0.999 -1.012)"/><path class="a" d="M18.032,24H12v7.238h6.032Zm-1.206,6.032H13.206V25.206h3.619Z" transform="translate(-5.364 -10.134)"/><path class="a" d="M48.032,24H42v7.238h6.032Zm-1.206,6.032H43.206V25.206h3.619Z" transform="translate(-17.269 -10.134)"/><path class="a" d="M50,57h1.206v1.206H50Z" transform="translate(-20.443 -23.229)"/><path class="a" d="M50,49h1.206v1.206H50Z" transform="translate(-20.443 -20.054)"/><path class="a" d="M50,53h1.206v1.206H50Z" transform="translate(-20.443 -21.642)"/><path class="a" d="M12,42h1.206v1.206H12Z" transform="translate(-5.364 -17.277)"/><path class="a" d="M12,38h1.206v1.206H12Z" transform="translate(-5.364 -15.689)"/><path class="a" d="M12,46h1.206v1.206H12Z" transform="translate(-5.364 -18.864)"/></svg>