<svg xmlns="http://www.w3.org/2000/svg" width="167" height="167" viewBox="0 0 167 167"><defs><style>.a{fill:#00bbdc;}.b{fill:#fff;}</style></defs><g transform="translate(-1272 -6686)"><g transform="translate(1092 -3030)"><circle class="a" cx="83.5" cy="83.5" r="83.5" transform="translate(180 9716)"/></g><g transform="translate(1254.32 6716)"><g transform="translate(60.68 0)"><path class="b" d="M142.316,88.56c-.238-14.542-15.106-18.838-25.962-21.975-1.267-.366-2.485-.718-3.626-1.07v-6a21.377,21.377,0,0,0,5.733-5.27h6.613a5.876,5.876,0,0,0,5.869-5.869v-7.1a7.536,7.536,0,0,0,.61-2.978v-2.21a7.526,7.526,0,0,0-.61-2.975V29.445a29.442,29.442,0,1,0-58.884,0v3.56c0,.028,0,.055,0,.083a7.525,7.525,0,0,0-.62,3V38.3a7.581,7.581,0,0,0,7.569,7.575h1.727a21.268,21.268,0,0,0,9.529,13.645v6c-1.142.352-2.36.7-3.626,1.07C75.786,69.722,60.918,74.019,60.68,88.56c0,.011,0,.023,0,.034v16.314A2.09,2.09,0,0,0,62.77,107h6.2a2.09,2.09,0,0,0,0-4.18H64.859V88.612c.088-5.073,2.419-8.877,7.334-11.969a47.894,47.894,0,0,1,11.118-4.71l5.049,9.838a2.111,2.111,0,0,0,3.028.778l2.251-1.519,1.933,7.265-3.312,14.523H87.732a2.09,2.09,0,1,0,0,4.18h52.495a2.09,2.09,0,0,0,2.09-2.09V88.594c0-.011,0-.023,0-.034ZM115.194,70.6l.417.121L112,77.766l-6.761-4.559,5.728-3.864c1.331.419,2.746.828,4.229,1.257ZM101.5,75.729l4.19,2.826-2.025,7.612H99.331l-2.025-7.61Zm0-5.041-7.051-4.755v-4.4a21.177,21.177,0,0,0,14.1,0v4.4Zm17.024-40.859-.086-.055c-4.288-2.73-7.992-5.087-13.795-3.427-.054.015-.107.033-.16.053-1.23.462-2.349.893-3.431,1.309-6.609,2.544-10.217,3.933-16.58,3.754V29.789a17.025,17.025,0,1,1,34.051,0v.039Zm8.24,18.55a1.691,1.691,0,0,1-1.689,1.689h-4.165a21.029,21.029,0,0,0,1.348-4.2h1.727a7.518,7.518,0,0,0,2.779-.531v3.039Zm.61-10.082a3.4,3.4,0,0,1-3.389,3.4H122.7c0-.052,0-8.995,0-8.995h1.281a3.393,3.393,0,0,1,3.389,3.39V38.3Zm-48.361,3.4a3.4,3.4,0,0,1-3.389-3.4v-2.21a3.393,3.393,0,0,1,3.389-3.39h1.281s0,8.943,0,8.995Zm1.32-13.175h-1.32a7.525,7.525,0,0,0-2.768.527,25.26,25.26,0,0,1,50.514,0,7.524,7.524,0,0,0-2.774-.529h-1.32a21.2,21.2,0,0,0-42.332,0ZM84.6,43.569v-.006a17.121,17.121,0,0,1-.125-2.027V35.642c7.15.174,11.415-1.467,18.081-4.033,1.05-.4,2.135-.822,3.317-1.266,3.948-1.1,6.219.344,10.322,2.956.712.453,1.493.95,2.33,1.46v6.777a16.916,16.916,0,0,1-2.3,8.531H101.5a2.09,2.09,0,1,0,0,4.18h11.311A17.009,17.009,0,0,1,84.6,43.569ZM91,77.767,87.387,70.72l.415-.12c1.483-.428,2.9-.838,4.229-1.257l5.731,3.864Zm5.544,25.052,2.844-12.472H103.6l2.848,12.472Zm41.589,0h-27.4l-3.317-14.524,1.934-7.268,2.257,1.522a2.111,2.111,0,0,0,3.028-.779l5.044-9.837a47.9,47.9,0,0,1,11.117,4.71c4.915,3.092,7.246,6.9,7.334,11.969v14.207Z" transform="translate(-60.68 0)"/><path class="b" d="M344.053,441.995H333.521a2.09,2.09,0,1,0,0,4.18h10.532a2.09,2.09,0,1,0,0-4.18Z" transform="translate(-274.849 -349.626)"/><path class="b" d="M137.317,492a2.09,2.09,0,1,0,0,4.18h.006a2.09,2.09,0,0,0-.006-4.18Z" transform="translate(-119.648 -389.18)"/></g></g></g></svg>