<svg xmlns="http://www.w3.org/2000/svg" width="167" height="167" viewBox="0 0 167 167"><defs><style>.a{fill:#00bbdc;}.b{fill:#fff;}</style></defs><g transform="translate(-1596 -9413)"><circle class="a" cx="83.5" cy="83.5" r="83.5" transform="translate(1596 9413)"/><g transform="translate(1628.999 9448.826)"><g transform="translate(0.004 84.509)"><path class="b" d="M101.727,58.23H1.618a1.615,1.615,0,1,1,0-3.23H101.727a1.615,1.615,0,0,1,0,3.23Z" transform="translate(-0.003 -55)"/></g><g transform="translate(100.113 34.432)"><path class="b" d="M63.614,77.295A1.613,1.613,0,0,1,62,75.68V25.6a1.615,1.615,0,1,1,3.23,0V75.68A1.613,1.613,0,0,1,63.614,77.295Z" transform="translate(-61.999 -23.988)"/></g><g transform="translate(67.818 34.432)"><path class="b" d="M43.614,77.295A1.613,1.613,0,0,1,42,75.68V25.6a1.615,1.615,0,1,1,3.23,0V75.68A1.613,1.613,0,0,1,43.614,77.295Z" transform="translate(-41.999 -23.988)"/></g><g transform="translate(32.296 34.432)"><path class="b" d="M21.616,77.295A1.613,1.613,0,0,1,20,75.68V25.6a1.615,1.615,0,1,1,3.23,0V75.68A1.613,1.613,0,0,1,21.616,77.295Z" transform="translate(-20.001 -23.988)"/></g><g transform="translate(0.001 34.432)"><path class="b" d="M1.616,77.295A1.613,1.613,0,0,1,0,75.68V25.6a1.615,1.615,0,1,1,3.23,0V75.68a1.613,1.613,0,0,1-1.615,1.615Z" transform="translate(-0.001 -23.988)"/></g><g transform="translate(96.885 34.432)"><path class="b" d="M64.843,27.218H61.615a1.615,1.615,0,0,1,0-3.23h3.228a1.615,1.615,0,0,1,0,3.23Z" transform="translate(-60 -23.988)"/></g><g transform="translate(0.003 34.432)"><path class="b" d="M4.845,27.218H1.617a1.615,1.615,0,0,1,0-3.23H4.845a1.615,1.615,0,1,1,0,3.23Z" transform="translate(-0.002 -23.988)"/></g><g transform="translate(64.588 34.432)"><path class="b" d="M48.074,27.218H41.614a1.615,1.615,0,0,1,0-3.23h6.461a1.615,1.615,0,1,1,0,3.23Z" transform="translate(-39.999 -23.988)"/></g><g transform="translate(29.068 34.432)"><path class="b" d="M26.077,27.218H19.617a1.615,1.615,0,0,1,0-3.23h6.461a1.615,1.615,0,0,1,0,3.23Z" transform="translate(-18.002 -23.988)"/></g><g transform="translate(72.665 40.926)"><g transform="translate(1.615)"><g transform="translate(0.002 3.23)"><path class="b" d="M47.617,60.665A1.613,1.613,0,0,1,46,59.05V31.625a1.615,1.615,0,1,1,3.23,0V59.05A1.613,1.613,0,0,1,47.617,60.665Z" transform="translate(-46.002 -30.01)"/></g><path class="b" d="M47.616,34.469A1.613,1.613,0,0,1,46,32.854a4.852,4.852,0,0,1,4.846-4.844,1.615,1.615,0,0,1,0,3.23,1.617,1.617,0,0,0-1.616,1.615A1.613,1.613,0,0,1,47.616,34.469Z" transform="translate(-46.001 -28.01)"/><g transform="translate(0.002 30.655)"><path class="b" d="M54.076,56.683A8.069,8.069,0,0,1,46,48.609a1.615,1.615,0,0,1,3.23,0,4.841,4.841,0,0,0,4.844,4.844,1.615,1.615,0,0,1,0,3.23Z" transform="translate(-46.002 -46.994)"/></g></g><g transform="translate(14.53)"><g transform="translate(6.461 3.23)"><path class="b" d="M59.615,60.665A1.613,1.613,0,0,1,58,59.05V31.625a1.615,1.615,0,0,1,3.23,0V59.05A1.613,1.613,0,0,1,59.615,60.665Z" transform="translate(-58 -30.01)"/></g><g transform="translate(3.231)"><path class="b" d="M60.844,34.469a1.613,1.613,0,0,1-1.615-1.615,1.615,1.615,0,0,0-1.615-1.615,1.615,1.615,0,0,1,0-3.23,4.85,4.85,0,0,1,4.844,4.844A1.613,1.613,0,0,1,60.844,34.469Z" transform="translate(-56 -28.01)"/></g><g transform="translate(0 30.655)"><path class="b" d="M55.614,56.683a1.615,1.615,0,1,1,0-3.23,4.852,4.852,0,0,0,4.846-4.844,1.615,1.615,0,0,1,3.23,0A8.083,8.083,0,0,1,55.614,56.683Z" transform="translate(-53.999 -46.994)"/></g></g><g transform="translate(4.846 0)"><path class="b" d="M62.532,31.24H49.617a1.615,1.615,0,1,1,0-3.23H62.532a1.615,1.615,0,1,1,0,3.23Z" transform="translate(-48.002 -28.01)"/></g><g transform="translate(6.459 6.456)"><path class="b" d="M60.335,49.754a.216.216,0,0,1-.032,0H50.616A1.615,1.615,0,0,1,49,48.14l0-14.517a1.614,1.614,0,0,1,1.615-1.615H60.3a1.614,1.614,0,0,1,1.615,1.615l0,14.194a1.635,1.635,0,0,1,.032.323A1.614,1.614,0,0,1,60.335,49.754Zm-8.1-3.23h6.457l0-11.287H52.232Z" transform="translate(-49.001 -32.008)"/></g><g transform="translate(16.146 20.971)"><path class="b" d="M58.229,49.073a1.613,1.613,0,0,1-1.531-1.1l-1.615-4.844A1.615,1.615,0,1,1,58.147,42.1l1.615,4.844a1.614,1.614,0,0,1-1.021,2.043A1.633,1.633,0,0,1,58.229,49.073Z" transform="translate(-55 -40.997)"/></g><g transform="translate(4.845 20.971)"><path class="b" d="M49.616,49.072a1.617,1.617,0,0,1-1.531-2.127L49.7,42.1a1.615,1.615,0,1,1,3.063,1.022l-1.615,4.844a1.616,1.616,0,0,1-1.532,1.1Z" transform="translate(-48.001 -40.997)"/></g><g transform="translate(4.845 25.817)"><path class="b" d="M56.073,48.842c-3.929,0-6.277-.539-7.394-1.692A2.2,2.2,0,0,1,48,45.563,1.615,1.615,0,0,1,49.614,44c.018,0,.034,0,.052,0a1.616,1.616,0,0,1,1.426.956c.329.176,1.544.656,4.982.657s4.654-.48,4.983-.656A1.611,1.611,0,0,1,62.482,44c.018,0,.034,0,.052,0a1.615,1.615,0,0,1,1.612,1.565,2.2,2.2,0,0,1-.678,1.589C62.35,48.3,60,48.842,56.073,48.842Z" transform="translate(-48.001 -43.998)"/></g><g transform="translate(8.075 37.114)"><path class="b" d="M58.071,54.224H51.617a1.615,1.615,0,1,1,0-3.23h6.454a1.615,1.615,0,0,1,0,3.23Z" transform="translate(-50.002 -50.994)"/></g><g transform="translate(20.99 20.973)"><path class="b" d="M61.23,44.228H59.615a1.615,1.615,0,0,1,0-3.23H61.23a1.615,1.615,0,0,1,0,3.23Z" transform="translate(-58 -40.998)"/></g><g transform="translate(0 20.973)"><path class="b" d="M48.231,44.228H46.616a1.615,1.615,0,1,1,0-3.23h1.615a1.615,1.615,0,1,1,0,3.23Z" transform="translate(-45.001 -40.998)"/></g><g transform="translate(2.751 0.896)"><path class="b" d="M52.031,37.354a1.612,1.612,0,0,1-1.345-.719l-3.709-5.56a1.615,1.615,0,0,1,2.687-1.792l3.709,5.56a1.615,1.615,0,0,1-1.342,2.511Z" transform="translate(-46.704 -28.565)"/></g><g transform="translate(16.145 0.896)"><path class="b" d="M56.614,37.351a1.615,1.615,0,0,1-1.342-2.511l3.709-5.556a1.615,1.615,0,0,1,2.687,1.792l-3.709,5.556a1.614,1.614,0,0,1-1.345.719Z" transform="translate(-54.999 -28.565)"/></g></g><g transform="translate(38.754 7)"><g transform="translate(1.615)"><g transform="translate(0.002 3.23)"><path class="b" d="M26.616,39.655A1.613,1.613,0,0,1,25,38.04V10.615a1.615,1.615,0,1,1,3.23,0V38.04A1.613,1.613,0,0,1,26.616,39.655Z" transform="translate(-25.001 -9)"/></g><path class="b" d="M26.615,13.456A1.613,1.613,0,0,1,25,11.841,4.85,4.85,0,0,1,29.846,7a1.615,1.615,0,1,1,0,3.23,1.615,1.615,0,0,0-1.616,1.612A1.613,1.613,0,0,1,26.615,13.456Z" transform="translate(-25 -7)"/><g transform="translate(0.002 30.655)"><path class="b" d="M33.075,35.673A8.071,8.071,0,0,1,25,27.6a1.615,1.615,0,0,1,3.23,0,4.841,4.841,0,0,0,4.844,4.844,1.615,1.615,0,0,1,0,3.23Z" transform="translate(-25.001 -25.984)"/></g></g><g transform="translate(14.53)"><g transform="translate(6.461 3.226)"><path class="b" d="M38.614,39.656A1.613,1.613,0,0,1,37,38.041V10.613a1.615,1.615,0,1,1,3.23,0V38.041A1.613,1.613,0,0,1,38.614,39.656Z" transform="translate(-36.999 -8.998)"/></g><g transform="translate(3.231)"><path class="b" d="M39.843,13.456a1.613,1.613,0,0,1-1.615-1.615,1.614,1.614,0,0,0-1.615-1.612,1.615,1.615,0,1,1,0-3.23,4.848,4.848,0,0,1,4.844,4.841A1.613,1.613,0,0,1,39.843,13.456Z" transform="translate(-34.999 -7)"/></g><g transform="translate(0 30.655)"><path class="b" d="M34.613,35.673a1.615,1.615,0,1,1,0-3.23A4.852,4.852,0,0,0,39.459,27.6a1.615,1.615,0,0,1,3.23,0A8.083,8.083,0,0,1,34.613,35.673Z" transform="translate(-32.998 -25.984)"/></g></g><g transform="translate(4.846)"><path class="b" d="M41.531,10.23H28.616a1.615,1.615,0,1,1,0-3.23H41.531a1.615,1.615,0,0,1,0,3.23Z" transform="translate(-27.001 -7)"/></g><g transform="translate(6.459 6.456)"><path class="b" d="M29.615,28.744A1.615,1.615,0,0,1,28,27.13l0-14.517A1.614,1.614,0,0,1,29.616,11H39.3a1.614,1.614,0,0,1,1.615,1.615l0,14.514A1.614,1.614,0,0,1,39.3,28.741Zm1.616-14.517,0,11.287,6.457,0,0-11.284Z" transform="translate(-28 -10.998)"/></g><g transform="translate(16.146 20.968)"><path class="b" d="M37.228,28.06a1.613,1.613,0,0,1-1.531-1.1l-1.615-4.844a1.615,1.615,0,1,1,3.063-1.022l1.615,4.844a1.614,1.614,0,0,1-1.021,2.043,1.581,1.581,0,0,1-.512.084Z" transform="translate(-33.999 -19.985)"/></g><g transform="translate(4.845 20.97)"><path class="b" d="M28.615,28.059a1.617,1.617,0,0,1-1.531-2.127L28.7,21.092a1.615,1.615,0,0,1,3.063,1.022l-1.615,4.841A1.614,1.614,0,0,1,28.615,28.059Z" transform="translate(-27 -19.987)"/></g><g transform="translate(4.845 25.812)"><path class="b" d="M35.072,27.831c-3.925,0-6.275-.538-7.392-1.691A2.2,2.2,0,0,1,27,24.551a1.6,1.6,0,0,1,1.663-1.563,1.615,1.615,0,0,1,1.426.958c.329.176,1.542.656,4.982.656s4.654-.48,4.983-.656a1.616,1.616,0,0,1,3.091.606,2.207,2.207,0,0,1-.68,1.589c-1.117,1.153-3.467,1.691-7.394,1.691Z" transform="translate(-27 -22.985)"/></g><g transform="translate(8.075 37.114)"><path class="b" d="M37.07,33.214H30.616a1.615,1.615,0,0,1,0-3.23H37.07a1.615,1.615,0,1,1,0,3.23Z" transform="translate(-29.001 -29.984)"/></g><g transform="translate(20.99 20.969)"><path class="b" d="M40.229,23.216H38.614a1.615,1.615,0,1,1,0-3.23h1.615a1.615,1.615,0,0,1,0,3.23Z" transform="translate(-36.999 -19.986)"/></g><g transform="translate(0 20.969)"><path class="b" d="M27.23,23.216H25.615a1.615,1.615,0,0,1,0-3.23H27.23a1.615,1.615,0,0,1,0,3.23Z" transform="translate(-24 -19.986)"/></g><g transform="translate(2.751 0.893)"><path class="b" d="M31.03,16.345a1.612,1.612,0,0,1-1.345-.719l-3.709-5.563a1.615,1.615,0,0,1,2.687-1.792l3.709,5.563a1.615,1.615,0,0,1-1.342,2.511Z" transform="translate(-25.703 -7.553)"/></g><g transform="translate(16.145 0.893)"><path class="b" d="M35.613,16.342a1.615,1.615,0,0,1-1.342-2.511l3.709-5.56a1.615,1.615,0,1,1,2.687,1.792l-3.709,5.56A1.612,1.612,0,0,1,35.613,16.342Z" transform="translate(-33.998 -7.553)"/></g></g><g transform="translate(4.849 40.926)"><g transform="translate(1.615)"><g transform="translate(0.002 3.23)"><path class="b" d="M5.619,60.665A1.613,1.613,0,0,1,4,59.05V31.625a1.615,1.615,0,0,1,3.23,0V59.05A1.613,1.613,0,0,1,5.619,60.665Z" transform="translate(-4.004 -30.01)"/></g><path class="b" d="M5.618,34.469A1.613,1.613,0,0,1,4,32.854,4.852,4.852,0,0,1,8.849,28.01a1.615,1.615,0,0,1,0,3.23,1.617,1.617,0,0,0-1.616,1.615A1.613,1.613,0,0,1,5.618,34.469Z" transform="translate(-4.003 -28.01)"/><g transform="translate(0.002 30.655)"><path class="b" d="M12.078,56.683A8.069,8.069,0,0,1,4,48.609a1.615,1.615,0,0,1,3.23,0,4.841,4.841,0,0,0,4.844,4.844,1.615,1.615,0,1,1,0,3.23Z" transform="translate(-4.004 -46.994)"/></g></g><g transform="translate(14.53)"><g transform="translate(6.461 3.23)"><path class="b" d="M17.617,60.665A1.613,1.613,0,0,1,16,59.05V31.625a1.615,1.615,0,1,1,3.23,0V59.05A1.613,1.613,0,0,1,17.617,60.665Z" transform="translate(-16.002 -30.01)"/></g><g transform="translate(3.231)"><path class="b" d="M18.846,34.469a1.613,1.613,0,0,1-1.615-1.615,1.615,1.615,0,0,0-1.615-1.615,1.615,1.615,0,0,1,0-3.23,4.85,4.85,0,0,1,4.844,4.844A1.613,1.613,0,0,1,18.846,34.469Z" transform="translate(-14.002 -28.01)"/></g><g transform="translate(0 30.655)"><path class="b" d="M13.616,56.683a1.615,1.615,0,1,1,0-3.23,4.852,4.852,0,0,0,4.846-4.844,1.615,1.615,0,0,1,3.23,0,8.083,8.083,0,0,1-8.075,8.074Z" transform="translate(-12.001 -46.994)"/></g></g><g transform="translate(4.846 0)"><path class="b" d="M20.534,31.24H7.619a1.615,1.615,0,1,1,0-3.23H20.534a1.615,1.615,0,1,1,0,3.23Z" transform="translate(-6.004 -28.01)"/></g><g transform="translate(6.459 6.456)"><path class="b" d="M18.335,49.754a.212.212,0,0,1-.032,0H8.618A1.615,1.615,0,0,1,7,48.14L7,33.623a1.614,1.614,0,0,1,1.615-1.615H18.3a1.614,1.614,0,0,1,1.615,1.615l0,14.194a1.635,1.635,0,0,1,.032.323A1.616,1.616,0,0,1,18.335,49.754Zm-8.1-3.23H16.69l0-11.287H10.234Z" transform="translate(-7.003 -32.008)"/></g><g transform="translate(16.146 20.971)"><path class="b" d="M16.231,49.073a1.613,1.613,0,0,1-1.531-1.1l-1.615-4.844A1.615,1.615,0,1,1,16.149,42.1l1.615,4.844a1.614,1.614,0,0,1-1.021,2.043A1.633,1.633,0,0,1,16.231,49.073Z" transform="translate(-13.002 -40.997)"/></g><g transform="translate(4.845 20.971)"><path class="b" d="M7.618,49.072a1.617,1.617,0,0,1-1.531-2.127L7.7,42.1a1.615,1.615,0,0,1,3.063,1.022L9.15,47.968A1.616,1.616,0,0,1,7.618,49.072Z" transform="translate(-6.003 -40.997)"/></g><g transform="translate(4.845 25.817)"><path class="b" d="M14.075,48.842c-3.929,0-6.277-.539-7.394-1.692A2.2,2.2,0,0,1,6,45.563,1.615,1.615,0,0,1,7.616,44c.018,0,.034,0,.052,0a1.616,1.616,0,0,1,1.426.956c.329.176,1.544.656,4.982.657s4.654-.48,4.983-.656A1.611,1.611,0,0,1,20.484,44c.018,0,.034,0,.052,0a1.615,1.615,0,0,1,1.612,1.565,2.2,2.2,0,0,1-.678,1.589C20.352,48.3,18,48.842,14.075,48.842Z" transform="translate(-6.003 -43.998)"/></g><g transform="translate(8.075 37.114)"><path class="b" d="M16.073,54.224H9.619a1.615,1.615,0,0,1,0-3.23h6.454a1.615,1.615,0,0,1,0,3.23Z" transform="translate(-8.004 -50.994)"/></g><g transform="translate(20.99 20.973)"><path class="b" d="M19.232,44.228H17.617a1.615,1.615,0,0,1,0-3.23h1.615a1.615,1.615,0,0,1,0,3.23Z" transform="translate(-16.002 -40.998)"/></g><g transform="translate(0 20.973)"><path class="b" d="M6.233,44.228H4.618a1.615,1.615,0,0,1,0-3.23H6.233a1.615,1.615,0,0,1,0,3.23Z" transform="translate(-3.003 -40.998)"/></g><g transform="translate(2.751 0.896)"><path class="b" d="M10.033,37.354a1.612,1.612,0,0,1-1.345-.719l-3.709-5.56a1.615,1.615,0,0,1,2.687-1.792l3.709,5.56a1.615,1.615,0,0,1-1.342,2.511Z" transform="translate(-4.706 -28.565)"/></g><g transform="translate(16.145 0.896)"><path class="b" d="M14.616,37.351a1.615,1.615,0,0,1-1.342-2.511l3.709-5.556a1.615,1.615,0,0,1,2.687,1.792l-3.709,5.556a1.614,1.614,0,0,1-1.345.719Z" transform="translate(-13.001 -28.565)"/></g></g><g transform="translate(50.057 50.586)"><path class="b" d="M32.615,64.679A1.613,1.613,0,0,1,31,63.064V35.607a1.615,1.615,0,1,1,3.23,0V63.064A1.613,1.613,0,0,1,32.615,64.679Z" transform="translate(-31 -33.992)"/></g><g transform="translate(50.057 74.813)"><path class="b" d="M32.615,55.455A1.615,1.615,0,0,1,31.473,52.7l3.23-3.23a1.615,1.615,0,0,1,2.283,2.283l-3.23,3.23A1.61,1.61,0,0,1,32.615,55.455Z" transform="translate(-31 -48.996)"/></g><g transform="translate(46.827 74.813)"><path class="b" d="M33.844,55.455a1.61,1.61,0,0,1-1.142-.473l-3.23-3.23a1.615,1.615,0,1,1,2.283-2.283l3.23,3.23a1.615,1.615,0,0,1-1.142,2.756Z" transform="translate(-29 -48.996)"/></g></g></g></svg>