<svg xmlns="http://www.w3.org/2000/svg" width="167" height="167" viewBox="0 0 167 167"><defs><style>.a{fill:#00bbdc;}.b{fill:#fff;}</style></defs><g transform="translate(-179 -9413)"><circle class="a" cx="83.5" cy="83.5" r="83.5" transform="translate(179 9413)"/><g transform="translate(216 9452.705)"><path class="b" d="M39.369,35.215h1.456v16.02a7.29,7.29,0,0,0,7.282,7.282H62.671a7.29,7.29,0,0,0,7.282-7.282V35.215h1.456a4.369,4.369,0,1,0,0-8.738H69.953V20.4A11.4,11.4,0,0,0,58.551,9H52.226a11.4,11.4,0,0,0-11.4,11.4v6.075H39.369a4.369,4.369,0,1,0,0,8.738Zm4.464-16.02h2.818a5.831,5.831,0,0,0,5.826-5.826V11.913H58.3v1.456a5.831,5.831,0,0,0,5.826,5.826h2.818A8.508,8.508,0,0,1,67.04,20.4v8.826a16.255,16.255,0,0,0-9.092-2.751H52.829a16.255,16.255,0,0,0-9.092,2.751V20.4a8.727,8.727,0,0,1,.1-1.207Zm-.095,13.75a13.358,13.358,0,0,1,9.092-3.555H57.95a13.358,13.358,0,0,1,9.092,3.555V44.766a13.359,13.359,0,0,1-9.094,3.556H52.829a13.358,13.358,0,0,1-9.092-3.555V32.944ZM62.671,55.6H48.107a4.374,4.374,0,0,1-4.369-4.369V48.484a16.267,16.267,0,0,0,9.092,2.751H57.95a16.267,16.267,0,0,0,9.092-2.751v2.751A4.377,4.377,0,0,1,62.671,55.6Zm8.738-26.215a1.456,1.456,0,0,1,0,2.913H69.953V29.389ZM65.971,16.282H64.128a2.916,2.916,0,0,1-2.913-2.913V12.345a8.442,8.442,0,0,1,4.757,3.937ZM49.564,12.345v1.024a2.916,2.916,0,0,1-2.913,2.913H44.807a8.442,8.442,0,0,1,4.757-3.937ZM39.369,29.389h1.456V32.3H39.369a1.456,1.456,0,1,1,0-2.913Z" transform="translate(15.517 3.651)"/><path class="b" d="M5.369,35.215H6.826v16.02a7.29,7.29,0,0,0,7.282,7.282H28.671a7.29,7.29,0,0,0,7.282-7.282V35.215h1.456a4.369,4.369,0,1,0,0-8.738H35.953V20.4A11.4,11.4,0,0,0,24.551,9H18.226a11.4,11.4,0,0,0-11.4,11.4v6.075H5.369a4.369,4.369,0,0,0,0,8.738Zm4.464-16.02h2.818a5.831,5.831,0,0,0,5.826-5.826V11.913H24.3v1.456a5.831,5.831,0,0,0,5.826,5.826h2.818A8.508,8.508,0,0,1,33.04,20.4v8.826a16.255,16.255,0,0,0-9.092-2.751H18.829a16.255,16.255,0,0,0-9.092,2.751V20.4A8.727,8.727,0,0,1,9.833,19.195Zm-.095,13.75a13.358,13.358,0,0,1,9.092-3.555H23.95a13.358,13.358,0,0,1,9.092,3.555V44.766a13.359,13.359,0,0,1-9.094,3.556H18.829a13.357,13.357,0,0,1-9.091-3.555ZM28.671,55.6H14.107a4.374,4.374,0,0,1-4.369-4.369V48.484a16.267,16.267,0,0,0,9.092,2.751H23.95a16.267,16.267,0,0,0,9.092-2.751v2.751A4.377,4.377,0,0,1,28.671,55.6Zm8.738-26.215a1.456,1.456,0,1,1,0,2.913H35.953V29.389ZM31.971,16.282H30.128a2.916,2.916,0,0,1-2.913-2.913V12.345a8.442,8.442,0,0,1,4.757,3.937ZM15.564,12.345v1.024a2.916,2.916,0,0,1-2.913,2.913H10.807a8.442,8.442,0,0,1,4.757-3.937ZM5.369,29.389H6.826V32.3H5.369a1.456,1.456,0,1,1,0-2.913Z" transform="translate(0 3.651)"/><path class="b" d="M4.456,9.738H36.5a1.457,1.457,0,0,0,1.456-1.456V2.456A1.457,1.457,0,0,0,36.5,1H4.456A1.457,1.457,0,0,0,3,2.456V8.282A1.457,1.457,0,0,0,4.456,9.738ZM5.913,3.913H35.04V6.826H5.913Z" transform="translate(0.913)"/><path class="b" d="M38.456,9.738H70.5a1.457,1.457,0,0,0,1.456-1.456V2.456A1.457,1.457,0,0,0,70.5,1H38.456A1.457,1.457,0,0,0,37,2.456V8.282A1.457,1.457,0,0,0,38.456,9.738Zm1.456-5.826H69.04V6.826H39.913Z" transform="translate(16.43)"/><path class="b" d="M1,61H91.3v2.913H1Z" transform="translate(0 27.383)"/><path class="b" d="M6,53h5.826v2.913H6Z" transform="translate(2.282 23.732)"/><path class="b" d="M14,53h5.826v2.913H14Z" transform="translate(5.933 23.732)"/><path class="b" d="M22,53h5.826v2.913H22Z" transform="translate(9.584 23.732)"/><path class="b" d="M30,53h5.826v2.913H30Z" transform="translate(13.235 23.732)"/><path class="b" d="M38,53h5.826v2.913H38Z" transform="translate(16.886 23.732)"/><path class="b" d="M46,53h5.826v2.913H46Z" transform="translate(20.537 23.732)"/><path class="b" d="M54,53h5.826v2.913H54Z" transform="translate(24.188 23.732)"/><path class="b" d="M47.6,1H44.691V65.081H1v2.913H91.3V65.081H47.6Z"/></g></g></svg>