<svg xmlns="http://www.w3.org/2000/svg" width="167" height="167" viewBox="0 0 167 167"><defs><style>.a{fill:#00bbdc;}.b{fill:#fff;}</style></defs><g transform="translate(-179 -9413)"><circle class="a" cx="83.5" cy="83.5" r="83.5" transform="translate(179 9413)"/><g transform="translate(214.147 9448.795)"><path class="b" d="M360.4,18.544a8.86,8.86,0,0,0,2.076-5.706V0h-17.8V12.838a8.859,8.859,0,0,0,2.075,5.706,16.395,16.395,0,0,0-9.572,14.909V59.784a4.69,4.69,0,0,0,4.685,4.685,4.747,4.747,0,0,0,.563-.035V95.861h2.811V63.032a4.654,4.654,0,0,0,1.312-3.248V56.223H360.6v3.561a4.67,4.67,0,0,0,1.312,3.247v32.83h2.811V64.435a4.714,4.714,0,0,0,.562.035,4.688,4.688,0,0,0,4.686-4.685V33.453A16.494,16.494,0,0,0,360.4,18.544ZM347.479,2.811h12.182V6.747H347.479Zm0,6.747h12.182v3.28a6.091,6.091,0,0,1-12.182,0Zm-3.748,50.226a1.874,1.874,0,1,1-3.748,0V56.223h3.748Zm0-6.372h-3.748v-3h3.748Zm23.427,6.372a1.874,1.874,0,1,1-3.748,0V56.223h3.748Zm0-6.372h-3.748v-3h3.748Zm0-5.81h-3.748V32.328H360.6V53.412H346.542V32.328h-2.811V47.6h-3.748V33.453A13.59,13.59,0,0,1,349.2,20.587a8.872,8.872,0,0,0,8.748,0,13.656,13.656,0,0,1,9.213,12.866Zm0,0" transform="translate(-273.921)"/><path class="b" d="M417.094,329.18H419.9v34.108h-2.811Zm0,0" transform="translate(-338.85 -267.428)"/><path class="b" d="M155.608,284.037a5.77,5.77,0,0,0-4.814-1.194l-10.655,2.152a4.7,4.7,0,0,0,.931,9.315h10.87a5.791,5.791,0,0,0,3.668-10.273Zm-3.667,7.461h-10.87a1.892,1.892,0,0,1-.374-3.747l10.655-2.153a3.024,3.024,0,0,1,.594-.059,2.98,2.98,0,0,1,0,5.96Zm0,0" transform="translate(-110.785 -229.689)"/><path class="b" d="M0,300.039H20.616v2.811H0Zm0,0" transform="translate(0 -243.753)"/><path class="b" d="M0,331.676H20.616v2.811H0Zm0,0" transform="translate(0 -269.456)"/><path class="b" d="M0,362.645H20.616v2.812H0Zm0,0" transform="translate(0 -294.615)"/><path class="b" d="M52.1,111.084H41.806L33.739,98.9H0v2.812H32.23l13.549,20.459-5.555,3.9H0v2.811H41.112l6.219-4.37,2.988,4.512v22.629a4.221,4.221,0,0,1-4.216,4.216H0v2.812H25.206v7.965a9.652,9.652,0,0,0,19.3,0v-7.965H46.1a7.036,7.036,0,0,0,7.027-7.028V128.184l-4.5-6.792H52.1a5.154,5.154,0,1,0,0-10.307ZM41.7,166.652a6.84,6.84,0,1,1-13.68,0v-7.965H41.7Zm10.4-48.071h-5.33l-3.1-4.686H52.1a2.343,2.343,0,0,1,0,4.686Zm0,0" transform="translate(0 -80.349)"/><path class="b" d="M29.164,167.257l5.831-5.831,1.988,1.988-5.831,5.831Zm0,0" transform="translate(-23.693 -131.143)"/><path class="b" d="M70.844,142.218l1.988-1.988,1.988,1.988-1.988,1.988Zm0,0" transform="translate(-57.554 -113.924)"/><path class="b" d="M83.113,167.257l5.831-5.831,1.988,1.988L85.1,169.245Zm0,0" transform="translate(-67.522 -131.143)"/><path class="b" d="M124.793,142.221l1.987-1.987,1.988,1.987-1.987,1.988Zm0,0" transform="translate(-101.383 -113.927)"/><path class="b" d="M226.777,367.641h2.812v2.811h-2.812Zm0,0" transform="translate(-184.235 -298.674)"/><path class="b" d="M419.09,158.344H421.9v16.118H419.09Zm0,0" transform="translate(-340.471 -128.64)"/><path class="b" d="M419.09,128.375H421.9v2.811H419.09Zm0,0" transform="translate(-340.471 -104.293)"/></g></g></svg>