<svg xmlns="http://www.w3.org/2000/svg" width="125.769" height="112.563" viewBox="0 0 125.769 112.563"><defs><style>.a{fill:#2d2d2d;}</style></defs><g transform="translate(-0.001)"><path class="a" d="M83.866,349.349H47.339a2.457,2.457,0,0,1-2.456-2.456V334.171a2.457,2.457,0,0,1,2.456-2.456H83.866a2.457,2.457,0,0,1,2.456,2.456v12.722A2.456,2.456,0,0,1,83.866,349.349ZM49.8,344.436H81.41v-7.809H49.8Zm0,0" transform="translate(-33.857 -250.232)"/><path class="a" d="M125.769,11.443a2.458,2.458,0,0,0-.748-1.724L115.688.691a2.457,2.457,0,0,0-3.474.058L63.49,51.119V24.845A13.549,13.549,0,0,0,49.957,11.312H13.534A13.549,13.549,0,0,0,0,24.845v85.261a2.456,2.456,0,0,0,2.456,2.456H78.983a2.456,2.456,0,0,0,0-4.913H63.49V63.019a6.526,6.526,0,0,1,6.2-6.51l.079,0c.078,0,.156,0,.235,0a6.525,6.525,0,0,1,6.518,6.517V87.753a2.456,2.456,0,0,0,4.913,0V63.019a11.373,11.373,0,0,0-.714-3.976l44.353-45.85a2.459,2.459,0,0,0,.691-1.749ZM101.235,30.775l-3.8,3.929L100.718,19.7l5.572-5.759L103,28.945ZM82.288,50.362l3.286-15.007,8.644-8.936L90.933,41.424ZM4.913,24.845a8.63,8.63,0,0,1,8.62-8.62H49.957a8.63,8.63,0,0,1,8.62,8.62V68.038H53.665V23.594a2.456,2.456,0,0,0-2.456-2.456H12.283a2.456,2.456,0,0,0-2.456,2.456V68.038H4.913ZM48.752,68.038H14.739V26.05H48.752ZM4.913,72.951H58.577v34.7H4.913Zm67.7-21.063.888-4.052,5.571-5.759L76.54,53.643a11.384,11.384,0,0,0-3.925-1.755ZM109.5,22.225,112.79,7.22l1.247-1.29,5.8,5.611Zm0,0" transform="translate(0 0)"/><path class="a" d="M277.456,265.58A2.456,2.456,0,0,1,275,263.124V259.03a2.456,2.456,0,1,1,4.913,0v4.093A2.456,2.456,0,0,1,277.456,265.58Zm0,0" transform="translate(-207.448 -193.549)"/><path class="a" d="M313.99,398.826a2.472,2.472,0,0,1-.482-.049,2.508,2.508,0,0,1-.459-.14,2.482,2.482,0,0,1-.8-.531,2.376,2.376,0,0,1-.305-.373,2.573,2.573,0,0,1-.225-.425,2.467,2.467,0,0,1-.14-.46,2.441,2.441,0,0,1-.049-.479,2.493,2.493,0,0,1,.049-.482,2.436,2.436,0,0,1,.14-.459,2.613,2.613,0,0,1,.225-.425,2.454,2.454,0,0,1,.305-.371,2.544,2.544,0,0,1,.373-.307,2.5,2.5,0,0,1,.425-.225,2.459,2.459,0,0,1,.459-.14,2.484,2.484,0,0,1,2.218.673,2.447,2.447,0,0,1,.531.8,2.438,2.438,0,0,1,.14.459,2.488,2.488,0,0,1,.049.482,2.436,2.436,0,0,1-.049.479,2.428,2.428,0,0,1-1.044,1.562,2.619,2.619,0,0,1-.425.226,2.482,2.482,0,0,1-.938.189Zm0,0" transform="translate(-235.006 -297.152)"/></g></svg>