<svg xmlns="http://www.w3.org/2000/svg" width="167" height="167" viewBox="0 0 167 167"><defs><style>.a{fill:#00bbdc;}.b{fill:#fff;}</style></defs><g transform="translate(-180 -9716)"><circle class="a" cx="83.5" cy="83.5" r="83.5" transform="translate(180 9716)"/><path class="b" d="M41.139,74.349c-.2,5.238,1.794,9.492,5.46,11.67a9.913,9.913,0,0,0,10.132,0c3.666-2.178,5.656-6.432,5.46-11.67-.244-6.522-5.585-9.676-10.445-9.847q-.081,0-.163,0C46.725,64.673,41.384,67.827,41.139,74.349Zm4.636.173c.142-3.786,3.243-5.261,5.89-5.381,2.648.12,5.749,1.6,5.891,5.381.131,3.488-1.034,6.225-3.194,7.508a5.276,5.276,0,0,1-5.393,0C46.808,80.747,45.644,78.01,45.775,74.523Zm32.359-.173c-.2,5.238,1.794,9.492,5.46,11.67a9.912,9.912,0,0,0,10.132,0c3.666-2.178,5.656-6.432,5.46-11.669-.244-6.522-5.585-9.676-10.445-9.847-.054,0-.109,0-.163,0C83.719,64.673,78.377,67.827,78.134,74.349Zm4.636.173c.141-3.785,3.242-5.26,5.89-5.381,2.648.12,5.749,1.6,5.89,5.381.131,3.488-1.034,6.225-3.194,7.508a5.276,5.276,0,0,1-5.393,0C83.8,80.747,82.639,78.011,82.77,74.522ZM65.1,42.267a9.912,9.912,0,0,0,10.132,0c3.666-2.178,5.657-6.432,5.461-11.67-.244-6.522-5.586-9.675-10.445-9.846-.054,0-.109,0-.163,0-4.859.171-10.2,3.325-10.445,9.846C59.44,35.835,61.43,40.088,65.1,42.267Zm-.825-11.5c.142-3.785,3.242-5.26,5.89-5.38,2.648.12,5.749,1.6,5.891,5.38.131,3.488-1.034,6.225-3.194,7.508a5.276,5.276,0,0,1-5.393,0C65.305,36.995,64.141,34.258,64.272,30.77ZM9.6,86.019a9.913,9.913,0,0,0,10.132,0c3.666-2.178,5.656-6.431,5.46-11.67-.244-6.522-5.586-9.676-10.445-9.846q-.081,0-.163,0c-4.86.17-10.2,3.325-10.445,9.847C3.948,79.587,5.938,83.841,9.6,86.019Zm-.825-11.5c.141-3.786,3.243-5.26,5.891-5.381,2.648.12,5.749,1.6,5.891,5.381.131,3.488-1.034,6.224-3.194,7.508a5.277,5.277,0,0,1-5.393,0C9.814,80.747,8.649,78.01,8.78,74.523ZM66.3,111.6a2.32,2.32,0,0,1-4.561.851l-2.045-11.032c-.7-3.8-4.538-5.483-8.026-5.483s-7.322,1.728-8.026,5.526L42.1,109.816H52.662a2.319,2.319,0,0,1,0,4.639H39.314a2.376,2.376,0,0,1-1.783-.894,2.446,2.446,0,0,1-.5-1.963l2.045-11.039c1.189-6.418,7.178-9.291,12.587-9.291s11.4,2.873,12.587,9.291Zm3.864-58.993c-3.488,0-7.322,1.7-8.025,5.5a2.319,2.319,0,1,1-4.561-.844c1.188-6.418,7.177-9.291,12.586-9.291s11.4,2.872,12.589,9.291a2.319,2.319,0,1,1-4.561.845C77.485,54.306,73.65,52.606,70.162,52.606Zm31.272,61.7a2.307,2.307,0,0,1-2.7-1.853l-2.044-11.032c-.7-3.8-4.538-5.482-8.026-5.482s-7.323,1.728-8.026,5.526L79.1,109.816H89.656a2.319,2.319,0,1,1,0,4.639H76.308a2.376,2.376,0,0,1-1.783-.894,2.447,2.447,0,0,1-.5-1.963l2.045-11.039c1.189-6.418,7.179-9.291,12.588-9.291s11.4,2.873,12.588,9.291l2.044,11.039A2.321,2.321,0,0,1,101.434,114.3ZM28.1,42.267a9.912,9.912,0,0,0,10.132,0c3.666-2.178,5.656-6.432,5.46-11.669-.243-6.522-5.585-9.676-10.445-9.846q-.082,0-.163,0c-4.86.171-10.2,3.325-10.445,9.846C22.446,35.835,24.436,40.089,28.1,42.267Zm-.825-11.5c.141-3.785,3.243-5.26,5.891-5.38,2.648.12,5.749,1.6,5.89,5.38.131,3.488-1.034,6.225-3.194,7.508a5.276,5.276,0,0,1-5.393,0C28.311,36.995,27.147,34.258,27.277,30.77ZM29.3,111.6a2.32,2.32,0,0,1-4.561.851L22.7,101.419c-.7-3.8-4.538-5.483-8.027-5.483s-7.323,1.728-8.026,5.526l-1.537,8.355H16.345a2.319,2.319,0,0,1,0,4.639H2.319a2.376,2.376,0,0,1-1.783-.894,2.446,2.446,0,0,1-.5-1.963l2.044-11.039c1.189-6.418,7.178-9.291,12.587-9.291s11.4,2.873,12.588,9.291Zm3.865-58.993c-3.488,0-7.323,1.7-8.026,5.5a2.319,2.319,0,1,1-4.561-.845c1.189-6.418,7.178-9.291,12.587-9.291s11.4,2.873,12.588,9.291a2.32,2.32,0,1,1-4.562.845C40.491,54.306,36.656,52.606,33.168,52.606Z" transform="translate(212 9727.552)"/></g></svg>