<svg xmlns="http://www.w3.org/2000/svg" width="167" height="167" viewBox="0 0 167 167"><defs><style>.a{fill:#00bbdc;}.b{fill:#fff;}</style></defs><g transform="translate(-179 -9413)"><circle class="a" cx="83.5" cy="83.5" r="83.5" transform="translate(179 9413)"/><g transform="translate(216 9438.543)"><g transform="translate(0 14.457)"><g transform="translate(0 0)"><path class="b" d="M123.14,161.82h45.33a1.818,1.818,0,0,0,1.215-3.17L147.02,138.273a1.818,1.818,0,0,0-2.431,0l-22.665,20.378a1.818,1.818,0,0,0,1.215,3.17Zm24.483-3.636V143.7l16.106,14.481ZM143.987,143.7v14.481H127.881Z" transform="translate(-99.268 -115.383)"/><path class="b" d="M83.807,86.885a9.209,9.209,0,0,0-1.534.129V63.157a7.138,7.138,0,0,0,3.649,1h0a7.166,7.166,0,0,0,5.313-2.36,7.134,7.134,0,0,0-.528-10.087l-7.872-7.078V27.786a1.818,1.818,0,0,0-1.818-1.818H69.2a1.818,1.818,0,0,0-1.818,1.818V30.74L51.321,16.3a7.138,7.138,0,0,0-9.562-.006l-14.6,13a1.818,1.818,0,1,0,2.418,2.715L44.185,19a3.512,3.512,0,0,1,4.706,0L88.278,54.414a3.5,3.5,0,0,1,.259,4.948,3.521,3.521,0,0,1-4.965.259l-35.818-32.2a1.818,1.818,0,0,0-2.431,0L9.5,59.62a3.523,3.523,0,0,1-4.965-.259A3.5,3.5,0,0,1,4.8,54.408L17.38,43a1.818,1.818,0,1,0-2.443-2.693L2.367,51.71A7.134,7.134,0,0,0,1.839,61.8a7.17,7.17,0,0,0,8.963,1.36V87.013a9.268,9.268,0,0,0-9.1,14.5,1.817,1.817,0,0,0,1.483.766h86.7a1.817,1.817,0,0,0,1.483-.766,9.268,9.268,0,0,0-7.563-14.625ZM71.02,29.6H79.2v11.76L71.02,34.009ZM14.438,60.073l32.1-28.861,32.1,28.861V88.465a9.3,9.3,0,0,0-1.975,1.786,5.373,5.373,0,0,0-3.981.716,6.352,6.352,0,0,0-10.135.62,1.819,1.819,0,0,0-.3,1v6.05H57.217V86.474a10.679,10.679,0,1,0-21.358,0V98.64H30.832V92.59a1.819,1.819,0,0,0-.3-1,6.352,6.352,0,0,0-10.135-.62,5.373,5.373,0,0,0-3.981-.716,9.293,9.293,0,0,0-1.975-1.786V60.073ZM4.213,98.64a5.634,5.634,0,0,1,9.94-5.293,1.818,1.818,0,0,0,2.5.66,1.7,1.7,0,0,1,.871-.236,1.722,1.722,0,0,1,1.589,1.054,1.818,1.818,0,0,0,3.45-.318A2.726,2.726,0,0,1,27.2,93.215V98.64H4.213Zm35.281,0V86.475a7.043,7.043,0,0,1,14.087,0V98.64Zm49.368,0H65.879V93.214a2.726,2.726,0,0,1,4.634,1.292,1.818,1.818,0,0,0,3.45.318,1.722,1.722,0,0,1,1.589-1.054,1.7,1.7,0,0,1,.871.236,1.818,1.818,0,0,0,2.5-.66,5.634,5.634,0,0,1,9.94,5.293Z" transform="translate(0 -14.457)"/></g><g transform="translate(20.425 19.906)"><path class="b" d="M114.171,127.589a1.817,1.817,0,1,1,1.781-1.462A1.834,1.834,0,0,1,114.171,127.589Z" transform="translate(-112.356 -123.959)"/></g><g transform="translate(20.306 50.932)"><path class="b" d="M126.2,309.132H113.521a1.818,1.818,0,0,1-1.818-1.818V296.454a1.818,1.818,0,0,1,1.818-1.818H126.2a1.818,1.818,0,0,1,1.818,1.818v10.861A1.818,1.818,0,0,1,126.2,309.132ZM115.339,305.5h9.043v-7.225h-9.043Z" transform="translate(-111.703 -294.636)"/></g><g transform="translate(56.454 50.932)"><path class="b" d="M325.05,309.132H312.372a1.818,1.818,0,0,1-1.818-1.818V296.454a1.818,1.818,0,0,1,1.818-1.818H325.05a1.818,1.818,0,0,1,1.818,1.818v10.861A1.818,1.818,0,0,1,325.05,309.132ZM314.19,305.5h9.043v-7.225H314.19Z" transform="translate(-310.554 -294.636)"/></g></g></g></g></svg>