<svg xmlns="http://www.w3.org/2000/svg" width="167" height="167" viewBox="0 0 167 167"><defs><style>.a{fill:#00bbdc;}.b{fill:#fff;}</style></defs><g transform="translate(-902 -5730)"><g transform="translate(722 -3986)"><circle class="a" cx="83.5" cy="83.5" r="83.5" transform="translate(180 9716)"/></g><g transform="translate(918.996 5747.706)"><path class="b" d="M0,0H4.4V8.8H0Z" transform="matrix(0.909, -0.417, 0.417, 0.909, 71.578, 35.533)"/><path class="b" d="M0,0H4.4V8.8H0Z" transform="matrix(0.909, -0.417, 0.417, 0.909, 79.58, 31.859)"/><path class="b" d="M0,0H4.4V8.8H0Z" transform="matrix(0.909, -0.417, 0.417, 0.909, 87.582, 28.19)"/><path class="b" d="M66.024,0a66.3,66.3,0,1,0,47.252,19.907q-.282-.286-.568-.568A65.59,65.59,0,0,0,66.024,0Zm61.041,74.507L88.252,62.178V52.1l4.4-2.019V57.22a2.2,2.2,0,0,0,1.543,2.1L127.53,69.759q-.142,2.393-.465,4.749ZM68.23,45.241a2.2,2.2,0,0,0-1.906-.034L47.662,53.766l-11.97-6.615L93.741,20.525l9.175,20L79.873,51.1Zm4,6.94L51.99,61.466l-1.835-4L67.2,49.649ZM47.073,61.3l-1.991.913a6.623,6.623,0,0,1-8.773-3.259,6.5,6.5,0,0,1-.588-2.751,6.571,6.571,0,0,1,.983-3.469l8.628,4.769Zm49.982-5.7V48.059l9.7-4.448a2.2,2.2,0,0,0,1.083-2.918l-11.01-24a2.2,2.2,0,0,0-2.918-1.083L29.9,44.967a2.2,2.2,0,0,0-.147,3.926l3.109,1.718a11.081,11.081,0,0,0-1.537,5.6,10.86,10.86,0,0,0,.99,4.591,11.02,11.02,0,0,0,14.6,5.419l1.994-.914a2.2,2.2,0,0,0,2.915,1.08h0l25.443-11.67,1.573.791a2.2,2.2,0,0,0,1.906.034l3.1-1.424v9.673a2.2,2.2,0,0,0,1.534,2.1l40.919,13a61.794,61.794,0,1,1,1.332-13.7Z"/><path class="b" d="M71.245,273.448l-6.6,6.6a2.2,2.2,0,0,0-.33,2.688l1.886,3.145v.124h.073l4.642,7.736a2.2,2.2,0,0,0,1.887,1.067h6.881a8.8,8.8,0,0,0,17.048,0H128.1a8.8,8.8,0,0,0,17.043,0h4.686a2.2,2.2,0,0,0,1.32-.44l8.8-6.6a2.2,2.2,0,0,0,.88-1.761v-8.8a2.2,2.2,0,0,0-1.5-2.088l-12.977-4.325-4.279-2.558-6.514-3.917a2.2,2.2,0,0,0-1.134-.316H110.676a10.971,10.971,0,0,0-6.107,1.845L94.142,272.8H72.8a2.2,2.2,0,0,0-1.556.645Zm16.961,23.564a4.4,4.4,0,1,1,4.4-4.4A4.4,4.4,0,0,1,88.206,297.012ZM140.313,295a4.4,4.4,0,1,1,.612-3.313A4.4,4.4,0,0,1,140.313,295Zm-16.9-26.6h10.393L137,270.32l-3.311,2.484h-10.27Zm-.645,19.163a2.2,2.2,0,0,0,.645-1.557v-8.8h11a2.2,2.2,0,0,0,1.32-.44l5.332-4,3.222,1.926a2.215,2.215,0,0,0,.433.2l11.7,3.9v2.815h-6.6v4.4h5.137l-5.87,4.4h-3.95a8.8,8.8,0,0,0-17.043,0h-8.17Zm-15.763-18.058a6.584,6.584,0,0,1,3.665-1.105h8.341v4.4H102.073Zm12.006,7.7V285.1L113.7,290.41H96.731a8.8,8.8,0,0,0-17.05,0H74.047l-2.641-4.4H75v-4.4H69.312l4.4-4.4Z" transform="translate(-46.39 -191.376)"/><path class="b" d="M216,328h8.8v4.4H216Z" transform="translate(-156.575 -237.772)"/></g></g></svg>