<svg xmlns="http://www.w3.org/2000/svg" width="167" height="167" viewBox="0 0 167 167"><defs><style>.a{fill:#00bbdc;}.b{fill:#fff;}</style></defs><g transform="translate(-1280 -6067)"><g transform="translate(1100 -3649)"><circle class="a" cx="83.5" cy="83.5" r="83.5" transform="translate(180 9716)"/></g><g transform="translate(1318.754 6101.816)"><path class="b" d="M0,0V96.43H96.43V0ZM2.825,2.825H69.4V38.61a4.243,4.243,0,0,1-4.238,4.238H42.545a17.705,17.705,0,0,0-34.426,0H2.825ZM40.21,46.991c0,6.212-2.6,12.2-7.72,17.809a41.931,41.931,0,0,1-7.152,6.209c-3.088-2.131-14.885-11.121-14.885-24.018a14.879,14.879,0,0,1,29.758,0ZM2.825,45.672H7.677q-.049.653-.049,1.318a24.6,24.6,0,0,0,1.086,7.157H2.825ZM48.686,93.6H2.825V56.973H9.743a34.741,34.741,0,0,0,6.4,9.722A43.438,43.438,0,0,0,24.594,73.9l.731.448.734-.442a42.408,42.408,0,0,0,8.458-7.141,34.28,34.28,0,0,0,6.435-9.8h3.5a4.243,4.243,0,0,1,4.238,4.238Zm44.919,0H62.811V78.82a4.243,4.243,0,0,1,4.238-4.238H93.6Zm0-27.5H67.378a4.567,4.567,0,1,1,0-9.134H93.6Zm0-11.96H67.378a7.392,7.392,0,0,0,0,14.785H93.6v2.825H67.049a7.07,7.07,0,0,0-7.063,7.063V93.6H51.511V61.21a7.07,7.07,0,0,0-7.063-7.063H41.969a24.911,24.911,0,0,0,1.067-7.157q0-.665-.049-1.318H65.165a7.07,7.07,0,0,0,7.063-7.063V2.825H80.7V38.61a7.07,7.07,0,0,0,7.063,7.063H93.6Zm0-11.3H87.766a4.243,4.243,0,0,1-4.238-4.238V2.825H93.6Zm0,0"/><path class="b" d="M44.625,33.5H30.5V47.625H44.625ZM41.8,44.8H33.325V36.325H41.8Zm0,0" transform="translate(-24.756 -27.191)"/><path class="b" d="M158.666,63.069h16.385V33.5H135.5V51.2h23.166Zm-20.341-14.69V36.325h33.9V60.244H161.491V48.379Zm0,0" transform="translate(-109.98 -27.191)"/><path class="b" d="M111.5,294.145h2.825v2.8H111.5Zm0,0" transform="translate(-90.5 -238.746)"/><path class="b" d="M120.069,202.5H111.5v14.435h2.825v-4.077h5.744a5.179,5.179,0,1,0,0-10.359Zm0,7.534h-5.744v-4.708h5.744a2.354,2.354,0,0,1,0,4.708Zm0,0" transform="translate(-90.5 -164.361)"/><path class="b" d="M282.238,70.563h2.825V63.5H278v2.825h4.238Zm0,0" transform="translate(-225.642 -51.54)"/><path class="b" d="M199.5,410.5h2.825v2.825H199.5Zm0,0" transform="translate(-161.926 -333.187)"/><path class="b" d="M54.5,410.5h2.825v2.825H54.5Zm0,0" transform="translate(-44.236 -333.187)"/><path class="b" d="M84.5,410.5h18.834v2.825H84.5Zm0,0" transform="translate(-68.585 -333.187)"/><path class="b" d="M173,63.5h2.825v2.825H173Zm0,0" transform="translate(-140.417 -51.54)"/><path class="b" d="M464.5,173h2.825v2.825H464.5Zm0,0" transform="translate(-377.016 -140.417)"/><path class="b" d="M464.5,143h2.825v2.825H464.5Zm0,0" transform="translate(-377.016 -116.067)"/><path class="b" d="M464.5,83h2.825v2.825H464.5Zm0,0" transform="translate(-377.016 -67.368)"/><path class="b" d="M464.5,53h2.825v2.825H464.5Zm0,0" transform="translate(-377.016 -43.018)"/><path class="b" d="M464.5,113h2.825v2.825H464.5Zm0,0" transform="translate(-377.016 -91.718)"/><path class="b" d="M456,443.5h2.825v2.825H456Zm0,0" transform="translate(-370.117 -359.972)"/><path class="b" d="M366,443.5h2.825v2.825H366Zm0,0" transform="translate(-297.068 -359.972)"/><path class="b" d="M426,443.5h2.825v2.825H426Zm0,0" transform="translate(-345.767 -359.972)"/><path class="b" d="M396,443.5h2.825v2.825H396Zm0,0" transform="translate(-321.418 -359.972)"/></g></g></svg>