<svg xmlns="http://www.w3.org/2000/svg" width="167" height="167" viewBox="0 0 167 167"><defs><style>.a{fill:#00bbdc;}.b{fill:#fff;}</style></defs><g transform="translate(-1627 -5730)"><g transform="translate(1447 -3986)"><circle class="a" cx="83.5" cy="83.5" r="83.5" transform="translate(180 9716)"/><g transform="translate(99.2 9733.739)"><path class="b" d="M278.172,56.3H275.78a1.38,1.38,0,1,0,0,2.76h2.392a1.38,1.38,0,1,0,0-2.76Z" transform="translate(-105.954 -39.502)"/><path class="b" d="M218.794,56.3H207.18a1.38,1.38,0,0,0,0,2.76h11.614a1.38,1.38,0,1,0,0-2.76Z" transform="translate(-53.131 -39.502)"/><path class="b" d="M278.172,29.8H275.78a1.38,1.38,0,1,0,0,2.76h2.392a1.38,1.38,0,1,0,0-2.76Z" transform="translate(-105.954 -19.096)"/><path class="b" d="M218.794,29.8H207.18a1.38,1.38,0,1,0,0,2.76h11.614a1.38,1.38,0,0,0,0-2.76Z" transform="translate(-53.131 -19.096)"/><path class="b" d="M278.172,82.9H275.78a1.38,1.38,0,1,0,0,2.76h2.392a1.38,1.38,0,1,0,0-2.76Z" transform="translate(-105.954 -59.984)"/><path class="b" d="M218.794,82.9H207.18a1.38,1.38,0,1,0,0,2.76h11.614a1.38,1.38,0,1,0,0-2.76Z" transform="translate(-53.131 -59.984)"/><path class="b" d="M287.88,425.548a1.384,1.384,0,0,0,1.38-1.38V416.28a1.38,1.38,0,0,0-2.76,0v7.888A1.369,1.369,0,0,0,287.88,425.548Z" transform="translate(-115.272 -315.63)"/><path class="b" d="M287.88,471.861a1.384,1.384,0,0,0,1.38-1.38v-2a1.38,1.38,0,1,0-2.76,0v2A1.384,1.384,0,0,0,287.88,471.861Z" transform="translate(-115.272 -355.825)"/><path class="b" d="M174.292,238.6a4.692,4.692,0,1,0,4.692,4.692A4.682,4.682,0,0,0,174.292,238.6Zm0,6.624a1.932,1.932,0,1,1,1.932-1.932A1.944,1.944,0,0,1,174.292,245.224Z" transform="translate(-25.257 -179.876)"/><path class="b" d="M174.292,289a4.692,4.692,0,1,0,4.692,4.692A4.682,4.682,0,0,0,174.292,289Zm0,6.6a1.932,1.932,0,1,1,1.932-1.932A1.944,1.944,0,0,1,174.292,295.6Z" transform="translate(-25.257 -218.685)"/><path class="b" d="M174.292,339.3a4.692,4.692,0,1,0,4.692,4.692A4.682,4.682,0,0,0,174.292,339.3Zm0,6.624a1.932,1.932,0,1,1,1.932-1.932A1.944,1.944,0,0,1,174.292,345.923Z" transform="translate(-25.257 -257.417)"/><path class="b" d="M240.292,238.6a4.692,4.692,0,1,0,4.692,4.692A4.682,4.682,0,0,0,240.292,238.6Zm0,6.624a1.932,1.932,0,1,1,1.932-1.932A1.944,1.944,0,0,1,240.292,245.224Z" transform="translate(-76.078 -179.876)"/><path class="b" d="M240.292,289a4.692,4.692,0,1,0,4.692,4.692A4.682,4.682,0,0,0,240.292,289Zm0,6.6a1.932,1.932,0,1,1,1.932-1.932A1.944,1.944,0,0,1,240.292,295.6Z" transform="translate(-76.078 -218.685)"/><path class="b" d="M240.292,339.3a4.692,4.692,0,1,0,4.692,4.692A4.682,4.682,0,0,0,240.292,339.3Zm0,6.624a1.932,1.932,0,1,1,1.932-1.932A1.944,1.944,0,0,1,240.292,345.923Z" transform="translate(-76.078 -257.417)"/><path class="b" d="M306.292,238.6a4.692,4.692,0,1,0,4.692,4.692A4.682,4.682,0,0,0,306.292,238.6Zm0,6.624a1.932,1.932,0,1,1,1.932-1.932A1.944,1.944,0,0,1,306.292,245.224Z" transform="translate(-126.899 -179.876)"/><path class="b" d="M306.292,289a4.692,4.692,0,1,0,4.692,4.692A4.682,4.682,0,0,0,306.292,289Zm0,6.6a1.932,1.932,0,1,1,1.932-1.932A1.944,1.944,0,0,1,306.292,295.6Z" transform="translate(-126.899 -218.685)"/><path class="b" d="M306.292,339.3a4.692,4.692,0,1,0,4.692,4.692A4.682,4.682,0,0,0,306.292,339.3Zm0,6.624a1.932,1.932,0,1,1,1.932-1.932A1.944,1.944,0,0,1,306.292,345.923Z" transform="translate(-126.899 -257.417)"/><path class="b" d="M241.574,177.1a1.327,1.327,0,0,0,.851-.3l5.428-4.255a1.376,1.376,0,0,0-1.7-2.162l-4.347,3.4-.713-.92a1.38,1.38,0,1,0-2.208,1.656c0,.023.023.023.023.046l1.564,2A1.416,1.416,0,0,0,241.574,177.1Z" transform="translate(-78.395 -127.136)"/><path class="b" d="M205.531,138.3H166.48a1.384,1.384,0,0,0-1.38,1.38v18.077a1.384,1.384,0,0,0,1.38,1.38h6.049a1.38,1.38,0,0,0,0-2.76H167.86V141.06h36.268v15.317h-22.4a1.38,1.38,0,0,0,0,2.76h23.78a1.384,1.384,0,0,0,1.38-1.38V139.68A1.35,1.35,0,0,0,205.531,138.3Z" transform="translate(-21.791 -102.643)"/><path class="b" d="M185.9,29.148H178.22V17.12h10.349a1.384,1.384,0,0,0,1.38-1.38v-.046l-.115-3.519A7.2,7.2,0,0,0,182.636,5H155.613a7.2,7.2,0,0,0-7.175,7.175V29.148h-5.911a5.742,5.742,0,0,0-5.727,5.727v57.7a5.742,5.742,0,0,0,5.727,5.727H147.1v17.387a4.8,4.8,0,0,0,4.784,4.784h24.654a4.8,4.8,0,0,0,4.784-4.784V98.3H185.9a5.742,5.742,0,0,0,5.727-5.727v-57.7a5.742,5.742,0,0,0-5.727-5.727ZM178.2,12.2a4.427,4.427,0,0,1,8.854,0v.046l.069,2.116H178.2Zm-27-.023a4.417,4.417,0,0,1,4.416-4.416h21.365a7.222,7.222,0,0,0-1.541,4.439v16.95H151.2Zm27.368,103.492a2.042,2.042,0,0,1-2.024,2.024H151.887a2.027,2.027,0,0,1-2.024-2.024V98.281h28.679Zm10.28-23.09a2.989,2.989,0,0,1-2.967,2.967H142.527a2.989,2.989,0,0,1-2.967-2.967v-57.7a2.989,2.989,0,0,1,2.967-2.967H185.9a2.989,2.989,0,0,1,2.967,2.967Z"/></g></g></g></svg>