<svg xmlns="http://www.w3.org/2000/svg" width="167" height="167" viewBox="0 0 167 167"><defs><style>.a{fill:#00bbdc;}.b{fill:#fff;}</style></defs><g transform="translate(-527 -5730)"><g transform="translate(348 -3683)"><circle class="a" cx="83.5" cy="83.5" r="83.5" transform="translate(179 9413)"/></g><g transform="translate(557.729 5769.298)"><g transform="translate(17.168 20.03)"><path class="b" d="M106.872,121.3a4.293,4.293,0,1,1-3.718-6.438V112a7.153,7.153,0,1,0,6.2,10.73Z" transform="translate(-96 -112)"/></g><path class="b" d="M62.95,42.92H75.826A12.892,12.892,0,0,0,88.7,30.044V21.46A12.892,12.892,0,0,0,75.826,8.584H58.259L55.4,0H36.166L33.3,8.584H15.737A15.756,15.756,0,0,0,0,24.322v1.431H8.657c-.043.472-.073.947-.073,1.431A15.756,15.756,0,0,0,24.322,42.92h21.46A8.56,8.56,0,0,0,48.643,49.3V70.1A7.162,7.162,0,0,0,55.8,77.257h21.46v4.292A7.162,7.162,0,0,0,84.41,88.7H88.7V54.366H84.41a7.162,7.162,0,0,0-7.153,7.153v4.292H60.089V49.3A8.56,8.56,0,0,0,62.95,42.92Zm17.168,18.6a4.3,4.3,0,0,1,4.292-4.292h1.431V85.841H84.41a4.3,4.3,0,0,1-4.292-4.292ZM38.229,2.861H53.336l1.907,5.723H36.322Zm37.6,8.584A10.026,10.026,0,0,1,85.841,21.46v1.431H31.411a15.726,15.726,0,0,0-6.661-11.445ZM2.94,22.891A12.851,12.851,0,0,1,19.8,12.114,15.788,15.788,0,0,0,9.194,22.891Zm8.505,4.292a12.881,12.881,0,0,1,12.4-12.852,12.854,12.854,0,0,1,4.768,9.99v1.431h8.5a13.24,13.24,0,0,1,.084,1.431,12.876,12.876,0,0,1-25.752,0ZM46.282,40.059H33.342a15.723,15.723,0,0,0,6.717-12.876c0-.478-.029-.956-.072-1.431H85.841v4.292A10.026,10.026,0,0,1,75.826,40.059H62.449a8.57,8.57,0,0,0-16.167,0ZM74.4,68.673h2.861V74.4H74.4Zm-2.861,0V74.4H55.8A4.3,4.3,0,0,1,51.5,70.1V51a8.426,8.426,0,0,0,5.723,0V65.811a2.864,2.864,0,0,0,2.861,2.861ZM54.366,48.643a5.723,5.723,0,1,1,5.723-5.723A5.728,5.728,0,0,1,54.366,48.643Z"/><g transform="translate(65.811 28.614)"><path class="b" d="M368,160v8.584h11.445V160Zm8.584,5.723h-5.723v-2.861h5.723Z" transform="translate(-368 -160)"/></g><g transform="translate(33.229 14.327)"><g transform="translate(0 0)"><rect class="b" width="22" height="3" transform="translate(0.042 0.375)"/></g></g><g transform="translate(65.104 17.225)"><g transform="translate(0 0)"><rect class="b" width="3" height="2" transform="translate(0.167 0.477)"/></g></g><g transform="translate(70.899 17.225)"><g transform="translate(0 0)"><rect class="b" width="3" height="2" transform="translate(0.372 0.477)"/></g></g><g transform="translate(76.695 17.225)"><g transform="translate(0 0)"><rect class="b" width="3" height="2" transform="translate(-0.424 0.477)"/></g></g></g></g></svg>