<svg xmlns="http://www.w3.org/2000/svg" width="167" height="167" viewBox="0 0 167 167"><defs><style>.a{fill:#00bbdc;}.b{fill:#fff;}</style></defs><g transform="translate(-147 -6067)"><g transform="translate(-33 -3649)"><circle class="a" cx="83.5" cy="83.5" r="83.5" transform="translate(180 9716)"/></g><g transform="translate(179 6048.234)"><path class="b" d="M48.408,349.292a8.35,8.35,0,1,0-8.35-8.35A8.36,8.36,0,0,0,48.408,349.292Zm0-13.692a5.342,5.342,0,1,1-5.342,5.342A5.348,5.348,0,0,1,48.408,335.6Z" transform="translate(-32.024 -215.057)"/><path class="b" d="M144.993,257.923v-3.735a4.039,4.039,0,0,0-8.077,0v3.735a4.039,4.039,0,0,0,8.077,0Zm-5.069,0v-3.735a1.03,1.03,0,0,1,2.061,0v3.735a1.03,1.03,0,0,1-2.061,0Z" transform="translate(-109.456 -149.149)"/><path class="b" d="M101.184,137.757H97.71V106.5a6.582,6.582,0,0,0-3.076-5.587,1.5,1.5,0,0,0-1.61,2.542A3.588,3.588,0,0,1,94.7,106.5v3.578l-12.8,6.1V106.5a3.608,3.608,0,0,1,3.6-3.6h2.411a1.5,1.5,0,1,0,0-3.008H85.508A6.62,6.62,0,0,0,78.9,106.5v31.257H25.344a14.867,14.867,0,0,0,5.909-11.37h7.626a6.038,6.038,0,0,0,1.5-11.885v-6.369A16.959,16.959,0,0,0,24.768,91.251l-2.524-18.9a10.14,10.14,0,0,0-10.019-8.77H3.008a1.5,1.5,0,1,0,0,3.008h9.216a7.122,7.122,0,0,1,7.037,6.16l2.464,18.444H18.689L16.279,73.148a4.1,4.1,0,0,0-4.054-3.55H3.008a1.5,1.5,0,1,0,0,3.008h9.216a1.085,1.085,0,0,1,1.072.939l2.358,17.648H3.008a1.5,1.5,0,1,0,0,3.008H23.443a13.947,13.947,0,0,1,13.931,13.931v6.18H25.727a14.88,14.88,0,0,0-13.07-2.838,1.5,1.5,0,1,0,.753,2.913A11.874,11.874,0,1,1,16.4,137.757h-.023A11.872,11.872,0,0,1,8.7,116.836a1.5,1.5,0,0,0-1.948-2.292,14.872,14.872,0,0,0,.674,23.214H1.5a1.5,1.5,0,0,0,0,3.008h99.679a1.5,1.5,0,1,0,0-3.008ZM41.908,120.351a3.032,3.032,0,0,1-3.029,3.028H31.05a14.8,14.8,0,0,0-2.507-6.057H38.879a3.029,3.029,0,0,1,3.029,3.028Zm52.794-6.94v9.85l-12.8,6.1v-9.85ZM81.9,132.7l12.8-6.1v11.164H81.9Z" transform="translate(0 0)"/><path class="b" d="M342.06,281.044a1.5,1.5,0,0,0,2.128-2.127,6.507,6.507,0,0,1,0-9.191,1.5,1.5,0,0,0-2.127-2.127A9.518,9.518,0,0,0,342.06,281.044Z" transform="translate(-271.233 -162.746)"/><path class="b" d="M311.614,267.354a1.5,1.5,0,1,0,2.127-2.127,12.983,12.983,0,0,1,0-18.361,1.5,1.5,0,1,0-2.127-2.127,15.991,15.991,0,0,0,0,22.615Z" transform="translate(-245.371 -144.471)"/><path class="b" d="M283.364,254.588a1.5,1.5,0,0,0,1.064-2.568,19.26,19.26,0,0,1,0-27.207,1.5,1.5,0,0,0-2.127-2.127,22.272,22.272,0,0,0,0,31.461,1.5,1.5,0,0,0,1.064.44Z" transform="translate(-220.481 -126.842)"/></g></g></svg>