<svg xmlns="http://www.w3.org/2000/svg" width="167" height="167" viewBox="0 0 167 167"><defs><style>.a{fill:#00bbdc;}.b{fill:#fff;}</style></defs><g transform="translate(-1242 -9413)"><circle class="a" cx="83.5" cy="83.5" r="83.5" transform="translate(1242 9413)"/><g transform="translate(1281 9448.145)"><path class="b" d="M89.407,21.29H87.957V11.145a1.428,1.428,0,0,0-.716-1.222l.013-.022-14.493-8.7a1.456,1.456,0,0,0-1.491,0L56.777,9.9l.013.022a1.426,1.426,0,0,0-.717,1.222V21.29H54.624a1.449,1.449,0,0,0-1.449,1.449V44.479H38.682V40.131a1.449,1.449,0,0,0-1.449-1.449H32.8A13.062,13.062,0,0,0,21.29,27.173v-10.5a4.348,4.348,0,1,0-2.9,0v10.5A13.062,13.062,0,0,0,6.883,38.681H2.449A1.449,1.449,0,0,0,1,40.131V89.407a1.449,1.449,0,0,0,1.449,1.449H89.407a1.449,1.449,0,0,0,1.449-1.449V22.739A1.449,1.449,0,0,0,89.407,21.29ZM72.015,4.139,81.276,9.7H62.754ZM58.972,12.594H85.059v8.7h-2.9v-5.8h-2.9v5.8h-2.9v-5.8h-2.9v5.8h-2.9v-5.8h-2.9v5.8h-2.9v-5.8h-2.9v5.8h-2.9Zm0,75.363H32.884V47.377H58.972ZM29.986,53.174H9.7v-2.9h20.29Zm0,11.594H9.7v-2.9h20.29Zm0,11.594H9.7v-2.9h20.29Zm0,11.594H9.7v-2.9h20.29ZM19.841,11.145a1.449,1.449,0,1,1-1.449,1.449A1.451,1.451,0,0,1,19.841,11.145Zm0,18.841a10.153,10.153,0,0,1,10.029,8.7H9.812A10.153,10.153,0,0,1,19.841,29.986ZM3.9,41.58H35.783v2.9H31.435a1.449,1.449,0,0,0-1.449,1.449v1.449H8.246A1.449,1.449,0,0,0,6.8,48.826v5.8a1.449,1.449,0,0,0,1.449,1.449H29.986v2.9H8.246A1.449,1.449,0,0,0,6.8,60.421v5.8a1.449,1.449,0,0,0,1.449,1.449H29.986v2.9H8.246A1.449,1.449,0,0,0,6.8,72.015v5.8a1.449,1.449,0,0,0,1.449,1.449H29.986v2.9H8.246A1.449,1.449,0,0,0,6.8,83.609v4.348H3.9ZM87.957,87.957H61.87v-5.8H85.059v-2.9H61.87v-2.9H85.059v-2.9H61.87v-2.9H85.059v-2.9H61.87v-2.9H85.059v-2.9H61.87v-2.9H85.059v-2.9H61.87v-2.9H85.059v-2.9H61.87v-2.9H85.059v-2.9H56.073V24.189H87.957Z"/><path class="b" d="M8.474,17.087l.849.849,2.049-2.049-.849-.849a5.549,5.549,0,0,1,0-7.846l.849-.849L9.323,4.293l-.849.849a8.446,8.446,0,0,0,0,11.945Z" transform="translate(2.246 1.479)"/><path class="b" d="M6.771,23.63l2.052-2.046-.249-.251a12.544,12.544,0,0,1,0-17.744l.248-.249L6.771,1.294l-.246.248a15.441,15.441,0,0,0,0,21.839Z" transform="translate(0.449 0.132)"/><path class="b" d="M18.293,15.887l2.049,2.049.849-.849a8.446,8.446,0,0,0,0-11.945l-.849-.849L18.293,6.342l.849.849a5.549,5.549,0,0,1,0,7.846Z" transform="translate(7.77 1.479)"/><path class="b" d="M25.217,12.462a12.46,12.46,0,0,1-3.677,8.873l-.248.249,2.052,2.046.246-.248a15.441,15.441,0,0,0,0-21.839l-.248-.249L21.292,3.34l.249.251A12.459,12.459,0,0,1,25.217,12.462Z" transform="translate(9.117 0.132)"/><path class="b" d="M26.449,43.7h5.8A1.449,1.449,0,0,0,33.7,42.246v-5.8A1.449,1.449,0,0,0,32.246,35h-5.8A1.449,1.449,0,0,0,25,36.449v5.8A1.449,1.449,0,0,0,26.449,43.7ZM27.9,37.9h2.9v2.9H27.9Z" transform="translate(10.783 15.276)"/><path class="b" d="M34.449,43.7h5.8A1.449,1.449,0,0,0,41.7,42.246v-5.8A1.449,1.449,0,0,0,40.246,35h-5.8A1.449,1.449,0,0,0,33,36.449v5.8A1.449,1.449,0,0,0,34.449,43.7ZM35.9,37.9h2.9v2.9H35.9Z" transform="translate(14.377 15.276)"/><path class="b" d="M34.449,51.7h5.8A1.449,1.449,0,0,0,41.7,50.246v-5.8A1.449,1.449,0,0,0,40.246,43h-5.8A1.449,1.449,0,0,0,33,44.449v5.8A1.449,1.449,0,0,0,34.449,51.7ZM35.9,45.9h2.9v2.9H35.9Z" transform="translate(14.377 18.87)"/><path class="b" d="M26.449,51.7h5.8A1.449,1.449,0,0,0,33.7,50.246v-5.8A1.449,1.449,0,0,0,32.246,43h-5.8A1.449,1.449,0,0,0,25,44.449v5.8A1.449,1.449,0,0,0,26.449,51.7ZM27.9,45.9h2.9v2.9H27.9Z" transform="translate(10.783 18.87)"/><path class="b" d="M26.449,59.7h5.8A1.449,1.449,0,0,0,33.7,58.246v-5.8A1.449,1.449,0,0,0,32.246,51h-5.8A1.449,1.449,0,0,0,25,52.449v5.8A1.449,1.449,0,0,0,26.449,59.7ZM27.9,53.9h2.9v2.9H27.9Z" transform="translate(10.783 22.464)"/><path class="b" d="M34.449,59.7h5.8A1.449,1.449,0,0,0,41.7,58.246v-5.8A1.449,1.449,0,0,0,40.246,51h-5.8A1.449,1.449,0,0,0,33,52.449v5.8A1.449,1.449,0,0,0,34.449,59.7ZM35.9,53.9h2.9v2.9H35.9Z" transform="translate(14.377 22.464)"/><path class="b" d="M41,19H67.087v2.9H41Z" transform="translate(17.972 8.087)"/><path class="b" d="M41,23H67.087v2.9H41Z" transform="translate(17.972 9.884)"/><path class="b" d="M41,27H67.087v2.9H41Z" transform="translate(17.972 11.681)"/></g></g></svg>