<svg xmlns="http://www.w3.org/2000/svg" width="167" height="167" viewBox="0 0 167 167"><defs><style>.a{fill:#00bbdc;}.b{fill:#fff;}</style></defs><g transform="translate(-528 -6067)"><g transform="translate(348 -3649)"><circle class="a" cx="83.5" cy="83.5" r="83.5" transform="translate(180 9716)"/></g><g transform="translate(564 6098.409)"><path class="b" d="M92.421,72.732h.012L83.727,55.307V37.932A4.432,4.432,0,0,0,79.3,33.5H73.386V24.636h4.432A1.477,1.477,0,0,0,79.3,23.159V11.341a4.432,4.432,0,0,0-4.432-4.432H57.136A4.432,4.432,0,0,0,52.7,11.341V33.5H33.5V27.591h4.432a1.477,1.477,0,0,0,1.477-1.477V21.682h4.432A1.477,1.477,0,0,0,45.318,20.2V2.477A1.477,1.477,0,0,0,43.841,1h-32.5A1.477,1.477,0,0,0,9.864,2.477V20.2a1.477,1.477,0,0,0,1.477,1.477h4.432v4.432a1.477,1.477,0,0,0,1.477,1.477h4.432V33.5H14.3a4.432,4.432,0,0,0-4.432,4.432V55.307L1.155,72.726H1.17a1.445,1.445,0,0,0-.17.66V91.114a1.477,1.477,0,0,0,1.477,1.477H91.114a1.477,1.477,0,0,0,1.477-1.477V73.386A1.44,1.44,0,0,0,92.421,72.732ZM73.386,11.341a1.477,1.477,0,0,1,2.955,0V21.682H73.386Zm8.3,60.568-5.492-11a1.477,1.477,0,0,0-1.33-.817H18.727a1.477,1.477,0,0,0-1.322.817l-5.5,11H4.867l7.386-14.773H81.337l7.386,14.773Zm-3.3,0H15.208l4.432-8.864h54.31ZM55.659,11.341a1.477,1.477,0,0,1,1.477-1.477H70.684a4.445,4.445,0,0,0-.253,1.477V42.364H55.659ZM12.818,3.955H42.364V18.727H12.818Zm5.909,17.727H36.455v2.955H18.727Zm5.909,5.909h5.909V33.5H24.636ZM14.3,36.455H52.7v7.386a1.477,1.477,0,0,0,1.477,1.477H71.909a1.477,1.477,0,0,0,1.477-1.477V36.455H79.3a1.477,1.477,0,0,1,1.477,1.477v16.25H12.818V37.932A1.477,1.477,0,0,1,14.3,36.455ZM89.636,89.636H3.955V74.864H89.636Z" transform="translate(0)"/><path class="b" d="M33.159,5H12.477A1.477,1.477,0,0,0,11,6.477v5.909a1.477,1.477,0,0,0,1.477,1.477H33.159a1.477,1.477,0,0,0,1.477-1.477V6.477A1.477,1.477,0,0,0,33.159,5Zm-1.477,5.909H13.955V7.955H31.682Z" transform="translate(4.773 1.909)"/><circle class="b" cx="3" cy="3" r="3" transform="translate(44 77.591)"/><path class="b" d="M14.477,37.341H35.159a1.477,1.477,0,0,0,1.477-1.477V28.477A1.477,1.477,0,0,0,35.159,27H14.477A1.477,1.477,0,0,0,13,28.477v7.386A1.477,1.477,0,0,0,14.477,37.341Zm1.477-7.386H33.682v4.432H15.955Z" transform="translate(5.727 12.409)"/><path class="b" d="M34.477,36.864H61.068a1.477,1.477,0,0,0,1.477-1.477V28H59.591v5.909H35.955V28H33v7.386A1.477,1.477,0,0,0,34.477,36.864Z" transform="translate(15.273 12.886)"/><path class="b" d="M40,9h8.864v2.955H40Z" transform="translate(18.614 3.818)"/><path class="b" d="M40,13h8.864v2.955H40Z" transform="translate(18.614 5.727)"/><path class="b" d="M40,17h8.864v2.955H40Z" transform="translate(18.614 7.636)"/></g></g></svg>