<svg xmlns="http://www.w3.org/2000/svg" width="167" height="167" viewBox="0 0 167 167"><defs><style>.a{fill:#00bbdc;}.b{fill:#fff;}</style></defs><g transform="translate(-1272 -5730)"><g transform="translate(1092 -3986)"><circle class="a" cx="83.5" cy="83.5" r="83.5" transform="translate(180 9716)"/></g><g transform="translate(1243.742 5767.683)"><path class="b" d="M144.746,8.407H120.3V5.052A5.057,5.057,0,0,0,115.252,0h-6.51a5.057,5.057,0,0,0-5.051,5.052V8.407H79.248a5,5,0,0,0-4.99,4.99V27.21a1.557,1.557,0,1,0,3.115,0V13.4a1.877,1.877,0,0,1,1.875-1.875h65.5a1.877,1.877,0,0,1,1.875,1.875V93.126A1.877,1.877,0,0,1,144.746,95h-65.5a1.877,1.877,0,0,1-1.875-1.875V35.5a1.557,1.557,0,1,0-3.115,0V93.126a5,5,0,0,0,4.99,4.99h24.443v6.645a1.557,1.557,0,1,0,3.115,0V98.116h10.383v6.645a1.557,1.557,0,1,0,3.115,0V98.116h24.443a5,5,0,0,0,4.99-4.99V13.4a5,5,0,0,0-4.99-4.99ZM106.806,5.052a1.939,1.939,0,0,1,1.936-1.937h6.51a1.939,1.939,0,0,1,1.936,1.937V8.407H106.806Z"/><path class="b" d="M165.72,128.013a1.557,1.557,0,0,0,1.557-1.557V72.043a1.557,1.557,0,0,0-1.557-1.557h-59.9a1.557,1.557,0,0,0-1.557,1.557v74.135a1.557,1.557,0,0,0,1.557,1.557h59.9a1.557,1.557,0,0,0,1.557-1.557V134.749a1.557,1.557,0,1,0-3.115,0v9.872h-56.79V73.6h56.79v52.855A1.557,1.557,0,0,0,165.72,128.013Z" transform="translate(-23.77 -55.849)"/><path class="b" d="M172.3,129.864a2.6,2.6,0,0,0-2.6,2.6l.012,47.4a2.6,2.6,0,0,0,2.6,2.6h4.954a2.6,2.6,0,0,0,2.6-2.6V166.212c2.574-.015,5.23-.029,7.841-.029a17.843,17.843,0,0,0,10.2-3.214,18.65,18.65,0,0,0,6.666-8.334,17.524,17.524,0,0,0-3.947-19.5,18.433,18.433,0,0,0-12.921-5.271Zm29.383,23.6a15.133,15.133,0,0,1-13.981,9.606c-2.693,0-5.428.015-8.074.03l-.3,0a2.6,2.6,0,0,0-2.581,2.6v13.643h-3.915l-.012-46.36h14.882a15.334,15.334,0,0,1,10.748,4.388A14.462,14.462,0,0,1,201.687,153.462Z" transform="translate(-75.63 -102.897)"/><path class="b" d="M206.282,163.718a2.617,2.617,0,0,0-2.6,2.6c.009,3.287.036,13.446.05,17.073a2.6,2.6,0,0,0,2.6,2.585h8.3a11.13,11.13,0,0,0,0-22.259h-8.346ZM222.5,174.856a7.768,7.768,0,0,1-7.875,8.007h-7.779c-.013-3.791-.037-12.474-.047-16.029h7.826a7.775,7.775,0,0,1,7.875,8.022Z" transform="translate(-102.552 -129.722)"/></g></g></svg>