<svg xmlns="http://www.w3.org/2000/svg" width="167" height="167" viewBox="0 0 167 167"><defs><style>.a{fill:#00bbdc;}.b{fill:#fff;}</style></defs><g transform="translate(-902 -6067)"><g transform="translate(722 -3649)"><circle class="a" cx="83.5" cy="83.5" r="83.5" transform="translate(180 9716)"/></g><g transform="translate(886.15 6098.102)"><g transform="translate(58.85)"><path class="b" d="M136.5,73.46l-.036-.06q-.131-.215-.269-.426-.076-.117-.153-.232-.094-.14-.191-.279-.125-.18-.255-.356c-.026-.035-.05-.071-.076-.106l-.057-.073q-.156-.207-.319-.409l-.113-.141q-.161-.2-.329-.389c-.046-.054-.092-.107-.139-.16-.093-.1-.188-.207-.283-.309-.071-.077-.141-.153-.214-.229-.054-.056-.11-.111-.165-.166a17.689,17.689,0,0,0-7.627-4.551,1.5,1.5,0,0,0-.152-.037l-13.8-2.563c-.024,0-.049-.006-.073-.01a3.38,3.38,0,0,0-1.9.241,3.556,3.556,0,0,1-.8-2.148v-2.5a22.137,22.137,0,0,0,2.536-1.886,17.921,17.921,0,0,0,6.036-11.827,4.743,4.743,0,0,0,4.516-4.732V36.559a4.717,4.717,0,0,0-1.73-3.659V24.72c4.988-2.458,6.072-5.324,6.072-7.346,0-3.47-3.231-7.812-8.433-11.334a34.806,34.806,0,0,0-39.192,0c-5.2,3.521-8.433,7.864-8.433,11.334,0,2.022,1.084,4.888,6.072,7.346V32.9a4.718,4.718,0,0,0-1.73,3.659v3.558a4.743,4.743,0,0,0,4.516,4.732,17.92,17.92,0,0,0,6.036,11.827,22.139,22.139,0,0,0,2.536,1.886v2.5a3.556,3.556,0,0,1-.8,2.148,3.375,3.375,0,0,0-1.97-.231L71.8,65.539a1.5,1.5,0,0,0-.152.037,17.689,17.689,0,0,0-7.624,4.548c-.056.057-.113.113-.169.17-.071.074-.141.15-.211.225-.1.1-.192.207-.286.312-.046.052-.091.105-.137.158q-.168.193-.33.391c-.038.046-.075.094-.113.14q-.162.2-.319.409c-.019.025-.038.048-.057.073s-.05.071-.076.106q-.13.176-.255.356-.1.139-.191.279-.077.115-.152.231-.138.212-.269.426l-.036.059a17.686,17.686,0,0,0-2.573,9.226v1.861a1.526,1.526,0,1,0,3.053,0V82.687a14.777,14.777,0,0,1,.645-4.33,4.993,4.993,0,0,0,3.122,1.095,5.082,5.082,0,0,0,.546-.03A5,5,0,0,0,69.6,77.577l1.661-2.06A5.032,5.032,0,0,0,71.092,69c.439-.178.887-.339,1.346-.477l8.8-1.635,6.985,9.774a3.593,3.593,0,0,0,2.929,1.517,3.638,3.638,0,0,0,1.424-.292l.465-.2,2.033,2.363-2.932,21.067H72.962V88.745a1.526,1.526,0,1,0-3.053,0v12.378H63.8a1.9,1.9,0,0,1-1.9-1.9V91.65a1.526,1.526,0,1,0-3.053,0v7.572a4.959,4.959,0,0,0,4.953,4.953h70.32a4.959,4.959,0,0,0,4.953-4.953V82.687A17.69,17.69,0,0,0,136.5,73.46Zm-67.622.14-1.661,2.06a1.979,1.979,0,0,1-2.783.3l-.637-.514q.205-.366.429-.718l.005-.008c.128-.2.263-.4.4-.591.042-.059.083-.117.126-.175q.184-.251.378-.494c.033-.042.066-.084.1-.126q.219-.268.45-.525c.045-.05.091-.1.136-.149.153-.165.308-.328.468-.486l.041-.041a14.748,14.748,0,0,1,1.915-1.585l.335.27a1.979,1.979,0,0,1,.3,2.783Zm60.462-2.784.335-.27a14.736,14.736,0,0,1,1.915,1.585l.041.041c.16.158.315.321.468.486.046.049.091.1.136.149q.231.257.45.525c.034.041.067.084.1.126q.194.243.378.494c.043.058.084.117.126.175.137.194.272.39.4.591l.005.008q.224.352.429.718l-.637.514a1.979,1.979,0,0,1-2.784-.3l-1.661-2.06A1.982,1.982,0,0,1,129.344,70.817ZM111.119,66.34l.006,0,.4-.3a.321.321,0,0,1,.249-.058l1.6.3-6.156,8.614a.558.558,0,0,1-.676.19L102,73.152ZM98.963,71.613l-8.895-6.648a6.555,6.555,0,0,0,1.348-3.9v-.894A19.9,19.9,0,0,0,98.946,61.7h.034a19.909,19.909,0,0,0,7.531-1.532v.894a6.556,6.556,0,0,0,1.347,3.9Zm2.971,4.827-1.39,1.617H97.383l-1.39-1.617,2.971-1.262Zm-24.929-55.2c-1.962-1.209-3.019-2.545-3.019-3.866,0-2.752,3.676-6.493,7.092-8.806a31.753,31.753,0,0,1,35.769,0c3.416,2.312,7.092,6.054,7.092,8.806,0,1.321-1.057,2.657-3.019,3.866V18.465a4.713,4.713,0,0,0-3.548-4.568,83.257,83.257,0,0,0-19.365-2.708h-.02a67.461,67.461,0,0,0-17.543,2.68,4.732,4.732,0,0,0-3.44,4.539ZM82.3,26.6l-.064-.041c-.1-.063-.194-.127-.287-.191l-.111-.078q-.114-.081-.22-.162c-.049-.037-.1-.075-.143-.112s-.111-.09-.164-.134-.11-.1-.162-.144-.079-.072-.117-.108c-.06-.058-.116-.115-.17-.173-.026-.027-.053-.055-.078-.083l-.008-.009H106.4a1.526,1.526,0,1,0,0-3.053H80.059v-3.9a1.668,1.668,0,0,1,1.213-1.6,64.381,64.381,0,0,1,16.716-2.566h.018a80.147,80.147,0,0,1,18.61,2.613,1.662,1.662,0,0,1,1.251,1.61v3.847h-4.094a1.527,1.527,0,1,0,0,3.053h3.379l-.008.009c-.025.027-.052.055-.078.083-.055.058-.11.115-.17.173-.037.036-.077.072-.117.108s-.106.1-.162.144-.108.09-.164.134-.094.075-.143.112q-.107.081-.22.162l-.112.078c-.093.064-.188.128-.287.191l-.064.041a15.066,15.066,0,0,1-2.254,1.142c-.018.008-.034.018-.052.026a38.787,38.787,0,0,1-14.358,2.367,38.787,38.787,0,0,1-14.358-2.367c-.018-.008-.034-.019-.052-.026A15.066,15.066,0,0,1,82.3,26.6Zm.144,3.547v2.974a8.47,8.47,0,0,0-2.385-.794V28.78A15.438,15.438,0,0,0,82.444,30.147Zm33.039,0a15.432,15.432,0,0,0,2.385-1.367v3.547a8.471,8.471,0,0,0-2.385.794ZM87.819,54.363A14.979,14.979,0,0,1,82.753,43.3,1.526,1.526,0,0,0,81.227,41.8H80.013a1.686,1.686,0,0,1-1.684-1.684V36.559a1.676,1.676,0,0,1,.619-1.3,5.54,5.54,0,0,1,2.4.75l.025.016a3.531,3.531,0,0,1,.349.257l.039.033c.055.047.108.1.16.147s.093.086.141.126l.043.034q.055.043.112.082l.045.03c.052.033.1.065.158.093h0c.055.029.111.054.167.078l.047.019c.043.017.086.032.13.046l.049.015c.058.017.116.031.174.043h0c.06.012.121.02.182.027l.049,0q.069.006.139.007h.052c.06,0,.12,0,.18-.009h0c.062-.006.123-.016.185-.027l.052-.011q.068-.015.136-.034l.054-.016c.06-.019.12-.04.179-.065a2.1,2.1,0,0,0,1.3-1.943V31.31a46.441,46.441,0,0,0,13.467,1.878A46.441,46.441,0,0,0,112.43,31.31V34.96a2.1,2.1,0,0,0,1.3,1.943c.059.025.12.046.18.065l.051.015c.046.013.093.025.14.035l.049.01a2.072,2.072,0,0,0,.372.037h.049c.048,0,.1,0,.143-.007l.046,0a2.076,2.076,0,0,0,.361-.071l.048-.015c.044-.014.088-.03.132-.046l.047-.019c.057-.024.113-.049.168-.078h0c.054-.028.106-.06.157-.093l.045-.031q.057-.039.112-.082l.044-.034c.048-.04.1-.082.141-.126s.1-.1.158-.145l.043-.036c.05-.042.1-.082.153-.121l.014-.011c.056-.041.113-.08.171-.118L116.6,36c.051-.032.1-.064.156-.093l.023-.013q.089-.05.18-.094l.045-.022c.054-.026.108-.051.163-.075l.022-.01c.063-.027.125-.052.188-.076l.033-.012q.089-.033.178-.063l.01,0q.1-.033.2-.061l.007,0a6.413,6.413,0,0,1,1.181-.218,1.676,1.676,0,0,1,.62,1.3v3.558a1.686,1.686,0,0,1-1.684,1.684H116.7a1.526,1.526,0,0,0-1.526,1.494,14.979,14.979,0,0,1-5.066,11.067,16.643,16.643,0,0,1-22.289,0ZM91.385,75.08a.558.558,0,0,1-.676-.19l-6.156-8.614,1.6-.3a.32.32,0,0,1,.249.058l.4.3.007,0,9.114,6.812Zm3.842,26.042L98.011,81.11h1.9l2.785,20.013Zm38.9,0h-6.106V88.745a1.526,1.526,0,0,0-3.053,0v12.378H105.783l-2.932-21.067,2.033-2.363.465.2a3.637,3.637,0,0,0,1.424.292,3.592,3.592,0,0,0,2.929-1.517l6.984-9.774,8.8,1.635c.459.138.907.3,1.346.477a5.04,5.04,0,0,0-.167,6.513l1.661,2.06a5,5,0,0,0,3.381,1.845,5.088,5.088,0,0,0,.546.029,4.994,4.994,0,0,0,3.121-1.095,14.777,14.777,0,0,1,.645,4.33V99.222h0A1.9,1.9,0,0,1,134.124,101.122Z" transform="translate(-58.85)"/></g><g transform="translate(109.268 87.218)"><path class="b" d="M317.175,428.66h-8.039a2.5,2.5,0,0,0-2.494,2.494v4.283a2.5,2.5,0,0,0,2.494,2.494h8.039a2.5,2.5,0,0,0,2.493-2.494v-4.283A2.5,2.5,0,0,0,317.175,428.66Zm-7.48,6.217v-3.164h6.92v3.164Z" transform="translate(-306.643 -428.66)"/></g><g transform="translate(75.633 87.218)"><path class="b" d="M151.869,428.659h-8.039a2.5,2.5,0,0,0-2.494,2.494v4.283a2.5,2.5,0,0,0,2.494,2.494h8.039a2.5,2.5,0,0,0,2.494-2.494v-4.283A2.5,2.5,0,0,0,151.869,428.659Zm-.559,6.217h-6.92v-3.164h6.92Z" transform="translate(-141.337 -428.659)"/></g></g></g></svg>