<svg xmlns="http://www.w3.org/2000/svg" width="127" height="127" viewBox="0 0 127 127"><defs><style>.a,.d{fill:none;}.a{stroke:#00bbdc;stroke-width:5px;}.b{fill:#00bbdc;}.c{stroke:none;}</style></defs><g transform="translate(-161 -2107)"><g class="a" transform="translate(161 2107)"><circle class="c" cx="63.5" cy="63.5" r="63.5"/><circle class="d" cx="63.5" cy="63.5" r="61"/></g><g transform="translate(190 2131.532)"><path class="b" d="M55.25,85.568c3.091,3.091,6.107,6.086,9.1,9.11a3.114,3.114,0,0,1,.721,1.169c2.336,6.936,4.636,13.882,6.975,20.818a2.988,2.988,0,0,0,.675,1.1q6.344,6.387,12.726,12.741a12.335,12.335,0,0,0,17.823-.013l13.908-13.908c1.527-1.527,3.065-3.042,4.574-4.582a4.676,4.676,0,0,0,1.241-4.958,4.411,4.411,0,0,0-3.747-3.227,12.447,12.447,0,0,0-2.833.2A20.029,20.029,0,0,0,118,100.967a4.091,4.091,0,0,0-.731-3.7c-1.329-1.914-3.137-2.357-6.439-1.517,2.179-2.017,3.055-4.283,1.4-6.841-1.545-2.4-3.863-2.643-6.439-1.715a7.863,7.863,0,0,1,.827-.85q6.666-6.655,13.321-13.321a4.818,4.818,0,1,0-6.8-6.8l-25,25c-2.442,2.444-4.878,4.894-7.369,7.394-.188-.332-.332-.595-.484-.853-1.617-2.735-3.2-5.491-4.863-8.2-2.964-4.816-7.559-7.036-12.942-7.871a4.749,4.749,0,0,0-4.108.773C57.3,83.438,56.324,84.5,55.25,85.568ZM85.835,62.957V58.064a1.757,1.757,0,0,0-1.656-1.975,1.718,1.718,0,0,0-1.726,1.9q-.023,4.927,0,9.854a1.7,1.7,0,1,0,3.382-.01C85.853,66.215,85.835,64.585,85.835,62.957Zm15.525-.175a6.339,6.339,0,0,0-1.211-1.38,1.52,1.52,0,0,0-1.957.361c-2.225,2.223-4.458,4.443-6.671,6.678a1.7,1.7,0,1,0,2.408,2.382q3.322-3.292,6.609-6.624a6.918,6.918,0,0,0,.832-1.417Zm-32.2-1.566A1.778,1.778,0,0,0,67.3,62.2a1.692,1.692,0,0,0,.458,2.032c2.189,2.184,4.378,4.378,6.565,6.557a1.727,1.727,0,0,0,2.576.134,1.672,1.672,0,0,0-.142-2.5q-3.307-3.325-6.629-6.609A4.17,4.17,0,0,0,69.158,61.216Z" transform="translate(-55.25 -56.12)"/><path class="b" d="M55.25,110.183c1.074-1.071,2.06-2.13,3.122-3.091a4.7,4.7,0,0,1,4.108-.773c5.383.834,9.978,3.055,12.942,7.871,1.664,2.707,3.245,5.463,4.863,8.2.152.258.3.515.484.853,2.491-2.5,4.927-4.95,7.369-7.394l25-25a4.817,4.817,0,1,1,6.8,6.8q-6.655,6.666-13.321,13.321a7.864,7.864,0,0,0-.827.85c2.576-.927,4.894-.68,6.439,1.715,1.656,2.558.773,4.824-1.4,6.841,3.3-.84,5.11-.4,6.439,1.517a4.118,4.118,0,0,1,.731,3.7,20.028,20.028,0,0,1-1.581,3.049,12.424,12.424,0,0,1,2.833-.2A4.408,4.408,0,0,1,123,131.669a4.672,4.672,0,0,1-1.241,4.958c-1.509,1.545-3.047,3.055-4.574,4.582l-13.908,13.908a12.335,12.335,0,0,1-17.823.013q-6.382-6.351-12.726-12.741a2.988,2.988,0,0,1-.675-1.1q-3.477-10.4-6.975-20.818a3.114,3.114,0,0,0-.721-1.169C61.367,116.269,58.336,113.266,55.25,110.183Z" transform="translate(-55.25 -80.735)"/><path class="b" d="M164.226,63V67.9a1.7,1.7,0,1,1-3.382.01q-.018-4.93,0-9.854a1.709,1.709,0,0,1,1.726-1.9,1.744,1.744,0,0,1,1.656,1.968C164.239,59.744,164.226,61.371,164.226,63Z" transform="translate(-133.641 -56.165)"/><path class="b" d="M204.226,77.476a7.456,7.456,0,0,1-.822,1.417q-3.276,3.348-6.609,6.624a1.7,1.7,0,1,1-2.408-2.382c2.212-2.236,4.445-4.456,6.671-6.678a1.529,1.529,0,0,1,1.957-.361A6.655,6.655,0,0,1,204.226,77.476Z" transform="translate(-158.106 -70.814)"/><path class="b" d="M103.389,76a4.17,4.17,0,0,1,.966.6q3.348,3.281,6.627,6.611a1.685,1.685,0,0,1,.142,2.5,1.733,1.733,0,0,1-2.576-.134c-2.2-2.179-4.378-4.378-6.565-6.557a1.692,1.692,0,0,1-.458-2.032A1.785,1.785,0,0,1,103.389,76Z" transform="translate(-89.481 -70.904)"/></g></g></svg>