<svg xmlns="http://www.w3.org/2000/svg" width="127" height="127" viewBox="0 0 127 127"><defs><style>.a,.d{fill:none;}.a{stroke:#00bbdc;stroke-width:5px;}.b{fill:#00bbdc;}.c{stroke:none;}</style></defs><g transform="translate(-161 -2330)"><g class="a" transform="translate(161 2330)"><circle class="c" cx="63.5" cy="63.5" r="63.5"/><circle class="d" cx="63.5" cy="63.5" r="61"/></g><g transform="translate(186 2355.242)"><path class="b" d="M13.626,10.952A2.377,2.377,0,0,1,11.25,8.576v-6.2a2.376,2.376,0,0,1,4.752,0v6.2A2.377,2.377,0,0,1,13.626,10.952Z" transform="translate(24.391)"/><path class="b" d="M20.2,12.433a2.378,2.378,0,0,1-1.679-4.058L22.9,3.99a2.377,2.377,0,1,1,3.361,3.361l-4.385,4.385A2.383,2.383,0,0,1,20.2,12.433Z" transform="translate(38.638 7.142)"/><path class="b" d="M29.119,16h-6.2a2.376,2.376,0,1,1,0-4.752h6.2a2.376,2.376,0,0,1,0,4.752Z" transform="translate(44.539 24.391)"/><path class="b" d="M24.581,26.959a2.357,2.357,0,0,1-1.679-.7l-4.385-4.385a2.377,2.377,0,0,1,3.361-3.361L26.263,22.9a2.378,2.378,0,0,1-1.682,4.058Z" transform="translate(38.638 38.636)"/><path class="b" d="M5.671,26.959A2.378,2.378,0,0,1,3.991,22.9l4.385-4.385a2.377,2.377,0,0,1,3.361,3.361L7.353,26.262A2.37,2.37,0,0,1,5.671,26.959Z" transform="translate(7.144 38.636)"/><path class="b" d="M8.576,16h-6.2a2.376,2.376,0,0,1,0-4.752h6.2a2.376,2.376,0,0,1,0,4.752Z" transform="translate(0 24.391)"/><path class="b" d="M10.055,12.433a2.357,2.357,0,0,1-1.679-.7L3.991,7.352A2.377,2.377,0,0,1,7.353,3.99l4.385,4.385a2.378,2.378,0,0,1-1.682,4.058Z" transform="translate(7.144 7.142)"/><path class="b" d="M28.008,21v3.96A5.571,5.571,0,0,1,22.464,30.5h-7.92C11.883,30.5,9,28.477,9,24.041V21Z" transform="translate(19.513 45.529)"/><path class="b" d="M41.15,9.939A22.179,22.179,0,1,0,13.842,44.883a9.566,9.566,0,0,1,3.612,6.051v.032a.539.539,0,0,1,.222-.032H36.683a.286.286,0,0,1,.158.032v-.032A10.567,10.567,0,0,1,40.9,44.6,22.189,22.189,0,0,0,41.15,9.939ZM39.06,28.758a2.393,2.393,0,0,1-2.376-2.376,8.707,8.707,0,0,0-8.712-8.712,2.376,2.376,0,1,1,0-4.752A13.494,13.494,0,0,1,41.436,26.382,2.393,2.393,0,0,1,39.06,28.758Z" transform="translate(10.838 10.843)"/><path class="b" d="M8.93,19.5h.222a.539.539,0,0,0-.222.032Z" transform="translate(19.361 42.277)"/><path class="b" d="M15.158,19.5v.032A.286.286,0,0,0,15,19.5Z" transform="translate(32.521 42.277)"/></g></g></svg>