<svg xmlns="http://www.w3.org/2000/svg" width="168" height="167" viewBox="0 0 168 167"><defs><style>.a{fill:#00bbdc;}.b{fill:#fff;}</style></defs><g transform="translate(-534 -9716)"><ellipse class="a" cx="84" cy="83.5" rx="84" ry="83.5" transform="translate(534 9716)"/><g transform="translate(571 9752.729)"><path class="b" d="M358.658,17.156a8.2,8.2,0,0,0,1.921-5.279V0H344.107V11.877a8.2,8.2,0,0,0,1.92,5.278,15.167,15.167,0,0,0-8.855,13.793v24.36a4.339,4.339,0,0,0,4.334,4.335,4.392,4.392,0,0,0,.521-.032V88.684h2.6V58.313a4.306,4.306,0,0,0,1.213-3.005V52.014h13v3.294a4.321,4.321,0,0,0,1.214,3V88.684h2.6V59.611a4.362,4.362,0,0,0,.52.032,4.337,4.337,0,0,0,4.335-4.335V30.948A15.259,15.259,0,0,0,358.658,17.156ZM346.708,2.6h11.27V6.242h-11.27Zm0,6.242h11.27v3.034a5.635,5.635,0,0,1-11.27,0ZM343.24,55.308a1.734,1.734,0,1,1-3.468,0V52.014h3.468Zm0-5.895h-3.468V46.639h3.468Zm21.673,5.895a1.734,1.734,0,1,1-3.468,0V52.014h3.468Zm0-5.895h-3.468V46.639h3.468Zm0-5.375h-3.468V29.908h-2.6V49.413h-13V29.908h-2.6V44.039h-3.468V30.948a12.572,12.572,0,0,1,8.524-11.9,8.208,8.208,0,0,0,8.093,0,12.634,12.634,0,0,1,8.523,11.9Zm0,0" transform="translate(-278.656)"/><path class="b" d="M417.094,329.18h2.6v31.555h-2.6Zm0,0" transform="translate(-344.708 -272.051)"/><path class="b" d="M154.167,283.939a5.338,5.338,0,0,0-4.453-1.105l-9.857,1.991a4.352,4.352,0,0,0,.861,8.618h10.056a5.358,5.358,0,0,0,3.393-9.5Zm-3.392,6.9H140.719a1.751,1.751,0,0,1-.346-3.467l9.857-1.992a2.8,2.8,0,0,1,.55-.055,2.757,2.757,0,0,1,0,5.513Zm0,0" transform="translate(-112.701 -233.66)"/><path class="b" d="M0,300.039H19.072v2.6H0Zm0,0" transform="translate(0 -247.967)"/><path class="b" d="M0,331.676H19.072v2.6H0Zm0,0" transform="translate(0 -274.114)"/><path class="b" d="M0,362.645H19.072v2.6H0Zm0,0" transform="translate(0 -299.708)"/><path class="b" d="M48.2,110.172H38.676L31.213,98.9H0v2.6H29.817l12.535,18.928-5.139,3.611H0v2.6H38.034l5.754-4.042,2.764,4.174v20.934a3.905,3.905,0,0,1-3.9,3.9H0v2.6H23.319v7.368a8.929,8.929,0,0,0,17.859,0v-7.368h1.474a6.509,6.509,0,0,0,6.5-6.5V125.992l-4.161-6.284H48.2a4.768,4.768,0,1,0,0-9.536Zm-9.623,51.407a6.328,6.328,0,1,1-12.656,0v-7.368H38.577ZM48.2,117.107H43.269l-2.87-4.335h7.8a2.167,2.167,0,0,1,0,4.335Zm0,0" transform="translate(0 -81.738)"/><path class="b" d="M29.164,166.82l5.394-5.394,1.839,1.839L31,168.659Zm0,0" transform="translate(-24.103 -133.411)"/><path class="b" d="M70.844,142.069l1.839-1.839,1.839,1.839-1.839,1.839Zm0,0" transform="translate(-58.549 -115.893)"/><path class="b" d="M83.113,166.82l5.394-5.394,1.839,1.839-5.394,5.394Zm0,0" transform="translate(-68.689 -133.411)"/><path class="b" d="M124.793,142.073l1.839-1.839,1.839,1.839-1.838,1.839Zm0,0" transform="translate(-103.135 -115.896)"/><path class="b" d="M226.777,367.641h2.6v2.6h-2.6Zm0,0" transform="translate(-187.42 -303.837)"/><path class="b" d="M419.09,158.344h2.6v14.911h-2.6Zm0,0" transform="translate(-346.357 -130.863)"/><path class="b" d="M419.09,128.375h2.6v2.6h-2.6Zm0,0" transform="translate(-346.357 -106.096)"/></g></g></svg>