<?xml version="1.0" encoding="utf-8"?>
<!-- Generator: Adobe Illustrator 23.0.5, SVG Export Plug-In . SVG Version: 6.00 Build 0)  -->
<svg version="1.1" xmlns="http://www.w3.org/2000/svg" xmlns:xlink="http://www.w3.org/1999/xlink" x="0px" y="0px"
	 viewBox="0 0 200 200" style="enable-background:new 0 0 200 200;" xml:space="preserve">
<style type="text/css">
	.st0{fill:#1D2B44;}
	.st1{fill:#FFFFFF;}
	.st2{fill:#FCFCFC;}
</style>
<g id="Layer_1">
</g>
<g id="Layer_2">
</g>
<g id="Layer_3">
</g>
<g id="Layer_4">
	<g transform="translate(-33 -3649)">
		<circle class="st0" cx="133.6" cy="3749.5" r="93.5"/>
	</g>
	<g transform="translate(0 -9.567)">
		<path class="st1" d="M177,91.3L88.2,40.1C82.8,37,76.1,38.8,73,44.1L62.8,61.8L56,73.6c-3.1,5.3-1.2,12.1,4.1,15.2l30.5,17.6
			l-4.7,8.1c-1.3,2.2-3.6,3.5-6.1,3.5H61.8v-13.6c0-1.1-0.9-2-2-2c0,0,0,0,0,0H49v-2.6c0-4.9-4-8.8-8.8-8.8h-6c-1.1,0-2,0.9-2,2
			c0,0,0,0,0,0v67.6c0,1.1,0.9,2,2,2h6c4.9,0,8.8-4,8.8-8.8v-6.3h10.8c1.1,0,2-0.9,2-2v-9.8h17.8c8.8,0,16.9-4.7,21.4-12.2l4.8-8.2
			l16.7,9.6c1.7,1,3.6,1.5,5.5,1.5c1,0,2-0.1,2.9-0.4c1.8-0.5,3.5-1.4,4.8-2.7c2.2,1,4.6,1.5,7,1.5c1.5,0,3-0.2,4.4-0.6
			c3.6-1,6.8-3.1,9.1-6.1l4.1,2.4c1,0.6,2.2,0.2,2.7-0.7c0,0,0,0,0,0l14.8-25.6C178.3,93.1,178,91.9,177,91.3
			C177,91.3,177,91.3,177,91.3L177,91.3z M45,153.7c0,2.7-2.2,4.8-4.8,4.8h-4V95h4c2.7,0,4.8,2.2,4.8,4.8V153.7z M57.8,143.4H49v-37
			h8.8L57.8,143.4z M97.5,121.4c-3.7,6.4-10.6,10.3-17.9,10.3H61.8V122h17.8c3.9,0,7.6-2.1,9.6-5.5l4.8-8.1l8.4,4.8L97.5,121.4z
			 M124.4,121.4L62,85.3c-3.4-2-4.6-6.3-2.6-9.7l5.8-10.1l57.2,33l17.5,10.1l-5.8,10.1l0,0c-0.2,0.3-0.3,0.5-0.5,0.7l0,0
			C131.5,122.4,127.6,123.2,124.4,121.4L124.4,121.4z M146,120.3c-2.6,0.7-5.4,0.6-7.9-0.4l5.3-9.2l9.2,5.3
			C151,118.1,148.6,119.6,146,120.3L146,120.3z M160.5,115.9l-12.9-7.4l-3.9-2.2l-44-25.4L67.2,62.1l9.2-16c2-3.4,6.3-4.6,9.7-2.6
			l87.1,50.3L160.5,115.9z"/>
		<path class="st1" d="M152,105.1c1.2,0.7,2.5,1,3.8,1c4.2,0,7.7-3.4,7.7-7.7c0-4.2-3.4-7.7-7.7-7.7s-7.7,3.4-7.7,7.7
			C148.1,101.2,149.6,103.7,152,105.1z M152.6,96.6c0.5-0.8,1.3-1.5,2.2-1.7c2-0.5,4,0.6,4.5,2.6c0.5,2-0.6,4-2.6,4.5
			c-2,0.5-4-0.6-4.5-2.6C152,98.5,152.1,97.5,152.6,96.6L152.6,96.6z"/>
		<path class="st1" d="M84,84.9l-16.3-9.4c-1-0.6-2.2-0.2-2.7,0.7c-0.6,1-0.2,2.2,0.7,2.7l0,0L82,88.4c1,0.5,2.2,0.2,2.7-0.7
			C85.3,86.7,85,85.5,84,84.9z"/>
	</g>
</g>
<g id="Layer_5">
</g>
<g id="Layer_6">
</g>
<g id="Layer_7">
</g>
<g id="Layer_8">
</g>
<g id="Layer_9">
</g>
<g id="Layer_10">
</g>
<g id="Layer_11">
</g>
<g id="Layer_12">
</g>
<g id="Layer_13">
</g>
</svg>
