<?xml version="1.0" encoding="utf-8"?>
<!-- Generator: Adobe Illustrator 23.0.5, SVG Export Plug-In . SVG Version: 6.00 Build 0)  -->
<svg version="1.1" xmlns="http://www.w3.org/2000/svg" xmlns:xlink="http://www.w3.org/1999/xlink" x="0px" y="0px"
	 viewBox="0 0 200 200" style="enable-background:new 0 0 200 200;" xml:space="preserve">
<style type="text/css">
	.st0{fill:#1D2B44;}
	.st1{fill:#FFFFFF;}
	.st2{fill:#FCFCFC;}
</style>
<g id="Layer_1">
</g>
<g id="Layer_2">
</g>
<g id="Layer_3">
</g>
<g id="Layer_4">
</g>
<g id="Layer_5">
</g>
<g id="Layer_6">
</g>
<g id="Layer_7">
</g>
<g id="Layer_8">
</g>
<g id="Layer_9">
	<g transform="translate(-33 -3649)">
		<circle class="st0" cx="132.6" cy="3748.5" r="93.5"/>
	</g>
	<g transform="translate(-75.348 -90)">
		<g transform="translate(75.348 90)">
			<path class="st1" d="M51.9,100.2h56.5c1.5,0,2.7-1.2,2.7-2.7l0,0V80.9c0-1.5-1.2-2.7-2.7-2.7l0,0H51.9c-1.5,0-2.7,1.2-2.7,2.7
				l0,0v16.6C49.2,99,50.4,100.2,51.9,100.2L51.9,100.2L51.9,100.2z M54.6,83.6h51v11.2h-51L54.6,83.6z"/>
			<path class="st1" d="M49.2,152c0,1.5,1.2,2.7,2.7,2.7h0h56.5c1.5,0,2.7-1.2,2.7-2.7l0,0v-42.3c0-1.5-1.2-2.7-2.7-2.7l0,0H51.9
				c-1.5,0-2.7,1.2-2.7,2.7l0,0V152z M92.3,112.5h13.4v8.6H92.3V112.5z M92.3,126.6h13.4v8.6H92.3V126.6z M92.3,140.6h13.4v8.6H92.3
				V140.6z M73.5,112.5h13.4v8.6H73.5V112.5z M73.5,126.6h13.4v8.6H73.5V126.6z M73.5,140.7h13.4v8.6H73.5V140.7z M54.6,112.5H68
				v8.6H54.6L54.6,112.5z M54.6,126.6H68v8.6H54.6L54.6,126.6z M54.6,140.7H68v8.6H54.6L54.6,140.7z"/>
			<path class="st1" d="M140.7,125.9c2.1,0,4.2-0.8,5.8-2.2c3.4,3.2,8.8,3,11.9-0.5c3.2-3.4,3-8.8-0.5-11.9c-3.2-3-8.2-3-11.5,0
				c-3.4-3.2-8.8-3-11.9,0.4c-3.2,3.4-3,8.8,0.4,11.9C136.5,125.1,138.6,125.9,140.7,125.9z M152.2,114.5c1.6,0,3,1.4,2.9,3
				c0,1.6-1.4,3-3,2.9c-1.6,0-2.9-1.4-2.9-3C149.2,115.8,150.6,114.5,152.2,114.5L152.2,114.5z M140.7,114.5c1.6,0,3,1.4,2.9,3
				c0,1.6-1.4,3-3,2.9c-1.6,0-2.9-1.4-2.9-3C137.7,115.8,139.1,114.5,140.7,114.5z"/>
			<path class="st1" d="M73,46.2h14.4c1.5,0,2.7-1.2,2.7-2.7s-1.2-2.7-2.7-2.7H73c-1.5,0-2.7,1.2-2.7,2.7S71.5,46.2,73,46.2L73,46.2
				z"/>
			<path class="st1" d="M73,57.1h14.4c1.5,0,2.7-1.2,2.7-2.7c0-1.5-1.2-2.7-2.7-2.7H73c-1.5,0-2.7,1.2-2.7,2.7
				C70.2,55.9,71.5,57.1,73,57.1L73,57.1z"/>
			<path class="st1" d="M166.2,81.7h-42.7V62.8c0-4.8-3.9-8.6-8.7-8.6h-14V46h11.7c1.5,0,2.7-1.2,2.7-2.7c0,0,0,0,0,0v-6
				c0-5.5-4.5-9.9-9.9-9.9H65.7c-3.4,0-6.2,2.8-6.2,6.2v20.6h-14c-4.8,0-8.6,3.8-8.7,8.6v34.4c0,1.5,1.2,2.7,2.7,2.7
				c1.5,0,2.7-1.2,2.7-2.7V62.8c0-1.8,1.5-3.2,3.2-3.2h14v6.2h-5.8c-1.5,0-2.7,1.2-2.7,2.7s1.2,2.7,2.7,2.7c0,0,0,0,0,0h52.2
				c1.5,0,2.7-1.2,2.7-2.7c0-1.5-1.2-2.7-2.7-2.7h-5v-6.2h14c1.8,0,3.2,1.4,3.2,3.2v95.6c0,1.8-1.4,3.2-3.2,3.2H45.5
				c-1.8,0-3.2-1.4-3.2-3.2v-35.5c0-1.5-1.2-2.7-2.7-2.7c-1.5,0-2.7,1.2-2.7,2.7c0,0,0,0,0,0v35.5c0,4.8,3.9,8.6,8.7,8.6h69.3
				c4.8,0,8.6-3.8,8.7-8.6v-21.2h42.7c3.7,0,6.8-3,6.8-6.7v-42C173,84.7,170,81.7,166.2,81.7z M100.9,38.2v-0.9
				c0.1-2.5,2.1-4.4,4.6-4.3c2.4,0.1,4.3,2,4.3,4.3v3.3h-8.9V38.2z M95.4,37.3v28.6H64.9V33.6c0-0.4,0.3-0.7,0.8-0.7h30.8
				C95.8,34.2,95.4,35.7,95.4,37.3L95.4,37.3z M167.6,130.5c0,0.7-0.6,1.3-1.3,1.3h-42.8V99.1h44.1V130.5z M167.6,93.7h-44.1v-6.5
				h42.7c0.7,0,1.3,0.6,1.3,1.3L167.6,93.7z"/>
			<path class="st1" d="M39.6,113.3c1.5,0,2.7-1.2,2.7-2.7v0c0-1.5-1.2-2.7-2.7-2.7c-1.5,0-2.7,1.2-2.7,2.7
				C36.9,112.1,38.1,113.3,39.6,113.3L39.6,113.3z"/>
		</g>
	</g>
</g>
<g id="Layer_10">
</g>
<g id="Layer_11">
</g>
<g id="Layer_12">
</g>
<g id="Layer_13">
</g>
</svg>
