<?xml version="1.0" encoding="utf-8"?>
<!-- Generator: Adobe Illustrator 23.0.5, SVG Export Plug-In . SVG Version: 6.00 Build 0)  -->
<svg version="1.1" xmlns="http://www.w3.org/2000/svg" xmlns:xlink="http://www.w3.org/1999/xlink" x="0px" y="0px"
	 viewBox="0 0 200 200" style="enable-background:new 0 0 200 200;" xml:space="preserve">
<style type="text/css">
	.st0{fill:#1D2B44;}
	.st1{fill:#FFFFFF;}
	.st2{fill:#FCFCFC;}
</style>
<g id="Layer_1">
</g>
<g id="Layer_2">
</g>
<g id="Layer_3">
</g>
<g id="Layer_4">
</g>
<g id="Layer_5">
	<g transform="translate(-33 -3649)">
		<circle class="st0" cx="132.6" cy="3750.5" r="93.5"/>
	</g>
	<g transform="translate(0 -118.273)">
		<path class="st1" d="M182.9,194.3l-2.8-14.6c-0.7-2.8-3.5-4.5-6.3-4l-106,20.6v-0.5c0-6.9-5.6-12.6-12.6-12.6H41.5
			c-6.9,0-12.6,5.6-12.6,12.6v47h-1.4c-2.5,0-4.5,2-4.5,4.5v9.9c0,2.5,2,4.5,4.5,4.5h24.7c1.3,0,2.3-1,2.3-2.3s-1-2.3-2.3-2.3H27.7
			v-9.5H69v9.5h-5.1c-1.3,0-2.3,1-2.3,2.3s1,2.3,2.3,2.3h5.3c2.5,0,4.5-2,4.5-4.5v-9.9c0-2.5-2-4.5-4.5-4.5h-1.4V222l111.1-21.6
			C181.6,199.8,183.4,197.1,182.9,194.3z M176.5,186l1.7,8.9c0.1,0.4-0.2,0.8-0.6,0.9l-8.9,1.7L176.5,186z M174.6,180.3
			c0,0,0.1,0,0.1,0l-12.5,18.5l-11.4,2.2l5.6-8.2c0.7-1.1,0.4-2.5-0.6-3.3c-1.1-0.7-2.5-0.4-3.3,0.6l-8.2,12.1l-11.4,2.2l12.5-18.6
			L174.6,180.3z M114.9,208l12.5-18.6l11.4-2.2l-12.5,18.6L114.9,208z M79,215l12.5-18.6l11.4-2.2l-12.5,18.6L79,215z M120.9,190.7
			l-12.5,18.6l-11.4,2.2l12.5-18.6L120.9,190.7z M33.6,242.8v-47c0-4.4,3.5-7.9,7.9-7.9h13.6c4.3,0,7.9,3.5,7.9,7.9v47L33.6,242.8
			L33.6,242.8z M67.7,208.6l5.9-8.7l11.4-2.2l-12.5,18.6l-4.8,0.9V208.6L67.7,208.6z"/>
		<path class="st1" d="M51.9,201c-5.3-1.9-11.2,0.8-13.1,6.1c0,0,0,0,0,0c-0.4,1.2,0.2,2.6,1.4,3c1.2,0.4,2.5-0.2,3-1.4
			c1.1-2.9,4.3-4.4,7.1-3.3c2.9,1.1,4.4,4.3,3.3,7.1c-0.5,1.4-1.5,2.5-2.9,3.1c-1.3,0.6-2.9,0.7-4.3,0.2c-1.2-0.4-2.6,0.2-3,1.4
			c-0.4,1.2,0.2,2.5,1.4,3c5.3,1.9,11.2-0.8,13.1-6.1C59.9,208.8,57.2,202.9,51.9,201L51.9,201z"/>
		<circle class="st1" cx="43.1" cy="232.6" r="3.2"/>
		<path class="st1" d="M53.6,229.3c-1.8,0-3.2,1.4-3.2,3.2c0,1.8,1.4,3.2,3.2,3.2c1.8,0,3.2-1.4,3.2-3.2l0,0
			C56.8,230.8,55.4,229.3,53.6,229.3z"/>
	</g>
</g>
<g id="Layer_6">
</g>
<g id="Layer_7">
</g>
<g id="Layer_8">
</g>
<g id="Layer_9">
</g>
<g id="Layer_10">
</g>
<g id="Layer_11">
</g>
<g id="Layer_12">
</g>
<g id="Layer_13">
</g>
</svg>
