<?xml version="1.0" encoding="utf-8"?>
<!-- Generator: Adobe Illustrator 23.0.5, SVG Export Plug-In . SVG Version: 6.00 Build 0)  -->
<svg version="1.1" id="Layer_1" xmlns="http://www.w3.org/2000/svg" xmlns:xlink="http://www.w3.org/1999/xlink" x="0px" y="0px"
	 viewBox="0 0 145 145" style="enable-background:new 0 0 145 145;" xml:space="preserve">
<style type="text/css">
	.st0{fill:#1D2B44;}
	.st1{display:none;}
	.st2{display:inline;fill:#FFFFFF;}
	.st3{display:inline;}
	.st4{fill:#FFFFFF;}
</style>
<g transform="translate(-761 -5328)">
	<circle class="st0" cx="833.5" cy="5401.4" r="70.6"/>
	<g transform="translate(789 5356.488)" class="st1">
		<path class="st2" d="M84.2,55.7h-4.3v2.9h-2.3L76,47.9c-0.3-2.1-2.1-3.6-4.2-3.6H43.9c-2.1,0-3.9,1.5-4.2,3.6L38,58.5h-2.3v-2.9
			h-4.3c-2.4,0-4.3,1.9-4.3,4.3c0,2.4,1.9,4.3,4.3,4.3l0,0h4.3v-2.9h1.8L37.2,63c-2.8,1.9-4.4,5-4.4,8.3v8.6h2.9v2.9
			c0,1,0.3,2,0.8,2.9H24.3V39.5c10.8-2.4,17.6-13,15.2-23.8S26.5-1.9,15.7,0.5s-17.6,13-15.2,23.8c1.7,7.6,7.6,13.6,15.2,15.2v46.2
			h-10v2.9h77.1v-2.9h-3.6c0.5-0.9,0.8-1.8,0.8-2.9v-2.9h2.9v-8.6c0-3.3-1.7-6.5-4.4-8.3l-0.3-1.7H80v2.9h4.3c2.4,0,4.3-1.9,4.3-4.3
			S86.6,55.7,84.2,55.7L84.2,55.7z M32.8,61.4h-1.4c-0.8,0-1.4-0.6-1.5-1.4c0-0.8,0.6-1.4,1.4-1.5h0.1h1.4V61.4z M21.4,85.7h-2.9
			v-40h2.9V85.7z M21.4,42.8h-2.9v-2.9c0.5,0,0.9,0.1,1.4,0.1s1,0,1.4-0.1L21.4,42.8z M20,37.1c-9.5,0-17.1-7.7-17.1-17.1
			c0-9.5,7.7-17.1,17.1-17.1c9.5,0,17.1,7.7,17.1,17.1S29.4,37.1,20,37.1L20,37.1z M42.4,48.3c0.1-0.7,0.7-1.2,1.4-1.2h27.9
			c0.7,0,1.3,0.5,1.4,1.2l2.1,13.4c-0.8-0.2-1.6-0.3-2.4-0.3h-30c-0.8,0-1.6,0.1-2.4,0.3L42.4,48.3z M35.7,77.1v-4.3h12.8v4.3H35.7z
			 M44.3,82.8c0,1.6-1.3,2.9-2.9,2.9c-1.6,0-2.9-1.3-2.9-2.9v-2.9h5.7v2.9H44.3z M46.3,85.7c0.5-0.9,0.8-1.8,0.8-2.9v-2.9h21.4v2.9
			c0,1,0.3,2,0.8,2.9H46.3z M51.4,77.1v-5.7c0-0.8,0.6-1.4,1.4-1.4h10c0.8,0,1.4,0.6,1.4,1.4v5.7H51.4z M77.1,82.8
			c0,1.6-1.3,2.9-2.9,2.9s-2.9-1.3-2.9-2.9v-2.9H77L77.1,82.8L77.1,82.8z M79.9,77.1H67.1v-4.3h12.8V77.1z M79.8,70h-13
			c-0.6-1.7-2.2-2.8-4-2.9h-10c-1.8,0-3.4,1.1-4,2.9h-13c0.7-3.3,3.6-5.7,7-5.7h30C76.2,64.2,79.1,66.6,79.8,70z M84.2,61.4h-1.4
			v-2.9h1.4c0.8,0,1.4,0.7,1.4,1.5S85,61.4,84.2,61.4L84.2,61.4z"/>
		<g transform="translate(14.276 9.993)" class="st3">
			<path class="st4" d="M8.6,0H0v18.6h2.9v-7.1h5.7c3.2,0,5.7-2.6,5.7-5.7S11.7,0,8.6,0L8.6,0z M8.6,8.6H2.9V2.9h5.7
				c1.6,0,2.9,1.3,2.9,2.9C11.4,7.3,10.1,8.6,8.6,8.6z"/>
		</g>
		<g transform="translate(45.614 55.252)" class="st3">
			<g transform="translate(0 0)">
				<rect x="0.4" y="0.3" class="st4" width="18" height="4"/>
			</g>
		</g>
		<g transform="translate(67.471 55.252)" class="st3">
			<g transform="translate(0 0)">
				<rect x="-0.5" y="0.3" class="st4" width="3" height="4"/>
			</g>
		</g>
		<g transform="translate(85.526 85.661)" class="st3">
			<g transform="translate(0 0)">
				<rect x="0.5" y="-0.1" class="st4" width="2" height="3"/>
			</g>
		</g>
		<g transform="translate(0 85.661)" class="st3">
			<g transform="translate(0 0)">
				<rect y="-0.1" class="st4" width="3" height="3"/>
			</g>
		</g>
	</g>
</g>
<g class="st1">
	<g class="st3">
		<path class="st4" d="M123.1,112.3H20.9c-0.9,0-1.6-0.7-1.6-1.6s0.7-1.6,1.6-1.6h102.2c0.9,0,1.6,0.7,1.6,1.6
			C124.8,111.6,124,112.3,123.1,112.3z"/>
	</g>
	<g class="st3">
		<path class="st4" d="M123.1,112.3c-0.9,0-1.6-0.7-1.6-1.6V59.5c0-0.9,0.7-1.6,1.6-1.6s1.6,0.7,1.6,1.6v51.1
			C124.8,111.6,124,112.3,123.1,112.3z"/>
	</g>
	<g class="st3">
		<path class="st4" d="M90.2,112.3c-0.9,0-1.6-0.7-1.6-1.6V59.5c0-0.9,0.7-1.6,1.6-1.6s1.6,0.7,1.6,1.6v51.1
			C91.8,111.6,91.1,112.3,90.2,112.3z"/>
	</g>
	<g class="st3">
		<path class="st4" d="M53.9,112.3c-0.9,0-1.6-0.7-1.6-1.6V59.5c0-0.9,0.7-1.6,1.6-1.6c0.9,0,1.6,0.7,1.6,1.6v51.1
			C55.5,111.6,54.8,112.3,53.9,112.3z"/>
	</g>
	<g class="st3">
		<path class="st4" d="M20.9,112.3c-0.9,0-1.6-0.7-1.6-1.6V59.5c0-0.9,0.7-1.6,1.6-1.6s1.6,0.7,1.6,1.6v51.1
			C22.5,111.6,21.8,112.3,20.9,112.3z"/>
	</g>
	<g class="st3">
		<path class="st4" d="M123.1,61.2h-3.3c-0.9,0-1.6-0.7-1.6-1.6c0-0.9,0.7-1.6,1.6-1.6h3.3c0.9,0,1.6,0.7,1.6,1.6
			C124.8,60.4,124,61.2,123.1,61.2z"/>
	</g>
	<g class="st3">
		<path class="st4" d="M24.2,61.2h-3.3c-0.9,0-1.6-0.7-1.6-1.6c0-0.9,0.7-1.6,1.6-1.6h3.3c0.9,0,1.6,0.7,1.6,1.6
			C25.8,60.4,25.1,61.2,24.2,61.2z"/>
	</g>
	<g class="st3">
		<path class="st4" d="M93.5,61.2h-6.6c-0.9,0-1.6-0.7-1.6-1.6c0-0.9,0.7-1.6,1.6-1.6h6.6c0.9,0,1.6,0.7,1.6,1.6
			C95.1,60.4,94.4,61.2,93.5,61.2z"/>
	</g>
	<g class="st3">
		<path class="st4" d="M57.2,61.2h-6.6c-0.9,0-1.6-0.7-1.6-1.6c0-0.9,0.7-1.6,1.6-1.6h6.6c0.9,0,1.6,0.7,1.6,1.6
			C58.8,60.4,58.1,61.2,57.2,61.2z"/>
	</g>
	<g class="st3">
		<g>
			<path class="st4" d="M119.8,87.6"/>
		</g>
		<g>
			<path class="st4" d="M93.6,87.6"/>
		</g>
	</g>
	<g class="st3">
		<g>
			<g>
				<path class="st4" d="M62.1,64.4c-0.9,0-1.6-0.7-1.6-1.6v-28c0-0.9,0.7-1.6,1.6-1.6c0.9,0,1.6,0.7,1.6,1.6v28
					C63.8,63.7,63,64.4,62.1,64.4z"/>
			</g>
			<g>
				<path class="st4" d="M62.1,36.4c-0.9,0-1.6-0.7-1.6-1.6c0-2.7,2.2-4.9,4.9-4.9c0.9,0,1.6,0.7,1.6,1.6c0,0.9-0.7,1.6-1.6,1.6
					s-1.7,0.7-1.7,1.6C63.8,35.7,63,36.4,62.1,36.4z"/>
			</g>
			<g>
				<path class="st4" d="M68.7,71c-2.2,0-4.3-0.9-5.8-2.4s-2.4-3.6-2.4-5.8c0-0.9,0.7-1.6,1.6-1.6c0.9,0,1.6,0.7,1.6,1.6
					c0,1.3,0.5,2.6,1.4,3.5s2.2,1.4,3.5,1.4c0.9,0,1.6,0.7,1.6,1.6C70.4,70.3,69.6,71,68.7,71z"/>
			</g>
		</g>
		<g>
			<g>
				<path class="st4" d="M81.9,64.4c-0.9,0-1.6-0.7-1.6-1.6v-28c0-0.9,0.7-1.6,1.6-1.6s1.6,0.7,1.6,1.6v28
					C83.6,63.7,82.8,64.4,81.9,64.4z"/>
			</g>
			<g>
				<path class="st4" d="M81.9,36.4c-0.9,0-1.6-0.7-1.6-1.6c0-0.9-0.7-1.6-1.6-1.6s-1.6-0.7-1.6-1.6s0.7-1.6,1.6-1.6
					c2.7,0,4.9,2.2,4.9,4.9C83.6,35.7,82.8,36.4,81.9,36.4z"/>
			</g>
			<g>
				<path class="st4" d="M75.3,71c-0.9,0-1.6-0.7-1.6-1.6s0.7-1.6,1.6-1.6c2.7,0,4.9-2.2,4.9-4.9c0-0.9,0.7-1.6,1.6-1.6
					s1.6,0.7,1.6,1.6C83.6,67.3,79.9,71,75.3,71z"/>
			</g>
		</g>
		<g>
			<path class="st4" d="M78.6,33.1H65.4c-0.9,0-1.6-0.7-1.6-1.6s0.7-1.6,1.6-1.6h13.2c0.9,0,1.6,0.7,1.6,1.6
				C80.3,32.4,79.5,33.1,78.6,33.1z"/>
		</g>
		<g>
			<path class="st4" d="M67.1,54.6c-0.4,0-0.9-0.2-1.2-0.5c-0.3-0.3-0.5-0.7-0.5-1.2V38.1c0-0.9,0.7-1.6,1.6-1.6h10
				c0.9,0,1.6,0.7,1.6,1.6v14.8c0,0.9-0.7,1.6-1.6,1.6L67.1,54.6z M68.7,39.7v11.5h6.6V39.7H68.7z"/>
		</g>
		<g>
			<path class="st4" d="M78.6,59.5c-0.7,0-1.3-0.4-1.6-1.1l-1.6-4.9c-0.3-0.9,0.2-1.8,1-2.1c0.9-0.3,1.8,0.2,2.1,1l1.6,4.9
				c0.3,0.9-0.2,1.8-1,2.1C79,59.5,78.8,59.5,78.6,59.5L78.6,59.5z"/>
		</g>
		<g>
			<path class="st4" d="M65.4,59.5c-0.2,0-0.3,0-0.5-0.1c-0.9-0.3-1.3-1.2-1-2.1l1.6-4.9c0.3-0.9,1.2-1.3,2.1-1s1.3,1.2,1,2.1
				L67,58.4C66.7,59.1,66.1,59.5,65.4,59.5z"/>
		</g>
		<g>
			<path class="st4" d="M72,61.1c-4,0-6.4-0.5-7.6-1.7c-0.7-0.7-0.7-1.4-0.7-1.6c0-0.9,0.8-1.7,1.7-1.6c0.7,0,1.2,0.4,1.5,1
				c0.3,0.2,1.6,0.7,5.1,0.7s4.8-0.5,5.1-0.7c0.2-0.6,0.8-1,1.5-1c0.9-0.1,1.7,0.7,1.7,1.6c0,0.3,0,1-0.7,1.6
				C78.4,60.6,76,61.1,72,61.1L72,61.1z"/>
		</g>
		<g>
			<path class="st4" d="M75.3,71h-6.6c-0.9,0-1.6-0.7-1.6-1.6s0.7-1.6,1.6-1.6h6.6c0.9,0,1.6,0.7,1.6,1.6C77,70.3,76.2,71,75.3,71z"
				/>
		</g>
		<g>
			<path class="st4" d="M83.6,54.6H82c-0.9,0-1.6-0.7-1.6-1.6c0-0.9,0.7-1.6,1.6-1.6h1.6c0.9,0,1.6,0.7,1.6,1.6
				C85.2,53.8,84.5,54.6,83.6,54.6z"/>
		</g>
		<g>
			<path class="st4" d="M62.1,54.6h-1.6c-0.9,0-1.6-0.7-1.6-1.6c0-0.9,0.7-1.6,1.6-1.6h1.6c0.9,0,1.6,0.7,1.6,1.6
				C63.8,53.8,63,54.6,62.1,54.6z"/>
		</g>
		<g>
			<path class="st4" d="M67.1,39.7c-0.5,0-1.1-0.3-1.4-0.7l-3.8-5.7c-0.5-0.8-0.3-1.8,0.5-2.3s1.8-0.3,2.3,0.5l3.8,5.7
				C69,38,68.8,39,68,39.5C67.7,39.6,67.4,39.7,67.1,39.7L67.1,39.7z"/>
		</g>
		<g>
			<path class="st4" d="M77,39.7c-0.3,0-0.6-0.1-0.9-0.3c-0.8-0.5-1-1.5-0.5-2.3l3.8-5.7c0.5-0.8,1.5-1,2.3-0.5s1,1.5,0.5,2.3
				L78.3,39C78,39.5,77.5,39.7,77,39.7z"/>
		</g>
	</g>
	<g class="st3">
		<path class="st4" d="M72,105.7c-0.9,0-1.6-0.7-1.6-1.6V76c0-0.9,0.7-1.6,1.6-1.6s1.6,0.7,1.6,1.6v28C73.7,105,72.9,105.7,72,105.7
			L72,105.7z"/>
	</g>
	<g class="st3">
		<path class="st4" d="M72,105.7c-0.4,0-0.8-0.2-1.2-0.5c-0.6-0.6-0.6-1.7,0-2.3l3.3-3.3c0.6-0.6,1.7-0.6,2.3,0s0.6,1.7,0,2.3
			l-3.3,3.3C72.9,105.5,72.4,105.7,72,105.7z"/>
	</g>
	<g class="st3">
		<path class="st4" d="M72,105.7c-0.4,0-0.8-0.2-1.2-0.5l-3.3-3.3c-0.6-0.6-0.6-1.7,0-2.3c0.6-0.6,1.7-0.6,2.3,0l3.3,3.3
			c0.6,0.6,0.6,1.7,0,2.3C72.9,105.5,72.4,105.7,72,105.7z"/>
	</g>
</g>
<g class="st1">
	<path class="st2" d="M112,46.2h-1.9c4.8-5.4,4.4-13.7-1-18.6s-13.7-4.4-18.6,1c-4.5,5-4.5,12.5,0,17.5h-18V31.6
		c0-0.8-0.7-1.5-1.5-1.5h-5.8c-0.8,0-1.5,0.7-1.5,1.5v14.6h-1.5V25.7c0-0.8-0.7-1.5-1.5-1.5H55c-0.8,0-1.5,0.7-1.5,1.5v20.4h-1.5
		V35.9c0-0.8-0.7-1.5-1.5-1.5h-5.8c-0.8,0-1.5,0.7-1.5,1.5v10.2H33.1c-3.2,0-5.8,2.6-5.8,5.8v43.8c0,3.2,2.6,5.8,5.8,5.8h30.1
		l-1.9,5.8h-4.8c-0.8,0-1.5,0.7-1.5,1.5v2.9H40.4c-0.8,0-1.5,0.7-1.5,1.5s0.7,1.5,1.5,1.5h64.2c0.8,0,1.5-0.7,1.5-1.5
		s-0.7-1.5-1.5-1.5H90.1v-2.9c0-0.8-0.7-1.5-1.5-1.5h-4.8l-1.9-5.8H112c3.2,0,5.8-2.6,5.8-5.8V52C117.8,48.8,115.2,46.2,112,46.2z
		 M101.7,27.3c4.5,0.7,8,4.2,8.7,8.7h-8.7V27.3z M100.9,38.9h9.5c-0.8,5.6-6,9.5-11.6,8.7c-1.7-0.2-3.3-0.9-4.7-1.9L100.9,38.9z
		 M90.1,37.4c0-5.1,3.7-9.4,8.8-10.1v9.5l-6.7,6.7C90.8,41.7,90.1,39.6,90.1,37.4z M66.7,33h2.9v27.7h-2.9V33z M62.3,49.1h1.5v11.7
		h-1.5V49.1z M56.5,27.2h2.9v33.6h-2.9V27.2z M52.1,49.1h1.5v11.7h-1.5V49.1z M46.3,37.4h2.9v23.4h-2.9V37.4z M87.1,110.4v1.5H58
		v-1.5H87.1z M64.4,107.5l1.9-5.8h12.5l1.9,5.8H64.4z M114.9,95.8c0,1.6-1.3,2.9-2.9,2.9H33.1c-1.6,0-2.9-1.3-2.9-2.9v-2.9h84.7
		V95.8z M114.9,89.9H30.2V52c0-1.6,1.3-2.9,2.9-2.9h10.2v11.7h-1.5V52c0-0.8-0.7-1.5-1.5-1.5h-5.8c-0.8,0-1.5,0.7-1.5,1.5v10.2
		c0,0.8,0.7,1.5,1.5,1.5h46.7c0.8,0,1.5-0.7,1.5-1.5V52c0-0.8-0.7-1.5-1.5-1.5h-5.8c-0.8,0-1.5,0.7-1.5,1.5v8.8h-1.5V49.1h21.7
		c3.8,1.9,8.2,1.9,12,0h5.7c1.6,0,2.9,1.3,2.9,2.9V89.9z M39,53.4v7.3h-2.9v-7.3H39z M76.9,60.7v-7.3h2.9v7.3H76.9z"/>
	<path class="st2" d="M43.4,94.3h-8.8c-0.8,0-1.5,0.7-1.5,1.5s0.7,1.5,1.5,1.5h8.8c0.8,0,1.5-0.7,1.5-1.5S44.2,94.3,43.4,94.3z"/>
	<path class="st2" d="M49.2,94.3h-1.5c-0.8,0-1.5,0.7-1.5,1.5s0.7,1.5,1.5,1.5h1.5c0.8,0,1.5-0.7,1.5-1.5S50,94.3,49.2,94.3z"/>
	<path class="st2" d="M88.6,60.7c0.4,0,0.8-0.2,1-0.4l5.4-5.4h12.5c0.8,0,1.5-0.7,1.5-1.5s-0.7-1.5-1.5-1.5H94.4
		c-0.4,0-0.8,0.2-1,0.4l-5.8,5.8c-0.6,0.6-0.6,1.5,0,2.1C87.8,60.6,88.2,60.7,88.6,60.7z"/>
	<path class="st2" d="M107.6,76.8c-1.6,0-3,0.8-3.8,2.2l-15.3-8.9c-0.5-2.4-2.8-3.9-5.2-3.4c-1.7,0.4-3.1,1.7-3.4,3.5L64.5,81.7
		c-1.3-2-4-2.6-6.1-1.3c-0.6,0.4-1.2,1-1.5,1.7l-15.2-6.3c-0.6-2.4-2.9-3.8-5.3-3.2c-2.4,0.6-3.8,2.9-3.2,5.3
		c0.6,2.4,2.9,3.8,5.3,3.2c1.2-0.3,2.3-1.1,2.9-2.3l15.2,6.3c0.6,2.4,2.9,3.8,5.3,3.2c1.7-0.4,3-1.8,3.3-3.5l15.4-11.5
		c1.3,2,4,2.6,6.1,1.3c0.6-0.4,1.1-0.9,1.4-1.5l15.3,8.9c0.5,2.4,2.8,3.9,5.2,3.4c2.4-0.5,3.9-2.8,3.4-5.2
		C111.4,78.3,109.7,76.8,107.6,76.8z M39,76.8c0,0.8-0.7,1.5-1.5,1.5c-0.8,0-1.5-0.7-1.5-1.5c0-0.8,0.7-1.5,1.5-1.5
		C38.3,75.3,39,76,39,76.8L39,76.8z M60.9,85.6c-0.8,0-1.5-0.7-1.5-1.5v0c0-0.8,0.7-1.5,1.5-1.5c0.8,0,1.5,0.7,1.5,1.5
		C62.3,84.9,61.7,85.6,60.9,85.6z M84.2,72.4c-0.8,0-1.5-0.7-1.5-1.5s0.7-1.5,1.5-1.5s1.5,0.7,1.5,1.5C85.7,71.8,85,72.4,84.2,72.4z
		 M107.6,82.6c-0.8,0-1.5-0.7-1.5-1.5s0.7-1.5,1.5-1.5s1.5,0.7,1.5,1.5C109,82,108.4,82.6,107.6,82.6z"/>
	<path class="st2" d="M95.9,85.6H85.7c-0.8,0-1.5,0.7-1.5,1.5s0.7,1.5,1.5,1.5h10.2c0.8,0,1.5-0.7,1.5-1.5S96.7,85.6,95.9,85.6z"/>
	<path class="st2" d="M95.9,81.2h-4.4c-0.8,0-1.5,0.7-1.5,1.5s0.7,1.5,1.5,1.5h4.4c0.8,0,1.5-0.7,1.5-1.5S96.7,81.2,95.9,81.2z"/>
	<path class="st2" d="M34.6,68h16.1c0.8,0,1.5-0.7,1.5-1.5s-0.7-1.5-1.5-1.5H34.6c-0.8,0-1.5,0.7-1.5,1.5S33.8,68,34.6,68z"/>
	<path class="st2" d="M55,68h1.5c0.8,0,1.5-0.7,1.5-1.5s-0.7-1.5-1.5-1.5H55c-0.8,0-1.5,0.7-1.5,1.5S54.2,68,55,68z"/>
</g>
<g class="st1">
	<path class="st2" d="M104.7,54.1l12.5-12.5l-2.3-2.3l-10.2,10.2l-3.7-3.7l-2.3,2.3L104.7,54.1z"/>
	<path class="st2" d="M56,48.6h3.2v3.2H56V48.6z"/>
	<path class="st2" d="M49.5,48.6h3.2v3.2h-3.2V48.6z"/>
	<path class="st2" d="M43,48.6h3.2v3.2H43V48.6z"/>
	<path class="st2" d="M69,48.6h3.2v3.2H69V48.6z"/>
	<path class="st2" d="M82,48.6h3.2v3.2H82V48.6z"/>
	<path class="st2" d="M36.5,48.6h3.2v3.2h-3.2V48.6z"/>
	<path class="st2" d="M62.5,48.6h3.2v3.2h-3.2V48.6z"/>
	<path class="st2" d="M75.5,48.6h3.2v3.2h-3.2V48.6z"/>
	<path class="st2" d="M124.2,45.4c0-9-7.3-16.2-16.2-16.2c-5.3,0-10,2.6-13,6.5H28.4c-2.7,0-4.9,2.2-4.9,4.9v55.2
		c0,2.7,2.2,4.9,4.9,4.9h29.9l0.1,0.1c0.6,1.2,0.9,2.5,0.9,3.8v6.7c0,1.7,0.4,3.5,1.2,5.1l3.7,7.4v6l29.2,0.1v-6l2.6-3.5
		c1.5-2,2.3-4.4,2.3-6.8v-13h14.6c2.7,0,4.9-2.2,4.9-4.9V58.3C121.6,55.3,124.2,50.7,124.2,45.4L124.2,45.4z M107.9,32.4
		c7.2,0,13,5.8,13,13s-5.8,13-13,13c-7.2,0-13-5.8-13-13S100.8,32.4,107.9,32.4z M95,55.1H33.3v-9.7h58.4C91.7,49,92.9,52.4,95,55.1
		z M95,113.5c0,1.7-0.6,3.5-1.6,4.9l-3.2,4.3v3.8l-22.7-0.1v-3.6l-4-8.1c-0.6-1.1-0.8-2.4-0.8-3.6v-6.7c0-1.8-0.4-3.7-1.2-5.3
		l-1.9-3.8c-0.1-0.1-0.1-0.3-0.1-0.4c0-0.6,0.5-1,1.2-1c4.7,0,8.6,3.9,8.6,8.6v2.8v3.2h3.2v-3.2v-2.8V77.8c0-0.9,0.7-1.6,1.6-1.6
		c0.9,0,1.6,0.7,1.6,1.6v14.6v6.5h3.2v-6.5c0-0.9,0.7-1.6,1.6-1.6s1.6,0.7,1.6,1.6v6.5h3.2v-6.5c0-0.9,0.7-1.6,1.6-1.6
		s1.6,0.7,1.6,1.6v3.2v3.2h3.2v-3.2c0-0.9,0.7-1.6,1.6-1.6s1.6,0.7,1.6,1.6V113.5z M114.4,95.7c0,0.9-0.7,1.6-1.6,1.6H98.2v-1.6
		c0-2.7-2.2-4.9-4.9-4.9c-0.6,0-1.2,0.1-1.8,0.4c-0.6-2.1-2.4-3.6-4.7-3.6c-1.3,0-2.4,0.5-3.2,1.3c-0.9-0.8-2-1.3-3.2-1.3
		c-0.6,0-1.1,0.1-1.6,0.3v-10c0-2.7-2.2-4.9-4.9-4.9S69,75.1,69,77.8v16.7c-2.2-2.3-5.3-3.7-8.7-3.7c-2.3,0-4.2,1.9-4.3,4.2
		c0,0.7,0.2,1.3,0.4,1.9l0.2,0.4H28.4c-0.9,0-1.6-0.7-1.6-1.6V40.5c0-0.9,0.7-1.6,1.6-1.6h64.7c-0.5,1-0.8,2.1-1,3.2H30v16.2h68.2
		c2.7,2,6.1,3.2,9.7,3.2c2.3,0,4.5-0.5,6.5-1.4V95.7z"/>
	<path class="st2" d="M39.8,61.6c-5.4,0-9.7,4.4-9.7,9.7s4.4,9.7,9.7,9.7s9.7-4.4,9.7-9.7S45.1,61.6,39.8,61.6z M39.8,77.8
		c-3.6,0-6.5-2.9-6.5-6.5s2.9-6.5,6.5-6.5s6.5,2.9,6.5,6.5S43.4,77.8,39.8,77.8z"/>
	<path class="st2" d="M56,71.3h9.7v-9.7H56V71.3z M59.2,64.8h3.2v3.2h-3.2V64.8z"/>
	<path class="st2" d="M56,84.3h9.7v-9.7H56V84.3z M59.2,77.8h3.2v3.2h-3.2V77.8z"/>
	<path class="st2" d="M69,71.3h9.7v-9.7H69V71.3z M72.2,64.8h3.2v3.2h-3.2V64.8z"/>
	<path class="st2" d="M82,71.3h9.7v-9.7H82V71.3z M85.2,64.8h3.2v3.2h-3.2V64.8z"/>
	<path class="st2" d="M82,84.3h9.7v-9.7H82V84.3z M85.2,77.8h3.2v3.2h-3.2V77.8z"/>
	<path class="st2" d="M95,87.6h16.2V64.8H95V87.6z M98.2,68.1h9.7v16.2h-9.7V68.1z"/>
	<path class="st2" d="M30,94.1h19.5v-9.7H30V94.1z M33.3,87.6h13v3.2h-13V87.6z"/>
</g>
<path class="st4" d="M87.6,27.3h-34c-4.7,0-8.5,3.8-8.5,8.5v5.1c-9.4,0-17,7.6-17,17s7.6,17,17,17v32.3c0,4.7,3.8,8.5,8.5,8.5h23.7
	l0,0.1v11.8c0,0.9,0.8,1.7,1.7,1.7h25.5c0.9,0,1.7-0.8,1.7-1.7V116l3.3-9.1c0.1-0.2,0.1-0.4,0.1-0.6V85.1c0-2.8-2.3-5.1-5.1-5.1
	c-0.6,0-1.2,0.1-1.7,0.3V80c0-2.8-2.3-5.1-5.1-5.1c-0.6,0-1.2,0.1-1.7,0.3V35.8C96.1,31.2,92.3,27.4,87.6,27.3z M53.7,30.7h34
	c2.2,0,4.1,1.4,4.8,3.4H48.9C49.6,32.1,51.5,30.7,53.7,30.7z M48.6,37.5h44.2v36c-1.1-0.4-2.3-0.4-3.4,0V49.4c0-0.9-0.8-1.7-1.7-1.7
	H58.7c-2.5-3.3-6.1-5.6-10.2-6.5V37.5z M80.8,54.5H74c-0.9,0-1.7,0.8-1.7,1.7V63c0,0.9,0.8,1.7,1.7,1.7h5.4
	c-0.2,0.5-0.3,1.1-0.3,1.7v1.7H74c-0.9,0-1.7,0.8-1.7,1.7v6.8c0,0.9,0.8,1.7,1.7,1.7h5.1v7.9c-0.6,0.1-1.2,0.3-1.7,0.5v-3.3
	c0-0.9-0.8-1.7-1.7-1.7H65.6c-0.9,0-1.7,0.8-1.7,1.7v8.5h-8.5V71.5c2.3-1.8,4.2-4.1,5.4-6.8h6.5c0.9,0,1.7-0.8,1.7-1.7v-6.8
	c0-0.9-0.8-1.7-1.7-1.7h-5.4c-0.2-1.2-0.6-2.3-1.1-3.4h25.2v10.5c-1.1-0.4-2.3-0.4-3.4,0v-5.4C82.5,55.3,81.8,54.5,80.8,54.5z
	 M79.1,57.9v3.4h-3.4v-3.4H79.1z M79.1,71.5v3.4h-3.4v-3.4H79.1z M74,85.1v4.5c-0.5,0.7-0.8,1.5-1.1,2.3h-5.7v-6.8H74z M62.2,61.3
	v-3.4h3.4v3.4H62.2z M45.2,71.5c-7.5,0-13.6-6.1-13.6-13.6s6.1-13.6,13.6-13.6s13.6,6.1,13.6,13.6C58.7,65.4,52.7,71.5,45.2,71.5z
	 M48.6,74.6c1.2-0.2,2.3-0.6,3.4-1.1v20.1c0,0.9,0.8,1.7,1.7,1.7h18.7c0,0.3,0,0.6,0,0.9v9.3H48.6V74.6z M53.7,112.3
	c-2.2,0-4.1-1.4-4.8-3.4h24.7l1.9,3.4H53.7z M97.8,78.3c0.9,0,1.7,0.8,1.7,1.7v15.3c0,0.9,0.8,1.7,1.7,1.7s1.7-0.8,1.7-1.7V85.1
	c0-0.9,0.8-1.7,1.7-1.7s1.7,0.8,1.7,1.7v21l-3.3,9.1c-0.1,0.2-0.1,0.4-0.1,0.6v10.1H80.8v-10.6c0-0.3-0.1-0.6-0.2-0.8l-4.9-8.5v-9.7
	c0-1.8,0.4-5.5,3.4-6.5v5.6c0,0.9,0.8,1.7,1.7,1.7s1.7-0.8,1.7-1.7v-6.8c0-0.1,0-0.3,0-0.4c0-0.1,0-0.3,0-0.4V66.4
	c0-0.9,0.8-1.7,1.7-1.7s1.7,0.8,1.7,1.7v23.2c0,0.9,0.8,1.7,1.7,1.7s1.7-0.8,1.7-1.7V78.3c0-0.9,0.8-1.7,1.7-1.7
	c0.9,0,1.7,0.8,1.7,1.7v13.6c0,0.9,0.8,1.7,1.7,1.7s1.7-0.8,1.7-1.7V80C96.1,79.1,96.9,78.3,97.8,78.3z"/>
<path class="st4" d="M67.2,69.1h-6.8c-0.9,0-1.7,0.8-1.7,1.7v6.8c0,0.9,0.8,1.7,1.7,1.7h6.8c0.9,0,1.7-0.8,1.7-1.7v-6.8
	C68.9,69.9,68.2,69.1,67.2,69.1z M65.6,75.9h-3.4v-3.4h3.4V75.9z"/>
<path class="st4" d="M50.8,52.6l-9,9l-2.2-2.2c-0.7-0.7-1.7-0.7-2.4,0c-0.7,0.7-0.7,1.7,0,2.4l3.4,3.4c0.7,0.7,1.7,0.7,2.4,0
	c0,0,0,0,0,0L53.2,55c0.7-0.7,0.7-1.7,0-2.4C52.5,52,51.4,52,50.8,52.6L50.8,52.6z"/>
<path class="st4" d="M67.2,45.3h20.4c0.9,0,1.7-0.8,1.7-1.7c0-0.9-0.8-1.7-1.7-1.7H67.2c-0.9,0-1.7,0.8-1.7,1.7
	C65.6,44.6,66.3,45.3,67.2,45.3z"/>
<circle class="st4" cx="60.5" cy="43.6" r="1.7"/>
<path class="st4" d="M60.5,99.7h-6.8c-0.9,0-1.7,0.8-1.7,1.7s0.8,1.7,1.7,1.7h6.8c0.9,0,1.7-0.8,1.7-1.7S61.4,99.7,60.5,99.7z"/>
</svg>
