<?xml version="1.0" encoding="utf-8"?>
<!-- Generator: Adobe Illustrator 23.0.5, SVG Export Plug-In . SVG Version: 6.00 Build 0)  -->
<svg version="1.1" xmlns="http://www.w3.org/2000/svg" xmlns:xlink="http://www.w3.org/1999/xlink" x="0px" y="0px"
	 viewBox="0 0 200 200" style="enable-background:new 0 0 200 200;" xml:space="preserve">
<style type="text/css">
	.st0{fill:#1D2B44;}
	.st1{fill:#FFFFFF;}
	.st2{fill:#FCFCFC;}
</style>
<g id="Layer_1">
</g>
<g id="Layer_2">
</g>
<g id="Layer_3">
</g>
<g id="Layer_4">
</g>
<g id="Layer_5">
</g>
<g id="Layer_6">
</g>
<g id="Layer_7">
	<g transform="translate(-33 -3649)">
		<circle class="st0" cx="132.6" cy="3751.5" r="93.5"/>
	</g>
	<g transform="translate(-36.251)">
		<path class="st1" d="M79.5,39v19h3.8V42.8h104v103.3h3.8V39H79.5z"/>
		<path class="st1" d="M187.3,165.2h-104V61.9h-3.8V169h111.6v-19h-3.8V165.2z"/>
		<path class="st1" d="M137.2,52.3h40.6v38.6h-40.6v3.8h44.4V48.5h-44.4V52.3z"/>
		<path class="st1" d="M89,94.7h44.4v-3.8H92.8V52.3h40.6v-3.8H89V94.7z"/>
		<path class="st1" d="M181.6,102.3h-11.4v11.4h11.4V102.3z M177.8,110H174v-3.8h3.8L177.8,110z"/>
		<path class="st1" d="M166.3,102.3h-11.4v11.4h11.4V102.3z M162.5,110h-3.8v-3.8h3.8L162.5,110z"/>
		<path class="st1" d="M151.1,102.3h-11.4v11.4h11.4V102.3z M147.3,110h-3.8v-3.8h3.8L147.3,110z"/>
		<path class="st1" d="M170.1,129h11.4v-11.4h-11.4V129z M173.9,121.4h3.8v3.8H174L173.9,121.4z"/>
		<path class="st1" d="M154.9,129h11.4v-11.4h-11.4V129z M158.7,121.4h3.8v3.8h-3.8V121.4z"/>
		<path class="st1" d="M139.7,129h11.4v-11.4h-11.4V129z M143.5,121.4h3.8v3.8h-3.8L143.5,121.4z"/>
		<path class="st1" d="M170.1,144.2h11.4v-11.4h-11.4V144.2z M173.9,136.6h3.8v3.8H174L173.9,136.6z"/>
		<path class="st1" d="M154.9,144.2h11.4v-11.4h-11.4V144.2z M158.7,136.6h3.8v3.8h-3.8V136.6z"/>
		<path class="st1" d="M139.7,144.2h11.4v-11.4h-11.4V144.2z M143.5,136.6h3.8v3.8h-3.8L143.5,136.6z"/>
		<path class="st1" d="M89,121.4h3.8v-15.2h39.2v15.2h3.8v-19H89L89,121.4z"/>
		<path class="st1" d="M114.3,159.5h13.9V110H96.6v49.5h13.9v-3.8h-10.1v-41.9h24v41.9h-10.1L114.3,159.5z"/>
		<path class="st1" d="M139.7,159.5h41.9V148h-19v3.8h15.2v3.8h-34.3v-3.8h15.2V148h-19V159.5z"/>
		<path class="st1" d="M87.1,157.6h3.8v3.8h-3.8V157.6z"/>
		<path class="st1" d="M109.2,132.8h3.8v19h-3.8V132.8z"/>
		<path class="st1" d="M116.8,132.8h3.8v19h-3.8V132.8z"/>
		<path class="st1" d="M124.1,78.9l5.7-9.9l3.3,1.9l-5.7,9.9L124.1,78.9z"/>
		<path class="st1" d="M131.7,65.7l1.9-3.3l3.3,1.9l-1.9,3.3L131.7,65.7z"/>
		<path class="st1" d="M133.6,78.9l1.9-3.3l3.3,1.9l-1.9,3.3L133.6,78.9z"/>
		<path class="st1" d="M137.5,72.3l5.7-9.9l3.3,1.9l-5.7,9.9L137.5,72.3z"/>
		<path class="st1" d="M116.8,117.6h3.8v3.8h-3.8V117.6z"/>
		<path class="st1" d="M96.6,83.3h3.8v3.8h-3.8V83.3z"/>
		<path class="st1" d="M170.1,56.1h3.8v3.8h-3.8V56.1z"/>
	</g>
</g>
<g id="Layer_8">
</g>
<g id="Layer_9">
</g>
<g id="Layer_10">
</g>
<g id="Layer_11">
</g>
<g id="Layer_12">
</g>
<g id="Layer_13">
</g>
</svg>
