<?xml version="1.0" encoding="utf-8"?>
<!-- Generator: Adobe Illustrator 23.0.5, SVG Export Plug-In . SVG Version: 6.00 Build 0)  -->
<svg version="1.1" xmlns="http://www.w3.org/2000/svg" xmlns:xlink="http://www.w3.org/1999/xlink" x="0px" y="0px"
	 viewBox="0 0 200 200" style="enable-background:new 0 0 200 200;" xml:space="preserve">
<style type="text/css">
	.st0{fill:#1D2B44;}
	.st1{fill:#FFFFFF;}
	.st2{fill:#FCFCFC;}
</style>
<g id="Layer_1">
</g>
<g id="Layer_2">
</g>
<g id="Layer_3">
</g>
<g id="Layer_4">
</g>
<g id="Layer_5">
</g>
<g id="Layer_6">
</g>
<g id="Layer_7">
</g>
<g id="Layer_8">
</g>
<g id="Layer_9">
</g>
<g id="Layer_10">
</g>
<g id="Layer_11">
</g>
<g id="Layer_12">
	<g transform="translate(-33 -3649)">
		<circle class="st0" cx="135.6" cy="3749.5" r="93.5"/>
	</g>
	<g transform="translate(-36)">
		<path class="st2" d="M180.2,34h-4.3c-1,0-1.9,0.8-1.9,1.9c0,1,0.8,1.9,1.9,1.9c0,0,0,0,0,0h4.3c4.2,0,7.7,3.4,7.7,7.7v17.1H85.7
			V45.4c0-4.2,3.4-7.7,7.7-7.7h73.8c1,0,1.9-0.8,1.9-1.9c0-1-0.8-1.9-1.9-1.9H93.4C87.1,34,82,39.1,82,45.4v77.8
			c0,1,0.8,1.9,1.9,1.9c1,0,1.9-0.8,1.9-1.9c0,0,0,0,0,0v-57h102.2v75.3H85.7V132c0-1-0.8-1.9-1.9-1.9c-1,0-1.9,0.8-1.9,1.9
			c0,0,0,0,0,0v18.2c0,6.3,5.1,11.4,11.4,11.4h86.8c6.3,0,11.4-5.1,11.4-11.4V45.4C191.7,39.1,186.5,34,180.2,34z M187.9,150.2
			c0,4.2-3.4,7.7-7.7,7.7H93.4c-4.2,0-7.7-3.4-7.7-7.7v-4.9h102.2L187.9,150.2z"/>
		<path class="st2" d="M94.6,114.5h48.8c2.4,0,4.4-2,4.4-4.4V75.1c0-2.4-2-4.4-4.4-4.4H94.6c-2.4,0-4.4,2-4.4,4.4v35.1
			C90.2,112.6,92.2,114.5,94.6,114.5L94.6,114.5z M94,75.1c0-0.3,0.3-0.6,0.6-0.6h0h48.8c0.3,0,0.6,0.3,0.6,0.6l0,0v35.1
			c0,0.3-0.3,0.6-0.6,0.6h0H94.6c-0.3,0-0.6-0.3-0.6-0.6l0,0V75.1z"/>
		<path class="st2" d="M90.2,132.7c0,2.4,2,4.4,4.4,4.4h48.8c2.4,0,4.4-2,4.4-4.4v-10.6c0-2.4-2-4.4-4.4-4.4H94.6
			c-2.4,0-4.4,2-4.4,4.4V132.7z M94,122.2c0-0.3,0.3-0.6,0.6-0.6h0h48.8c0.3,0,0.6,0.3,0.6,0.6l0,0v10.6c0,0.3-0.3,0.6-0.6,0.6h0
			H94.6c-0.3,0-0.6-0.3-0.6-0.6l0,0V122.2z"/>
		<path class="st2" d="M179.1,137.1c2.4,0,4.4-2,4.4-4.4V75.1c0-2.4-2-4.4-4.4-4.4h-22.2c-2.4,0-4.4,2-4.4,4.4v57.6
			c0,2.4,2,4.4,4.4,4.4L179.1,137.1z M156.2,75.1c0-0.3,0.3-0.6,0.6-0.6l0,0h22.2c0.3,0,0.6,0.3,0.6,0.6v0v42.7h-23.5L156.2,75.1z
			 M156.2,121.5h23.5v5.4h-23.5L156.2,121.5z M156.2,132.7v-2h23.5v2c0,0.3-0.3,0.6-0.6,0.6l0,0h-22.2
			C156.5,133.3,156.2,133.1,156.2,132.7C156.2,132.7,156.2,132.7,156.2,132.7L156.2,132.7z"/>
		<path class="st2" d="M174.6,78.2h-13.3c-1,0-1.9,0.8-1.9,1.9v0v8.7c0,1,0.8,1.9,1.9,1.9l0,0h13.3c1,0,1.9-0.8,1.9-1.9v0V80
			C176.5,79,175.6,78.2,174.6,78.2L174.6,78.2z M172.7,86.9h-9.5v-5h9.5V86.9z"/>
		<path class="st2" d="M165.1,95.3h-3.7c-1,0-1.9,0.8-1.9,1.9c0,1,0.8,1.9,1.9,1.9c0,0,0,0,0,0h3.7c1,0,1.9-0.8,1.9-1.9
			C167,96.1,166.1,95.3,165.1,95.3z"/>
		<path class="st2" d="M174.6,95.3h-3.7c-1,0-1.9,0.8-1.9,1.9c0,1,0.8,1.9,1.9,1.9h3.7c1,0,1.9-0.8,1.9-1.9
			C176.5,96.1,175.6,95.3,174.6,95.3C174.6,95.3,174.6,95.3,174.6,95.3z"/>
		<path class="st2" d="M165.1,102.7h-3.7c-1,0-1.9,0.8-1.9,1.9c0,1,0.8,1.9,1.9,1.9c0,0,0,0,0,0h3.7c1,0,1.9-0.8,1.9-1.9
			C167,103.5,166.1,102.7,165.1,102.7C165.1,102.7,165.1,102.7,165.1,102.7z"/>
		<path class="st2" d="M174.6,102.7h-3.7c-1,0-1.9,0.8-1.9,1.9c0,1,0.8,1.9,1.9,1.9c0,0,0,0,0,0h3.7c1,0,1.9-0.8,1.9-1.9
			C176.5,103.5,175.6,102.7,174.6,102.7C174.6,102.7,174.6,102.7,174.6,102.7z"/>
		<path class="st2" d="M165.1,110.1h-3.7c-1,0-1.9,0.8-1.9,1.9c0,1,0.8,1.9,1.9,1.9c0,0,0,0,0,0h3.7c1,0,1.9-0.8,1.9-1.9
			C167,110.9,166.1,110.1,165.1,110.1z"/>
		<path class="st2" d="M174.6,110.1h-3.7c-1,0-1.9,0.8-1.9,1.9c0,1,0.8,1.9,1.9,1.9c0,0,0,0,0,0h3.7c1,0,1.9-0.8,1.9-1.9
			C176.5,110.9,175.6,110.1,174.6,110.1C174.6,110.1,174.6,110.1,174.6,110.1z"/>
		<path class="st2" d="M101.2,129.3h35.6c1,0,1.9-0.8,1.9-1.9c0-1-0.8-1.9-1.9-1.9h-35.6c-1,0-1.9,0.8-1.9,1.9
			C99.3,128.5,100.1,129.3,101.2,129.3z"/>
		<path class="st2" d="M100.7,58.9c1,0,1.9-0.8,1.9-1.9V45.3h5.5c1,0,1.9-0.8,1.9-1.9c0-1-0.8-1.9-1.9-1.9H94.8
			c-1,0-1.9,0.8-1.9,1.9c0,1,0.8,1.9,1.9,1.9c0,0,0,0,0,0h4.1V57C98.9,58,99.7,58.9,100.7,58.9L100.7,58.9z"/>
		<path class="st2" d="M111.8,43.4V57c0,1,0.8,1.9,1.9,1.9c1,0,1.9-0.8,1.9-1.9c0,0,0,0,0,0V43.4c0-1-0.8-1.9-1.9-1.9
			C112.6,41.5,111.8,42.4,111.8,43.4z"/>
		<path class="st2" d="M126.7,45.3c1.4,0,2.7,0.6,3.7,1.6c0.7,0.8,1.9,0.8,2.6,0.1c0.8-0.7,0.8-1.9,0.1-2.6
			c-3.2-3.6-8.7-3.8-12.2-0.6c-3.6,3.2-3.8,8.7-0.6,12.2c3.2,3.6,8.7,3.8,12.2,0.6c0.1-0.1,0.2-0.2,0.3-0.3c0.7-0.7,0.7-1.9-0.1-2.6
			c-0.7-0.7-1.9-0.7-2.6,0c-1.9,1.9-5,1.9-7,0c-1.9-1.9-1.9-5,0-7C124.1,45.8,125.4,45.3,126.7,45.3L126.7,45.3z"/>
		<path class="st2" d="M147.7,42.2c-0.7-0.8-1.8-0.9-2.6-0.2l-4.9,4.2v-2.8c0-1-0.8-1.9-1.9-1.9c-1,0-1.9,0.8-1.9,1.9V57
			c0,1,0.8,1.9,1.9,1.9c1,0,1.9-0.8,1.9-1.9v-2.7l4.9,4.2c0.8,0.7,2,0.6,2.6-0.2c0.7-0.8,0.6-2-0.2-2.6l0,0l-6.3-5.4l6.3-5.4
			C148.3,44.1,148.4,43,147.7,42.2C147.7,42.2,147.7,42.2,147.7,42.2z"/>
		<path class="st2" d="M159.3,45.3c1,0,1.9-0.8,1.9-1.9c0-1-0.8-1.9-1.9-1.9c0,0,0,0,0,0h-6.8c-1,0-1.9,0.8-1.9,1.9c0,0,0,0,0,0V57
			c0,1,0.8,1.9,1.9,1.9l0,0h6.8c1,0,1.9-0.8,1.9-1.9c0-1-0.8-1.9-1.9-1.9c0,0,0,0,0,0h-4.9v-3.1h4.9c1,0,1.9-0.8,1.9-1.9
			c0-1-0.8-1.9-1.9-1.9c0,0,0,0,0,0h-4.9v-3.1H159.3z"/>
		<path class="st2" d="M172.2,58.9c1,0,1.9-0.8,1.9-1.9c0,0,0,0,0,0V45.3h4.8c1,0,1.9-0.8,1.9-1.9c0-1-0.8-1.9-1.9-1.9c0,0,0,0,0,0
			h-13.3c-1,0-1.9,0.8-1.9,1.9c0,1,0.8,1.9,1.9,1.9c0,0,0,0,0,0h4.8V57C170.4,58,171.2,58.9,172.2,58.9L172.2,58.9z"/>
	</g>
</g>
<g id="Layer_13">
</g>
</svg>
