<?xml version="1.0" encoding="utf-8"?>
<!-- Generator: Adobe Illustrator 23.0.5, SVG Export Plug-In . SVG Version: 6.00 Build 0)  -->
<svg version="1.1" id="Layer_1" xmlns="http://www.w3.org/2000/svg" xmlns:xlink="http://www.w3.org/1999/xlink" x="0px" y="0px"
	 viewBox="0 0 143 143" style="enable-background:new 0 0 143 143;" xml:space="preserve">
<style type="text/css">
	.st0{fill:#1D2B44;}
	.st1{display:none;}
	.st2{display:inline;}
	.st3{fill:#FFFFFF;}
</style>
<g transform="translate(0.194 0.194)">
	<circle class="st0" cx="72.3" cy="71.3" r="68.4"/>
	<g transform="translate(28.327 35.243)" class="st1">
		<g transform="translate(67.191 7.041)" class="st2">
			<path class="st3" d="M5.3,0H1C0.5-0.1,0,0.3,0,0.8l0,0l0,0v13.7c0,0.6,0.7,0.9,1.4,0.9s1.4-0.3,1.4-0.9V9.6h2.4
				c2.8,0,4.9-1.3,4.9-4.8V4.7C10,1.3,7.9,0,5.3,0z M7.3,5.1c0,1.6-0.8,2.4-2.2,2.4H2.7V2.4h2.4c1.4,0,2.2,0.8,2.2,2.4V5.1z"/>
		</g>
		<g transform="translate(19.333 6.194)" class="st2">
			<g transform="translate(0 0)">
				<path class="st3" d="M30.3,6.2C22-2.1,8.6-2.1,0.4,6.2c-0.5,0.5-0.5,1.3,0,1.7c0.5,0.4,1.3,0.5,1.7,0l0,0
					c7.3-7.3,19.1-7.3,26.4,0l0,0c0.5,0.5,1.3,0.5,1.7,0C30.7,7.4,30.7,6.7,30.3,6.2z"/>
			</g>
		</g>
		<g transform="translate(24.428 13.404)" class="st2">
			<g transform="translate(0 0)">
				<path class="st3" d="M20.1,4.1c-5.5-5.4-14.3-5.4-19.7,0c-0.5,0.5-0.5,1.3,0,1.7c0.5,0.5,1.3,0.5,1.7,0l0,0
					c4.5-4.5,11.8-4.5,16.2,0c0.5,0.5,1.3,0.5,1.7,0S20.6,4.6,20.1,4.1L20.1,4.1L20.1,4.1z"/>
			</g>
		</g>
		<g transform="translate(29.441 20.491)" class="st2">
			<g transform="translate(0 0)">
				<path class="st3" d="M10.1,2C7.4-0.7,3-0.7,0.4,2c-0.5,0.5-0.5,1.3,0,1.7c0.5,0.5,1.3,0.5,1.7,0l0,0C3.8,2,6.6,2,8.3,3.8
					c0.5,0.5,1.3,0.5,1.7,0C10.5,3.2,10.5,2.5,10.1,2L10.1,2z"/>
			</g>
		</g>
		<g transform="translate(10.494 37.513)" class="st2">
			<path class="st3" d="M50.3,9c-0.5-0.3-1.1-0.6-1.6-1l-8.2-5.5C38.1,0.9,35.2,0,32.2,0h-15c-4,0-7.7,1.6-10.5,4.4
				C5.2,5.8,3.5,7,1.7,7.9c-1.6,0.8-2.2,2.8-1.4,4.3C0.9,13.3,2,14,3.2,14h5.1c0.7,0,1.2-0.6,1.2-1.2c0-0.7-0.6-1.2-1.2-1.2H3.2
				c-0.4,0-0.7-0.3-0.7-0.7c0-0.3,0.2-0.5,0.4-0.7c2-1.1,3.9-2.4,5.5-4c2.3-2.3,5.5-3.6,8.8-3.6h3.4v9.1h-4.1
				c-0.7,0-1.2,0.6-1.2,1.2c0,0.7,0.6,1.2,1.2,1.2h33.9c1,0,1.8-0.8,1.8-1.8C52.1,10.9,51.4,9.7,50.3,9z M23,11.5v-9h9.2
				c2.5,0,4.9,0.7,7,2.1l8.2,5.5c0.6,0.4,1.2,0.7,1.8,1.1c0.2,0.1,0.3,0.2,0.4,0.3C49.6,11.5,23,11.5,23,11.5z"/>
		</g>
		<g transform="translate(31.513 53.399)" class="st2">
			<path class="st3" d="M5,0H1.2C0.6,0,0,0.6,0,1.2c0,0.7,0.6,1.2,1.2,1.2l0,0H5c0.7,0,1.2-0.6,1.2-1.2C6.3,0.6,5.7,0,5,0L5,0z"/>
		</g>
		<g transform="translate(0 0)" class="st2">
			<g transform="translate(0 0)">
				<path class="st3" d="M85.6,52.4l-0.4-0.6c-1.5-2.4-3.9-4.2-6.7-4.7l-3.2-0.6V30.2h8.3c1.7,0,3.1-1.4,3.1-3.1v-24
					c0-1.7-1.4-3.1-3.1-3.1h-24c-1.7,0-3.1,1.4-3.1,3.1v9.1c0,0.7,0.6,1.2,1.2,1.2s1.2-0.6,1.2-1.2V3.1c0-0.3,0.3-0.6,0.6-0.6h24
					c0.3,0,0.6,0.3,0.6,0.6v24c0,0.3-0.3,0.6-0.6,0.6h-24c-0.3,0-0.6-0.3-0.6-0.6v-6.9c0-0.7-0.6-1.2-1.2-1.2s-1.2,0.6-1.2,1.2v6.9
					c0,1.7,1.4,3.1,3.1,3.1H69v14.9l-1.6-0.3c-2.1-0.5-4.1-1.5-5.9-2.8l-8.2-5.5c-3.1-2.1-6.7-3.2-10.5-3.2h-15c-5,0-9.7,2-13.2,5.5
					c-2.2,2.2-5.1,3.8-8.1,4.4l-1.8,0.4C1.9,44,0,46.4,0,49.1v12c0,1.4,0.8,2.7,2.1,3.3L7,66.6c0.9,4.4,5.1,7.3,9.6,6.5
					c3-0.6,5.5-2.8,6.3-5.8h41c1.2,4.4,5.7,6.9,10.1,5.7c2.7-0.8,4.9-2.9,5.7-5.7H82c2.5,0,4.6-2.1,4.6-4.6v-6.4
					C86.7,54.8,86.3,53.5,85.6,52.4z M71.4,30.2h1.5v15.7l-1.5-0.3V30.2z M19.2,69c-2.2,2.2-5.9,2.2-8.1,0c-1.7-1.7-2.2-4.3-1.2-6.4
					v-0.1c0-0.1,0.1-0.1,0.1-0.2v-0.1c0-0.1,0.1-0.1,0.1-0.2c0,0,0-0.1,0.1-0.1l0.1-0.1l0.1-0.1l0.1-0.1l0.1-0.1l0.1-0.1
					c0-0.1,0.1-0.1,0.1-0.1s0-0.1,0.1-0.1c0.1-0.1,0.1-0.1,0.2-0.2l0,0l0,0c0.1-0.1,0.1-0.1,0.2-0.2l0,0c0.1-0.1,0.1-0.1,0.2-0.2
					l0,0c2.1-1.7,5.1-1.7,7.2,0l0,0c0.1,0.1,0.1,0.1,0.2,0.2l0,0c0.1,0.1,0.1,0.1,0.2,0.2c0.1,0.1,0.1,0.2,0.2,0.2l0.1,0.1l0.1,0.1
					l0.1,0.1l0.1,0.1c0,0.1,0.1,0.1,0.1,0.2l0,0C21.4,64.1,21.1,67.1,19.2,69L19.2,69z M75.9,69c-2.2,2.2-5.9,2.2-8.1,0
					c-1.9-1.9-2.2-4.9-0.7-7.2l0,0c0-0.1,0.1-0.1,0.1-0.2l0.1-0.1c0-0.1,0.1-0.1,0.1-0.1l0.1-0.1l0.1-0.1c0.1-0.1,0.1-0.2,0.2-0.2
					c2.2-2.2,5.9-2.2,8.1,0l0,0c0.1,0.1,0.1,0.2,0.2,0.2l0.1,0.1l0.1,0.1l0.1,0.1l0.1,0.1c0,0.1,0.1,0.1,0.1,0.2l0,0
					C78.1,64.1,77.8,67.1,75.9,69L75.9,69z M84.2,62.6L84.2,62.6c0,1.2-0.9,2.1-2.1,2.1h-2c0-1.8-0.7-3.5-1.8-4.9l0,0
					c-0.1-0.1-0.1-0.2-0.2-0.3l-0.1,0c-0.1-0.1-0.2-0.2-0.2-0.3l0,0c-1-1-2.4-1.8-3.8-2.2c-1.2-0.3-2.4-0.3-3.6-0.1
					c-1.6,0.3-3,1.1-4.2,2.2l0,0c-0.1,0.1-0.2,0.2-0.2,0.3l-0.1,0.1c-0.1,0.1-0.1,0.2-0.2,0.3l0,0c-1.1,1.4-1.8,3.1-1.8,4.9H23.3
					c0-1.8-0.7-3.5-1.8-4.9l0,0c-0.1-0.1-0.2-0.2-0.2-0.3l0,0c-0.1-0.1-0.2-0.2-0.3-0.3c-3.2-3.2-8.4-3.2-11.6,0
					c-0.1,0.1-0.2,0.2-0.3,0.3l-0.1,0c-0.1,0.1-0.1,0.1-0.2,0.2l-0.1,0.1C8.6,59.9,8.6,60,8.5,60l-0.1,0.1c-0.2,0.2-0.3,0.4-0.4,0.7
					l0,0c0,0.1-0.1,0.2-0.1,0.3l0,0C7.4,62,7.1,62.9,7,63.8l-3.8-1.7c-0.4-0.2-0.7-0.6-0.7-1v-12c0-1.5,1.1-2.9,2.6-3.2l1.8-0.4
					c3.5-0.7,6.8-2.5,9.4-5.1c3-3,7.2-4.8,11.5-4.7h15c3.2,0,6.4,1,9.1,2.8l8.2,5.5c2.1,1.5,4.4,2.6,6.8,3.2L78,49.4
					c2.1,0.4,4,1.7,5.1,3.6l0.4,0.6c0.5,0.8,0.7,1.7,0.7,2.6V62.6z"/>
			</g>
		</g>
		<g transform="translate(11.356 61.206)" class="st2">
			<g transform="translate(0 0)">
				<path class="st3" d="M6.4,1.1c-1.5-1.5-3.8-1.5-5.3,0s-1.5,3.8,0,5.3s3.8,1.5,5.3,0l0,0C7.9,5,7.9,2.6,6.4,1.1L6.4,1.1z
					 M4.7,4.7c-0.5,0.5-1.3,0.5-1.8,0s-0.5-1.3,0-1.8s1.3-0.5,1.8,0C5.2,3.3,5.2,4.1,4.7,4.7C4.7,4.6,4.7,4.7,4.7,4.7L4.7,4.7z"/>
			</g>
		</g>
		<g transform="translate(68.13 61.206)" class="st2">
			<g transform="translate(0 0)">
				<path class="st3" d="M6.4,1.1c-1.5-1.5-3.8-1.5-5.3,0s-1.5,3.8,0,5.3s3.8,1.5,5.3,0c0.7-0.7,1.1-1.7,1.1-2.7
					C7.5,2.8,7.1,1.8,6.4,1.1z M4.7,4.7c-0.5,0.5-1.3,0.5-1.8,0s-0.5-1.3,0-1.8s1.3-0.5,1.8,0C4.9,3.1,5,3.4,5,3.8
					C5,4.1,4.9,4.4,4.7,4.7L4.7,4.7z"/>
			</g>
		</g>
	</g>
</g>
<g>
	<path class="st3" d="M96.1,34.1h15c0.1,0,0.1,0.1,0.1,0.1l0,16.4c0,0.3,0.1,0.6,0.3,0.8c3.3,3.4,7.4,1.1,7.4-2.2v-15
		c0-4.3-3.5-7.8-7.8-7.8l-16.4,0c-0.3,0-0.6,0.1-0.8,0.3C90.6,30.1,92.9,34.1,96.1,34.1z"/>
	<path class="st3" d="M29.6,33.1l0,17.9c3.4,3.8,7.7,1.5,7.7-1.8V34.1h17c3.8-3.4,1.5-7.7-1.8-7.7H36.3
		C32.6,26.4,29.6,29.4,29.6,33.1z"/>
	<path class="st3" d="M52.4,108.1H37.3l0-16.8c0-0.1-0.1-0.3-0.1-0.4c-3.4-3.6-7.5-1.3-7.5,2v15.6c0,4,3.2,7.2,7.2,7.2l17.2,0
		c0.1,0,0.3-0.1,0.4-0.1C58,112.2,55.7,108.1,52.4,108.1z"/>
	<path class="st3" d="M118.9,109.6V91.1c-3.4-3.8-7.7-1.5-7.7,1.8v15.1h-17c-3.8,3.4-1.5,7.7,1.8,7.7h16.7
		C116.2,115.7,118.9,113,118.9,109.6z"/>
</g>
<g transform="translate(28.327 35.243)">
	<g transform="translate(10.494 37.513)">
		<path class="st3" d="M51.6-8.6c-0.5-0.3-1-0.5-1.5-0.9l-7.5-5c-2.2-1.5-4.8-2.3-7.6-2.3H21.4c-3.7,0-7,1.5-9.6,4
			c-1.4,1.3-2.9,2.4-4.6,3.2C5.8-8.9,5.3-7.1,6-5.7C6.5-4.7,7.5-4,8.6-4h4.7c0.6,0,1.1-0.5,1.1-1.1c0-0.6-0.5-1.1-1.1-1.1H8.6
			C8.3-6.2,8-6.5,8-6.9c0-0.3,0.2-0.5,0.4-0.6c1.8-1,3.6-2.2,5-3.7c2.1-2.1,5-3.3,8-3.3h3.1v8.3h-3.7c-0.6,0-1.1,0.5-1.1,1.1
			c0,0.6,0.5,1.1,1.1,1.1h31c0.9,0,1.6-0.7,1.6-1.6C53.3-6.9,52.6-8,51.6-8.6z M26.7-6.3v-8.2h8.4c2.3,0,4.5,0.6,6.4,1.9l7.5,5
			c0.5,0.4,1.1,0.6,1.6,1c0.2,0.1,0.3,0.2,0.4,0.3C51-6.3,26.7-6.3,26.7-6.3z"/>
	</g>
	<g transform="translate(31.513 53.399)">
		<path class="st3" d="M8.5-18.2H5c-0.5,0-1.1,0.5-1.1,1.1C3.9-16.5,4.4-16,5-16l0,0h3.5c0.6,0,1.1-0.5,1.1-1.1
			C9.6-17.7,9.1-18.2,8.5-18.2L8.5-18.2z"/>
	</g>
	<g transform="translate(0 0)">
		<g transform="translate(0 0)">
			<path class="st3" d="M69.6,27.6l-1.5-0.3c-1.9-0.5-3.7-1.4-5.4-2.6l-7.5-5c-2.8-1.9-6.1-2.9-9.6-2.9H32c-4.6,0-8.9,1.8-12.1,5
				c-2,2-4.7,3.5-7.4,4l-1.6,0.4c-2.6,0.4-4.3,2.6-4.3,5v11c0,1.3,0.7,2.5,1.9,3l4.5,2c0.8,4,4.7,6.7,8.8,5.9c2.7-0.5,5-2.6,5.8-5.3
				H65c1.1,4,5.2,6.3,9.2,5.2c2.5-0.7,4.5-2.6,5.2-5.2h2.1c2.3,0,4.2-1.9,4.2-4.2v-5.8c0.1-1.4-0.3-2.6-0.9-3.6l-0.4-0.5
				c-1.4-2.2-3.6-3.8-6.1-4.3l-2.9-0.5 M73.2,28.3l-1.4-0.3 M24.2,49.4c-2,2-5.4,2-7.4,0c-1.6-1.6-2-3.9-1.1-5.8v-0.1
				c0-0.1,0.1-0.1,0.1-0.2v-0.1c0-0.1,0.1-0.1,0.1-0.2c0,0,0-0.1,0.1-0.1l0.1-0.1l0.1-0.1l0.1-0.1l0.1-0.1l0.1-0.1
				c0-0.1,0.1-0.1,0.1-0.1s0-0.1,0.1-0.1c0.1-0.1,0.1-0.1,0.2-0.2l0,0l0,0c0.1-0.1,0.1-0.1,0.2-0.2l0,0c0.1-0.1,0.1-0.1,0.2-0.2l0,0
				c1.9-1.6,4.7-1.6,6.6,0l0,0c0.1,0.1,0.1,0.1,0.2,0.2l0,0C24,42,24,42,24.1,42.1c0.1,0.1,0.1,0.2,0.2,0.2l0.1,0.1l0.1,0.1l0.1,0.1
				l0.1,0.1c0,0.1,0.1,0.1,0.1,0.2l0,0C26.2,45,25.9,47.7,24.2,49.4L24.2,49.4z M75.9,49.4c-2,2-5.4,2-7.4,0c-1.7-1.7-2-4.5-0.6-6.6
				l0,0c0-0.1,0.1-0.1,0.1-0.2l0.1-0.1c0-0.1,0.1-0.1,0.1-0.1l0.1-0.1l0.1-0.1c0.1-0.1,0.1-0.2,0.2-0.2c2-2,5.4-2,7.4,0l0,0
				c0.1,0.1,0.1,0.2,0.2,0.2l0.1,0.1l0.1,0.1l0.1,0.1l0.1,0.1c0,0.1,0.1,0.1,0.1,0.2l0,0C77.9,45,77.7,47.7,75.9,49.4L75.9,49.4z
				 M83.5,43.6L83.5,43.6c0,1.1-0.8,1.9-1.9,1.9h-1.8c0-1.6-0.6-3.2-1.6-4.5l0,0c-0.1-0.1-0.1-0.2-0.2-0.3l-0.1,0
				c-0.1-0.1-0.2-0.2-0.2-0.3l0,0c-0.9-0.9-2.2-1.6-3.5-2c-1.1-0.3-2.2-0.3-3.3-0.1c-1.5,0.3-2.7,1-3.8,2l0,0
				c-0.1,0.1-0.2,0.2-0.2,0.3l-0.1,0.1c-0.1,0.1-0.1,0.2-0.2,0.3l0,0c-1,1.3-1.6,2.8-1.6,4.5H27.9c0-1.6-0.6-3.2-1.6-4.5l0,0
				c-0.1-0.1-0.2-0.2-0.2-0.3l0,0c-0.1-0.1-0.2-0.2-0.3-0.3c-2.9-2.9-7.7-2.9-10.6,0c-0.1,0.1-0.2,0.2-0.3,0.3l-0.1,0
				c-0.1,0.1-0.1,0.1-0.2,0.2L14.6,41c-0.1,0.1-0.1,0.2-0.2,0.2l-0.1,0.1c-0.2,0.2-0.3,0.4-0.4,0.6l0,0c0,0.1-0.1,0.2-0.1,0.3l0,0
				c-0.5,0.8-0.7,1.6-0.8,2.5l-3.5-1.6c-0.4-0.2-0.6-0.5-0.6-0.9v-11c0-1.4,1-2.6,2.4-2.9l1.6-0.4c3.2-0.6,6.2-2.3,8.6-4.7
				c2.7-2.7,6.6-4.4,10.5-4.3h13.7c2.9,0,5.8,0.9,8.3,2.6l7.5,5c1.9,1.4,4,2.4,6.2,2.9l10.1,2c1.9,0.4,3.7,1.6,4.7,3.3l0.4,0.5
				c0.5,0.7,0.6,1.6,0.6,2.4V43.6z"/>
		</g>
	</g>
	<g transform="translate(11.356 61.206)">
		<g transform="translate(0 0)">
			<path class="st3" d="M11.5-17.9c-1.4-1.4-3.5-1.4-4.8,0c-1.4,1.4-1.4,3.5,0,4.8s3.5,1.4,4.8,0l0,0C12.9-14.3,12.9-16.5,11.5-17.9
				L11.5-17.9z M9.9-14.6c-0.5,0.5-1.2,0.5-1.6,0c-0.5-0.5-0.5-1.2,0-1.6c0.5-0.5,1.2-0.5,1.6,0C10.4-15.9,10.4-15.1,9.9-14.6
				C9.9-14.7,9.9-14.6,9.9-14.6L9.9-14.6z"/>
		</g>
	</g>
	<g transform="translate(68.13 61.206)">
		<g transform="translate(0 0)">
			<path class="st3" d="M6.6-17.9c-1.4-1.4-3.5-1.4-4.8,0c-1.4,1.4-1.4,3.5,0,4.8s3.5,1.4,4.8,0c0.6-0.6,1-1.6,1-2.5
				C7.6-16.3,7.2-17.2,6.6-17.9z M5-14.6c-0.5,0.5-1.2,0.5-1.6,0c-0.5-0.5-0.5-1.2,0-1.6s1.2-0.5,1.6,0c0.2,0.2,0.3,0.5,0.3,0.8
				C5.3-15.1,5.2-14.9,5-14.6L5-14.6z"/>
		</g>
	</g>
</g>
</svg>
