<?xml version="1.0" encoding="utf-8"?>
<!-- Generator: Adobe Illustrator 23.0.5, SVG Export Plug-In . SVG Version: 6.00 Build 0)  -->
<svg version="1.1" id="Layer_1" xmlns="http://www.w3.org/2000/svg" xmlns:xlink="http://www.w3.org/1999/xlink" x="0px" y="0px"
	 viewBox="0 0 167 167" style="enable-background:new 0 0 167 167;" xml:space="preserve">
<style type="text/css">
	.st0{fill:#1D2B44;}
	.st1{fill:#FFFFFF;}
</style>
<g transform="translate(-1014 -4932)">
	<circle class="st0" cx="1097.5" cy="5015.5" r="83.5"/>
	<g transform="translate(1054 4966)">
		<path class="st1" d="M74.2,99H12.3C6.6,99,2,94.4,2,88.7V10.3C2,4.6,6.6,0,12.3,0h61.9c5.7,0,10.3,4.6,10.3,10.3v78.4
			C84.5,94.4,79.9,99,74.2,99z M12.3,4.1c-3.4,0-6.2,2.8-6.2,6.2v78.4c0,3.4,2.8,6.2,6.2,6.2h61.9c3.4,0,6.2-2.8,6.2-6.2V10.3
			c0-3.4-2.8-6.2-6.2-6.2L12.3,4.1z"/>
		<path class="st1" d="M70.1,49.5h-8.3c-1.1,0-2-1-2-2.1c0-1.1,0.9-2,2-2h8.3c1.1,0,2.1,0.9,2.1,2C72.2,48.5,71.3,49.5,70.1,49.5
			C70.1,49.5,70.1,49.5,70.1,49.5z"/>
		<path class="st1" d="M70.1,37.1h-8.3c-1.1,0-2-1-2-2.1c0-1.1,0.9-2,2-2h8.3c1.1,0,2,1,2,2.1C72.1,36.2,71.2,37.1,70.1,37.1z"/>
		<path class="st1" d="M70.1,61.9h-8.3c-1.1,0-2-1-2-2.1c0-1.1,0.9-2,2-2h8.3c1.1,0,2.1,0.9,2.1,2C72.2,60.9,71.3,61.8,70.1,61.9
			C70.1,61.9,70.1,61.9,70.1,61.9z"/>
		<path class="st1" d="M70.1,74.2h-8.3c-1.1,0-2-1-2-2.1c0-1.1,0.9-2,2-2h8.3c1.1,0,2.1,0.9,2.1,2C72.2,73.3,71.3,74.2,70.1,74.2
			C70.1,74.3,70.1,74.3,70.1,74.2z"/>
		<path class="st1" d="M70.1,86.6H16.4c-1.1,0-2-1-2-2.1c0-1.1,0.9-2,2-2h53.6c1.1,0,2,1,2,2.1C72.1,85.7,71.2,86.6,70.1,86.6z"/>
		<path class="st1" d="M35,74.2c-11.4,0-20.6-9.2-20.6-20.6S23.6,33,35,33s20.6,9.2,20.6,20.6C55.6,65,46.4,74.2,35,74.2z M35,37.1
			c-9.1,0-16.5,7.4-16.5,16.5S25.9,70.1,35,70.1s16.5-7.4,16.5-16.5C51.5,44.5,44.1,37.1,35,37.1z"/>
		<path class="st1" d="M21.9,68.8c-1.1,0-2.1-0.9-2.1-2.1c0-0.5,0.2-1.1,0.6-1.5l12.5-12.5V35.1c0-1.1,0.9-2.1,2-2.1
			c1.1,0,2.1,0.9,2.1,2c0,0,0,0.1,0,0.1v18.6c0,0.5-0.2,1.1-0.6,1.5L23.3,68.2C22.9,68.6,22.4,68.8,21.9,68.8z"/>
	</g>
</g>
</svg>
