<?xml version="1.0" encoding="utf-8"?>
<!-- Generator: Adobe Illustrator 23.0.5, SVG Export Plug-In . SVG Version: 6.00 Build 0)  -->
<svg version="1.1" id="Layer_1" xmlns="http://www.w3.org/2000/svg" xmlns:xlink="http://www.w3.org/1999/xlink" x="0px" y="0px"
	 viewBox="0 0 167 167" style="enable-background:new 0 0 167 167;" xml:space="preserve">
<style type="text/css">
	.st0{fill:#1D2B44;}
	.st1{fill:#FFFFFF;}
</style>
<g transform="translate(-1014 -4696)">
	<circle class="st0" cx="1097.5" cy="4779.5" r="83.5"/>
	<g transform="translate(1047 4729.502)">
		<path class="st1" d="M84.7,73.5c-4.7,0-9.2,2.4-11.9,6.3c-3.5-2.6-8-3.1-12-1.5c-0.6-0.7-1.3-1.3-2-1.9V46.5
			c12.4-4.8,18.6-18.7,13.8-31.1S53.8-3.2,41.4,1.6S22.8,20.3,27.6,32.7C30.1,39,35.1,44,41.4,46.5v29.9c-0.3,0.2-0.7,0.5-1,0.8
			c-5.9-5.3-15-4.8-20.3,1.1c-0.2,0.2-0.4,0.4-0.5,0.6c-6-3.3-13.7-1.2-17,4.9c-1,1.9-1.6,3.9-1.6,6.1v5.8c0,1.6,1.3,2.9,2.9,2.9
			c0,0,0,0,0,0h92.4c1.6,0,2.9-1.3,2.9-2.9l0,0v-7.7C99.1,79.9,92.7,73.5,84.7,73.5z M31.8,24c0-10.1,8.2-18.3,18.3-18.3
			S68.3,13.9,68.3,24s-8.2,18.3-18.3,18.3C40,42.3,31.8,34.1,31.8,24z M53,47.9v25.9c-1.9-0.4-3.9-0.4-5.8,0V47.9
			C49.1,48.1,51,48.1,53,47.9z M93.4,92.7H6.8v-2.9c0-3.7,3-6.7,6.7-6.7c1.8,0,3.5,0.7,4.8,2c1.1,1.1,2.9,1.1,4.1,0
			c0.2-0.2,0.4-0.5,0.6-0.8c2-4.3,7.1-6.2,11.5-4.3c1.5,0.7,2.7,1.7,3.6,3.1c0.9,1.3,2.7,1.7,4,0.8c0.3-0.2,0.6-0.5,0.8-0.8
			c2.6-4,8-5.1,12-2.4c1.1,0.7,2,1.7,2.7,2.8c0.8,1.4,2.6,1.8,4,1c0.1,0,0.1-0.1,0.2-0.1c3-2.1,7.2-1.4,9.3,1.6
			c0.1,0.1,0.2,0.2,0.2,0.4c0.8,1.4,2.6,1.8,4,0.9c0.6-0.4,1.1-1,1.2-1.7c1.3-4.6,6.1-7.3,10.7-6c3.7,1.1,6.3,4.5,6.3,8.3L93.4,92.7
			z"/>
		<path class="st1" d="M59.5,19c0-4.7-3.9-8.5-8.6-8.4h-6.4c-1.1,0-1.9,0.9-1.9,1.9v23.1c0,1.1,0.9,1.9,1.9,1.9
			c1.1,0,1.9-0.9,1.9-1.9v-8.1c1.5,0,3.5,0,4.5,0C55.6,27.5,59.4,23.7,59.5,19z M46.4,14.4h4.5c2.5-0.1,4.7,1.9,4.7,4.5
			s-1.9,4.7-4.5,4.7c-0.1,0-0.2,0-0.3,0c-1,0-3,0-4.5,0V14.4z"/>
		<ellipse class="st1" cx="68.5" cy="58" rx="3.5" ry="2.5"/>
		<ellipse class="st1" cx="85.5" cy="66" rx="2.5" ry="3.5"/>
		<ellipse class="st1" cx="83.5" cy="31" rx="2.5" ry="3.5"/>
		<ellipse class="st1" cx="89.5" cy="15.5" rx="3.5" ry="3"/>
		<ellipse class="st1" cx="94" cy="48" rx="3" ry="3.5"/>
		<circle class="st1" cx="78" cy="2.5" r="3"/>
		<ellipse class="st1" cx="31.5" cy="58" rx="3.5" ry="2.5"/>
		<ellipse class="st1" cx="15" cy="66" rx="3" ry="3.5"/>
		<ellipse class="st1" cx="16.5" cy="31" rx="2.5" ry="3.5"/>
		<circle class="st1" cx="11" cy="15.5" r="3"/>
		<ellipse class="st1" cx="6.5" cy="48" rx="2.5" ry="3.5"/>
		<ellipse class="st1" cx="21.5" cy="2.5" rx="2.5" ry="3"/>
	</g>
</g>
</svg>
