<?xml version="1.0" encoding="utf-8"?>
<!-- Generator: Adobe Illustrator 23.0.5, SVG Export Plug-In . SVG Version: 6.00 Build 0)  -->
<svg version="1.1" xmlns="http://www.w3.org/2000/svg" xmlns:xlink="http://www.w3.org/1999/xlink" x="0px" y="0px"
	 viewBox="0 0 150 150" style="enable-background:new 0 0 150 150;" xml:space="preserve">
<style type="text/css">
	.st0{fill:#2D2D2D;}
	.st1{fill:#FFFFFF;}
	.st2{display:none;opacity:0.18;fill:#00BBDC;}
	.st3{fill:#00BBDC;}
	.st4{display:none;opacity:0.18;fill:#FFFFFF;}
	.st5{display:none;opacity:0.18;fill:#FCFCFC;}
	.st6{fill:#FCFCFC;}
</style>
<g id="earn_money">
	<g transform="translate(-8.008 0)">
		<g transform="translate(8.008 0)">
			<g transform="translate(0 0)">
				<path class="st0" d="M131.04,80.82h-1.89V63.83c0-2.59-1.26-5.02-3.38-6.52V55c0-3.36-2.73-6.08-6.08-6.08h-1.41l5.39-7.91
					c1.81-2.66,1.12-6.27-1.53-8.08L85.58,8.01c-2.65-1.81-6.27-1.12-8.08,1.53c0,0,0,0,0,0l-31.56,46.3h-8.78l2.12-21.45
					c0.02-0.24,0.18-0.45,0.4-0.53c2.74-1.04,5.08-2.94,6.66-5.41c0.13-0.2,0.36-0.31,0.6-0.28l13.77,1.36
					c0.99,0.1,1.87-0.62,1.96-1.61c0.1-0.99-0.62-1.87-1.61-1.96L47.29,24.6c-1.58-0.16-3.13,0.58-3.98,1.93
					c-1.16,1.82-2.88,3.21-4.9,3.98c-1.51,0.56-2.56,1.94-2.71,3.54l-2.15,21.8h-2.3l3.35-33.92c0.12-1.22,1.21-2.11,2.43-2
					l27.83,2.75c0.99,0.1,1.87-0.62,1.96-1.61c0.1-0.99-0.62-1.87-1.61-1.96L37.4,16.36c-3.2-0.31-6.04,2.02-6.36,5.22l-2.7,27.34
					h-4.6c-3.36,0-6.08,2.73-6.08,6.08v1.58c-2.83,1.3-4.65,4.13-4.66,7.25v61.22c0.01,4.4,3.57,7.97,7.98,7.98h100.2
					c4.4-0.01,7.97-3.57,7.98-7.98v-17h1.89c2.23-0.01,4.03-1.81,4.04-4.04V84.85C135.07,82.63,133.27,80.82,131.04,80.82z
					 M119.69,52.51L119.69,52.51c1.38,0,2.49,1.12,2.49,2.49v0.91c-0.33-0.04-0.67-0.07-1.01-0.07h-7.62l2.28-3.34L119.69,52.51z
					 M80.46,11.57c0.33-0.49,0.84-0.82,1.42-0.93c0.14-0.03,0.28-0.04,0.42-0.04c0.45,0,0.88,0.14,1.25,0.39l36.56,24.91
					c1.01,0.69,1.28,2.08,0.59,3.09l-11.49,16.86h-2.76l5.63-8.27c0.91-1.32,0.99-3.05,0.2-4.45c-1.06-1.88-1.48-4.05-1.2-6.19
					c0.21-1.58-0.49-3.14-1.82-4.03L90.31,19.99c-1.31-0.9-3.02-0.99-4.42-0.22c-1.89,1.04-4.07,1.44-6.21,1.15
					c-1.59-0.21-3.17,0.49-4.07,1.81L53.05,55.85h-2.76L80.46,11.57z M81.26,42.06c-7.78,0.01-14.22,6.03-14.76,13.79h-9.11
					l21.19-31.1l0,0c0.12-0.17,0.31-0.28,0.52-0.28c0.03,0,0.05,0,0.08,0c2.91,0.4,5.87-0.15,8.44-1.56
					c0.21-0.11,0.46-0.09,0.66,0.04l18.96,12.92c0.2,0.13,0.3,0.36,0.28,0.6c-0.37,2.91,0.2,5.86,1.64,8.42
					c0.11,0.21,0.1,0.47-0.04,0.67l-7.01,10.29h-6.09C95.48,48.09,89.03,42.07,81.26,42.06z M92.42,55.85H70.09
					c0.56-6.16,6.01-10.71,12.18-10.14C87.66,46.19,91.93,50.46,92.42,55.85L92.42,55.85z M21.25,55c0-1.38,1.12-2.49,2.5-2.49h4.24
					l-0.33,3.34h-6.41L21.25,55z M16.59,63.83c0-2.43,1.97-4.39,4.39-4.39h100.2c2.43,0,4.39,1.97,4.39,4.39c0,0,0,0,0,0v4.98H16.59
					L16.59,63.83z M125.56,125.05c0,2.43-1.97,4.39-4.39,4.39h0H20.98c-2.43,0-4.39-1.97-4.39-4.39l0,0v-4.98h9.69
					c0.99,0,1.8-0.8,1.8-1.8s-0.8-1.8-1.8-1.8h-9.68V72.4h108.98v8.41h-17.08c-5.22,0-9.97,2.98-12.26,7.67l-0.02,0.05
					c-0.02,0.04-0.03,0.08-0.05,0.12c-0.27,0.56-0.49,1.14-0.68,1.73l0,0c-2.23,7.19,1.78,14.82,8.97,17.05
					c1.31,0.41,2.67,0.61,4.04,0.61h17.07v8.41H37.77c-0.99,0-1.8,0.8-1.8,1.8s0.8,1.8,1.8,1.8h87.79L125.56,125.05z M131.49,104.02
					c0,0.25-0.2,0.45-0.45,0.45h-22.55c-3.68,0-7.06-2.02-8.82-5.25c-0.08-0.14-0.15-0.29-0.22-0.43c-0.14-0.3-0.27-0.6-0.38-0.91
					c-0.81-2.22-0.81-4.66,0-6.89c0.11-0.31,0.24-0.61,0.38-0.9c0.07-0.15,0.14-0.29,0.22-0.43c1.75-3.23,5.14-5.25,8.81-5.25h22.55
					c0.25,0,0.45,0.2,0.45,0.45L131.49,104.02L131.49,104.02z"/>
			</g>
		</g>
		<g transform="translate(84.664 69.323)">
			<path class="st0" d="M32.26,17.83c-4.02,0-7.28,3.26-7.28,7.28s3.26,7.28,7.28,7.28s7.28-3.26,7.28-7.28v0
				C39.53,21.09,36.28,17.83,32.26,17.83z M32.26,28.81c-2.04,0-3.7-1.66-3.7-3.7s1.66-3.7,3.7-3.7c2.04,0,3.7,1.66,3.7,3.7
				C35.95,27.15,34.3,28.81,32.26,28.81L32.26,28.81z"/>
		</g>
	</g>
</g>
<g id="find_parking">
</g>
<g id="parking_services">
</g>
<g id="parking_technology">
</g>
<g id="for_drivers">
</g>
<g id="for_parking_pwner">
</g>
<g id="book__x26__pay">
</g>
<g id="arrive_and_park">
</g>
<g id="smart_parking">
</g>
<g id="find_parking_1_">
</g>
<g id="earn_money_1_">
</g>
<g id="fastag">
</g>
<g id="Layer_14">
</g>
<g id="Layer_15">
</g>
<g id="Layer_16">
</g>
<g id="Layer_2">
</g>
</svg>
