<?xml version="1.0" encoding="utf-8"?>
<!-- Generator: Adobe Illustrator 23.0.5, SVG Export Plug-In . SVG Version: 6.00 Build 0)  -->
<svg version="1.1" xmlns="http://www.w3.org/2000/svg" xmlns:xlink="http://www.w3.org/1999/xlink" x="0px" y="0px"
	 viewBox="0 0 150 150" style="enable-background:new 0 0 150 150;" xml:space="preserve">
<style type="text/css">
	.st0{fill:#2D2D2D;}
	.st1{fill:#FFFFFF;}
	.st2{display:none;opacity:0.18;fill:#00BBDC;}
	.st3{fill:#00BBDC;}
	.st4{display:none;opacity:0.18;fill:#FFFFFF;}
	.st5{display:none;opacity:0.18;fill:#FCFCFC;}
	.st6{fill:#FCFCFC;}
</style>
<g id="earn_money">
</g>
<g id="find_parking">
</g>
<g id="parking_services">
</g>
<g id="parking_technology">
</g>
<g id="for_drivers">
</g>
<g id="for_parking_pwner">
	<circle class="st5" cx="74.5" cy="74.5" r="72.5"/>
	<path class="st6" d="M114.02,115.57V52.08l1.64,0.98c3.25,1.93,7.45,0.86,9.37-2.39c1.93-3.25,0.86-7.45-2.39-9.37l-6.91-4.13V18.1
		h-13.68v10.91L77.04,14.1c-2.5-1.46-5.6-1.46-8.11,0l-45.6,27.19c-3.25,1.93-4.32,6.12-2.4,9.37c1.92,3.25,6.12,4.32,9.37,2.4
		c0,0,0,0,0.01,0l1.64-0.98v63.49H19.99v3.4H126v-3.4H114.02z M105.47,21.52h6.84v13.61l-6.84-4.08V21.52z M28.57,50.11
		c-1.63,0.91-3.69,0.38-4.69-1.2c-0.96-1.63-0.42-3.73,1.2-4.69l45.6-27.2c1.42-0.83,3.18-0.83,4.6,0l45.6,27.2
		c1.62,0.97,2.16,3.06,1.2,4.69c-1,1.58-3.05,2.1-4.68,1.2L77.04,26.06c-2.5-1.49-5.61-1.49-8.11,0L28.57,50.11z M67.86,40.33
		c0-2.83,2.3-5.13,5.13-5.13c2.83,0,5.13,2.3,5.13,5.13c0,2.83-2.3,5.13-5.13,5.13l0,0C70.16,45.46,67.86,43.16,67.86,40.33z
		 M72.99,31.78c-4.72,0-8.54,3.83-8.55,8.55c0.01,1.86,0.62,3.66,1.75,5.13H43.05L70.68,29c1.42-0.83,3.18-0.83,4.61,0l27.63,16.46
		H79.79c1.13-1.47,1.75-3.27,1.75-5.13C81.54,35.61,77.71,31.78,72.99,31.78z M35.37,50.04l1.94-1.16h71.34l1.94,1.16v65.53h-10.26
		v-3.43c-0.02-12.17-8.06-22.86-19.74-26.26c6.28-4.2,7.96-12.7,3.76-18.98c-4.2-6.28-12.7-7.96-18.98-3.76s-7.96,12.7-3.76,18.98
		c0.99,1.49,2.27,2.76,3.76,3.76c-11.68,3.39-19.73,14.09-19.74,26.26v3.43H35.37V50.04z M62.73,74.52h0.28
		c3.06,0.01,6.03-1.04,8.41-2.97l1.08,0.72c2.2,1.47,4.78,2.25,7.43,2.25h3.3c0,5.67-4.59,10.26-10.25,10.26
		c-5.67,0-10.26-4.59-10.26-10.25c0,0,0-0.01,0-0.01L62.73,74.52z M63.33,71.09c1.89-5.33,7.74-8.13,13.07-6.24
		c2.92,1.03,5.22,3.33,6.24,6.25h-2.71c-1.97,0-3.89-0.58-5.53-1.68l-3.35-2.24l-0.99,0.99C68.28,69.98,65.87,71.02,63.33,71.09
		L63.33,71.09z M75.41,96.54l5.86-6.84c0.55,0.2,1.09,0.42,1.61,0.66l-1.05,11.53L75.41,96.54z M77.66,88.66l-4.67,5.46l-4.68-5.46
		C71.4,88.05,74.58,88.05,77.66,88.66L77.66,88.66z M64.7,89.71l5.86,6.84l-6.43,5.35l-1.05-11.53
		C63.61,90.13,64.15,89.91,64.7,89.71L64.7,89.71z M59.82,92.17l1.5,16.53l6.15-5.12l-1.16,11.98H49.05v-3.41
		C49.06,104.1,53.1,96.59,59.82,92.17L59.82,92.17z M71.2,100.46l1.79-1.49l1.79,1.49l1.46,15.09h-6.49L71.2,100.46z M78.51,103.58
		l6.15,5.12l1.5-16.53c6.72,4.42,10.77,11.92,10.77,19.97v3.43H79.67L78.51,103.58z"/>
	<path class="st6" d="M55.89,52.3h-17.1v20.52h17.1V52.3z M52.47,69.4H42.21V55.72h10.26L52.47,69.4z"/>
	<path class="st6" d="M107.18,52.3h-17.1v20.52h17.1V52.3z M103.76,69.4H93.5V55.72h10.26L103.76,69.4z"/>
	<path class="st6" d="M103.76,108.72h3.42v3.42h-3.42V108.72z"/>
	<path class="st6" d="M103.76,95.04h3.42v3.42h-3.42V95.04z"/>
	<path class="st6" d="M103.76,101.88h3.42v3.42h-3.42V101.88z"/>
	<path class="st6" d="M38.79,83.07h3.42v3.42h-3.42V83.07z"/>
	<path class="st6" d="M38.79,76.24h3.42v3.42h-3.42V76.24z"/>
	<path class="st6" d="M38.79,89.91h3.42v3.42h-3.42V89.91z"/>
</g>
<g id="book__x26__pay">
</g>
<g id="arrive_and_park">
</g>
<g id="smart_parking">
</g>
<g id="find_parking_1_">
</g>
<g id="earn_money_1_">
</g>
<g id="fastag">
</g>
<g id="Layer_14">
</g>
<g id="Layer_15">
</g>
<g id="Layer_16">
</g>
<g id="Layer_2">
</g>
</svg>
