<?xml version="1.0" encoding="utf-8"?>
<!-- Generator: Adobe Illustrator 23.0.5, SVG Export Plug-In . SVG Version: 6.00 Build 0)  -->
<svg version="1.1" xmlns="http://www.w3.org/2000/svg" xmlns:xlink="http://www.w3.org/1999/xlink" x="0px" y="0px"
	 viewBox="0 0 150 150" style="enable-background:new 0 0 150 150;" xml:space="preserve">
<style type="text/css">
	.st0{fill:#2D2D2D;}
	.st1{fill:#FFFFFF;}
	.st2{display:none;opacity:0.18;fill:#00BBDC;}
	.st3{fill:#00BBDC;}
	.st4{display:none;opacity:0.18;fill:#FFFFFF;}
	.st5{display:none;opacity:0.18;fill:#FCFCFC;}
	.st6{fill:#FCFCFC;}
</style>
<g id="earn_money">
</g>
<g id="find_parking">
	<g transform="translate(0 -39.97)">
		<g transform="translate(96.048 50.035)">
			<path class="st1" d="M27.65,17.16h-6.63c-0.8-0.09-1.52,0.48-1.61,1.28c0,0.01,0,0.02,0,0.04l0,0v21.45
				c0,0.89,1.06,1.35,2.14,1.35c1.06,0,2.14-0.46,2.14-1.35v-7.65h3.7c4.36,0,7.75-2.08,7.75-7.49v-0.2
				C35.14,19.18,31.84,17.16,27.65,17.16z M30.85,25.12c0,2.57-1.32,3.79-3.46,3.79h-3.69v-7.99h3.7c2.14,0,3.46,1.22,3.46,3.79
				L30.85,25.12z"/>
		</g>
		<g transform="translate(27.636 48.823)">
			<g transform="translate(0 0)">
				<path class="st1" d="M60.26,26.76c-12.95-12.95-33.95-12.95-46.9,0c-0.76,0.76-0.76,1.98,0,2.74c0.76,0.76,1.98,0.76,2.74,0
					c11.44-11.44,29.99-11.44,41.43,0c0,0,0,0,0,0c0.76,0.76,1.98,0.76,2.74,0C61.03,28.75,61.03,27.52,60.26,26.76L60.26,26.76z"/>
			</g>
		</g>
		<g transform="translate(34.919 59.131)">
			<g transform="translate(0 0)">
				<path class="st1" d="M45,24.44c-8.55-8.53-22.38-8.53-30.93,0c-0.76,0.76-0.76,1.98,0,2.74c0.76,0.76,1.98,0.76,2.74,0
					c7.03-7.02,18.42-7.02,25.46,0c0.76,0.76,1.98,0.76,2.74,0C45.76,26.42,45.76,25.2,45,24.44L45,24.44z"/>
			</g>
		</g>
		<g transform="translate(42.085 69.262)">
			<g transform="translate(0 0)">
				<path class="st1" d="M29.97,22.17c-4.2-4.19-11.01-4.19-15.21,0c-0.76,0.76-0.76,1.98,0,2.74c0.76,0.76,1.98,0.76,2.74,0
					c2.69-2.68,7.05-2.68,9.74,0c0.76,0.76,1.98,0.76,2.74,0C30.74,24.15,30.74,22.92,29.97,22.17L29.97,22.17z"/>
			</g>
		</g>
		<g transform="translate(15.001 93.594)">
			<path class="st1" d="M90.37,35.53c-0.84-0.46-1.66-0.97-2.46-1.5l-12.8-8.65c-3.87-2.62-8.43-4.02-13.11-4.01h-23.5
				c-6.2-0.02-12.15,2.44-16.53,6.83c-2.26,2.26-4.86,4.15-7.69,5.63c-2.47,1.28-3.43,4.32-2.15,6.79c0.87,1.67,2.59,2.72,4.47,2.72
				h8.01c1.07,0,1.93-0.87,1.93-1.94c0-1.07-0.87-1.93-1.93-1.93h-8.01c-0.64,0-1.16-0.53-1.16-1.17c0-0.43,0.24-0.82,0.62-1.02
				c3.19-1.65,6.1-3.79,8.64-6.32c3.65-3.66,8.62-5.71,13.79-5.7h5.26v14.22h-6.43c-1.07,0-1.94,0.86-1.94,1.93
				c0,1.07,0.86,1.94,1.93,1.94c0,0,0,0,0,0h53.07c1.59,0,2.88-1.29,2.89-2.89C93.29,38.4,92.17,36.51,90.37,35.53z M47.64,39.46
				V25.24h14.37c3.9,0,7.71,1.16,10.94,3.35l12.8,8.65c0.89,0.6,1.82,1.17,2.76,1.68c0.24,0.13,0.44,0.31,0.6,0.53L47.64,39.46z"/>
		</g>
		<g transform="translate(45.047 116.302)">
			<path class="st1" d="M22.39,23.56h-5.98c-1.07,0-1.93,0.87-1.93,1.94c0,1.07,0.87,1.93,1.93,1.93h5.98
				c1.07,0,1.93-0.87,1.93-1.94C24.33,24.43,23.46,23.57,22.39,23.56z"/>
		</g>
		<g transform="translate(0 39.97)">
			<g transform="translate(0 0)">
				<path class="st1" d="M144.33,98.27l-0.61-1.01c-2.31-3.83-6.13-6.51-10.52-7.39l-5-0.99V63.55h12.93c2.66,0,4.82-2.16,4.82-4.82
					v-37.7c0-2.66-2.16-4.82-4.82-4.82h-37.69c-2.66,0-4.82,2.16-4.82,4.82v14.3c0,1.07,0.86,1.94,1.93,1.94
					c1.07,0,1.94-0.86,1.94-1.93c0,0,0,0,0,0v-14.3c0-0.53,0.43-0.96,0.95-0.96h37.7c0.53,0,0.96,0.43,0.96,0.96v37.7
					c0,0.53-0.43,0.96-0.96,0.96h-37.7c-0.53,0-0.96-0.43-0.96-0.96V47.9c0-1.07-0.87-1.93-1.94-1.93c-1.07,0-1.93,0.87-1.93,1.93
					v10.81c0,2.66,2.16,4.82,4.82,4.82h14.66v23.32l-2.57-0.51c-3.35-0.86-6.5-2.35-9.29-4.39l-12.8-8.64
					c-4.85-3.28-10.57-5.04-16.43-5.03h-23.5c-7.77-0.02-15.22,3.06-20.72,8.55c-3.49,3.49-7.93,5.88-12.76,6.89l-2.78,0.58
					c-4.15,0.88-7.12,4.54-7.13,8.79v18.75c0,2.24,1.32,4.27,3.36,5.18l7.71,3.43c1.33,6.96,8.05,11.53,15.01,10.2
					c4.78-0.91,8.64-4.46,9.95-9.15h64.28c1.91,6.82,8.99,10.8,15.82,8.89c4.31-1.21,7.68-4.58,8.89-8.89h3.67
					c3.96,0,7.17-3.22,7.18-7.18v-10.05C146,102.16,145.42,100.09,144.33,98.27z M121.98,63.55h2.36v24.56l-2.36-0.47V63.55z
					 M40.15,124.35c-3.5,3.5-9.18,3.5-12.69,0c-2.65-2.65-3.37-6.66-1.82-10.07l0.04-0.08c0.05-0.1,0.09-0.2,0.14-0.29
					c0.02-0.05,0.05-0.09,0.07-0.14c0.04-0.08,0.09-0.17,0.14-0.25c0.03-0.06,0.07-0.11,0.1-0.17c0.04-0.07,0.09-0.15,0.14-0.22
					s0.09-0.13,0.13-0.19c0.04-0.06,0.09-0.13,0.13-0.19c0.04-0.06,0.11-0.14,0.16-0.21s0.08-0.11,0.13-0.16
					c0.06-0.08,0.13-0.16,0.2-0.23c0.04-0.04,0.07-0.09,0.11-0.13c0.1-0.11,0.2-0.22,0.3-0.32l0.03-0.03l0.06-0.06
					c0.09-0.09,0.18-0.17,0.27-0.26l0.07-0.06c0.09-0.08,0.18-0.16,0.28-0.24l0.03-0.02c3.3-2.66,8-2.65,11.29,0.01l0.01,0.01
					c0.1,0.08,0.2,0.17,0.29,0.25l0.05,0.05c0.11,0.1,0.22,0.21,0.33,0.31c0.12,0.12,0.23,0.24,0.34,0.36
					c0.05,0.05,0.09,0.11,0.14,0.16c0.05,0.05,0.11,0.13,0.17,0.2c0.06,0.07,0.12,0.15,0.18,0.23c0.03,0.04,0.07,0.09,0.1,0.13
					c0.07,0.1,0.14,0.2,0.21,0.3l0.03,0.05C43.63,116.65,43.15,121.34,40.15,124.35z M129.14,124.35c-3.51,3.5-9.18,3.5-12.69-0.01
					c-3-3-3.48-7.69-1.17-11.24l0.03-0.05c0.07-0.1,0.14-0.2,0.21-0.3c0.03-0.04,0.06-0.09,0.1-0.13c0.06-0.08,0.12-0.16,0.18-0.23
					c0.06-0.08,0.11-0.13,0.17-0.2c0.06-0.07,0.09-0.11,0.14-0.16c0.11-0.12,0.22-0.24,0.34-0.36c3.5-3.5,9.18-3.5,12.69,0
					c0.12,0.12,0.23,0.24,0.34,0.36c0.05,0.05,0.09,0.11,0.14,0.16c0.05,0.05,0.11,0.13,0.17,0.2s0.12,0.15,0.18,0.23l0.1,0.13
					c0.07,0.1,0.14,0.2,0.21,0.3l0.03,0.05C132.62,116.65,132.13,121.34,129.14,124.35z M142.13,114.31L142.13,114.31
					c0,1.82-1.48,3.3-3.31,3.31h-3.19c-0.07-2.81-1.08-5.51-2.85-7.68l-0.04-0.04c-0.11-0.13-0.22-0.27-0.34-0.4
					c-0.03-0.03-0.06-0.07-0.09-0.1c-0.12-0.14-0.25-0.27-0.38-0.4c-0.02-0.02-0.04-0.05-0.06-0.07c-1.64-1.65-3.69-2.81-5.94-3.38
					c-1.85-0.46-3.79-0.51-5.66-0.14c-2.49,0.49-4.77,1.71-6.56,3.51c-0.02,0.02-0.04,0.04-0.06,0.07c-0.13,0.13-0.26,0.27-0.38,0.4
					c-0.03,0.03-0.06,0.07-0.08,0.1c-0.12,0.13-0.23,0.27-0.34,0.4l-0.03,0.04c-1.77,2.18-2.78,4.88-2.85,7.68H46.64
					c-0.07-2.81-1.08-5.52-2.86-7.69l-0.02-0.03c-0.12-0.14-0.24-0.28-0.36-0.42l-0.07-0.08c-0.15-0.16-0.3-0.32-0.45-0.47
					c-5.02-5.01-13.14-5.01-18.16,0c-0.14,0.14-0.28,0.29-0.42,0.44c-0.04,0.04-0.08,0.09-0.12,0.13c-0.1,0.11-0.19,0.22-0.28,0.33
					l-0.12,0.15c-0.1,0.12-0.19,0.24-0.28,0.36c-0.03,0.04-0.06,0.07-0.08,0.11c-0.24,0.33-0.47,0.67-0.68,1.03l-0.02,0.03
					c-0.1,0.17-0.2,0.35-0.29,0.53l-0.01,0.02c-0.68,1.29-1.13,2.68-1.34,4.12l-6.03-2.68c-0.65-0.29-1.06-0.93-1.06-1.64V93.1
					c0.01-2.41,1.7-4.49,4.06-4.99l2.78-0.58c5.56-1.16,10.67-3.92,14.69-7.93c4.77-4.77,11.24-7.45,17.98-7.43h23.5
					c5.08-0.01,10.05,1.51,14.26,4.36l12.8,8.65c3.21,2.33,6.85,4.03,10.71,4.98l17.67,3.51c3.32,0.66,6.21,2.69,7.95,5.59
					l0.61,1.01c0.73,1.21,1.11,2.59,1.11,4.01L142.13,114.31z"/>
			</g>
		</g>
		<g transform="translate(16.234 127.462)">
			<g transform="translate(0 0)">
				<path class="st1" d="M21.73,26.36c-2.3-2.29-6.02-2.29-8.31,0c-2.29,2.3-2.29,6.02,0,8.31c2.29,2.29,6.02,2.29,8.31,0
					c2.29-2.26,2.32-5.96,0.05-8.26C21.76,26.4,21.74,26.38,21.73,26.36z M18.98,31.94c-0.78,0.78-2.05,0.78-2.84,0
					c-0.78-0.78-0.78-2.05,0-2.84c0.78-0.78,2.05-0.78,2.84,0c0,0,0,0,0,0c0.78,0.77,0.79,2.03,0.02,2.82
					C19,31.92,19,31.93,18.98,31.94L18.98,31.94z"/>
			</g>
		</g>
		<g transform="translate(97.39 127.462)">
			<g transform="translate(0 0)">
				<path class="st1" d="M29.56,26.36c-2.29-2.3-6.02-2.3-8.31,0c-2.3,2.29-2.3,6.02,0,8.31c2.29,2.3,6.02,2.3,8.31,0
					c1.1-1.1,1.72-2.6,1.72-4.16C31.29,28.96,30.67,27.46,29.56,26.36z M26.82,31.94c-0.78,0.78-2.05,0.78-2.83,0
					c-0.78-0.78-0.78-2.05,0-2.83c0.78-0.78,2.05-0.78,2.83,0c0.38,0.38,0.59,0.89,0.59,1.42C27.41,31.05,27.2,31.56,26.82,31.94
					L26.82,31.94z"/>
			</g>
		</g>
	</g>
</g>
<g id="parking_services">
</g>
<g id="parking_technology">
</g>
<g id="for_drivers">
</g>
<g id="for_parking_pwner">
</g>
<g id="book__x26__pay">
</g>
<g id="arrive_and_park">
</g>
<g id="smart_parking">
</g>
<g id="find_parking_1_">
</g>
<g id="earn_money_1_">
</g>
<g id="fastag">
</g>
<g id="Layer_14">
</g>
<g id="Layer_15">
</g>
<g id="Layer_16">
</g>
<g id="Layer_2">
</g>
</svg>
