<?xml version="1.0" encoding="utf-8"?>
<!-- Generator: Adobe Illustrator 23.0.5, SVG Export Plug-In . SVG Version: 6.00 Build 0)  -->
<svg version="1.1" xmlns="http://www.w3.org/2000/svg" xmlns:xlink="http://www.w3.org/1999/xlink" x="0px" y="0px"
	 viewBox="0 0 150 150" style="enable-background:new 0 0 150 150;" xml:space="preserve">
<style type="text/css">
	.st0{fill:#2D2D2D;}
	.st1{fill:#FFFFFF;}
	.st2{display:none;opacity:0.18;fill:#00BBDC;}
	.st3{fill:#00BBDC;}
	.st4{display:none;opacity:0.18;fill:#FFFFFF;}
	.st5{display:none;opacity:0.18;fill:#FCFCFC;}
	.st6{fill:#FCFCFC;}
</style>
<g id="earn_money">
</g>
<g id="find_parking">
</g>
<g id="parking_services">
	<g transform="translate(-1 -1)">
		<path class="st1" d="M88.21,67.74h1.95v21.47c0,5.39,4.37,9.76,9.76,9.76h19.52c5.39-0.01,9.75-4.37,9.76-9.76V67.74h1.95
			c3.23,0,5.85-2.62,5.85-5.85c0-3.23-2.62-5.85-5.85-5.85h-1.95v-8.14c0-8.44-6.84-15.28-15.28-15.28h-8.48
			c-8.44,0-15.28,6.84-15.28,15.27c0,0,0,0,0,0v8.14h-1.95c-3.23,0-5.85,2.62-5.85,5.85C82.35,65.12,84.98,67.74,88.21,67.74z
			 M94.19,46.27h3.78c4.31,0,7.8-3.5,7.81-7.81v-1.95h7.81v1.95c0,4.31,3.5,7.8,7.81,7.81h3.78c0.08,0.54,0.12,1.08,0.13,1.62v11.83
			c-3.6-2.42-7.85-3.7-12.19-3.69h-6.86c-4.34-0.01-8.58,1.27-12.19,3.69V47.89C94.07,47.35,94.11,46.81,94.19,46.27L94.19,46.27z
			 M94.06,64.7c3.32-3.07,7.67-4.77,12.19-4.76h6.86c4.52-0.01,8.87,1.69,12.19,4.76v15.84c-3.32,3.07-7.67,4.77-12.19,4.76h-6.86
			c-4.52,0.01-8.87-1.69-12.19-4.76L94.06,64.7L94.06,64.7z M119.43,95.06H99.92c-3.23,0-5.85-2.62-5.85-5.85v-3.69
			c3.6,2.41,7.85,3.7,12.19,3.69h6.86c4.34,0.01,8.58-1.27,12.19-3.69v3.69C125.29,92.44,122.67,95.06,119.43,95.06L119.43,95.06z
			 M131.14,59.93c1.08,0.03,1.93,0.92,1.9,2c-0.02,1.04-0.86,1.88-1.9,1.9h-1.95v-3.9L131.14,59.93z M123.86,42.37h-2.47
			c-2.15,0-3.9-1.75-3.9-3.9V37.1C120.2,37.99,122.48,39.87,123.86,42.37L123.86,42.37z M101.87,37.1v1.37c0,2.15-1.75,3.9-3.9,3.9
			H95.5C96.88,39.87,99.16,37.98,101.87,37.1L101.87,37.1z M88.21,59.94h1.95v3.9h-1.95c-1.08,0.03-1.97-0.83-2-1.9
			c-0.03-1.08,0.83-1.97,1.9-2C88.15,59.93,88.18,59.93,88.21,59.94z"/>
		<path class="st1" d="M21.85,67.74h1.95v21.47c0,5.39,4.37,9.76,9.76,9.76h19.52c5.39-0.01,9.75-4.37,9.76-9.76V67.74h1.95
			c3.23,0,5.85-2.62,5.85-5.85c0-3.23-2.62-5.85-5.85-5.85l0,0h-1.95v-8.14c0-8.44-6.84-15.28-15.28-15.28h-8.48
			c-8.44,0-15.28,6.84-15.28,15.27c0,0,0,0,0,0v8.14h-1.95c-3.23,0-5.85,2.62-5.85,5.85C16,65.12,18.62,67.74,21.85,67.74z
			 M27.84,46.27h3.78c4.31,0,7.8-3.5,7.81-7.81v-1.95h7.81v1.95c0,4.31,3.5,7.8,7.81,7.81h3.78c0.08,0.54,0.12,1.08,0.13,1.62v11.83
			c-3.6-2.42-7.85-3.7-12.19-3.69h-6.86c-4.34-0.01-8.58,1.27-12.19,3.69V47.89C27.71,47.35,27.75,46.81,27.84,46.27L27.84,46.27z
			 M27.71,64.7c3.32-3.07,7.67-4.77,12.19-4.76h6.86c4.52-0.01,8.87,1.69,12.19,4.76v15.84c-3.32,3.07-7.67,4.77-12.19,4.76h-6.86
			c-4.52,0.01-8.87-1.69-12.19-4.76L27.71,64.7z M53.08,95.06H33.56c-3.23,0-5.85-2.62-5.85-5.85v-3.69
			c3.6,2.41,7.85,3.7,12.19,3.69h6.86c4.34,0.01,8.58-1.27,12.19-3.69v3.69C58.93,92.44,56.31,95.06,53.08,95.06L53.08,95.06z
			 M64.79,59.93c1.08-0.03,1.97,0.83,2,1.9c0.03,1.08-0.83,1.97-1.9,2c-0.03,0-0.06,0-0.09,0h-1.95v-3.9L64.79,59.93z M57.5,42.37
			h-2.47c-2.15,0-3.9-1.75-3.9-3.9V37.1C53.84,37.99,56.12,39.87,57.5,42.37L57.5,42.37z M35.52,37.1v1.37c0,2.15-1.75,3.9-3.9,3.9
			h-2.47C30.52,39.87,32.8,37.98,35.52,37.1L35.52,37.1z M21.85,59.94h1.95v3.9h-1.95c-1.08,0.03-1.97-0.83-2-1.9
			c-0.03-1.08,0.83-1.97,1.9-2C21.79,59.93,21.82,59.93,21.85,59.94z"/>
		<path class="st1" d="M21.85,28.71h42.94c1.08,0,1.95-0.87,1.95-1.95l0,0v-7.81c0-1.08-0.87-1.95-1.95-1.95l0,0H21.85
			c-1.08,0-1.95,0.87-1.95,1.95c0,0,0,0,0,0v7.81C19.9,27.84,20.78,28.71,21.85,28.71L21.85,28.71z M23.81,20.9h39.03v3.9H23.81
			V20.9z"/>
		<path class="st1" d="M88.21,28.71h42.94c1.08,0,1.95-0.87,1.95-1.95l0,0v-7.81c0-1.08-0.87-1.95-1.95-1.95l0,0H88.21
			c-1.08,0-1.95,0.87-1.95,1.95c0,0,0,0,0,0v7.81C86.26,27.84,87.13,28.71,88.21,28.71L88.21,28.71z M90.16,20.9h39.03v3.9H90.16
			L90.16,20.9z"/>
		<path class="st1" d="M16,134.1h121v3.9H16V134.1z"/>
		<path class="st1" d="M25.76,118.48h7.81v3.9h-7.81V118.48z"/>
		<path class="st1" d="M41.37,118.48h7.81v3.9h-7.81V118.48z"/>
		<path class="st1" d="M56.98,118.48h7.81v3.9h-7.81V118.48z"/>
		<path class="st1" d="M72.6,118.48h7.81v3.9H72.6V118.48z"/>
		<path class="st1" d="M88.21,118.48h7.81v3.9h-7.81V118.48z"/>
		<path class="st1" d="M103.82,118.48h7.81v3.9h-7.81V118.48z"/>
		<path class="st1" d="M119.44,118.48h7.81v3.9h-7.81V118.48z"/>
		<path class="st1" d="M78.45,17h-3.9v85.87H16v3.9h121v-3.9H78.45V17z"/>
	</g>
</g>
<g id="parking_technology">
</g>
<g id="for_drivers">
</g>
<g id="for_parking_pwner">
</g>
<g id="book__x26__pay">
</g>
<g id="arrive_and_park">
</g>
<g id="smart_parking">
</g>
<g id="find_parking_1_">
</g>
<g id="earn_money_1_">
</g>
<g id="fastag">
</g>
<g id="Layer_14">
</g>
<g id="Layer_15">
</g>
<g id="Layer_16">
</g>
<g id="Layer_2">
</g>
</svg>
