<?xml version="1.0" encoding="utf-8"?>
<!-- Generator: Adobe Illustrator 23.0.5, SVG Export Plug-In . SVG Version: 6.00 Build 0)  -->
<svg version="1.1" id="Layer_1" xmlns="http://www.w3.org/2000/svg" xmlns:xlink="http://www.w3.org/1999/xlink" x="0px" y="0px"
	 viewBox="0 0 167 167" style="enable-background:new 0 0 167 167;" xml:space="preserve">
<style type="text/css">
	.st0{fill:#1D2B44;}
	.st1{fill:#FFFFFF;}
</style>
<g transform="translate(-132 -4696)">
	<circle class="st0" cx="215.5" cy="4779.5" r="83.5"/>
	<g transform="translate(129.35 4728.976)">
		<path class="st1" d="M71.1,74.4c-2.1,0-3.7,1.7-3.7,3.7v2.8c0,2.1,1.7,3.7,3.7,3.7c2.1,0,3.7-1.7,3.7-3.7v-2.8
			C74.8,76,73.2,74.4,71.1,74.4z M71.8,80.9c0,0.4-0.3,0.7-0.7,0.7l0,0c-0.4,0-0.7-0.3-0.7-0.7v-2.8c0-0.4,0.3-0.7,0.7-0.7
			c0.4,0,0.7,0.3,0.7,0.7L71.8,80.9z"/>
		<path class="st1" d="M104,74.4c-2.1,0-3.7,1.7-3.7,3.7v2.8c0,2.1,1.7,3.7,3.7,3.7s3.7-1.7,3.7-3.7v-2.8
			C107.7,76,106.1,74.4,104,74.4z M104.8,80.9c0,0.4-0.3,0.7-0.7,0.7c-0.4,0-0.7-0.3-0.7-0.7v-2.8c0-0.4,0.3-0.7,0.7-0.7
			c0.4,0,0.7,0.3,0.7,0.7l0,0V80.9z"/>
		<path class="st1" d="M96.3,76.9H78.8c-0.8,0-1.5,0.7-1.5,1.5s0.7,1.5,1.5,1.5l0,0h17.5c0.8,0,1.5-0.7,1.5-1.5S97.1,76.9,96.3,76.9
			z"/>
		<path class="st1" d="M96.3,80.5H78.8c-0.8,0-1.5,0.7-1.5,1.5s0.7,1.5,1.5,1.5l0,0h17.5c0.8,0,1.5-0.7,1.5-1.5S97.1,80.5,96.3,80.5
			z"/>
		<path class="st1" d="M71.1,30.6c2.1,0,3.7-1.7,3.7-3.7v-2.4c0-2.1-1.7-3.7-3.7-3.7c-2.1,0-3.7,1.7-3.7,3.7l0,0v2.4
			C67.4,29,69.1,30.6,71.1,30.6z M70.4,24.6c0-0.4,0.3-0.7,0.7-0.7c0.4,0,0.7,0.3,0.7,0.7v2.4c0,0.4-0.3,0.7-0.7,0.7l0,0
			c-0.4,0-0.7-0.3-0.7-0.7L70.4,24.6z"/>
		<path class="st1" d="M104,30.6c2.1,0,3.7-1.7,3.7-3.7v-2.4c0-2.1-1.7-3.7-3.7-3.7s-3.7,1.7-3.7,3.7l0,0v2.4
			C100.3,29,102,30.6,104,30.6z M103.3,24.6c0-0.4,0.3-0.7,0.7-0.7c0.4,0,0.7,0.3,0.7,0.7l0,0v2.4c0,0.4-0.3,0.7-0.7,0.7
			c-0.4,0-0.7-0.3-0.7-0.7V24.6z"/>
		<path class="st1" d="M78.8,26.3h17.5c0.8,0,1.5-0.7,1.5-1.5s-0.7-1.5-1.5-1.5l0,0H78.8c-0.8,0-1.5,0.7-1.5,1.5S78,26.3,78.8,26.3z
			"/>
		<path class="st1" d="M78.8,29.9h17.5c0.8,0,1.5-0.7,1.5-1.5c0-0.8-0.7-1.5-1.5-1.5l0,0H78.8c-0.8,0-1.5,0.7-1.5,1.5
			C77.3,29.3,78,29.9,78.8,29.9z"/>
		<path class="st1" d="M128,0h-7.7c-0.8,0-1.5,0.7-1.5,1.5c0,0,0,0,0,0v44h-11.5c0.4-0.7,0.5-1.5,0.5-2.3v-2.3h0.8
			c2.5,0,4.5-2,4.5-4.5c0-1.3-0.6-2.5-1.5-3.4c1-1.5,1.5-3.3,1.5-5.2v-1.3c0-3.7-2.2-7.1-5.6-8.6l0-0.3h1.2c2.4,0,4.4-2,4.4-4.4
			s-2-4.4-4.4-4.4h-2.6l-0.2-1.5c-0.6-4.2-4.2-7.2-8.4-7.2H77.7c-4.2,0-7.8,3.1-8.4,7.2L69,8.7h-2.6c-2.4,0-4.4,2-4.4,4.4
			s2,4.4,4.4,4.4l0,0h1.2l0,0.3c-3.4,1.5-5.6,4.9-5.6,8.6v1.3c0,1.8,0.5,3.6,1.5,5.2c-1.9,1.6-2.1,4.5-0.4,6.4
			c0.9,1,2.1,1.5,3.4,1.5h0.4v2.3c0,0.8,0.2,1.6,0.5,2.3H56.3v-44c0-0.8-0.7-1.5-1.5-1.5c0,0,0,0,0,0h-7.7c-0.8,0-1.5,0.7-1.5,1.5
			c0,0,0,0,0,0v28.2c0,0.8,0.7,1.5,1.5,1.5s1.5-0.7,1.5-1.5v-5.3l4.7,3.6v18.6l-4.7-3.6v-7.3c0-0.8-0.7-1.5-1.5-1.5
			s-1.5,0.7-1.5,1.5v64.9c0,0.8,0.7,1.5,1.5,1.5c0,0,0,0,0,0H128c0.8,0,1.5-0.7,1.5-1.5v0v-99C129.5,0.7,128.8,0,128,0z M126.5,51.8
			l-4.7,3.6v-5.1l4.7-3.6V51.8z M126.5,20.6l-4.7,3.6v-5.1l4.7-3.6V20.6z M121.8,27.9l4.7-3.6v18.6l-4.7,3.6V27.9z M121.8,59.1
			l4.7-3.6v18.6l-4.7,3.6V59.1z M121.8,81.4l4.7-3.6v5.1l-4.7,3.6V81.4z M126.5,3v8.8l-4.7,3.6V3L126.5,3z M104.8,43.2
			c0,1.3-1,2.3-2.3,2.3c-1.3,0-2.3-1-2.3-2.3v-2.3h4.7V43.2L104.8,43.2z M77.5,40.8h19.6v2.3c0,0.8,0.2,1.6,0.5,2.3H77
			c0.4-0.7,0.5-1.5,0.5-2.3L77.5,40.8z M108.7,11.7c0.8,0,1.4,0.6,1.4,1.4c0,0.8-0.6,1.4-1.4,1.4l0,0H107l-0.4-2.8H108.7z M72.2,7.7
			C72.6,5,74.9,3,77.7,3h19.8c2.7,0,5.1,2,5.5,4.7l1.5,9.3c-0.2,0-0.4,0-0.7,0h-3c-0.5-3.8-4.1-6.5-8-6c-3.1,0.4-5.5,2.9-6,6H71.4
			c-0.2,0-0.5,0-0.7,0L72.2,7.7z M97.7,17h-7.8c0.5-2.2,2.7-3.5,4.9-2.9C96.2,14.4,97.3,15.5,97.7,17L97.7,17z M66.4,14.5
			c-0.8,0-1.4-0.6-1.4-1.4c0-0.8,0.6-1.4,1.4-1.4h2.1l-0.4,2.8H66.4z M64.9,27.7v-1.3c0-3.6,2.9-6.5,6.5-6.5h32.3
			c3.6,0,6.5,2.9,6.5,6.5v1.3c0,1.5-0.5,2.9-1.4,4.1h-0.1H66.5h-0.1C65.4,30.7,64.9,29.2,64.9,27.7z M64.9,36.3
			c0-0.8,0.7-1.5,1.5-1.5h42.2c0.8,0,1.5,0.7,1.5,1.5c0,0.8-0.7,1.5-1.5,1.5H66.5C65.6,37.9,64.9,37.2,64.9,36.3L64.9,36.3z
			 M69.9,43.2v-2.3h4.7v2.3c0,1.3-1,2.3-2.3,2.3C70.9,45.5,69.9,44.5,69.9,43.2C69.9,43.2,69.9,43.2,69.9,43.2z M118.8,48.5V99
			h-11.5c0.4-0.7,0.5-1.5,0.5-2.3v-2.3h0.8c2.5,0,4.5-2,4.5-4.5c0-1.3-0.6-2.5-1.5-3.4c1-1.5,1.5-3.3,1.5-5.2v-1.1
			c0-0.8-0.7-1.5-1.5-1.5s-1.5,0.7-1.5,1.5v1.1c0,1.5-0.5,2.9-1.4,4.1h-0.1H66.5h-0.1c-0.9-1.1-1.4-2.6-1.4-4.1V80
			c0-3.6,2.9-6.5,6.5-6.5h32.3c1.9,0,3.7,0.8,5,2.3c0.5,0.6,1.5,0.7,2.1,0.2c0.6-0.5,0.7-1.5,0.2-2.1l0,0c-0.9-1.1-2.1-2-3.4-2.6
			l0-0.3h1.2c2.4,0,4.4-2,4.4-4.4s-2-4.4-4.4-4.4l0,0h-2.6l-0.2-1.5c-0.6-4.2-4.2-7.2-8.4-7.2H77.7c-4.2,0-7.8,3.1-8.4,7.2L69,62.2
			h-2.6c-2.4,0-4.4,2-4.4,4.4s2,4.4,4.4,4.4h1.2l0,0.3C64.2,72.8,62,76.2,62,80v1.3c0,1.8,0.5,3.6,1.5,5.2c-1.9,1.6-2.1,4.5-0.4,6.4
			c0.9,1,2.1,1.5,3.4,1.5h0.4v2.3c0,0.8,0.2,1.6,0.5,2.3H56.3V48.5H118.8z M69.9,96.7v-2.3h4.7v2.3c0,1.3-1,2.3-2.3,2.3
			C70.9,99,69.9,98,69.9,96.7z M66.5,88.3h42.2c0.8,0,1.5,0.7,1.5,1.5s-0.7,1.5-1.5,1.5H66.5c-0.8,0-1.5-0.7-1.5-1.5
			S65.6,88.3,66.5,88.3z M77.5,96.7v-2.3h19.6v2.3c0,0.8,0.2,1.6,0.5,2.3H77C77.4,98.3,77.5,97.5,77.5,96.7z M100.2,96.7v-2.3h4.7
			v2.3c0,1.3-1,2.3-2.3,2.3C101.2,99,100.2,98,100.2,96.7z M106.6,65.2h2.1c0.8,0,1.4,0.6,1.4,1.4s-0.6,1.4-1.4,1.4H107L106.6,65.2z
			 M100.7,70.5c-0.5-3.8-4.1-6.5-8-6c-3.1,0.4-5.5,2.9-6,6H71.4c-0.2,0-0.5,0-0.7,0l1.5-9.3c0.4-2.7,2.7-4.7,5.5-4.7h19.8
			c2.7,0,5.1,2,5.5,4.7l1.5,9.3c-0.2,0-0.4,0-0.7,0L100.7,70.5z M97.7,70.5h-7.8c0.5-2.2,2.7-3.5,4.9-2.9
			C96.2,67.9,97.3,69.1,97.7,70.5L97.7,70.5z M68.1,68h-1.7c-0.8,0-1.4-0.6-1.4-1.4s0.6-1.4,1.4-1.4h2.1L68.1,68z M48.6,55.5
			l4.7,3.6v18.6l-4.7-3.6V55.5z M48.6,77.8l4.7,3.6v5.1l-4.7-3.6V77.8z M53.3,3v12.4l-4.7-3.6V3L53.3,3z M48.6,20.6v-5.1l4.7,3.6
			v5.1L48.6,20.6z M53.3,50.3v5.1l-4.7-3.6v-5.1L53.3,50.3z M48.6,99V86.7l4.7,3.6V99L48.6,99z M121.8,99v-8.8l4.7-3.6V99L121.8,99z
			"/>
	</g>
</g>
</svg>
