<?xml version="1.0" encoding="utf-8"?>
<!-- Generator: Adobe Illustrator 23.0.5, SVG Export Plug-In . SVG Version: 6.00 Build 0)  -->
<svg version="1.1" id="Layer_1" xmlns="http://www.w3.org/2000/svg" xmlns:xlink="http://www.w3.org/1999/xlink" x="0px" y="0px"
	 viewBox="0 0 167 167" style="enable-background:new 0 0 167 167;" xml:space="preserve">
<style type="text/css">
	.st0{fill:#1D2B44;}
	.st1{fill:#FFFFFF;}
</style>
<g transform="translate(-1243 -9716)">
	<circle class="st0" cx="1326.5" cy="9799.5" r="83.5"/>
	<g transform="translate(1275 9742.145)">
		<path class="st1" d="M98.9,57.5H85.1v-7.1c0-0.9-0.6-1.7-1.5-1.9l-7.8-1.9C74,34.8,64.3,25.8,52.4,24.9v-5.2h21.7c1.1,0,2-0.9,2-2
			c0-0.5-0.2-1-0.6-1.4L69,9.8l6.5-6.5c0.8-0.8,0.8-2,0-2.8C75.1,0.2,74.6,0,74.1,0H50.4c-1.1,0-2,0.9-2,2c0,0,0,0,0,0v22.9
			c-11.9,0.9-21.6,9.9-23.4,21.7l-7.8,1.9c-0.9,0.2-1.5,1-1.5,1.9v7.1H2c-1.1,0-2,0.9-2,2v39.4c0,1.1,0.9,2,2,2c0,0,0,0,0,0h39.6
			c1.1,0,2-0.9,2-2s-0.9-2-2-2H19.7V93h61.5v3.9H59.3c-1.1,0-2,0.9-2,2s0.9,2,2,2h39.6c1.1,0,2-0.9,2-2l0,0V59.5
			C100.9,58.4,100,57.5,98.9,57.5z M52.4,3.9h16.9l-4.5,4.5c-0.8,0.8-0.8,2,0,2.8l4.5,4.5H52.4V3.9z M50.4,28.8
			c10.1,0,18.9,7,21.1,16.9l-20.7-5c-0.3-0.1-0.6-0.1-0.9,0l-20.7,5C31.5,35.7,40.3,28.7,50.4,28.8L50.4,28.8z M19.7,52l30.7-7.4
			L81.2,52v5.5H19.7V52z M31.5,61.5V89h-3.9V61.5H31.5z M35.5,61.5h9.1V89h-9.1L35.5,61.5z M48.5,61.5h3.9V89h-3.9L48.5,61.5z
			 M56.3,61.5h9.1V89h-9.1V61.5z M69.3,61.5h3.9V89h-3.9V61.5z M3.9,96.9V61.5h19.7V89h-3.9v-5.9c0-1.1-0.9-2-2-2l0,0H9.8
			c-1.1,0-2,0.9-2,2l0,0V91c0,1.1,0.9,2,2,2h0h5.9v3.9H3.9z M15.8,89h-3.9v-3.9h3.9V89z M96.9,96.9H85.1V93H91c1.1,0,2-0.9,2-2l0,0
			v-7.9c0-1.1-0.9-2-2-2l0,0h-7.9c-1.1,0-2,0.9-2,2l0,0V89h-3.9V61.5h19.7L96.9,96.9z M85.1,89v-3.9H89V89L85.1,89z"/>
		<path class="st1" d="M81.2,67.4v7.9c0,1.1,0.9,2,2,2l0,0H91c1.1,0,2-0.9,2-2l0,0v-7.9c0-1.1-0.9-2-2-2l0,0h-7.9
			C82,65.4,81.2,66.3,81.2,67.4L81.2,67.4z M85.1,69.3H89v3.9h-3.9V69.3z"/>
		<path class="st1" d="M9.8,77.2h7.9c1.1,0,2-0.9,2-2l0,0v-7.9c0-1.1-0.9-2-2-2c0,0,0,0,0,0H9.8c-1.1,0-2,0.9-2,2l0,0v7.9
			C7.9,76.3,8.8,77.2,9.8,77.2C9.8,77.2,9.8,77.2,9.8,77.2z M11.8,69.3h3.9v3.9h-3.9L11.8,69.3z"/>
		<circle class="st1" cx="50" cy="98.9" r="2"/>
	</g>
</g>
</svg>
