<?xml version="1.0" encoding="utf-8"?>
<!-- Generator: Adobe Illustrator 23.0.5, SVG Export Plug-In . SVG Version: 6.00 Build 0)  -->
<svg version="1.1" id="Layer_1" xmlns="http://www.w3.org/2000/svg" xmlns:xlink="http://www.w3.org/1999/xlink" x="0px" y="0px"
	 viewBox="0 0 167 167" style="enable-background:new 0 0 167 167;" xml:space="preserve">
<style type="text/css">
	.st0{fill:#1D2B44;}
	.st1{fill:#FFFFFF;}
</style>
<g transform="translate(-889 -9716)">
	<circle class="st0" cx="972.5" cy="9799.5" r="83.5"/>
	<g transform="translate(923 9735.544)">
		<g transform="translate(0 17.188)">
			<path class="st1" d="M95.9,84.2h-1.2V59.8c0-0.8-0.6-1.5-1.4-1.5c-0.8,0-1.5,0.6-1.5,1.4c0,0,0,0.1,0,0.1v24.4H60.4V44.1h30.1
				c0.7,0,1.2,0.5,1.2,1.2v7.6c0,0.8,0.7,1.5,1.5,1.4c0.8,0,1.4-0.7,1.4-1.4v-7.6c0-2.3-1.9-4.2-4.2-4.2H60.4V14.3
				c0-2.2-1.7-4-3.8-4.1v-3c0-2.2-1.7-4-3.8-4.1L14.5,0c-2.3-0.2-4.3,1.5-4.5,3.8c0,0.1,0,0.2,0,0.3v2.4c-2.2,0.2-3.8,2-3.8,4.1
				v73.6H4.9c-2.7,0-4.9,2.2-4.9,4.9s2.2,4.9,4.9,4.9h91c2.7,0,4.9-2.2,4.9-4.9S98.7,84.2,95.9,84.2L95.9,84.2z M12.9,4.2
				c0-0.7,0.5-1.2,1.2-1.2c0,0,0.1,0,0.1,0l38.3,3c0.6,0.1,1.1,0.6,1.1,1.2v2.7L12.9,6.7L12.9,4.2L12.9,4.2z M9.1,10.7
				c0-0.7,0.5-1.2,1.2-1.2c0,0,0.1,0,0.1,0l45.9,3.6c0.6,0.1,1.1,0.6,1.1,1.2v70h-4.1V63.1c0-1.3-1.1-2.4-2.4-2.4H37.1
				c-1.3,0-2.4,1.1-2.4,2.4v9.6c0,0.8,0.7,1.5,1.5,1.4c0.8,0,1.4-0.7,1.4-1.4v-9.1h12.7v20.6H37.7v-4.7c0-0.8-0.7-1.5-1.5-1.4
				c-0.8,0-1.4,0.7-1.4,1.4v4.7H9.1V10.7z M95.9,91.1h-91c-1.1,0-2-0.9-2-2s0.9-2,2-2h91c1.1,0,2,0.9,2,2S97,91.1,95.9,91.1z"/>
			<path class="st1" d="M15,28.7h6c1.4,0,2.5-1.1,2.6-2.6v-4.6c0-1.4-1.1-2.5-2.6-2.6h-6c-1.4,0-2.5,1.1-2.5,2.6v4.6
				C12.4,27.6,13.5,28.7,15,28.7z M15.4,22h5.2v3.8h-5.2V22z"/>
			<path class="st1" d="M29.9,28.7h6c1.4,0,2.5-1.1,2.6-2.6v-4.6c0-1.4-1.1-2.5-2.6-2.6h-6c-1.4,0-2.5,1.1-2.6,2.6v4.6
				C27.3,27.6,28.5,28.7,29.9,28.7z M30.3,22h5.2v3.8h-5.2V22z"/>
			<path class="st1" d="M44.8,28.7h6c1.4,0,2.5-1.1,2.6-2.6v-4.6c0-1.4-1.1-2.5-2.6-2.6h-6c-1.4,0-2.5,1.1-2.6,2.6v4.6
				C42.2,27.6,43.4,28.7,44.8,28.7z M45.2,22h5.2v3.8h-5.2V22z"/>
			<path class="st1" d="M15,42h6c1.4,0,2.5-1.1,2.6-2.6v-4.6c0-1.4-1.1-2.5-2.6-2.6h-6c-1.4,0-2.5,1.1-2.5,2.6v4.6
				C12.4,40.9,13.5,42,15,42z M15.4,35.3h5.2V39h-5.2V35.3z"/>
			<path class="st1" d="M29.9,42h6c1.4,0,2.5-1.1,2.6-2.6v-4.6c0-1.4-1.1-2.5-2.6-2.6h-6c-1.4,0-2.5,1.1-2.6,2.6v4.6
				C27.3,40.9,28.5,42,29.9,42z M30.3,35.3h5.2V39h-5.2V35.3z"/>
			<path class="st1" d="M44.8,42h6c1.4,0,2.5-1.1,2.6-2.6v-4.6c0-1.4-1.1-2.5-2.6-2.6h-6c-1.4,0-2.5,1.1-2.6,2.6v4.6
				C42.2,40.9,43.4,42,44.8,42z M45.2,35.3h5.2V39h-5.2V35.3z"/>
			<path class="st1" d="M15,55.3h6c1.4,0,2.5-1.1,2.6-2.6v-4.6c0-1.4-1.1-2.5-2.6-2.6h-6c-1.4,0-2.5,1.1-2.5,2.6v4.6
				C12.4,54.1,13.5,55.3,15,55.3z M15.4,48.5h5.2v3.8h-5.2V48.5z"/>
			<path class="st1" d="M28.5,60.7H15.2c-1.6,0-2.8,1.3-2.8,2.8v4c0,1.6,1.3,2.8,2.8,2.8h13.2c1.6,0,2.8-1.3,2.8-2.8v-4
				C31.3,61.9,30,60.7,28.5,60.7z M28.4,67.4h-13v-3.8h13V67.4z"/>
			<path class="st1" d="M29.9,55.3h6c1.4,0,2.5-1.1,2.6-2.6v-4.6c0-1.4-1.1-2.5-2.6-2.6h-6c-1.4,0-2.5,1.1-2.6,2.6v4.6
				C27.3,54.1,28.5,55.3,29.9,55.3z M30.3,48.5h5.2v3.8h-5.2V48.5z"/>
			<path class="st1" d="M44.8,55.3h6c1.4,0,2.5-1.1,2.6-2.6v-4.6c0-1.4-1.1-2.5-2.6-2.6h-6c-1.4,0-2.5,1.1-2.6,2.6v4.6
				C42.2,54.1,43.4,55.3,44.8,55.3z M45.2,48.5h5.2v3.8h-5.2V48.5z"/>
			<path class="st1" d="M75,54c0-1.5-1.2-2.7-2.7-2.7h-6c-1.5,0-2.7,1.2-2.7,2.7v4.8c0,1.5,1.2,2.7,2.7,2.7h6c1.5,0,2.7-1.2,2.7-2.7
				V54z M72,58.6h-5.6v-4.3H72V58.6z"/>
			<path class="st1" d="M72.3,64.9h-6c-1.5,0-2.7,1.2-2.7,2.7v4.8c0,1.5,1.2,2.7,2.7,2.7h6c1.5,0,2.7-1.2,2.7-2.7v-4.8
				C75,66.1,73.8,64.9,72.3,64.9z M72,72.2h-5.6v-4.3H72V72.2z"/>
			<path class="st1" d="M88.7,54c0-1.5-1.2-2.7-2.7-2.7h-6c-1.5,0-2.7,1.2-2.7,2.7v4.8c0,1.5,1.2,2.7,2.7,2.7h6
				c1.5,0,2.7-1.2,2.7-2.7V54z M85.8,58.6h-5.6v-4.3h5.6V58.6z"/>
			<path class="st1" d="M86,64.9h-6c-1.5,0-2.7,1.2-2.7,2.7v4.8c0,1.5,1.2,2.7,2.7,2.7h6c1.5,0,2.7-1.2,2.7-2.7v-4.8
				C88.7,66.1,87.5,64.9,86,64.9z M85.8,72.2h-5.6v-4.3h5.6V72.2z"/>
		</g>
	</g>
</g>
</svg>
