<?xml version="1.0" encoding="utf-8"?>
<!-- Generator: Adobe Illustrator 23.0.5, SVG Export Plug-In . SVG Version: 6.00 Build 0)  -->
<svg version="1.1" id="Layer_1" xmlns="http://www.w3.org/2000/svg" xmlns:xlink="http://www.w3.org/1999/xlink" x="0px" y="0px"
	 viewBox="0 0 167 167" style="enable-background:new 0 0 167 167;" xml:space="preserve">
<style type="text/css">
	.st0{fill:#1D2B44;}
	.st1{fill:#FFFFFF;}
</style>
<g transform="translate(-147 -6067)">
	<g transform="translate(-33 -3649)">
		<circle class="st0" cx="263.5" cy="9799.5" r="83.5"/>
	</g>
	<g transform="translate(179 6048.234)">
		<path class="st1" d="M16.4,134.2c4.6,0,8.3-3.7,8.3-8.4s-3.7-8.4-8.4-8.4S8,121.3,8,125.9C8,130.5,11.8,134.2,16.4,134.2z
			 M16.4,120.5c3,0,5.3,2.4,5.3,5.3c0,3-2.4,5.3-5.3,5.3c-3,0-5.3-2.4-5.3-5.3C11,122.9,13.4,120.5,16.4,120.5z"/>
		<path class="st1" d="M35.5,108.8V105c0-2.2-1.9-4-4.1-4c-2.2,0-3.9,1.8-4,4v3.7c0,2.2,1.9,4,4.1,4C33.7,112.7,35.5,111,35.5,108.8
			z M30.5,108.8V105c0-0.6,0.5-1,1-1s1,0.5,1,1v3.7c0,0.6-0.5,1-1,1C30.9,109.8,30.5,109.3,30.5,108.8L30.5,108.8z"/>
		<path class="st1" d="M101.2,137.8h-3.5v-31.3c0-2.3-1.2-4.4-3.1-5.6c-0.7-0.4-1.6-0.2-2.1,0.5c-0.4,0.7-0.2,1.6,0.5,2.1
			c1,0.7,1.7,1.8,1.7,3v3.6l-12.8,6.1v-9.7c0-2,1.6-3.6,3.6-3.6h2.4c0.8,0,1.5-0.7,1.5-1.5c0-0.8-0.7-1.5-1.5-1.5h-2.4
			c-3.6,0-6.6,3-6.6,6.6v31.3H25.3c3.6-2.7,5.8-6.9,5.9-11.4h7.6c3.3,0,6-2.7,6-6c0-2.8-1.9-5.2-4.5-5.8v-6.4
			c0-8.8-6.8-16.2-15.6-16.9l-2.5-18.9c-0.7-5-5-8.8-10-8.8H3c-0.8,0-1.5,0.7-1.5,1.5s0.7,1.5,1.5,1.5h9.2c3.6,0,6.6,2.6,7,6.2
			l2.5,18.4h-3l-2.4-18c-0.3-2-2-3.5-4.1-3.6H3c-0.8,0-1.5,0.7-1.5,1.5c0,0.8,0.7,1.5,1.5,1.5h9.2c0.5,0,1,0.4,1.1,0.9l2.4,17.6H3
			c-0.8,0-1.5,0.7-1.5,1.5c0,0.8,0.7,1.5,1.5,1.5h20.4c7.7,0,13.9,6.2,13.9,13.9v6.2H25.7c-3.7-3-8.5-4-13.1-2.8
			c-0.8,0.2-1.3,1-1.1,1.8s1,1.3,1.8,1.1l0,0c6.3-1.6,12.8,2.2,14.5,8.5c1.6,6.3-2.2,12.8-8.5,14.5c-1,0.2-2,0.4-3,0.4h0
			c-6.6,0-11.9-5.3-11.9-11.9c0-3.5,1.5-6.8,4.2-9c0.6-0.5,0.7-1.5,0.2-2.1c-0.5-0.6-1.5-0.7-2.1-0.2c-6.3,5.3-7,14.7-1.7,21
			c0.7,0.8,1.5,1.6,2.4,2.3H1.5c-0.8,0-1.5,0.7-1.5,1.5s0.7,1.5,1.5,1.5h99.7c0.8,0,1.5-0.7,1.5-1.5S102,137.8,101.2,137.8
			L101.2,137.8z M41.9,120.4c0,1.7-1.4,3-3,3H31c-0.4-2.2-1.2-4.3-2.5-6.1h10.3C40.6,117.3,41.9,118.7,41.9,120.4L41.9,120.4z
			 M94.7,113.4v9.8l-12.8,6.1v-9.8L94.7,113.4z M81.9,132.7l12.8-6.1v11.2H81.9V132.7z"/>
		<path class="st1" d="M70.8,118.3c0.6,0.6,1.5,0.6,2.1,0s0.6-1.5,0-2.1c-2.5-2.5-2.5-6.7,0-9.2c0.6-0.6,0.6-1.5,0-2.1
			s-1.5-0.6-2.1,0C67.1,108.6,67.1,114.6,70.8,118.3z"/>
		<path class="st1" d="M66.2,122.9c0.6,0.6,1.5,0.6,2.1,0s0.6-1.5,0-2.1c-5.1-5.1-5.1-13.3,0-18.4c0,0,0,0,0,0
			c0.6-0.6,0.6-1.5,0-2.1c-0.6-0.6-1.5-0.6-2.1,0C60,106.5,60,116.6,66.2,122.9C66.2,122.9,66.2,122.9,66.2,122.9z"/>
		<path class="st1" d="M62.9,127.7c0.8,0,1.5-0.7,1.5-1.5c0-0.4-0.2-0.8-0.4-1.1c-7.5-7.5-7.5-19.7,0-27.2c0.6-0.6,0.6-1.5,0-2.1
			c-0.6-0.6-1.5-0.6-2.1,0c-8.7,8.7-8.7,22.8,0,31.5C62.1,127.6,62.5,127.7,62.9,127.7L62.9,127.7z"/>
	</g>
</g>
</svg>
