<?xml version="1.0" encoding="utf-8"?>
<!-- Generator: Adobe Illustrator 23.0.5, SVG Export Plug-In . SVG Version: 6.00 Build 0)  -->
<svg version="1.1" id="Layer_1" xmlns="http://www.w3.org/2000/svg" xmlns:xlink="http://www.w3.org/1999/xlink" x="0px" y="0px"
	 viewBox="0 0 167 167" style="enable-background:new 0 0 167 167;" xml:space="preserve">
<style type="text/css">
	.st0{fill:#1D2B44;}
	.st1{fill:#FFFFFF;}
</style>
<g transform="translate(-1280 -6067)">
	<g transform="translate(1100 -3649)">
		<circle class="st0" cx="263.5" cy="9799.5" r="83.5"/>
	</g>
	<g transform="translate(1318.754 6101.816)">
		<path class="st1" d="M0,0v96.4h96.4V0H0z M2.8,2.8h66.6v35.8c0,2.3-1.9,4.2-4.2,4.2H42.5c-2.3-9.5-11.9-15.4-21.4-13.1
			c-6.5,1.6-11.5,6.6-13.1,13.1H2.8V2.8z M40.2,47c0,6.2-2.6,12.2-7.7,17.8c-2.1,2.3-4.5,4.4-7.2,6.2c-3.1-2.1-14.9-11.1-14.9-24
			c0-8.2,6.7-14.9,14.9-14.9S40.2,38.8,40.2,47L40.2,47z M2.8,45.7h4.9c0,0.4,0,0.9,0,1.3c0,2.4,0.4,4.8,1.1,7.2H2.8V45.7z
			 M48.7,93.6H2.8V57h6.9c1.6,3.6,3.7,6.9,6.4,9.7c2.5,2.8,5.3,5.2,8.5,7.2l0.7,0.4l0.7-0.4c3.1-2,6-4.4,8.5-7.1
			c2.7-2.9,4.9-6.2,6.4-9.8h3.5c2.3,0,4.2,1.9,4.2,4.2L48.7,93.6z M93.6,93.6H62.8V78.8c0-2.3,1.9-4.2,4.2-4.2h26.6L93.6,93.6z
			 M93.6,66.1H67.4c-2.5,0-4.6-2-4.6-4.6c0-2.5,2-4.6,4.6-4.6c0,0,0,0,0,0h26.2L93.6,66.1z M93.6,54.1H67.4c-4.1,0-7.4,3.3-7.4,7.4
			s3.3,7.4,7.4,7.4l0,0h26.2v2.8H67c-3.9,0-7.1,3.2-7.1,7.1v14.8h-8.5V61.2c0-3.9-3.2-7.1-7.1-7.1H42c0.7-2.3,1.1-4.7,1.1-7.2
			c0-0.4,0-0.9,0-1.3h22.2c3.9,0,7.1-3.2,7.1-7.1V2.8h8.5v35.8c0,3.9,3.2,7.1,7.1,7.1h5.8L93.6,54.1z M93.6,42.8h-5.8
			c-2.3,0-4.2-1.9-4.2-4.2V2.8h10.1L93.6,42.8z"/>
		<path class="st1" d="M19.9,6.3H5.7v14.1h14.1V6.3z M17,17.6H8.6V9.1H17V17.6z"/>
		<path class="st1" d="M48.7,35.9h16.4V6.3H25.5V24h23.2V35.9z M28.3,21.2V9.1h33.9v23.9H51.5V21.2H28.3z"/>
		<path class="st1" d="M21,55.4h2.8v2.8H21V55.4z"/>
		<path class="st1" d="M29.6,38.1H21v14.4h2.8v-4.1h5.7c2.9,0,5.2-2.3,5.2-5.2C34.7,40.5,32.4,38.1,29.6,38.1L29.6,38.1z M29.6,45.7
			h-5.7V41h5.7c1.3,0,2.4,1.1,2.4,2.4S30.9,45.7,29.6,45.7z"/>
		<path class="st1" d="M56.6,19h2.8V12h-7.1v2.8h4.2V19z"/>
		<path class="st1" d="M37.6,77.3h2.8v2.8h-2.8V77.3z"/>
		<path class="st1" d="M10.3,77.3h2.8v2.8h-2.8V77.3z"/>
		<path class="st1" d="M15.9,77.3h18.8v2.8H15.9V77.3z"/>
		<path class="st1" d="M32.6,12h2.8v2.8h-2.8V12z"/>
		<path class="st1" d="M87.5,32.6h2.8v2.8h-2.8V32.6z"/>
		<path class="st1" d="M87.5,26.9h2.8v2.8h-2.8V26.9z"/>
		<path class="st1" d="M87.5,15.6h2.8v2.8h-2.8V15.6z"/>
		<path class="st1" d="M87.5,10h2.8v2.8h-2.8V10z"/>
		<path class="st1" d="M87.5,21.3h2.8v2.8h-2.8V21.3z"/>
		<path class="st1" d="M85.9,83.5h2.8v2.8h-2.8V83.5z"/>
		<path class="st1" d="M68.9,83.5h2.8v2.8h-2.8V83.5z"/>
		<path class="st1" d="M80.2,83.5h2.8v2.8h-2.8V83.5z"/>
		<path class="st1" d="M74.6,83.5h2.8v2.8h-2.8V83.5z"/>
	</g>
</g>
</svg>
