<svg xmlns="http://www.w3.org/2000/svg" width="109.222" height="109.222" viewBox="0 0 109.222 109.222"><defs><style>.a{fill:#2d2d2d;}</style></defs><g transform="translate(-1 -1)"><path class="a" d="M40.285,40.71h1.762V60.088A8.818,8.818,0,0,0,50.855,68.9H68.471a8.818,8.818,0,0,0,8.808-8.808V40.71h1.762a5.285,5.285,0,1,0,0-10.57H77.279V22.792A13.792,13.792,0,0,0,63.488,9H55.837a13.789,13.789,0,0,0-13.79,13.792V30.14H40.285a5.285,5.285,0,1,0,0,10.57Zm5.4-19.378h3.409a7.054,7.054,0,0,0,7.047-7.047V12.523h7.047v1.762a7.054,7.054,0,0,0,7.047,7.047h3.409a10.29,10.29,0,0,1,.115,1.46V33.467a19.663,19.663,0,0,0-11-3.328H56.566a19.663,19.663,0,0,0-11,3.328V22.792a10.556,10.556,0,0,1,.116-1.46ZM45.57,37.963a16.158,16.158,0,0,1,11-4.3H62.76a16.158,16.158,0,0,1,11,4.3v14.3a16.159,16.159,0,0,1-11,4.3H56.566a16.158,16.158,0,0,1-11-4.3v-14.3Zm22.9,27.409H50.855a5.291,5.291,0,0,1-5.285-5.285V56.76a19.676,19.676,0,0,0,11,3.328H62.76a19.676,19.676,0,0,0,11-3.328v3.328A5.294,5.294,0,0,1,68.471,65.373Zm10.57-31.71a1.762,1.762,0,0,1,0,3.523H77.279V33.663ZM72.463,17.808h-2.23a3.527,3.527,0,0,1-3.523-3.523V13.046a10.211,10.211,0,0,1,5.754,4.762ZM52.616,13.046v1.238a3.527,3.527,0,0,1-3.523,3.523h-2.23a10.211,10.211,0,0,1,5.754-4.762ZM40.285,33.663h1.762v3.523H40.285a1.762,1.762,0,1,1,0-3.523Z" transform="translate(25.896 6.093)"/><path class="a" d="M6.285,40.71H8.047V60.088A8.818,8.818,0,0,0,16.855,68.9H34.471a8.818,8.818,0,0,0,8.808-8.808V40.71h1.762a5.285,5.285,0,1,0,0-10.57H43.279V22.792A13.792,13.792,0,0,0,29.488,9H21.837A13.789,13.789,0,0,0,8.047,22.792V30.14H6.285a5.285,5.285,0,1,0,0,10.57Zm5.4-19.378h3.409a7.054,7.054,0,0,0,7.047-7.047V12.523h7.047v1.762a7.054,7.054,0,0,0,7.047,7.047h3.409a10.291,10.291,0,0,1,.115,1.46V33.467a19.663,19.663,0,0,0-11-3.328H22.566a19.663,19.663,0,0,0-11,3.328V22.792a10.557,10.557,0,0,1,.116-1.46ZM11.57,37.963a16.158,16.158,0,0,1,11-4.3H28.76a16.158,16.158,0,0,1,11,4.3v14.3a16.159,16.159,0,0,1-11,4.3H22.566a16.157,16.157,0,0,1-11-4.3Zm22.9,27.409H16.855a5.291,5.291,0,0,1-5.285-5.285V56.76a19.677,19.677,0,0,0,11,3.328H28.76a19.676,19.676,0,0,0,11-3.328v3.328A5.294,5.294,0,0,1,34.471,65.373Zm10.57-31.71a1.762,1.762,0,1,1,0,3.523H43.279V33.663ZM38.463,17.808h-2.23a3.527,3.527,0,0,1-3.523-3.523V13.046a10.211,10.211,0,0,1,5.754,4.762ZM18.616,13.046v1.238a3.527,3.527,0,0,1-3.523,3.523h-2.23a10.211,10.211,0,0,1,5.754-4.762ZM6.285,33.663H8.047v3.523H6.285a1.762,1.762,0,1,1,0-3.523Z" transform="translate(0 6.093)"/><path class="a" d="M4.762,11.57H43.518a1.762,1.762,0,0,0,1.762-1.762V2.762A1.762,1.762,0,0,0,43.518,1H4.762A1.762,1.762,0,0,0,3,2.762V9.808A1.762,1.762,0,0,0,4.762,11.57ZM6.523,4.523H41.756V8.047H6.523Z" transform="translate(1.523 0)"/><path class="a" d="M38.762,11.57H77.518a1.762,1.762,0,0,0,1.762-1.762V2.762A1.762,1.762,0,0,0,77.518,1H38.762A1.762,1.762,0,0,0,37,2.762V9.808A1.762,1.762,0,0,0,38.762,11.57Zm1.762-7.047H75.756V8.047H40.523Z" transform="translate(27.419 0)"/><path class="a" d="M1,61H110.222v3.523H1Z" transform="translate(0 45.699)"/><path class="a" d="M6,53h7.047v3.523H6Z" transform="translate(3.808 39.605)"/><path class="a" d="M14,53h7.047v3.523H14Z" transform="translate(9.901 39.605)"/><path class="a" d="M22,53h7.047v3.523H22Z" transform="translate(15.995 39.605)"/><path class="a" d="M30,53h7.047v3.523H30Z" transform="translate(22.088 39.605)"/><path class="a" d="M38,53h7.047v3.523H38Z" transform="translate(28.181 39.605)"/><path class="a" d="M46,53h7.047v3.523H46Z" transform="translate(34.274 39.605)"/><path class="a" d="M54,53h7.047v3.523H54Z" transform="translate(40.367 39.605)"/><path class="a" d="M57.373,1H53.849V78.512H1v3.523H110.222V78.512H57.373Z" transform="translate(0 0)"/></g></svg>