<?xml version="1.0" encoding="utf-8"?>
<!-- Generator: Adobe Illustrator 23.0.5, SVG Export Plug-In . SVG Version: 6.00 Build 0)  -->
<svg version="1.1" id="Layer_1" xmlns="http://www.w3.org/2000/svg" xmlns:xlink="http://www.w3.org/1999/xlink" x="0px" y="0px"
	 viewBox="0 0 127 127" style="enable-background:new 0 0 127 127;" xml:space="preserve">
<style type="text/css">
	.st0{fill:none;stroke:#1D2B44;stroke-miterlimit:10;}
	.st1{fill:none;stroke:#1D2B44;stroke-width:5;}
	.st2{fill:#00BBDC;}
	.st3{fill:#1D2B44;}
</style>
<g transform="translate(-161 -2107)">
	<g transform="translate(161 2107)">
		<circle class="st0" cx="63.5" cy="63.5" r="63.5"/>
		<circle class="st1" cx="63.5" cy="63.5" r="61"/>
	</g>
	<g transform="translate(190 2131.532)">
		<path class="st2" d="M0,29.4c3.1,3.1,6.1,6.1,9.1,9.1c0.3,0.3,0.6,0.7,0.7,1.2c2.3,6.9,4.6,13.9,7,20.8c0.1,0.4,0.4,0.8,0.7,1.1
			c4.2,4.3,8.5,8.5,12.7,12.7c4.7,4.9,12.5,5.1,17.4,0.4c0.1-0.1,0.3-0.3,0.4-0.4l13.9-13.9c1.5-1.5,3.1-3,4.6-4.6
			c1.4-1.3,1.8-3.2,1.2-5c-0.5-1.7-2-3-3.7-3.2c-0.9,0-1.9,0-2.8,0.2c0.6-1,1.1-2,1.6-3.1c0.4-1.3,0.1-2.7-0.7-3.7
			c-1.3-1.9-3.1-2.4-6.4-1.5c2.2-2,3.1-4.3,1.4-6.8c-1.5-2.4-3.9-2.6-6.4-1.7c0.3-0.3,0.5-0.6,0.8-0.8c4.4-4.4,8.9-8.9,13.3-13.3
			c2-1.8,2.2-4.8,0.4-6.8c-1.8-2-4.8-2.2-6.8-0.4c-0.2,0.1-0.3,0.3-0.4,0.4l-25,25c-2.4,2.4-4.9,4.9-7.4,7.4
			c-0.2-0.3-0.3-0.6-0.5-0.9c-1.6-2.7-3.2-5.5-4.9-8.2c-3-4.8-7.6-7-12.9-7.9c-1.4-0.4-2.9-0.1-4.1,0.8C2,27.3,1.1,28.4,0,29.4z
			 M30.6,6.8V1.9c0.1-1-0.6-1.8-1.5-2c0,0-0.1,0-0.1,0c-0.9,0-1.7,0.8-1.7,1.7c0,0.1,0,0.1,0,0.2c0,3.3,0,6.6,0,9.9
			c-0.1,0.9,0.6,1.8,1.5,1.9c0.9,0.1,1.8-0.6,1.9-1.5c0-0.1,0-0.2,0-0.3C30.6,10.1,30.6,8.5,30.6,6.8z M46.1,6.7
			c-0.3-0.5-0.7-1-1.2-1.4c-0.7-0.4-1.5-0.2-2,0.4c-2.2,2.2-4.5,4.4-6.7,6.7c-0.7,0.6-0.8,1.7-0.2,2.4s1.7,0.8,2.4,0.2
			c0.1-0.1,0.1-0.1,0.2-0.2c2.2-2.2,4.4-4.4,6.6-6.6C45.6,7.6,45.9,7.2,46.1,6.7L46.1,6.7z M13.9,5.1c-0.8-0.1-1.5,0.3-1.9,1
			c-0.3,0.7-0.1,1.5,0.5,2c2.2,2.2,4.4,4.4,6.6,6.6c0.6,0.7,1.7,0.9,2.4,0.3c0.1,0,0.1-0.1,0.1-0.1c0.7-0.7,0.7-1.7,0-2.4
			c0,0-0.1-0.1-0.2-0.1c-2.2-2.2-4.4-4.4-6.6-6.6C14.6,5.5,14.3,5.2,13.9,5.1L13.9,5.1z"/>
		<path class="st3" d="M0,29.4c1.1-1.1,2.1-2.1,3.1-3.1c1.2-0.9,2.7-1.2,4.1-0.8c5.4,0.8,10,3.1,12.9,7.9c1.7,2.7,3.2,5.5,4.9,8.2
			c0.2,0.3,0.3,0.5,0.5,0.9c2.5-2.5,4.9-4.9,7.4-7.4l25-25c1.8-2,4.8-2.2,6.8-0.4c2,1.8,2.2,4.8,0.4,6.8c-0.1,0.1-0.3,0.3-0.4,0.4
			c-4.4,4.4-8.9,8.9-13.3,13.3c-0.3,0.3-0.6,0.5-0.8,0.8c2.6-0.9,4.9-0.7,6.4,1.7c1.7,2.6,0.8,4.8-1.4,6.8c3.3-0.8,5.1-0.4,6.4,1.5
			c0.8,1,1.1,2.4,0.7,3.7c-0.4,1.1-1,2.1-1.6,3c0.9-0.2,1.9-0.2,2.8-0.2c1.8,0.2,3.3,1.5,3.7,3.2c0.6,1.8,0.1,3.7-1.2,5
			c-1.5,1.5-3,3.1-4.6,4.6L48,74.4c-4.7,4.9-12.5,5.1-17.4,0.4c-0.1-0.1-0.3-0.3-0.4-0.4c-4.3-4.2-8.5-8.5-12.7-12.7
			c-0.3-0.3-0.5-0.7-0.7-1.1c-2.3-6.9-4.6-13.9-7-20.8c-0.2-0.4-0.4-0.8-0.7-1.2C6.1,35.5,3.1,32.5,0,29.4z"/>
		<path class="st3" d="M30.6,6.8v4.9c0.1,0.9-0.6,1.8-1.5,1.9c-0.9,0.1-1.8-0.6-1.9-1.5c0-0.1,0-0.2,0-0.3c0-3.3,0-6.6,0-9.9
			C27.1,1,27.8,0.1,28.7,0c0.1,0,0.1,0,0.2,0c1,0,1.7,0.9,1.7,1.8c0,0.1,0,0.1,0,0.2C30.6,3.6,30.6,5.2,30.6,6.8z"/>
		<path class="st3" d="M46.1,6.7c-0.2,0.5-0.5,1-0.8,1.4c-2.2,2.2-4.4,4.4-6.6,6.6c-0.6,0.7-1.7,0.8-2.4,0.2
			c-0.7-0.6-0.8-1.7-0.2-2.4c0.1-0.1,0.1-0.1,0.2-0.2c2.2-2.2,4.4-4.5,6.7-6.7c0.5-0.6,1.3-0.7,2-0.4C45.4,5.7,45.8,6.1,46.1,6.7z"
			/>
		<path class="st3" d="M13.9,5.1c0.3,0.2,0.7,0.4,1,0.6c2.2,2.2,4.4,4.4,6.6,6.6c0.7,0.6,0.8,1.6,0.3,2.4c0,0-0.1,0.1-0.1,0.1
			c-0.7,0.7-1.8,0.7-2.5,0c0,0-0.1-0.1-0.1-0.1c-2.2-2.2-4.4-4.4-6.6-6.6c-0.6-0.5-0.8-1.3-0.5-2C12.4,5.4,13.1,5,13.9,5.1z"/>
	</g>
</g>
</svg>
