<?xml version="1.0" encoding="utf-8"?>
<!-- Generator: Adobe Illustrator 23.0.5, SVG Export Plug-In . SVG Version: 6.00 Build 0)  -->
<svg version="1.1" id="Layer_1" xmlns="http://www.w3.org/2000/svg" xmlns:xlink="http://www.w3.org/1999/xlink" x="0px" y="0px"
	 viewBox="0 0 127 127" style="enable-background:new 0 0 127 127;" xml:space="preserve">
<style type="text/css">
	.st0{fill:none;}
	.st1{fill:none;stroke:#1D2B44;stroke-width:5;}
	.st2{fill:#1D2B44;}
	.st3{fill:#00BBDC;}
</style>
<g transform="translate(-161 -2330)">
	<g transform="translate(161 2330)">
		<circle class="st0" cx="63.5" cy="63.5" r="63.5"/>
		<circle class="st1" cx="63.5" cy="63.5" r="61"/>
	</g>
	<g transform="translate(186 2355.242)">
		<path class="st2" d="M38,11c-1.3,0-2.4-1.1-2.4-2.4V2.4C35.6,1.1,36.7,0,38,0c1.3,0,2.4,1.1,2.4,2.4v6.2C40.4,9.9,39.3,11,38,11z"
			/>
		<path class="st2" d="M58.8,19.6c-1.3,0-2.4-1.1-2.4-2.4c0-0.6,0.3-1.2,0.7-1.7l4.4-4.4c0.9-0.9,2.4-1,3.4-0.1
			c0.9,0.9,1,2.4,0.1,3.4c0,0,0,0-0.1,0.1l-4.4,4.4C60.1,19.3,59.5,19.6,58.8,19.6z"/>
		<path class="st2" d="M73.7,40.4h-6.2c-1.3,0-2.4-1.1-2.4-2.4c0-1.3,1.1-2.4,2.4-2.4c0,0,0,0,0,0h6.2c1.3,0,2.4,1.1,2.4,2.4
			C76,39.3,75,40.4,73.7,40.4z"/>
		<path class="st2" d="M63.2,65.6c-0.6,0-1.2-0.3-1.7-0.7l-4.4-4.4c-0.9-0.9-0.9-2.5,0.1-3.4c0.9-0.9,2.4-0.9,3.3,0l4.4,4.4
			c0.9,0.9,0.9,2.4,0,3.4C64.5,65.3,63.8,65.6,63.2,65.6L63.2,65.6z"/>
		<path class="st2" d="M12.8,65.6c-1.3,0-2.4-1.1-2.4-2.4c0-0.6,0.3-1.2,0.7-1.7l4.4-4.4c0.9-0.9,2.5-0.9,3.4,0.1
			c0.9,0.9,0.9,2.4,0,3.3l-4.4,4.4C14.1,65.3,13.4,65.6,12.8,65.6z"/>
		<path class="st2" d="M8.6,40.4H2.4C1.1,40.4,0,39.3,0,38c0-1.3,1.1-2.4,2.4-2.4h6.2c1.3,0,2.4,1.1,2.4,2.4
			C11,39.3,9.9,40.4,8.6,40.4z"/>
		<path class="st2" d="M17.2,19.6c-0.6,0-1.2-0.3-1.7-0.7l-4.4-4.4c-0.9-0.9-0.9-2.4,0-3.4c0.9-0.9,2.4-0.9,3.4,0l4.4,4.4
			c0.9,0.9,0.9,2.4,0,3.4C18.4,19.3,17.8,19.6,17.2,19.6L17.2,19.6z"/>
		<path class="st2" d="M47.5,66.5v4c0,3.1-2.5,5.5-5.5,5.5h-7.9c-2.7,0-5.5-2-5.5-6.5v-3H47.5z"/>
		<path class="st2" d="M52,20.8C42.5,13,28.5,14.5,20.8,24S14.5,47.4,24,55.2c0.2,0.2,0.5,0.4,0.7,0.6c1.9,1.5,3.2,3.6,3.6,6.1v0
			c0.1,0,0.1,0,0.2,0h19c0.1,0,0.1,0,0.2,0v0c0.5-2.5,2-4.8,4.1-6.3c9.6-7.6,11.3-21.5,3.7-31.2C54.4,23,53.3,21.8,52,20.8z
			 M49.9,39.6c-1.3,0-2.4-1.1-2.4-2.4c0-4.8-3.9-8.7-8.7-8.7c0,0,0,0,0,0c-1.3,0-2.4-1.1-2.4-2.4c0-1.3,1.1-2.4,2.4-2.4c0,0,0,0,0,0
			c7.4,0,13.4,6,13.5,13.5C52.3,38.5,51.2,39.6,49.9,39.6z"/>
		<path class="st3" d="M28.3,61.8h0.2C28.4,61.8,28.4,61.8,28.3,61.8L28.3,61.8z"/>
		<path class="st3" d="M47.7,61.8L47.7,61.8c0,0-0.1,0-0.2,0H47.7z"/>
	</g>
</g>
</svg>
