<?xml version="1.0" encoding="utf-8"?>
<!-- Generator: Adobe Illustrator 23.0.5, SVG Export Plug-In . SVG Version: 6.00 Build 0)  -->
<svg version="1.1" id="Layer_1" xmlns="http://www.w3.org/2000/svg" xmlns:xlink="http://www.w3.org/1999/xlink" x="0px" y="0px"
	 viewBox="0 0 167 167" style="enable-background:new 0 0 167 167;" xml:space="preserve">
<style type="text/css">
	.st0{fill:#1D2B44;}
	.st1{fill:#FFFFFF;}
</style>
<g transform="translate(-1272 -5730)">
	<g transform="translate(1092 -3986)">
		<circle class="st0" cx="263.5" cy="9799.5" r="83.5"/>
	</g>
	<g transform="translate(1243.742 5767.683)">
		<path class="st1" d="M144.7,8.4h-24.4V5.1c0-2.8-2.3-5-5-5.1h-6.5c-2.8,0-5,2.3-5.1,5.1v3.4H79.2c-2.8,0-5,2.2-5,5v13.8
			c0,0.9,0.7,1.6,1.6,1.6c0.9,0,1.6-0.7,1.6-1.6V13.4c0-1,0.8-1.9,1.9-1.9h65.5c1,0,1.9,0.8,1.9,1.9v79.7c0,1-0.8,1.9-1.9,1.9H79.2
			c-1,0-1.9-0.8-1.9-1.9V35.5c0-0.9-0.7-1.6-1.6-1.6c-0.9,0-1.6,0.7-1.6,1.6v57.6c0,2.8,2.2,5,5,5h24.4v6.6c0,0.9,0.7,1.6,1.6,1.6
			c0.9,0,1.6-0.7,1.6-1.6v-6.6h10.4v6.6c0,0.9,0.7,1.6,1.6,1.6c0.9,0,1.6-0.7,1.6-1.6v-6.6h24.4c2.8,0,5-2.2,5-5V13.4
			C149.7,10.6,147.5,8.4,144.7,8.4L144.7,8.4z M106.8,5.1c0-1.1,0.9-1.9,1.9-1.9h6.5c1.1,0,1.9,0.9,1.9,1.9v3.4h-10.4V5.1z"/>
		<path class="st1" d="M141.9,72.2c0.9,0,1.6-0.7,1.6-1.6v0V16.2c0-0.9-0.7-1.6-1.6-1.6l0,0H82.1c-0.9,0-1.6,0.7-1.6,1.6v74.1
			c0,0.9,0.7,1.6,1.6,1.6h0h59.9c0.9,0,1.6-0.7,1.6-1.6v0V78.9c0-0.9-0.7-1.6-1.6-1.6c-0.9,0-1.6,0.7-1.6,1.6v9.9H83.6v-71h56.8
			v52.9C140.4,71.5,141.1,72.2,141.9,72.2C141.9,72.2,141.9,72.2,141.9,72.2z"/>
		<path class="st1" d="M96.7,27c-1.4,0-2.6,1.2-2.6,2.6v0l0,47.4c0,1.4,1.2,2.6,2.6,2.6h0h5c1.4,0,2.6-1.2,2.6-2.6v0V63.3
			c2.6,0,5.2,0,7.8,0c3.6,0,7.2-1.1,10.2-3.2c3-2.1,5.3-5,6.7-8.3c2.9-6.7,1.3-14.4-3.9-19.5c-3.4-3.4-8.1-5.3-12.9-5.3H96.7z
			 M126.1,50.6c-2.3,5.8-7.8,9.6-14,9.6c-2.7,0-5.4,0-8.1,0h-0.3c-1.4,0-2.6,1.2-2.6,2.6v13.6h-3.9l0-46.4h14.9
			c4,0,7.9,1.6,10.7,4.4C127.1,38.6,128.4,45,126.1,50.6L126.1,50.6z"/>
		<path class="st1" d="M103.7,34c-1.4,0-2.6,1.2-2.6,2.6c0,3.3,0,13.4,0.1,17.1c0,1.4,1.2,2.6,2.6,2.6h8.3c6.1-0.1,11.1-5.1,11-11.2
			c-0.1-6.1-5-11-11-11L103.7,34L103.7,34z M119.9,45.1c0.1,4.3-3.2,7.9-7.5,8c-0.1,0-0.2,0-0.4,0h-7.8c0-3.8,0-12.5,0-16h7.8
			c4.3-0.1,7.8,3.4,7.9,7.7C120,44.9,120,45,119.9,45.1L119.9,45.1z"/>
	</g>
</g>
</svg>
