<?xml version="1.0" encoding="utf-8"?>
<!-- Generator: Adobe Illustrator 23.0.5, SVG Export Plug-In . SVG Version: 6.00 Build 0)  -->
<svg version="1.1" id="Layer_1" xmlns="http://www.w3.org/2000/svg" xmlns:xlink="http://www.w3.org/1999/xlink" x="0px" y="0px"
	 viewBox="0 0 167 167" style="enable-background:new 0 0 167 167;" xml:space="preserve">
<style type="text/css">
	.st0{fill:#1D2B44;}
	.st1{fill:#FFFFFF;}
</style>
<g transform="translate(-528 -6067)">
	<g transform="translate(348 -3649)">
		<circle class="st0" cx="263.5" cy="9799.5" r="83.5"/>
	</g>
	<g transform="translate(564 6098.409)">
		<path class="st1" d="M92.4,72.7L92.4,72.7l-8.7-17.4V37.9c0-2.4-2-4.4-4.4-4.4h-5.9v-8.9h4.4c0.8,0,1.5-0.7,1.5-1.5c0,0,0,0,0,0
			V11.3c0-2.4-2-4.4-4.4-4.4H57.1c-2.4,0-4.4,2-4.4,4.4c0,0,0,0,0,0v22.2H33.5v-5.9h4.4c0.8,0,1.5-0.7,1.5-1.5l0,0v-4.4h4.4
			c0.8,0,1.5-0.7,1.5-1.5c0,0,0,0,0,0V2.5c0-0.8-0.7-1.5-1.5-1.5l0,0H11.3c-0.8,0-1.5,0.7-1.5,1.5v17.7c0,0.8,0.7,1.5,1.5,1.5h4.4
			v4.4c0,0.8,0.7,1.5,1.5,1.5h4.4v5.9h-7.4c-2.4,0-4.4,2-4.4,4.4v17.4L1.2,72.7h0C1.1,72.9,1,73.2,1,73.4v17.7
			c0,0.8,0.7,1.5,1.5,1.5h88.6c0.8,0,1.5-0.7,1.5-1.5V73.4C92.6,73.2,92.5,72.9,92.4,72.7z M73.4,11.3c0-0.8,0.7-1.5,1.5-1.5
			s1.5,0.7,1.5,1.5v10.3h-3V11.3z M81.7,71.9l-5.5-11c-0.3-0.5-0.8-0.8-1.3-0.8H18.7c-0.6,0-1.1,0.3-1.3,0.8l-5.5,11h-7l7.4-14.8
			h69.1l7.4,14.8H81.7z M78.4,71.9H15.2l4.4-8.9h54.3L78.4,71.9z M55.7,11.3c0-0.8,0.7-1.5,1.5-1.5l0,0h13.5c-0.2,0.5-0.3,1-0.3,1.5
			v31H55.7V11.3z M12.8,4h29.5v14.8H12.8V4z M18.7,21.7h17.7v3H18.7V21.7z M24.6,27.6h5.9v5.9h-5.9V27.6z M14.3,36.5h38.4v7.4
			c0,0.8,0.7,1.5,1.5,1.5c0,0,0,0,0,0h17.7c0.8,0,1.5-0.7,1.5-1.5v-7.4h5.9c0.8,0,1.5,0.7,1.5,1.5v16.3h-68V37.9
			C12.8,37.1,13.5,36.5,14.3,36.5C14.3,36.5,14.3,36.5,14.3,36.5z M89.6,89.6H4V74.9h85.7V89.6z"/>
		<path class="st1" d="M37.9,6.9H17.3c-0.8,0-1.5,0.7-1.5,1.5l0,0v5.9c0,0.8,0.7,1.5,1.5,1.5l0,0h20.7c0.8,0,1.5-0.7,1.5-1.5v0V8.4
			C39.4,7.6,38.7,6.9,37.9,6.9L37.9,6.9z M36.5,12.8H18.7v-3h17.7L36.5,12.8z"/>
		<circle class="st1" cx="47" cy="80.6" r="3"/>
		<path class="st1" d="M20.2,49.7h20.7c0.8,0,1.5-0.7,1.5-1.5c0,0,0,0,0,0v-7.4c0-0.8-0.7-1.5-1.5-1.5l0,0H20.2
			c-0.8,0-1.5,0.7-1.5,1.5v7.4C18.7,49.1,19.4,49.7,20.2,49.7C20.2,49.7,20.2,49.7,20.2,49.7z M21.7,42.4h17.7v4.4H21.7L21.7,42.4z"
			/>
		<path class="st1" d="M49.8,49.7h26.6c0.8,0,1.5-0.7,1.5-1.5c0,0,0,0,0,0v-7.4h-3v5.9H51.2v-5.9h-3v7.4
			C48.3,49.1,48.9,49.7,49.8,49.7C49.7,49.7,49.7,49.7,49.8,49.7z"/>
		<path class="st1" d="M58.6,12.8h8.9v3h-8.9V12.8z"/>
		<path class="st1" d="M58.6,18.7h8.9v3h-8.9V18.7z"/>
		<path class="st1" d="M58.6,24.6h8.9v3h-8.9V24.6z"/>
	</g>
</g>
</svg>
