<?xml version="1.0" encoding="utf-8"?>
<!-- Generator: Adobe Illustrator 23.0.5, SVG Export Plug-In . SVG Version: 6.00 Build 0)  -->
<svg version="1.1" id="Layer_1" xmlns="http://www.w3.org/2000/svg" xmlns:xlink="http://www.w3.org/1999/xlink" x="0px" y="0px"
	 viewBox="0 0 167 167" style="enable-background:new 0 0 167 167;" xml:space="preserve">
<style type="text/css">
	.st0{fill:#1D2B44;}
	.st1{fill:#FFFFFF;}
</style>
<g transform="translate(-902 -5730)">
	<g transform="translate(722 -3986)">
		<circle class="st0" cx="263.5" cy="9799.5" r="83.5"/>
	</g>
	<g transform="translate(918.996 5747.706)">
		<path class="st1" d="M71.6,35.5l4-1.8l3.7,8l-4,1.8L71.6,35.5z"/>
		<path class="st1" d="M79.6,31.9l4-1.8l3.7,8l-4,1.8L79.6,31.9z"/>
		<path class="st1" d="M87.6,28.2l4-1.8l3.7,8l-4,1.8L87.6,28.2z"/>
		<path class="st1" d="M66,0C29.4-0.1-0.3,29.6-0.4,66.2s29.6,66.4,66.2,66.4c36.6,0.1,66.4-29.6,66.4-66.2
			c0-17.4-6.8-34.1-18.9-46.5c-0.2-0.2-0.4-0.4-0.6-0.6C100.4,6.9,83.5,0,66,0z M127.1,74.5L88.3,62.2V52.1l4.4-2v7.1
			c0,1,0.6,1.8,1.5,2.1l33.3,10.4C127.4,71.4,127.3,72.9,127.1,74.5L127.1,74.5z M68.2,45.2c-0.6-0.3-1.3-0.3-1.9,0l-18.7,8.6
			l-12-6.6l58-26.6l9.2,20l-23,10.6L68.2,45.2z M72.2,52.2L52,61.5l-1.8-4l17-7.8L72.2,52.2z M47.1,61.3l-2,0.9
			c-3.3,1.5-7.2,0.1-8.8-3.3c-0.4-0.9-0.6-1.8-0.6-2.8c0-1.2,0.3-2.4,1-3.5l8.6,4.8L47.1,61.3z M97.1,55.6v-7.5l9.7-4.4
			c1.1-0.5,1.6-1.8,1.1-2.9c0,0,0,0,0,0l-11-24c-0.5-1.1-1.8-1.6-2.9-1.1c0,0,0,0,0,0L29.9,45c-1.1,0.5-1.6,1.8-1.1,2.9
			c0.2,0.4,0.5,0.8,0.9,1l3.1,1.7c-1,1.7-1.5,3.6-1.5,5.6c0,1.6,0.3,3.2,1,4.6c2.5,5.5,9.1,7.9,14.6,5.4l2-0.9
			c0.5,1.1,1.8,1.6,2.9,1.1l0,0l25.4-11.7l1.6,0.8c0.6,0.3,1.3,0.3,1.9,0l3.1-1.4v9.7c0,1,0.6,1.8,1.5,2.1l40.9,13
			c-7.1,33.4-39.9,54.7-73.2,47.7S-1.7,86.7,5.4,53.3S45.2-1.4,78.6,5.6c28.2,6,48.6,30.7,49,59.5L97.1,55.6z"/>
		<path class="st1" d="M24.9,82.1l-6.6,6.6c-0.7,0.7-0.8,1.8-0.3,2.7l1.9,3.1v0.1h0.1l4.6,7.7c0.4,0.7,1.1,1.1,1.9,1.1h6.9
			c1.2,4.7,6,7.5,10.7,6.3c3.1-0.8,5.5-3.2,6.3-6.3h31.4c1.2,4.7,6,7.5,10.7,6.3c3.1-0.8,5.5-3.2,6.3-6.3h4.7c0.5,0,0.9-0.2,1.3-0.4
			l8.8-6.6c0.6-0.4,0.9-1.1,0.9-1.8v-8.8c0-0.9-0.6-1.8-1.5-2.1l-13-4.3l-4.3-2.6l-6.5-3.9c-0.3-0.2-0.7-0.3-1.1-0.3H64.3
			c-2.2,0-4.3,0.6-6.1,1.8l-10.4,7H26.4C25.8,81.4,25.3,81.7,24.9,82.1L24.9,82.1z M41.8,105.6c-2.4,0-4.4-2-4.4-4.4s2-4.4,4.4-4.4
			s4.4,2,4.4,4.4l0,0C46.2,103.7,44.2,105.6,41.8,105.6z M93.9,103.6c-1.3,2-4,2.6-6.1,1.3c-2-1.3-2.6-4-1.3-6.1
			c1.3-2,4-2.6,6.1-1.3c1,0.6,1.7,1.6,1.9,2.8C94.8,101.5,94.6,102.6,93.9,103.6z M77,77h10.4l3.2,1.9l-3.3,2.5H77L77,77z
			 M76.4,96.2c0.4-0.4,0.6-1,0.6-1.6v-8.8h11c0.5,0,0.9-0.2,1.3-0.4l5.3-4l3.2,1.9c0.1,0.1,0.3,0.1,0.4,0.2l11.7,3.9v2.8h-6.6v4.4
			h5.1l-5.9,4.4h-3.9c-1.2-4.7-6-7.5-10.7-6.3c-3.1,0.8-5.5,3.2-6.3,6.3h-8.2L76.4,96.2z M60.6,78.1c1.1-0.7,2.4-1.1,3.7-1.1h8.3
			v4.4H55.7L60.6,78.1z M72.6,85.8v7.9L67.3,99h-17c-1.2-4.7-6-7.5-10.7-6.3c-3.1,0.8-5.5,3.2-6.3,6.3h-5.6L25,94.6h3.6v-4.4h-5.7
			l4.4-4.4L72.6,85.8z"/>
		<path class="st1" d="M59.4,90.2h8.8v4.4h-8.8V90.2z"/>
	</g>
</g>
</svg>
