<?xml version="1.0" encoding="utf-8"?>
<!-- Generator: Adobe Illustrator 23.0.5, SVG Export Plug-In . SVG Version: 6.00 Build 0)  -->
<svg version="1.1" id="Layer_1" xmlns="http://www.w3.org/2000/svg" xmlns:xlink="http://www.w3.org/1999/xlink" x="0px" y="0px"
	 viewBox="0 0 145 145" style="enable-background:new 0 0 145 145;" xml:space="preserve">
<style type="text/css">
	.st0{fill:#1D2B44;}
	.st1{fill:#FFFFFF;}
</style>
<g transform="translate(-761 -5328)">
	<circle class="st0" cx="833.5" cy="5400.5" r="72.5"/>
	<g transform="translate(789 5356.488)">
		<path class="st1" d="M84.2,55.7h-4.3v2.9h-2.3L76,47.9c-0.3-2.1-2.1-3.6-4.2-3.6H43.9c-2.1,0-3.9,1.5-4.2,3.6L38,58.5h-2.3v-2.9
			h-4.3c-2.4,0-4.3,1.9-4.3,4.3c0,2.4,1.9,4.3,4.3,4.3c0,0,0,0,0,0h4.3v-2.9h1.8l-0.3,1.7c-2.8,1.9-4.4,5-4.4,8.3v8.6h2.9v2.9
			c0,1,0.3,2,0.8,2.9H24.3V39.5c10.8-2.4,17.6-13,15.2-23.8S26.5-1.9,15.7,0.5s-17.6,13-15.2,23.8c1.7,7.6,7.6,13.6,15.2,15.2v46.2
			h-10v2.9h77.1v-2.9h-3.6c0.5-0.9,0.8-1.8,0.8-2.9v-2.9h2.9v-8.6c0-3.3-1.7-6.5-4.4-8.3l-0.3-1.7h1.8v2.9h4.3
			c2.4,0,4.3-1.9,4.3-4.3S86.6,55.7,84.2,55.7L84.2,55.7z M32.8,61.4h-1.4c-0.8,0-1.4-0.6-1.5-1.4c0-0.8,0.6-1.4,1.4-1.5
			c0,0,0.1,0,0.1,0h1.4L32.8,61.4z M21.4,85.7h-2.9v-40h2.9V85.7z M21.4,42.8h-2.9v-2.9c0.5,0,0.9,0.1,1.4,0.1s1,0,1.4-0.1
			L21.4,42.8z M20,37.1c-9.5,0-17.1-7.7-17.1-17.1c0-9.5,7.7-17.1,17.1-17.1c9.5,0,17.1,7.7,17.1,17.1C37.1,29.4,29.4,37.1,20,37.1
			L20,37.1z M42.4,48.3c0.1-0.7,0.7-1.2,1.4-1.2h27.9c0.7,0,1.3,0.5,1.4,1.2l2.1,13.4c-0.8-0.2-1.6-0.3-2.4-0.3h-30
			c-0.8,0-1.6,0.1-2.4,0.3L42.4,48.3z M35.7,77.1v-4.3h12.8v4.3L35.7,77.1z M44.3,82.8c0,1.6-1.3,2.9-2.9,2.9
			c-1.6,0-2.9-1.3-2.9-2.9v-2.9h5.7V82.8z M46.3,85.7c0.5-0.9,0.8-1.8,0.8-2.9v-2.9h21.4v2.9c0,1,0.3,2,0.8,2.9L46.3,85.7z
			 M51.4,77.1v-5.7c0-0.8,0.6-1.4,1.4-1.4h10c0.8,0,1.4,0.6,1.4,1.4v5.7H51.4z M77.1,82.8c0,1.6-1.3,2.9-2.9,2.9
			c-1.6,0-2.9-1.3-2.9-2.9v-2.9h5.7V82.8z M79.9,77.1H67.1v-4.3h12.8L79.9,77.1z M79.8,70h-13c-0.6-1.7-2.2-2.8-4-2.9h-10
			c-1.8,0-3.4,1.1-4,2.9h-13c0.7-3.3,3.6-5.7,7-5.7h30C76.2,64.2,79.1,66.6,79.8,70z M84.2,61.4h-1.4v-2.9h1.4
			c0.8,0,1.4,0.7,1.4,1.5C85.6,60.8,85,61.4,84.2,61.4L84.2,61.4z"/>
		<g transform="translate(14.276 9.993)">
			<path class="st1" d="M8.6,0H0v18.6h2.9v-7.1h5.7c3.2,0,5.7-2.6,5.7-5.7S11.7,0,8.6,0L8.6,0z M8.6,8.6H2.9V2.9h5.7
				c1.6,0,2.9,1.3,2.9,2.9C11.4,7.3,10.1,8.6,8.6,8.6z"/>
		</g>
		<g transform="translate(45.614 55.252)">
			<g transform="translate(0 0)">
				<rect x="0.4" y="0.3" class="st1" width="18" height="4"/>
			</g>
		</g>
		<g transform="translate(67.471 55.252)">
			<g transform="translate(0 0)">
				<rect x="-0.5" y="0.3" class="st1" width="3" height="4"/>
			</g>
		</g>
		<g transform="translate(85.526 85.661)">
			<g transform="translate(0 0)">
				<rect x="0.5" y="-0.1" class="st1" width="2" height="3"/>
			</g>
		</g>
		<g transform="translate(0 85.661)">
			<g transform="translate(0 0)">
				<rect y="-0.1" class="st1" width="3" height="3"/>
			</g>
		</g>
	</g>
</g>
</svg>
