<?xml version="1.0" encoding="utf-8"?>
<!-- Generator: Adobe Illustrator 23.0.5, SVG Export Plug-In . SVG Version: 6.00 Build 0)  -->
<svg version="1.1" id="Layer_1" xmlns="http://www.w3.org/2000/svg" xmlns:xlink="http://www.w3.org/1999/xlink" x="0px" y="0px"
	 viewBox="0 0 145 145" style="enable-background:new 0 0 145 145;" xml:space="preserve">
<style type="text/css">
	.st0{fill:#1D2B44;}
	.st1{fill:#FFFFFF;}
</style>
<g transform="translate(-217 -5328)">
	<circle class="st0" cx="289.5" cy="5400.5" r="72.5"/>
	<g transform="translate(261.999 5353.858)">
		<path class="st1" d="M32.5,18l4.7-2.9c-3.4-5.5-10.7-7.3-16.2-3.8c-1.6,1-2.9,2.3-3.8,3.8l4.7,2.9c1.8-3,5.7-3.9,8.7-2.1
			C31.3,16.4,32,17.1,32.5,18L32.5,18z"/>
		<path class="st1" d="M27.1,5.5c5.7,0,11,2.9,13.9,7.8l4.7-2.9C39.4,0.1,25.9-3.1,15.6,3.3c-2.9,1.8-5.3,4.2-7.1,7.1l4.7,2.9
			C16.2,8.4,21.5,5.5,27.1,5.5z"/>
		<path class="st1" d="M30.4,22.3c0,1.8-1.5,3.3-3.3,3.3s-3.3-1.5-3.3-3.3c0-1.8,1.5-3.2,3.3-3.3C28.9,19,30.4,20.5,30.4,22.3
			C30.4,22.3,30.4,22.3,30.4,22.3z"/>
		<path class="st1" d="M54.3,56.8c0-15-12.1-27.1-27.1-27.1S0,41.8,0,56.8c0,11.7,7.5,22.1,18.6,25.8v10.6h5.5v-9.4
			c2,0.2,4.1,0.2,6.1,0v9.4h5.5V82.6C46.8,78.9,54.3,68.5,54.3,56.8L54.3,56.8z M27.1,78.5c-12,0-21.6-9.7-21.6-21.6
			c0-12,9.7-21.6,21.6-21.6s21.6,9.7,21.6,21.6l0,0C48.8,68.8,39.1,78.5,27.1,78.5z"/>
		<path class="st1" d="M30,44.6h-9.6V72h5.5v-9.3H30c5,0,9.1-4.1,9.1-9.1S35,44.6,30,44.6L30,44.6L30,44.6z M30,57.2h-4.1V50H30
			c2,0,3.6,1.6,3.6,3.6C33.5,55.6,31.9,57.2,30,57.2L30,57.2z"/>
	</g>
</g>
</svg>
