<?xml version="1.0" encoding="utf-8"?>
<!-- Generator: Adobe Illustrator 23.0.5, SVG Export Plug-In . SVG Version: 6.00 Build 0)  -->
<svg version="1.1" id="Layer_1" xmlns="http://www.w3.org/2000/svg" xmlns:xlink="http://www.w3.org/1999/xlink" x="0px" y="0px"
	 viewBox="0 0 145 145" style="enable-background:new 0 0 145 145;" xml:space="preserve">
<style type="text/css">
	.st0{fill:#1D2B44;}
	.st1{display:none;}
	.st2{display:inline;fill:#FFFFFF;}
	.st3{display:inline;}
	.st4{fill:#FFFFFF;}
</style>
<g transform="translate(-761 -5328)">
	<circle class="st0" cx="833.5" cy="5401.4" r="70.6"/>
	<g transform="translate(789 5356.488)" class="st1">
		<path class="st2" d="M84.2,55.7h-4.3v2.9h-2.3L76,47.9c-0.3-2.1-2.1-3.6-4.2-3.6H43.9c-2.1,0-3.9,1.5-4.2,3.6L38,58.5h-2.3v-2.9
			h-4.3c-2.4,0-4.3,1.9-4.3,4.3c0,2.4,1.9,4.3,4.3,4.3l0,0h4.3v-2.9h1.8L37.2,63c-2.8,1.9-4.4,5-4.4,8.3v8.6h2.9v2.9
			c0,1,0.3,2,0.8,2.9H24.3V39.5c10.8-2.4,17.6-13,15.2-23.8S26.5-1.9,15.7,0.5s-17.6,13-15.2,23.8c1.7,7.6,7.6,13.6,15.2,15.2v46.2
			h-10v2.9h77.1v-2.9h-3.6c0.5-0.9,0.8-1.8,0.8-2.9v-2.9h2.9v-8.6c0-3.3-1.7-6.5-4.4-8.3l-0.3-1.7H80v2.9h4.3c2.4,0,4.3-1.9,4.3-4.3
			S86.6,55.7,84.2,55.7L84.2,55.7z M32.8,61.4h-1.4c-0.8,0-1.4-0.6-1.5-1.4c0-0.8,0.6-1.4,1.4-1.5h0.1h1.4V61.4z M21.4,85.7h-2.9
			v-40h2.9V85.7z M21.4,42.8h-2.9v-2.9c0.5,0,0.9,0.1,1.4,0.1s1,0,1.4-0.1L21.4,42.8z M20,37.1c-9.5,0-17.1-7.7-17.1-17.1
			c0-9.5,7.7-17.1,17.1-17.1c9.5,0,17.1,7.7,17.1,17.1S29.4,37.1,20,37.1L20,37.1z M42.4,48.3c0.1-0.7,0.7-1.2,1.4-1.2h27.9
			c0.7,0,1.3,0.5,1.4,1.2l2.1,13.4c-0.8-0.2-1.6-0.3-2.4-0.3h-30c-0.8,0-1.6,0.1-2.4,0.3L42.4,48.3z M35.7,77.1v-4.3h12.8v4.3H35.7z
			 M44.3,82.8c0,1.6-1.3,2.9-2.9,2.9c-1.6,0-2.9-1.3-2.9-2.9v-2.9h5.7v2.9H44.3z M46.3,85.7c0.5-0.9,0.8-1.8,0.8-2.9v-2.9h21.4v2.9
			c0,1,0.3,2,0.8,2.9H46.3z M51.4,77.1v-5.7c0-0.8,0.6-1.4,1.4-1.4h10c0.8,0,1.4,0.6,1.4,1.4v5.7H51.4z M77.1,82.8
			c0,1.6-1.3,2.9-2.9,2.9s-2.9-1.3-2.9-2.9v-2.9H77L77.1,82.8L77.1,82.8z M79.9,77.1H67.1v-4.3h12.8V77.1z M79.8,70h-13
			c-0.6-1.7-2.2-2.8-4-2.9h-10c-1.8,0-3.4,1.1-4,2.9h-13c0.7-3.3,3.6-5.7,7-5.7h30C76.2,64.2,79.1,66.6,79.8,70z M84.2,61.4h-1.4
			v-2.9h1.4c0.8,0,1.4,0.7,1.4,1.5S85,61.4,84.2,61.4L84.2,61.4z"/>
		<g transform="translate(14.276 9.993)" class="st3">
			<path class="st4" d="M8.6,0H0v18.6h2.9v-7.1h5.7c3.2,0,5.7-2.6,5.7-5.7S11.7,0,8.6,0L8.6,0z M8.6,8.6H2.9V2.9h5.7
				c1.6,0,2.9,1.3,2.9,2.9C11.4,7.3,10.1,8.6,8.6,8.6z"/>
		</g>
		<g transform="translate(45.614 55.252)" class="st3">
			<g transform="translate(0 0)">
				<rect x="0.4" y="0.3" class="st4" width="18" height="4"/>
			</g>
		</g>
		<g transform="translate(67.471 55.252)" class="st3">
			<g transform="translate(0 0)">
				<rect x="-0.5" y="0.3" class="st4" width="3" height="4"/>
			</g>
		</g>
		<g transform="translate(85.526 85.661)" class="st3">
			<g transform="translate(0 0)">
				<rect x="0.5" y="-0.1" class="st4" width="2" height="3"/>
			</g>
		</g>
		<g transform="translate(0 85.661)" class="st3">
			<g transform="translate(0 0)">
				<rect y="-0.1" class="st4" width="3" height="3"/>
			</g>
		</g>
	</g>
</g>
<g>
	<g>
		<path class="st4" d="M123.1,112.3H20.9c-0.9,0-1.6-0.7-1.6-1.6s0.7-1.6,1.6-1.6h102.2c0.9,0,1.6,0.7,1.6,1.6
			C124.8,111.6,124,112.3,123.1,112.3z"/>
	</g>
	<g>
		<path class="st4" d="M123.1,112.3c-0.9,0-1.6-0.7-1.6-1.6V59.5c0-0.9,0.7-1.6,1.6-1.6s1.6,0.7,1.6,1.6v51.1
			C124.8,111.6,124,112.3,123.1,112.3z"/>
	</g>
	<g>
		<path class="st4" d="M90.2,112.3c-0.9,0-1.6-0.7-1.6-1.6V59.5c0-0.9,0.7-1.6,1.6-1.6s1.6,0.7,1.6,1.6v51.1
			C91.8,111.6,91.1,112.3,90.2,112.3z"/>
	</g>
	<g>
		<path class="st4" d="M53.9,112.3c-0.9,0-1.6-0.7-1.6-1.6V59.5c0-0.9,0.7-1.6,1.6-1.6c0.9,0,1.6,0.7,1.6,1.6v51.1
			C55.5,111.6,54.8,112.3,53.9,112.3z"/>
	</g>
	<g>
		<path class="st4" d="M20.9,112.3c-0.9,0-1.6-0.7-1.6-1.6V59.5c0-0.9,0.7-1.6,1.6-1.6s1.6,0.7,1.6,1.6v51.1
			C22.5,111.6,21.8,112.3,20.9,112.3z"/>
	</g>
	<g>
		<path class="st4" d="M123.1,61.2h-3.3c-0.9,0-1.6-0.7-1.6-1.6c0-0.9,0.7-1.6,1.6-1.6h3.3c0.9,0,1.6,0.7,1.6,1.6
			C124.8,60.4,124,61.2,123.1,61.2z"/>
	</g>
	<g>
		<path class="st4" d="M24.2,61.2h-3.3c-0.9,0-1.6-0.7-1.6-1.6c0-0.9,0.7-1.6,1.6-1.6h3.3c0.9,0,1.6,0.7,1.6,1.6
			C25.8,60.4,25.1,61.2,24.2,61.2z"/>
	</g>
	<g>
		<path class="st4" d="M93.5,61.2h-6.6c-0.9,0-1.6-0.7-1.6-1.6c0-0.9,0.7-1.6,1.6-1.6h6.6c0.9,0,1.6,0.7,1.6,1.6
			C95.1,60.4,94.4,61.2,93.5,61.2z"/>
	</g>
	<g>
		<path class="st4" d="M57.2,61.2h-6.6c-0.9,0-1.6-0.7-1.6-1.6c0-0.9,0.7-1.6,1.6-1.6h6.6c0.9,0,1.6,0.7,1.6,1.6
			C58.8,60.4,58.1,61.2,57.2,61.2z"/>
	</g>
	<g>
		<g>
			<path class="st4" d="M119.8,87.6"/>
		</g>
		<g>
			<path class="st4" d="M93.6,87.6"/>
		</g>
	</g>
	<g>
		<g>
			<g>
				<path class="st4" d="M62.1,64.4c-0.9,0-1.6-0.7-1.6-1.6v-28c0-0.9,0.7-1.6,1.6-1.6c0.9,0,1.6,0.7,1.6,1.6v28
					C63.8,63.7,63,64.4,62.1,64.4z"/>
			</g>
			<g>
				<path class="st4" d="M62.1,36.4c-0.9,0-1.6-0.7-1.6-1.6c0-2.7,2.2-4.9,4.9-4.9c0.9,0,1.6,0.7,1.6,1.6c0,0.9-0.7,1.6-1.6,1.6
					s-1.7,0.7-1.7,1.6C63.8,35.7,63,36.4,62.1,36.4z"/>
			</g>
			<g>
				<path class="st4" d="M68.7,71c-2.2,0-4.3-0.9-5.8-2.4s-2.4-3.6-2.4-5.8c0-0.9,0.7-1.6,1.6-1.6c0.9,0,1.6,0.7,1.6,1.6
					c0,1.3,0.5,2.6,1.4,3.5s2.2,1.4,3.5,1.4c0.9,0,1.6,0.7,1.6,1.6C70.4,70.3,69.6,71,68.7,71z"/>
			</g>
		</g>
		<g>
			<g>
				<path class="st4" d="M81.9,64.4c-0.9,0-1.6-0.7-1.6-1.6v-28c0-0.9,0.7-1.6,1.6-1.6s1.6,0.7,1.6,1.6v28
					C83.6,63.7,82.8,64.4,81.9,64.4z"/>
			</g>
			<g>
				<path class="st4" d="M81.9,36.4c-0.9,0-1.6-0.7-1.6-1.6c0-0.9-0.7-1.6-1.6-1.6s-1.6-0.7-1.6-1.6s0.7-1.6,1.6-1.6
					c2.7,0,4.9,2.2,4.9,4.9C83.6,35.7,82.8,36.4,81.9,36.4z"/>
			</g>
			<g>
				<path class="st4" d="M75.3,71c-0.9,0-1.6-0.7-1.6-1.6s0.7-1.6,1.6-1.6c2.7,0,4.9-2.2,4.9-4.9c0-0.9,0.7-1.6,1.6-1.6
					s1.6,0.7,1.6,1.6C83.6,67.3,79.9,71,75.3,71z"/>
			</g>
		</g>
		<g>
			<path class="st4" d="M78.6,33.1H65.4c-0.9,0-1.6-0.7-1.6-1.6s0.7-1.6,1.6-1.6h13.2c0.9,0,1.6,0.7,1.6,1.6
				C80.3,32.4,79.5,33.1,78.6,33.1z"/>
		</g>
		<g>
			<path class="st4" d="M67.1,54.6c-0.4,0-0.9-0.2-1.2-0.5c-0.3-0.3-0.5-0.7-0.5-1.2V38.1c0-0.9,0.7-1.6,1.6-1.6h10
				c0.9,0,1.6,0.7,1.6,1.6v14.8c0,0.9-0.7,1.6-1.6,1.6L67.1,54.6z M68.7,39.7v11.5h6.6V39.7H68.7z"/>
		</g>
		<g>
			<path class="st4" d="M78.6,59.5c-0.7,0-1.3-0.4-1.6-1.1l-1.6-4.9c-0.3-0.9,0.2-1.8,1-2.1c0.9-0.3,1.8,0.2,2.1,1l1.6,4.9
				c0.3,0.9-0.2,1.8-1,2.1C79,59.5,78.8,59.5,78.6,59.5L78.6,59.5z"/>
		</g>
		<g>
			<path class="st4" d="M65.4,59.5c-0.2,0-0.3,0-0.5-0.1c-0.9-0.3-1.3-1.2-1-2.1l1.6-4.9c0.3-0.9,1.2-1.3,2.1-1s1.3,1.2,1,2.1
				L67,58.4C66.7,59.1,66.1,59.5,65.4,59.5z"/>
		</g>
		<g>
			<path class="st4" d="M72,61.1c-4,0-6.4-0.5-7.6-1.7c-0.7-0.7-0.7-1.4-0.7-1.6c0-0.9,0.8-1.7,1.7-1.6c0.7,0,1.2,0.4,1.5,1
				c0.3,0.2,1.6,0.7,5.1,0.7s4.8-0.5,5.1-0.7c0.2-0.6,0.8-1,1.5-1c0.9-0.1,1.7,0.7,1.7,1.6c0,0.3,0,1-0.7,1.6
				C78.4,60.6,76,61.1,72,61.1L72,61.1z"/>
		</g>
		<g>
			<path class="st4" d="M75.3,71h-6.6c-0.9,0-1.6-0.7-1.6-1.6s0.7-1.6,1.6-1.6h6.6c0.9,0,1.6,0.7,1.6,1.6C77,70.3,76.2,71,75.3,71z"
				/>
		</g>
		<g>
			<path class="st4" d="M83.6,54.6H82c-0.9,0-1.6-0.7-1.6-1.6c0-0.9,0.7-1.6,1.6-1.6h1.6c0.9,0,1.6,0.7,1.6,1.6
				C85.2,53.8,84.5,54.6,83.6,54.6z"/>
		</g>
		<g>
			<path class="st4" d="M62.1,54.6h-1.6c-0.9,0-1.6-0.7-1.6-1.6c0-0.9,0.7-1.6,1.6-1.6h1.6c0.9,0,1.6,0.7,1.6,1.6
				C63.8,53.8,63,54.6,62.1,54.6z"/>
		</g>
		<g>
			<path class="st4" d="M67.1,39.7c-0.5,0-1.1-0.3-1.4-0.7l-3.8-5.7c-0.5-0.8-0.3-1.8,0.5-2.3s1.8-0.3,2.3,0.5l3.8,5.7
				C69,38,68.8,39,68,39.5C67.7,39.6,67.4,39.7,67.1,39.7L67.1,39.7z"/>
		</g>
		<g>
			<path class="st4" d="M77,39.7c-0.3,0-0.6-0.1-0.9-0.3c-0.8-0.5-1-1.5-0.5-2.3l3.8-5.7c0.5-0.8,1.5-1,2.3-0.5s1,1.5,0.5,2.3
				L78.3,39C78,39.5,77.5,39.7,77,39.7z"/>
		</g>
	</g>
	<g>
		<path class="st4" d="M72,105.7c-0.9,0-1.6-0.7-1.6-1.6V76c0-0.9,0.7-1.6,1.6-1.6s1.6,0.7,1.6,1.6v28C73.7,105,72.9,105.7,72,105.7
			L72,105.7z"/>
	</g>
	<g>
		<path class="st4" d="M72,105.7c-0.4,0-0.8-0.2-1.2-0.5c-0.6-0.6-0.6-1.7,0-2.3l3.3-3.3c0.6-0.6,1.7-0.6,2.3,0s0.6,1.7,0,2.3
			l-3.3,3.3C72.9,105.5,72.4,105.7,72,105.7z"/>
	</g>
	<g>
		<path class="st4" d="M72,105.7c-0.4,0-0.8-0.2-1.2-0.5l-3.3-3.3c-0.6-0.6-0.6-1.7,0-2.3c0.6-0.6,1.7-0.6,2.3,0l3.3,3.3
			c0.6,0.6,0.6,1.7,0,2.3C72.9,105.5,72.4,105.7,72,105.7z"/>
	</g>
</g>
</svg>
