<svg xmlns="http://www.w3.org/2000/svg" width="35.299" height="43.643" viewBox="0 0 35.299 43.643"><defs><style>.a{fill:#fff;}</style></defs><g transform="translate(16.195 21.056)"><g transform="translate(0)"><path class="a" d="M241.119,247.017h-1.455a.727.727,0,0,0,0,1.455h1.455a.727.727,0,1,0,0-1.455Z" transform="translate(-238.937 -247.017)"/></g></g><g transform="translate(15.468 23.965)"><g transform="translate(0)"><path class="a" d="M234.042,281.15h-2.909a.727.727,0,1,0,0,1.455h2.909a.727.727,0,1,0,0-1.455Z" transform="translate(-230.405 -281.15)"/></g></g><g transform="translate(11.831 15.964)"><g transform="translate(0)"><path class="a" d="M191.375,187.283h-2.909a.727.727,0,1,0,0,1.455h.727v.727a.727.727,0,0,0,1.455,0v-.727h.727a.727.727,0,0,0,0-1.455Z" transform="translate(-187.738 -187.283)"/></g></g><g transform="translate(19.105 15.964)"><g transform="translate(0)"><path class="a" d="M276.708,187.283H273.8a.727.727,0,0,0,0,1.455h.727v.727a.727.727,0,0,0,1.455,0v-.727h.727a.727.727,0,0,0,0-1.455Z" transform="translate(-273.071 -187.283)"/></g></g><g transform="translate(0)"><path class="a" d="M84.139,40.759l-.972-3.03a8.9,8.9,0,0,0-2.034-3.159,17.948,17.948,0,0,0-1.9-1.437l-.068-.044a7.874,7.874,0,0,0-.914-.448,8.958,8.958,0,0,0-3.353-.67L72.5,29.577a15.822,15.822,0,0,1,.114-1.943,23.064,23.064,0,0,1,.388-2.292,6.154,6.154,0,0,0,1.583-3.568,1.241,1.241,0,0,0,.282.047,1.221,1.221,0,0,0,.39-.065c.375-.125,1.515-.505,1.515-5.064,0-.49,0-1.981-1-2.431a1.274,1.274,0,0,0-.511-.106,6.373,6.373,0,0,0-.132-2.421c2-1.282,3.1-2.96,3.1-4.757C78.231,3.064,73.119,0,66.593,0S54.955,3.064,54.955,6.976c0,1.8,1.1,3.473,3.1,4.759a6.4,6.4,0,0,0-.13,2.419,1.266,1.266,0,0,0-.511.106c-1,.45-1,1.941-1,2.431,0,4.559,1.14,4.939,1.515,5.064a1.219,1.219,0,0,0,.39.065,1.24,1.24,0,0,0,.282-.047,6.152,6.152,0,0,0,1.583,3.568,22.945,22.945,0,0,1,.388,2.3,15.734,15.734,0,0,1,.114,1.939L58.288,31.97a8.962,8.962,0,0,0-3.355.671,7.91,7.91,0,0,0-.911.448l-.068.044a18.056,18.056,0,0,0-1.9,1.435,8.861,8.861,0,0,0-2.047,3.194l-.961,3a2.184,2.184,0,0,0,2.083,2.846H65.638a.733.733,0,0,0,.227.036H67.32a.661.661,0,0,0,.215-.036H82.057a2.184,2.184,0,0,0,2.082-2.848Zm-10.615-8.1-1.176,1.007a10.832,10.832,0,0,0-2.666-1.2l1.965-1.685Zm-5.644-.564a10.819,10.819,0,0,0-2.573,0L62.134,29.37a17.433,17.433,0,0,0-.121-1.9c-.008-.068-.021-.139-.029-.207.439.408.905.821,1.43,1.246a5.05,5.05,0,0,0,6.359,0c.525-.425.991-.838,1.43-1.247-.008.066-.021.136-.029.2a17.555,17.555,0,0,0-.121,1.9Zm7.291-16.475a2.579,2.579,0,0,1,.151,1.076,8.477,8.477,0,0,1-.5,3.612,2.267,2.267,0,0,1-.311-.334,16.6,16.6,0,0,1,.415-4.212A1.044,1.044,0,0,1,75.171,15.615ZM56.41,6.976c0-2.993,4.663-5.521,10.183-5.521S76.776,3.984,76.776,6.976a3.5,3.5,0,0,1-.936,2.265A.844.844,0,0,0,75.991,9a.685.685,0,0,0,0-.553.836.836,0,0,0-.153-.24,1.183,1.183,0,0,0-.109-.087.541.541,0,0,0-.131-.065.482.482,0,0,0-.131-.044.7.7,0,0,0-.815.437.685.685,0,0,0,0,.553.846.846,0,0,0,.153.24.737.737,0,0,0,1.031,0,6.262,6.262,0,0,1-1.059.974.7.7,0,0,0-.183-.037h-16a.7.7,0,0,0-.185.037A4.192,4.192,0,0,1,56.41,6.976Zm16.9,4.662c-1.065.771-3.5,1.455-6.714,1.455s-5.654-.685-6.715-1.455ZM58.674,19.969a2.265,2.265,0,0,1-.311.335,8.477,8.477,0,0,1-.5-3.612,2.582,2.582,0,0,1,.151-1.076,1.08,1.08,0,0,1,.244.143A16.592,16.592,0,0,1,58.674,19.969Zm1.373,1.756c0-.161.006-.322.019-.471a18.171,18.171,0,0,0-.553-6.537h0a5.7,5.7,0,0,1-.194-1.444c0-.087.014-.172.018-.258a14.749,14.749,0,0,0,7.256,1.533,14.756,14.756,0,0,0,7.256-1.533c0,.086.018.171.018.258a5.674,5.674,0,0,1-.192,1.436,18.17,18.17,0,0,0-.555,6.541c.013.154.019.315.019.476,0,1.409-1.522,3.417-4.285,5.656a3.589,3.589,0,0,1-4.523,0C61.568,25.142,60.047,23.133,60.047,21.725Zm1.492,9.052L63.5,32.462a10.843,10.843,0,0,0-2.666,1.2l-1.176-1.006ZM51.129,42.152a.73.73,0,0,1-.7-.95l.949-2.963a7.43,7.43,0,0,1,1.7-2.645c.062-.063.245-.212,1.688-1.259a6.535,6.535,0,0,1,.71-.347,7.517,7.517,0,0,1,2.84-.564l1.29,1.1c-.255.213-.5.437-.736.672a10.821,10.821,0,0,0-3.158,6.952h-4.59Zm8.961,0a6.573,6.573,0,0,1,3.344-4.972c.161-.09.329-.167.5-.243h0l1.041,5.215Zm8.124,0,1.041-5.215c.169.076.338.154.5.245a6.572,6.572,0,0,1,3.34,4.97Zm6.342,0a8.022,8.022,0,0,0-4.1-6.244,7.734,7.734,0,0,0-1.542-.651c-.012,0-.023,0-.035,0s-.021-.011-.034-.014a.7.7,0,0,0-.115,0,.721.721,0,0,0-.137,0,.694.694,0,0,0-.14.044.477.477,0,0,0-.23.142.7.7,0,0,0-.094.094.718.718,0,0,0-.069.13.686.686,0,0,0-.05.095c0,.012,0,.024,0,.035S68,35.8,68,35.815l-1.265,6.337h-.276L65.19,35.815c0-.012-.011-.021-.014-.033s0-.024,0-.036a.668.668,0,0,0-.051-.1.725.725,0,0,0-.069-.129.7.7,0,0,0-.1-.1.477.477,0,0,0-.231-.141.69.69,0,0,0-.138-.043.719.719,0,0,0-.137,0,.676.676,0,0,0-.115,0c-.012,0-.021.011-.034.014s-.023,0-.035,0a7.731,7.731,0,0,0-1.539.649,8.023,8.023,0,0,0-4.1,6.246H57.167a9.384,9.384,0,0,1,2.739-5.923,9.722,9.722,0,0,1,1.278-1.075,9.495,9.495,0,0,1,10.817,0,9.7,9.7,0,0,1,1.279,1.075,9.384,9.384,0,0,1,2.739,5.923H74.556Zm8.09-.3a.723.723,0,0,1-.59.3H77.466A10.821,10.821,0,0,0,74.309,35.2c-.235-.235-.481-.458-.736-.672l1.291-1.1a7.514,7.514,0,0,1,2.838.563,6.524,6.524,0,0,1,.712.348c1.443,1.047,1.626,1.2,1.691,1.262a7.479,7.479,0,0,1,1.691,2.609l.96,3A.722.722,0,0,1,82.646,41.853Z" transform="translate(-48.943)"/></g><g transform="translate(9.648 6.544)"><g transform="translate(0)"><path class="a" d="M163.378,76.989a.757.757,0,0,0-.24-.153.664.664,0,0,0-.553,0,.836.836,0,0,0-.24.153.762.762,0,0,0-.211.516.605.605,0,0,0,.058.276.843.843,0,0,0,.153.24.834.834,0,0,0,.24.153.72.72,0,0,0,.793-.153.846.846,0,0,0,.153-.24.729.729,0,0,0,.058-.276A.765.765,0,0,0,163.378,76.989Z" transform="translate(-162.134 -76.776)"/></g></g><g transform="translate(12.558 6.546)"><path class="a" d="M197.507,77.011a.454.454,0,0,0-.109-.087.4.4,0,0,0-.124-.065.452.452,0,0,0-.139-.044.726.726,0,0,0-.654.2.762.762,0,0,0-.211.516.72.72,0,0,0,.713.727H197a.732.732,0,0,0,.727-.727A.74.74,0,0,0,197.507,77.011Z" transform="translate(-196.271 -76.8)"/></g><g transform="translate(18.377 6.546)"><g transform="translate(0)"><path class="a" d="M265.78,77.011a.71.71,0,0,0-.117-.087.4.4,0,0,0-.124-.065.452.452,0,0,0-.138-.044.726.726,0,0,0-.654.2.762.762,0,0,0-.211.516.72.72,0,0,0,.211.516.833.833,0,0,0,.24.153.72.72,0,0,0,1-.669A.765.765,0,0,0,265.78,77.011Z" transform="translate(-264.537 -76.8)"/></g></g><g transform="translate(15.468 6.542)"><g transform="translate(0)"><path class="a" d="M231.136,76.751a.727.727,0,0,0-.521.215.738.738,0,0,0,0,1.033.731.731,0,0,0,1.244-.5s0-.009,0-.014A.727.727,0,0,0,231.136,76.751Z" transform="translate(-230.404 -76.751)"/></g></g><g transform="translate(21.287 6.546)"><path class="a" d="M299.914,77.006a.735.735,0,0,0-.662-.2.472.472,0,0,0-.131.044.54.54,0,0,0-.131.065,1.179,1.179,0,0,0-.109.087.762.762,0,0,0-.211.516.72.72,0,0,0,.713.727h.014a.728.728,0,0,0,.276-.058.845.845,0,0,0,.24-.153.735.735,0,0,0,.211-.516A.766.766,0,0,0,299.914,77.006Z" transform="translate(-298.67 -76.795)"/></g><g transform="translate(24.196 6.542)"><g transform="translate(0)"><path class="a" d="M333.535,76.751a.727.727,0,0,0-.521.215.748.748,0,0,0-.211.516.72.72,0,0,0,.211.516.833.833,0,0,0,.24.153.72.72,0,0,0,1-.655v-.014A.727.727,0,0,0,333.535,76.751Z" transform="translate(-332.804 -76.751)"/></g></g><g transform="translate(8.194 8)"><g transform="translate(0)"><path class="a" d="M146.307,94.067a.716.716,0,0,0-.655-.2.472.472,0,0,0-.131.044.54.54,0,0,0-.131.065,1.157,1.157,0,0,0-.109.087.749.749,0,0,0-.153.24.729.729,0,0,0-.058.276.72.72,0,0,0,.713.727h.014a.732.732,0,0,0,.727-.727A.741.741,0,0,0,146.307,94.067Z" transform="translate(-145.071 -93.855)"/></g></g><g transform="translate(11.103 8.01)"><g transform="translate(0)"><path class="a" d="M180.6,94.414a.836.836,0,0,0-.153-.24.761.761,0,0,0-1.033,0,.749.749,0,0,0-.153.24.605.605,0,0,0-.058.276.727.727,0,1,0,1.4-.276Z" transform="translate(-179.2 -93.972)"/></g></g><g transform="translate(14.013 8.002)"><g transform="translate(0)"><path class="a" d="M214.58,94.083a.71.71,0,0,0-.117-.087.4.4,0,0,0-.124-.065.452.452,0,0,0-.139-.044.733.733,0,0,0-.654.2.749.749,0,0,0-.153.24.728.728,0,0,0-.058.276.72.72,0,0,0,.211.516.727.727,0,0,0,1.244-.516A.766.766,0,0,0,214.58,94.083Z" transform="translate(-213.337 -93.872)"/></g></g><g transform="translate(16.922 8.002)"><g transform="translate(0)"><path class="a" d="M248.865,94.329a.836.836,0,0,0-.153-.24.846.846,0,0,0-.24-.153.726.726,0,0,0-.793.153.749.749,0,0,0-.153.24.6.6,0,0,0-.058.276.727.727,0,1,0,1.4-.276Z" transform="translate(-247.468 -93.879)"/></g></g><g transform="translate(19.832 8.001)"><g transform="translate(0)"><path class="a" d="M282.332,93.867a.727.727,0,0,0-.727.727.72.72,0,0,0,.211.516.729.729,0,1,0,.516-1.244Z" transform="translate(-281.605 -93.867)"/></g></g><g transform="translate(22.742 7.997)"><g transform="translate(0)"><path class="a" d="M316.469,93.817a.727.727,0,0,0-.521.215.748.748,0,0,0-.211.516.72.72,0,0,0,.211.516.73.73,0,1,0,.521-1.248Z" transform="translate(-315.738 -93.817)"/></g></g></svg>