<svg xmlns="http://www.w3.org/2000/svg" width="105.59" height="109" viewBox="0 0 105.59 109"><defs><style>.a{fill:#fff;}</style></defs><g transform="translate(-8.008 0)"><g transform="translate(8.008 0)"><g transform="translate(0 0)"><path class="a" d="M110.107,63.845h-1.631V49.152a6.9,6.9,0,0,0-2.926-5.637v-2a5.269,5.269,0,0,0-5.263-5.263H99.069l4.66-6.838a5.036,5.036,0,0,0-1.324-6.99L70.784.875A5.03,5.03,0,0,0,63.794,2.2L36.5,42.249H28.907L30.739,23.7a.55.55,0,0,1,.346-.462,11.808,11.808,0,0,0,5.761-4.68.546.546,0,0,1,.516-.242l11.912,1.177a1.553,1.553,0,0,0,.305-3.091L37.667,15.225a3.635,3.635,0,0,0-3.442,1.666,8.681,8.681,0,0,1-4.235,3.441,3.631,3.631,0,0,0-2.342,3.063L25.785,42.249H23.8l2.9-29.337a1.925,1.925,0,0,1,2.1-1.726l24.072,2.378a1.553,1.553,0,1,0,.305-3.091L29.112,8.095a5.037,5.037,0,0,0-5.5,4.512L21.275,36.252H17.3a5.269,5.269,0,0,0-5.263,5.263v1.365a6.911,6.911,0,0,0-4.027,6.273V102.1a6.911,6.911,0,0,0,6.9,6.9h86.661a6.911,6.911,0,0,0,6.9-6.9V87.4h1.631a3.5,3.5,0,0,0,3.492-3.491V67.336A3.5,3.5,0,0,0,110.107,63.845Zm-9.82-24.486h0a2.158,2.158,0,0,1,2.156,2.156v.791a6.922,6.922,0,0,0-.871-.057h-6.59l1.97-2.891ZM66.361,3.949a1.913,1.913,0,0,1,1.232-.807,1.952,1.952,0,0,1,.362-.034,1.912,1.912,0,0,1,1.08.335l31.621,21.549a1.927,1.927,0,0,1,.507,2.674L91.223,42.249H88.838l4.873-7.15a3.631,3.631,0,0,0,.169-3.852,8.68,8.68,0,0,1-1.041-5.358A3.632,3.632,0,0,0,91.269,22.4L74.877,11.232a3.632,3.632,0,0,0-3.819-.187,8.682,8.682,0,0,1-5.367.991A3.677,3.677,0,0,0,62.168,13.6L42.646,42.249H40.261Zm.684,26.375A12.816,12.816,0,0,0,54.277,42.249H46.4l18.33-26.9h0a.555.555,0,0,1,.454-.244.529.529,0,0,1,.071,0,11.809,11.809,0,0,0,7.3-1.348.548.548,0,0,1,.569.035L89.519,24.97a.549.549,0,0,1,.24.516,11.805,11.805,0,0,0,1.415,7.286.551.551,0,0,1-.031.576l-6.065,8.9H79.814A12.817,12.817,0,0,0,67.045,30.324ZM76.7,42.249H57.391a9.694,9.694,0,0,1,19.308,0Zm-61.558-.734A2.159,2.159,0,0,1,17.3,39.358h3.671l-.285,2.891H15.141Zm-4.027,7.637a3.8,3.8,0,0,1,3.8-3.8h86.661a3.8,3.8,0,0,1,3.8,3.8v4.31H11.114ZM105.369,102.1a3.8,3.8,0,0,1-3.8,3.8H14.911a3.8,3.8,0,0,1-3.8-3.8v-4.31H19.49a1.553,1.553,0,0,0,0-3.106H11.114V56.568h94.255v7.277H90.6a11.794,11.794,0,0,0-10.6,6.638l-.02.039c-.016.033-.03.068-.046.1a11.711,11.711,0,0,0-.587,1.5v0A11.783,11.783,0,0,0,90.6,87.4h14.768v7.277H29.435a1.553,1.553,0,0,0,0,3.106h75.934Zm5.123-18.184a.386.386,0,0,1-.386.385H90.6a8.681,8.681,0,0,1-7.625-4.543q-.1-.184-.192-.374Q82.6,79,82.455,78.6a8.682,8.682,0,0,1,0-5.958q.146-.4.329-.778.092-.189.192-.374A8.681,8.681,0,0,1,90.6,66.951h19.5a.386.386,0,0,1,.386.385V83.913Z" transform="translate(-8.008 0)"/></g></g><g transform="translate(84.664 69.323)"><path class="a" d="M374.383,325.627a6.3,6.3,0,1,0,6.3,6.3A6.309,6.309,0,0,0,374.383,325.627Zm0,9.5a3.2,3.2,0,1,1,3.2-3.2A3.2,3.2,0,0,1,374.383,335.124Z" transform="translate(-368.081 -325.627)"/></g></g></svg>