<svg xmlns="http://www.w3.org/2000/svg" width="126" height="126" viewBox="0 0 126 126"><defs><style>.a{fill:#ccf7ff;}</style></defs><g transform="translate(-1371 -2599)"><circle class="a" cx="63" cy="63" r="63" transform="translate(1371 2599)"/><g transform="translate(1396 2590.134)"><g transform="translate(59.3 46.184)"><path d="M401.531,81.562H397.8a.819.819,0,0,0-.91.743h0V94.381c0,.5.594.762,1.208.762.594,0,1.208-.26,1.208-.762v-4.31h2.081c2.452,0,4.366-1.171,4.366-4.217v-.111C405.748,82.7,403.89,81.562,401.531,81.562Zm1.8,4.477c0,1.449-.743,2.136-1.951,2.136H399.3v-4.5h2.081c1.208,0,1.951.687,1.951,2.136Z" transform="translate(-396.886 -81.562)"/></g><g transform="translate(17.063 45.436)"><g transform="translate(0 0)"><path d="M140.924,82.023a18.672,18.672,0,0,0-26.406,0,1.09,1.09,0,0,0,1.541,1.541,16.493,16.493,0,0,1,23.324,0,1.09,1.09,0,0,0,1.541-1.541Z" transform="translate(-114.198 -76.554)"/></g></g><g transform="translate(21.559 51.8)"><g transform="translate(0 0)"><path d="M162.023,122.748a12.328,12.328,0,0,0-17.414,0,1.09,1.09,0,1,0,1.541,1.541,10.146,10.146,0,0,1,14.332,0,1.09,1.09,0,1,0,1.541-1.541Z" transform="translate(-144.289 -119.148)"/></g></g><g transform="translate(25.983 58.055)"><g transform="translate(0 0)"><path d="M182.787,162.78a6.063,6.063,0,0,0-8.565,0,1.09,1.09,0,0,0,1.541,1.541,3.881,3.881,0,0,1,5.483,0,1.09,1.09,0,0,0,1.541-1.541Z" transform="translate(-173.903 -161.009)"/></g></g><g transform="translate(9.262 73.077)"><path d="M106.353,269.526c-.472-.26-.937-.544-1.383-.845l-7.208-4.87a13.135,13.135,0,0,0-7.38-2.259H77.151a13.1,13.1,0,0,0-9.3,3.844,17.661,17.661,0,0,1-4.331,3.168,2.835,2.835,0,0,0,1.307,5.351h4.511a1.09,1.09,0,0,0,0-2.18H64.823a.655.655,0,0,1-.3-1.237,19.839,19.839,0,0,0,4.865-3.559,10.934,10.934,0,0,1,7.766-3.208h2.962v8H76.493a1.09,1.09,0,0,0,0,2.18h29.882A1.627,1.627,0,0,0,108,272.291,3.161,3.161,0,0,0,106.353,269.526Zm-24.06,2.21v-8h8.089a10.964,10.964,0,0,1,6.16,1.886l7.208,4.87c.5.338,1.023.657,1.553.949a1.015,1.015,0,0,1,.338.3Z" transform="translate(-61.987 -261.552)"/></g><g transform="translate(27.812 87.098)"><path d="M190.6,355.388h-3.366a1.09,1.09,0,1,0,0,2.18H190.6a1.09,1.09,0,1,0,0-2.18Z" transform="translate(-186.142 -355.388)"/></g><g transform="translate(0 39.97)"><g transform="translate(0 0)"><path d="M75.56,86.183l-.344-.571a8.97,8.97,0,0,0-5.921-4.159l-2.814-.56V66.632h7.281a2.722,2.722,0,0,0,2.719-2.719V42.689a2.722,2.722,0,0,0-2.719-2.719H52.538a2.722,2.722,0,0,0-2.719,2.719V50.74a1.09,1.09,0,1,0,2.18,0V42.689a.54.54,0,0,1,.539-.539H73.763a.54.54,0,0,1,.539.539V63.913a.54.54,0,0,1-.539.539H52.538A.54.54,0,0,1,52,63.913V57.825a1.09,1.09,0,0,0-2.18,0v6.088a2.722,2.722,0,0,0,2.719,2.719h8.257v13.13l-1.446-.288A15.366,15.366,0,0,1,54.116,77l-7.208-4.87A16.467,16.467,0,0,0,37.657,69.3H24.426a16.42,16.42,0,0,0-11.663,4.818A14.311,14.311,0,0,1,5.579,78l-1.565.328A5.071,5.071,0,0,0,0,83.266V93.821a3.192,3.192,0,0,0,1.894,2.914l4.341,1.929a7.226,7.226,0,0,0,14.052.593H56.48a7.225,7.225,0,0,0,13.911,0h2.067A4.046,4.046,0,0,0,76.5,95.217V89.564A6.555,6.555,0,0,0,75.56,86.183ZM62.974,66.632H64.3V80.459L62.974,80.2ZM16.9,100.867A5.05,5.05,0,0,1,8.737,95.2l.02-.045c.026-.055.053-.11.081-.164l.04-.077c.025-.047.052-.094.078-.141l.057-.1c.025-.041.05-.082.077-.123s.048-.073.073-.109.049-.072.074-.107.059-.08.09-.119.047-.062.071-.092.073-.088.111-.131c.021-.025.042-.05.064-.074q.083-.093.172-.182l.015-.016.034-.033c.05-.049.1-.1.151-.144l.041-.035c.051-.045.1-.09.155-.133l.015-.012a5.06,5.06,0,0,1,6.356.006l.007.005c.056.046.111.094.166.143l.03.026q.1.086.186.177c.066.066.129.133.191.2.027.03.053.061.079.092s.064.075.095.113.068.087.1.13l.055.074q.06.082.116.167l.019.029A5.058,5.058,0,0,1,16.9,100.867Zm50.1,0a5.05,5.05,0,0,1-7.8-6.336l.019-.028q.056-.085.117-.167l.054-.073c.033-.044.066-.088.1-.131s.062-.075.094-.112.052-.062.08-.093c.062-.069.125-.136.191-.2a5.05,5.05,0,0,1,7.142,0c.066.066.129.133.191.2.027.03.053.061.079.092s.064.075.095.113.068.087.1.13l.055.073c.04.055.079.111.116.167l.019.029A5.059,5.059,0,0,1,67.007,100.867Zm7.314-5.651h0a1.864,1.864,0,0,1-1.862,1.862H70.665a7.139,7.139,0,0,0-1.6-4.325l-.02-.025c-.062-.076-.127-.15-.192-.224l-.049-.057c-.069-.076-.141-.151-.214-.225l-.036-.038a7.186,7.186,0,0,0-3.346-1.9,7.338,7.338,0,0,0-3.188-.077,7.18,7.18,0,0,0-3.691,1.979l-.036.038c-.073.074-.145.149-.215.226l-.048.055c-.066.074-.131.149-.194.226l-.018.023a7.141,7.141,0,0,0-1.606,4.327H20.56a7.14,7.14,0,0,0-1.61-4.332l-.014-.017c-.066-.08-.134-.159-.2-.237l-.038-.043q-.122-.135-.252-.265a7.238,7.238,0,0,0-10.225,0c-.081.081-.158.163-.235.247l-.066.075q-.081.091-.158.184l-.068.084q-.08.1-.156.2l-.048.063q-.2.28-.38.577l-.01.017q-.086.146-.165.3l0,.009a7.184,7.184,0,0,0-.753,2.316l-3.4-1.51a1.011,1.011,0,0,1-.6-.923V83.266a2.883,2.883,0,0,1,2.282-2.809l1.565-.328A16.487,16.487,0,0,0,14.3,75.662a14.254,14.254,0,0,1,10.125-4.183H37.657a14.3,14.3,0,0,1,8.031,2.458l7.208,4.87a17.379,17.379,0,0,0,6.027,2.805L68.87,83.59a6.786,6.786,0,0,1,4.479,3.146l.344.571a4.37,4.37,0,0,1,.627,2.256Z" transform="translate(0 -39.97)"/></g></g><g transform="translate(10.023 93.987)"><g transform="translate(0 0)"><path d="M72.728,402.469a3.309,3.309,0,1,0,0,4.679A3.287,3.287,0,0,0,72.728,402.469Zm-1.541,3.138a1.129,1.129,0,1,1,0-1.6A1.122,1.122,0,0,1,71.187,405.607Z" transform="translate(-67.08 -401.5)"/></g></g><g transform="translate(60.128 93.987)"><g transform="translate(0 0)"><path d="M408.077,402.469a3.309,3.309,0,1,0,.969,2.34A3.287,3.287,0,0,0,408.077,402.469Zm-1.541,3.138a1.129,1.129,0,1,1,.331-.8A1.122,1.122,0,0,1,406.536,405.607Z" transform="translate(-402.43 -401.5)"/></g></g></g></g></svg>