<svg xmlns="http://www.w3.org/2000/svg" width="126" height="126" viewBox="0 0 126 126"><defs><style>.a{fill:#ccf7ff;}</style></defs><g transform="translate(-1357 -583)"><g transform="translate(-14 -2016)"><path class="a" d="M63,0A63,63,0,1,1,0,63,63,63,0,0,1,63,0Z" transform="translate(1371 2599)"/></g><g transform="translate(1358.45 615.248)"><g transform="translate(36.55 24.346)"><path d="M45.417,156.5a8.867,8.867,0,1,0,8.867,8.867A8.863,8.863,0,0,0,45.417,156.5Zm0,14.623a5.756,5.756,0,1,1,5.756-5.756A5.753,5.753,0,0,1,45.417,171.123Z" transform="translate(-36.55 -156.5)"/></g><g transform="translate(56.852 26.835)"><g transform="translate(0)"><path d="M200.264,172.5H168.606a1.556,1.556,0,0,0,0,3.111h31.658a1.556,1.556,0,0,0,0-3.111Z" transform="translate(-167.05 -172.5)"/></g></g><g transform="translate(56.852 36.481)"><g transform="translate(0)"><path d="M185.656,234.5h-17.05a1.556,1.556,0,0,0,0,3.111h17.05a1.556,1.556,0,0,0,0-3.111Z" transform="translate(-167.05 -234.5)"/></g></g><g transform="translate(36.55)"><path d="M45.417,0a8.867,8.867,0,1,0,8.867,8.867A8.863,8.863,0,0,0,45.417,0Zm0,14.608a5.756,5.756,0,1,1,5.756-5.756A5.753,5.753,0,0,1,45.417,14.608Z" transform="translate(-36.55)"/></g><g transform="translate(56.852 2.411)"><g transform="translate(0)"><path d="M200.264,15.5H168.606a1.556,1.556,0,0,0,0,3.111h31.658a1.556,1.556,0,0,0,0-3.111Z" transform="translate(-167.05 -15.5)"/></g></g><g transform="translate(56.852 12.212)"><g transform="translate(0)"><path d="M185.656,78.5h-17.05a1.556,1.556,0,0,0,0,3.111h17.05a1.556,1.556,0,0,0,0-3.111Z" transform="translate(-167.05 -78.5)"/></g></g><g transform="translate(36.55 48.708)"><path d="M45.417,313.1a8.867,8.867,0,1,0,8.867,8.867A8.863,8.863,0,0,0,45.417,313.1Zm0,14.608a5.756,5.756,0,1,1,5.756-5.756A5.753,5.753,0,0,1,45.417,327.708Z" transform="translate(-36.55 -313.1)"/></g><g transform="translate(56.852 51.104)"><g transform="translate(0)"><path d="M200.264,328.5H168.606a1.556,1.556,0,0,0,0,3.111h31.658a1.556,1.556,0,1,0,0-3.111Z" transform="translate(-167.05 -328.5)"/></g></g><g transform="translate(56.852 60.905)"><g transform="translate(0)"><path d="M185.656,391.5h-17.05a1.556,1.556,0,1,0,0,3.111h17.05a1.556,1.556,0,0,0,0-3.111Z" transform="translate(-167.05 -391.5)"/></g></g></g></g></svg>