<?xml version="1.0" encoding="utf-8"?>
<!-- Generator: Adobe Illustrator 23.0.5, SVG Export Plug-In . SVG Version: 6.00 Build 0)  -->
<svg version="1.1" id="Layer_1" xmlns="http://www.w3.org/2000/svg" xmlns:xlink="http://www.w3.org/1999/xlink" x="0px" y="0px"
	 viewBox="0 0 37.4 37.4" style="enable-background:new 0 0 37.4 37.4;" xml:space="preserve">
<style type="text/css">
	.st0{fill:#1D2B44;}
</style>
<path class="st0" d="M33.2,36.2V13.8l0.6,0.3c1.1,0.7,2.6,0.3,3.3-0.8s0.3-2.6-0.8-3.3l-2.4-1.5V1.8H29v3.8l-8.8-5.3
	c-0.9-0.5-2-0.5-2.9,0L1.2,10c-1.1,0.7-1.5,2.2-0.8,3.3c0.7,1.1,2.2,1.5,3.3,0.8c0,0,0,0,0,0l0.6-0.3v22.4H0v1.2h37.4v-1.2H33.2z
	 M30.2,3h2.4v4.8l-2.4-1.4V3z M3,13.1c-0.6,0.3-1.3,0.1-1.7-0.4C1,12.1,1.2,11.4,1.8,11l16.1-9.6c0.5-0.3,1.1-0.3,1.6,0L35.6,11
	c0.6,0.3,0.8,1.1,0.4,1.7c-0.4,0.6-1.1,0.7-1.7,0.4L20.1,4.6c-0.9-0.5-2-0.5-2.9,0L3,13.1z M16.9,9.6c0-1,0.8-1.8,1.8-1.8
	s1.8,0.8,1.8,1.8c0,1-0.8,1.8-1.8,1.8l0,0C17.7,11.5,16.9,10.6,16.9,9.6z M18.7,6.6c-1.7,0-3,1.4-3,3c0,0.7,0.2,1.3,0.6,1.8H8.1
	l9.7-5.8c0.5-0.3,1.1-0.3,1.6,0l9.7,5.8h-8.2c0.4-0.5,0.6-1.2,0.6-1.8C21.7,8,20.4,6.6,18.7,6.6z M5.4,13.1l0.7-0.4h25.2l0.7,0.4
	v23.1h-3.6V35c0-4.3-2.8-8.1-7-9.3c2.2-1.5,2.8-4.5,1.3-6.7c-1.5-2.2-4.5-2.8-6.7-1.3s-2.8,4.5-1.3,6.7c0.4,0.5,0.8,1,1.3,1.3
	c-4.1,1.2-7,5-7,9.3v1.2H5.4V13.1z M15.1,21.7h0.1c1.1,0,2.1-0.4,3-1l0.4,0.3c0.8,0.5,1.7,0.8,2.6,0.8h1.2c0,2-1.6,3.6-3.6,3.6
	C16.7,25.3,15.1,23.7,15.1,21.7C15.1,21.7,15.1,21.7,15.1,21.7L15.1,21.7z M15.3,20.5c0.7-1.9,2.7-2.9,4.6-2.2
	c1,0.4,1.8,1.2,2.2,2.2h-1c-0.7,0-1.4-0.2-2-0.6L18,19.1l-0.3,0.4C17,20.1,16.2,20.5,15.3,20.5L15.3,20.5z M19.6,29.5l2.1-2.4
	c0.2,0.1,0.4,0.1,0.6,0.2l-0.4,4.1L19.6,29.5z M20.3,26.7l-1.6,1.9l-1.6-1.9C18.1,26.5,19.3,26.5,20.3,26.7L20.3,26.7z M15.8,27.1
	l2.1,2.4l-2.3,1.9l-0.4-4.1C15.4,27.2,15.6,27.1,15.8,27.1L15.8,27.1z M14.1,27.9l0.5,5.8l2.2-1.8l-0.4,4.2h-6.1V35
	C10.3,32.1,11.7,29.5,14.1,27.9L14.1,27.9z M18.1,30.9l0.6-0.5l0.6,0.5l0.5,5.3h-2.3L18.1,30.9z M20.6,32l2.2,1.8l0.5-5.8
	c2.4,1.6,3.8,4.2,3.8,7v1.2h-6.1L20.6,32z"/>
<path class="st0" d="M12.7,13.9h-6v7.2h6V13.9z M11.5,19.9H7.8v-4.8h3.6L11.5,19.9z"/>
<path class="st0" d="M30.8,13.9h-6v7.2h6V13.9z M29.6,19.9h-3.6v-4.8h3.6L29.6,19.9z"/>
<path class="st0" d="M29.6,33.8h1.2V35h-1.2V33.8z"/>
<path class="st0" d="M29.6,28.9h1.2v1.2h-1.2V28.9z"/>
<path class="st0" d="M29.6,31.4h1.2v1.2h-1.2V31.4z"/>
<path class="st0" d="M6.6,24.7h1.2v1.2H6.6V24.7z"/>
<path class="st0" d="M6.6,22.3h1.2v1.2H6.6V22.3z"/>
<path class="st0" d="M6.6,27.1h1.2v1.2H6.6V27.1z"/>
</svg>
