<svg xmlns="http://www.w3.org/2000/svg" width="126" height="126" viewBox="0 0 126 126"><defs><style>.a{fill:#ccf7ff;}</style></defs><g transform="translate(-983 -4091)"><circle class="a" cx="63" cy="63" r="63" transform="translate(983 4091)"/><g transform="translate(1008 4116.403)"><g transform="translate(9.754 7.316)"><path d="M71.316,48H64V63.851h2.439v-6.1h4.877a4.877,4.877,0,1,0,0-9.754Zm0,7.316H66.439V50.439h4.877a2.439,2.439,0,1,1,0,4.877Z" transform="translate(-64 -48)"/></g><path d="M75.6,68.281v-31.7H50.706L38.432,48.853l-10.171,1.7a6.077,6.077,0,0,0-5.094,6.014V68.281H37.9a8.509,8.509,0,0,0,2.476,4.877H20.728V49.992H18.29V28.782a14.632,14.632,0,1,0-7.316,0v21.21H8.535V73.158H4.877V75.6H70.72V73.158H52.295a8.523,8.523,0,0,0,2.476-4.877ZM2.439,14.632A12.193,12.193,0,1,1,14.632,26.825,12.207,12.207,0,0,1,2.439,14.632ZM15.851,29.2v20.79H13.412V29.2c.4.034.807.062,1.219.062S15.447,29.235,15.851,29.2ZM18.29,73.158H10.974V57.307H18.29Zm0-18.29H10.974V52.43H18.29ZM37.9,65.842H25.605V63.4H38.634A8.459,8.459,0,0,0,37.9,65.842Zm8.438,7.316a6.1,6.1,0,1,1,6.1-6.1A6.1,6.1,0,0,1,46.334,73.158Zm6.1-12.193V61.1a8.507,8.507,0,0,0-12.193,0v-.135H25.605v-4.4a3.645,3.645,0,0,1,3.057-3.608L39.6,51.13,51.716,39.018H73.158V60.965H62.185V63.4H73.158v2.439H54.771a8.459,8.459,0,0,0-.738-2.439h5.712V60.965Z"/><g transform="translate(43.39 41.456)"><path d="M294.442,272l-9.754,9.754h27.33V272Zm15.136,7.316h-19l4.877-4.877h14.127Z" transform="translate(-284.688 -272)"/></g><g transform="translate(42.676 63.404)"><path d="M283.658,416a3.658,3.658,0,1,0,3.658,3.658A3.662,3.662,0,0,0,283.658,416Zm0,4.877a1.219,1.219,0,1,1,1.219-1.219A1.221,1.221,0,0,1,283.658,420.877Z" transform="translate(-280 -416)"/></g><g transform="translate(62.288 53.77)"><g transform="translate(0 0)"><rect width="9" height="2" transform="translate(-0.288 -0.173)"/></g></g><g transform="translate(0 72.935)"><g transform="translate(0 0)"><rect width="3" height="3" transform="translate(0 -0.338)"/></g></g><g transform="translate(72.935 72.935)"><g transform="translate(0 0)"><rect width="3" height="3" transform="translate(0.065 -0.338)"/></g></g></g></g></svg>