<svg xmlns="http://www.w3.org/2000/svg" width="126" height="126" viewBox="0 0 126 126"><defs><style>.a{fill:#ccf7ff;}</style></defs><g transform="translate(-243 -1106)"><g transform="translate(-14 -2016)"><circle class="a" cx="63" cy="63" r="63" transform="translate(257 3122)"/></g><g transform="translate(-455 1188.878)"><g transform="translate(734 -62)"><path d="M156.168,66.2a5.556,5.556,0,0,0-3.4-5.116,5.545,5.545,0,0,0-4.913-8.12h-7.377V43.538A22.123,22.123,0,1,0,126.146,1.814,1.7,1.7,0,1,0,127.5,4.937a18.706,18.706,0,1,1-9.754,9.754,1.7,1.7,0,1,0-3.123-1.353,22.132,22.132,0,0,0,14.76,30.2v7.69H129.1a17.906,17.906,0,0,0-13.106,5.7H107.7a1.7,1.7,0,0,0-1.7,1.7l.012,21.083a1.7,1.7,0,0,0,1.7,1.7H116a17.925,17.925,0,0,0,13.1,5.7H146.54a5.545,5.545,0,0,0,4.885-8.173,5.543,5.543,0,0,0,2.325-8.176,5.545,5.545,0,0,0,2.417-4.578Zm-21.24-21.954c.723,0,1.438-.036,2.143-.1v8.822h-4.287V44.138Q133.842,44.24,134.928,44.242Zm15.693,24.1h-1.459a1.7,1.7,0,0,0,0,3.4,2.143,2.143,0,0,1,0,4.287H146.54a1.7,1.7,0,0,0,0,3.4,2.144,2.144,0,1,1,0,4.287H129.1a14.538,14.538,0,0,1-11.044-5.11,1.7,1.7,0,0,0-1.292-.595h-7.348l-.01-17.68h7.35a1.7,1.7,0,0,0,1.294-.6A14.513,14.513,0,0,1,129.1,54.63h.282v.03a1.7,1.7,0,0,0,1.7,1.7h16.768a2.143,2.143,0,1,1,0,4.287,1.7,1.7,0,0,0,0,3.4h2.77a2.144,2.144,0,0,1,0,4.287Z" transform="translate(-106)"/><path d="M214.549,92.628a5.11,5.11,0,0,0,7.219,0l8.306-8.306a5.1,5.1,0,1,0-7.219-7.219l-4.7,4.7-.8-.8a5.1,5.1,0,0,0-7.219,7.219Zm-2-9.22a1.7,1.7,0,0,1,2.406,0l2,2a1.7,1.7,0,0,0,2.407,0l5.9-5.9a1.7,1.7,0,1,1,2.406,2.406l-8.306,8.306a1.7,1.7,0,0,1-2.406,0l-4.408-4.408a1.7,1.7,0,0,1,0-2.406Z" transform="translate(-191.18 -62.745)"/><path d="M182.849,38.546a1.7,1.7,0,1,0-1.2-2.9h0a1.7,1.7,0,0,0,1.2,2.9Z" transform="translate(-168.361 -29.162)"/></g></g></g></svg>