<svg xmlns="http://www.w3.org/2000/svg" width="126" height="126" viewBox="0 0 126 126"><defs><style>.a{fill:#ccf7ff;}</style></defs><g transform="translate(-983 -4091)"><circle class="a" cx="63" cy="63" r="63" transform="translate(983 4091)"/><g transform="translate(1008.64 4105.124)"><path d="M104.2,127.565a21.073,21.073,0,1,0,21.073-21.073A21.073,21.073,0,0,0,104.2,127.565ZM125.268,109.4A18.166,18.166,0,1,1,107.1,127.565,18.166,18.166,0,0,1,125.268,109.4Zm0,0" transform="translate(-84.974 -87.148)"/><path d="M68.531,332.146l-11.384,5.379a9.272,9.272,0,0,0-7.9-4.878l-10.509-.289a11.1,11.1,0,0,1-4.776-1.233l-1.069-.554a18.861,18.861,0,0,0-17.47.018l.067-2.422a1.453,1.453,0,0,0-1.413-1.493l-11.523-.317a1.453,1.453,0,0,0-1.492,1.413l-.7,25.288a1.453,1.453,0,0,0,1.413,1.493l11.523.317h.04a1.453,1.453,0,0,0,1.453-1.413l.033-1.21,2.994-1.6a5.135,5.135,0,0,1,3.832-.419l17.877,5.017c.031.009.062.016.094.023a19.139,19.139,0,0,0,3.929.405,19.389,19.389,0,0,0,8.1-1.768,1.347,1.347,0,0,0,.18-.1l25.92-16.766a1.454,1.454,0,0,0,.476-1.936,7.341,7.341,0,0,0-9.694-2.953ZM3.306,351.685,3.922,329.3l8.618.237-.616,22.383Zm47.034-.38a16.476,16.476,0,0,1-10.076,1.125l-17.829-5a8.035,8.035,0,0,0-5.99.655l-1.53.82.409-14.882a15.974,15.974,0,0,1,16.228-.866l1.069.554a14.036,14.036,0,0,0,6.033,1.558l10.509.289a6.374,6.374,0,0,1,6.058,5.079L39.568,340.2a1.453,1.453,0,0,0-.08,2.906l17.275.475h.04a1.453,1.453,0,0,0,1.452-1.413,9.223,9.223,0,0,0-.14-1.885l11.676-5.517.034-.016a4.44,4.44,0,0,1,5.021.7Zm0,0" transform="translate(0 -267.073)"/><path d="M215.109,15.259V1.453a1.453,1.453,0,1,0-2.906,0V15.259a1.453,1.453,0,1,0,2.906,0Zm0,0" transform="translate(-173.362)"/><path d="M275.109,47.993V41.453a1.453,1.453,0,1,0-2.906,0v6.539a1.453,1.453,0,1,0,2.906,0Zm0,0" transform="translate(-222.463 -32.734)"/><path d="M155.109,47.993V41.453a1.453,1.453,0,1,0-2.906,0v6.539a1.453,1.453,0,1,0,2.906,0Zm0,0" transform="translate(-124.261 -32.734)"/><g transform="translate(426.36 -10.124)"><path d="M166.073,140.142h6.551a3.972,3.972,0,0,1,3.748,2.673h-10.3V145.4h10.3a3.972,3.972,0,0,1-3.748,2.673h-6.551v2.833l10.169,10.169,1.828-1.828-8.588-8.588h3.142a6.562,6.562,0,0,0,6.422-5.258h2.526v-2.585h-2.527a6.525,6.525,0,0,0-1.211-2.673h3.737v-2.585h-15.5v2.585Z" transform="translate(-560 -97.628)"/></g></g></g></svg>