<?xml version="1.0" encoding="utf-8"?>
<!-- Generator: Adobe Illustrator 23.0.5, SVG Export Plug-In . SVG Version: 6.00 Build 0)  -->
<svg version="1.1" id="Layer_1" xmlns="http://www.w3.org/2000/svg" xmlns:xlink="http://www.w3.org/1999/xlink" x="0px" y="0px"
	 viewBox="0 0 35.3 43.6" style="enable-background:new 0 0 35.3 43.6;" xml:space="preserve">
<style type="text/css">
	.st0{fill:#1D2B44;}
</style>
<g transform="translate(16.195 21.056)">
	<g transform="translate(0)">
		<path class="st0" d="M2.2,0H0.7C0.3,0,0,0.3,0,0.7c0,0.4,0.3,0.7,0.7,0.7h1.5c0.4,0,0.7-0.3,0.7-0.7C2.9,0.3,2.6,0,2.2,0L2.2,0z"
			/>
	</g>
</g>
<g transform="translate(15.468 23.965)">
	<g transform="translate(0)">
		<path class="st0" d="M3.6,0H0.7C0.3,0,0,0.3,0,0.7c0,0.4,0.3,0.7,0.7,0.7h2.9c0.4,0,0.7-0.3,0.7-0.7C4.4,0.3,4,0,3.6,0z"/>
	</g>
</g>
<g transform="translate(11.831 15.964)">
	<g transform="translate(0)">
		<path class="st0" d="M3.6,0H0.7C0.3,0,0,0.3,0,0.7c0,0.4,0.3,0.7,0.7,0.7h0.7v0.7c0,0.4,0.3,0.7,0.7,0.7c0.4,0,0.7-0.3,0.7-0.7
			V1.5h0.7c0.4,0,0.7-0.3,0.7-0.7C4.4,0.3,4,0,3.6,0L3.6,0z"/>
	</g>
</g>
<g transform="translate(19.105 15.964)">
	<g transform="translate(0)">
		<path class="st0" d="M3.6,0H0.7C0.3,0,0,0.3,0,0.7c0,0.4,0.3,0.7,0.7,0.7h0.7v0.7c0,0.4,0.3,0.7,0.7,0.7c0.4,0,0.7-0.3,0.7-0.7
			l0,0V1.5h0.7c0.4,0,0.7-0.3,0.7-0.7C4.4,0.3,4,0,3.6,0L3.6,0z"/>
	</g>
</g>
<g transform="translate(0)">
	<path class="st0" d="M35.2,40.8l-1-3c-0.4-1.2-1.1-2.3-2-3.2c-0.6-0.5-1.2-1-1.9-1.4l-0.1,0c-0.3-0.2-0.6-0.3-0.9-0.4
		C28.2,32.2,27.1,32,26,32l-2.4-2.4c0-0.6,0-1.3,0.1-1.9c0.1-0.8,0.2-1.5,0.4-2.3c0.9-1,1.5-2.2,1.6-3.6c0.1,0,0.2,0,0.3,0
		c0.1,0,0.3,0,0.4-0.1c0.4-0.1,1.5-0.5,1.5-5.1c0-0.5,0-2-1-2.4c-0.2-0.1-0.3-0.1-0.5-0.1c0.1-0.8,0.1-1.6-0.1-2.4
		c2-1.3,3.1-3,3.1-4.8c0-3.9-5.1-7-11.6-7S6,3.1,6,7c0,1.8,1.1,3.5,3.1,4.8c-0.2,0.8-0.2,1.6-0.1,2.4c-0.2,0-0.3,0-0.5,0.1
		c-1,0.4-1,1.9-1,2.4c0,4.6,1.1,4.9,1.5,5.1c0.1,0,0.3,0.1,0.4,0.1c0.1,0,0.2,0,0.3,0c0.1,1.3,0.7,2.6,1.6,3.6
		c0.2,0.8,0.3,1.5,0.4,2.3c0.1,0.6,0.1,1.3,0.1,1.9L9.3,32c-1.2,0-2.3,0.2-3.4,0.7c-0.3,0.1-0.6,0.3-0.9,0.4l-0.1,0
		c-0.7,0.4-1.3,0.9-1.9,1.4c-0.9,0.9-1.6,2-2,3.2l-1,3c-0.4,1.1,0.3,2.4,1.4,2.7c0.2,0.1,0.4,0.1,0.7,0.1h14.5c0.1,0,0.1,0,0.2,0
		h1.5c0.1,0,0.1,0,0.2,0h14.5c1.2,0,2.2-1,2.2-2.2C35.3,41.2,35.3,41,35.2,40.8L35.2,40.8z M24.6,32.7l-1.2,1
		c-0.8-0.5-1.7-0.9-2.7-1.2l2-1.7L24.6,32.7z M18.9,32.1c-0.9-0.1-1.7-0.1-2.6,0l-3.2-2.7c0-0.6,0-1.3-0.1-1.9c0-0.1,0-0.1,0-0.2
		c0.4,0.4,0.9,0.8,1.4,1.2c1.9,1.5,4.5,1.5,6.4,0c0.5-0.4,1-0.8,1.4-1.2c0,0.1,0,0.1,0,0.2c-0.1,0.6-0.1,1.3-0.1,1.9L18.9,32.1z
		 M26.2,15.6c0.1,0.3,0.2,0.7,0.2,1.1c0.1,1.2-0.1,2.5-0.5,3.6c-0.1-0.1-0.2-0.2-0.3-0.3c0-1.4,0.1-2.8,0.4-4.2
		C26.1,15.7,26.1,15.7,26.2,15.6L26.2,15.6z M7.5,7c0-3,4.7-5.5,10.2-5.5S27.8,4,27.8,7c0,0.8-0.4,1.6-0.9,2.3C27,9.2,27,9.1,27,9
		c0.1-0.2,0.1-0.4,0-0.6c0-0.1-0.1-0.2-0.2-0.2c0,0-0.1-0.1-0.1-0.1c0,0-0.1,0-0.1-0.1c0,0-0.1,0-0.1,0c-0.3-0.1-0.7,0.1-0.8,0.4
		c-0.1,0.2-0.1,0.4,0,0.6c0,0.1,0.1,0.2,0.2,0.2c0.3,0.3,0.7,0.3,1,0c-0.3,0.4-0.7,0.7-1.1,1c-0.1,0-0.1,0-0.2,0h-16
		c-0.1,0-0.1,0-0.2,0C8.3,9.5,7.6,8.3,7.5,7z M24.4,11.6c-1.1,0.8-3.5,1.5-6.7,1.5s-5.7-0.7-6.7-1.5H24.4z M9.7,20
		c-0.1,0.1-0.2,0.2-0.3,0.3c-0.4-1.2-0.6-2.4-0.5-3.6c0-0.4,0-0.7,0.2-1.1c0.1,0,0.2,0.1,0.2,0.1C9.6,17.1,9.8,18.6,9.7,20z
		 M11.1,21.7c0-0.2,0-0.3,0-0.5c0.2-2.2,0-4.4-0.6-6.5l0,0c-0.1-0.5-0.2-1-0.2-1.4c0-0.1,0-0.2,0-0.3c2.2,1.1,4.7,1.6,7.3,1.5
		c2.5,0.1,5-0.4,7.3-1.5c0,0.1,0,0.2,0,0.3c0,0.5-0.1,1-0.2,1.4c-0.6,2.1-0.8,4.3-0.6,6.5c0,0.2,0,0.3,0,0.5c0,1.4-1.5,3.4-4.3,5.7
		c-1.3,1.1-3.2,1.1-4.5,0C12.6,25.1,11.1,23.1,11.1,21.7z M12.6,30.8l2,1.7c-0.9,0.3-1.8,0.7-2.7,1.2l-1.2-1L12.6,30.8z M2.2,42.2
		c-0.4,0-0.7-0.3-0.7-0.7c0-0.1,0-0.2,0-0.2l0.9-3c0.4-1,1-1.9,1.7-2.6c0.1-0.1,0.2-0.2,1.7-1.3c0.2-0.1,0.5-0.2,0.7-0.3
		c0.9-0.4,1.9-0.6,2.8-0.6l1.3,1.1c-0.3,0.2-0.5,0.4-0.7,0.7c-1.9,1.9-3,4.3-3.2,7L2.2,42.2L2.2,42.2z M11.1,42.2
		c0.3-2.1,1.5-3.9,3.3-5c0.2-0.1,0.3-0.2,0.5-0.2l0,0l1,5.2H11.1z M19.3,42.2l1-5.2c0.2,0.1,0.3,0.2,0.5,0.2c1.8,1,3.1,2.9,3.3,5
		H19.3z M25.6,42.2c-0.3-2.6-1.8-5-4.1-6.2c-0.5-0.3-1-0.5-1.5-0.7c0,0,0,0,0,0s0,0,0,0c0,0-0.1,0-0.1,0c0,0-0.1,0-0.1,0
		c0,0-0.1,0-0.1,0c-0.1,0-0.2,0.1-0.2,0.1c0,0-0.1,0.1-0.1,0.1c0,0-0.1,0.1-0.1,0.1c0,0,0,0.1-0.1,0.1c0,0,0,0,0,0s0,0,0,0l-1.3,6.3
		h-0.3l-1.3-6.3c0,0,0,0,0,0s0,0,0,0c0,0,0-0.1-0.1-0.1c0,0,0-0.1-0.1-0.1c0,0-0.1-0.1-0.1-0.1c-0.1-0.1-0.1-0.1-0.2-0.1
		c0,0-0.1,0-0.1,0c0,0-0.1,0-0.1,0c0,0-0.1,0-0.1,0c0,0,0,0,0,0s0,0,0,0c-0.5,0.2-1.1,0.4-1.5,0.6c-2.3,1.3-3.8,3.6-4.1,6.2H8.2
		c0.2-2.2,1.1-4.3,2.7-5.9c0.4-0.4,0.8-0.8,1.3-1.1c3.3-2.3,7.6-2.3,10.8,0c0.5,0.3,0.9,0.7,1.3,1.1c1.6,1.6,2.6,3.7,2.7,5.9
		L25.6,42.2L25.6,42.2z M33.7,41.9c-0.1,0.2-0.4,0.3-0.6,0.3h-4.6c-0.2-2.6-1.3-5.1-3.2-7c-0.2-0.2-0.5-0.5-0.7-0.7l1.3-1.1
		c1,0,1.9,0.2,2.8,0.6c0.2,0.1,0.5,0.2,0.7,0.3c1.4,1,1.6,1.2,1.7,1.3c0.7,0.7,1.3,1.6,1.7,2.6l1,3C33.9,41.4,33.8,41.7,33.7,41.9
		L33.7,41.9z"/>
</g>
<g transform="translate(9.648 6.544)">
	<g transform="translate(0)">
		<path class="st0" d="M1.2,0.2C1.2,0.1,1.1,0.1,1,0.1C0.8,0,0.6,0,0.5,0.1c-0.1,0-0.2,0.1-0.2,0.2C0.1,0.4,0,0.5,0,0.7
			C0,0.8,0,0.9,0.1,1c0,0.1,0.1,0.2,0.2,0.2c0.1,0.1,0.2,0.1,0.2,0.2C0.7,1.5,1,1.5,1.2,1.2C1.3,1.2,1.4,1.1,1.4,1
			c0-0.1,0.1-0.2,0.1-0.3C1.5,0.5,1.4,0.4,1.2,0.2z"/>
	</g>
</g>
<g transform="translate(12.558 6.546)">
	<path class="st0" d="M1.2,0.2c0,0-0.1-0.1-0.1-0.1c0,0-0.1-0.1-0.1-0.1c0,0-0.1,0-0.1,0C0.6,0,0.4,0,0.2,0.2C0.1,0.4,0,0.5,0,0.7
		c0,0.4,0.3,0.7,0.7,0.7c0,0,0,0,0,0h0c0.4,0,0.7-0.3,0.7-0.7C1.5,0.5,1.4,0.3,1.2,0.2z"/>
</g>
<g transform="translate(18.377 6.546)">
	<g transform="translate(0)">
		<path class="st0" d="M1.2,0.2c0,0-0.1-0.1-0.1-0.1c0,0-0.1-0.1-0.1-0.1c0,0-0.1,0-0.1,0C0.6,0,0.4,0,0.2,0.2C0.1,0.4,0,0.5,0,0.7
			c0,0.2,0.1,0.4,0.2,0.5c0.1,0.1,0.2,0.1,0.2,0.2c0.4,0.2,0.8,0,0.9-0.4c0-0.1,0.1-0.2,0.1-0.3C1.4,0.5,1.4,0.4,1.2,0.2z"/>
	</g>
</g>
<g transform="translate(15.468 6.542)">
	<g transform="translate(0)">
		<path class="st0" d="M0.7,0C0.5,0,0.3,0.1,0.2,0.2c-0.3,0.3-0.3,0.7,0,1c0.3,0.3,0.8,0.3,1,0c0.1-0.1,0.2-0.3,0.2-0.5c0,0,0,0,0,0
			C1.5,0.3,1.1,0,0.7,0C0.7,0,0.7,0,0.7,0z"/>
	</g>
</g>
<g transform="translate(21.287 6.546)">
	<path class="st0" d="M1.2,0.2C1.1,0,0.8,0,0.6,0c0,0-0.1,0-0.1,0c0,0-0.1,0-0.1,0.1c0,0-0.1,0.1-0.1,0.1C0.1,0.3,0,0.5,0,0.7
		c0,0.4,0.3,0.7,0.7,0.7c0,0,0,0,0,0h0c0.1,0,0.2,0,0.3-0.1c0.1,0,0.2-0.1,0.2-0.2c0.1-0.1,0.2-0.3,0.2-0.5C1.5,0.5,1.4,0.3,1.2,0.2
		z"/>
</g>
<g transform="translate(24.196 6.542)">
	<g transform="translate(0)">
		<path class="st0" d="M0.7,0C0.5,0,0.3,0.1,0.2,0.2C0.1,0.4,0,0.5,0,0.7c0,0.2,0.1,0.4,0.2,0.5c0.1,0.1,0.2,0.1,0.2,0.2
			c0.4,0.2,0.8,0,0.9-0.4c0-0.1,0.1-0.2,0.1-0.3v0C1.5,0.3,1.1,0,0.7,0z"/>
	</g>
</g>
<g transform="translate(8.194 8)">
	<g transform="translate(0)">
		<path class="st0" d="M1.2,0.2C1.1,0,0.8,0,0.6,0c0,0-0.1,0-0.1,0c0,0-0.1,0-0.1,0.1c0,0-0.1,0.1-0.1,0.1C0.1,0.3,0.1,0.4,0.1,0.4
			C0,0.5,0,0.6,0,0.7c0,0.4,0.3,0.7,0.7,0.7c0,0,0,0,0,0h0c0.4,0,0.7-0.3,0.7-0.7C1.4,0.5,1.4,0.3,1.2,0.2z"/>
	</g>
</g>
<g transform="translate(11.103 8.01)">
	<g transform="translate(0)">
		<path class="st0" d="M1.4,0.4c0-0.1-0.1-0.2-0.2-0.2c-0.3-0.3-0.7-0.3-1,0C0.1,0.3,0.1,0.4,0.1,0.4C0,0.5,0,0.6,0,0.7
			c0,0.4,0.3,0.7,0.7,0.7c0.4,0,0.7-0.3,0.7-0.7C1.5,0.6,1.4,0.5,1.4,0.4L1.4,0.4z"/>
	</g>
</g>
<g transform="translate(14.013 8.002)">
	<g transform="translate(0)">
		<path class="st0" d="M1.2,0.2c0,0-0.1-0.1-0.1-0.1c0,0-0.1-0.1-0.1-0.1c0,0-0.1,0-0.1,0C0.6,0,0.4,0,0.2,0.2
			C0.1,0.3,0.1,0.4,0.1,0.5C0,0.5,0,0.6,0,0.7c0,0.2,0.1,0.4,0.2,0.5c0.3,0.3,0.7,0.3,1,0c0.1-0.1,0.2-0.3,0.2-0.5
			C1.5,0.5,1.4,0.4,1.2,0.2z"/>
	</g>
</g>
<g transform="translate(16.922 8.002)">
	<g transform="translate(0)">
		<path class="st0" d="M1.4,0.4c0-0.1-0.1-0.2-0.2-0.2C1.2,0.1,1.1,0.1,1,0.1C0.7-0.1,0.4,0,0.2,0.2C0.1,0.3,0.1,0.4,0.1,0.4
			C0,0.5,0,0.6,0,0.7c0,0.4,0.3,0.7,0.7,0.7c0.4,0,0.7-0.3,0.7-0.7C1.5,0.6,1.4,0.5,1.4,0.4L1.4,0.4z"/>
	</g>
</g>
<g transform="translate(19.832 8.001)">
	<g transform="translate(0)">
		<path class="st0" d="M0.7,0C0.3,0,0,0.3,0,0.7c0,0.2,0.1,0.4,0.2,0.5c0.3,0.3,0.7,0.3,1,0c0.3-0.3,0.3-0.7,0-1
			C1.1,0.1,0.9,0,0.7,0L0.7,0z"/>
	</g>
</g>
<g transform="translate(22.742 7.997)">
	<g transform="translate(0)">
		<path class="st0" d="M0.7,0C0.5,0,0.3,0.1,0.2,0.2C0.1,0.4,0,0.5,0,0.7c0,0.2,0.1,0.4,0.2,0.5c0.3,0.3,0.7,0.3,1,0s0.3-0.7,0-1
			C1.1,0.1,0.9,0,0.7,0L0.7,0z"/>
	</g>
</g>
</svg>
