<?xml version="1.0" encoding="utf-8"?>
<!-- Generator: Adobe Illustrator 23.0.5, SVG Export Plug-In . SVG Version: 6.00 Build 0)  -->
<svg version="1.1" xmlns="http://www.w3.org/2000/svg" xmlns:xlink="http://www.w3.org/1999/xlink" x="0px" y="0px"
	 viewBox="0 0 500 500" style="enable-background:new 0 0 500 500;" xml:space="preserve">
<style type="text/css">
	.st0{display:none;}
	.st1{display:inline;fill:#FFFFFF;}
	.st2{fill:#294063;}
	.st3{fill:#1D2B44;}
	.st4{fill:#FFE4A6;}
	.st5{fill:#FFBF29;}
	.st6{fill:#4AAB43;}
	.st7{fill:none;stroke:#1B3D18;stroke-width:1.0327;stroke-miterlimit:10;}
	.st8{opacity:0.65;}
	.st9{fill:#DED8B4;}
	.st10{fill:#234AA3;}
	.st11{fill:#253C70;}
	.st12{opacity:0.32;}
	.st13{fill:#FF8C8C;}
	.st14{fill:none;stroke:#F05252;stroke-width:1.0668;stroke-miterlimit:10;}
	.st15{fill:#F05252;}
	.st16{fill:none;stroke:#B53E3E;stroke-width:1.0668;stroke-miterlimit:10;}
	.st17{fill:none;stroke:#000000;stroke-width:2.1335;stroke-miterlimit:10;}
	.st18{fill:#FFFFFF;}
	.st19{fill:none;stroke:#000000;stroke-width:1.0327;stroke-miterlimit:10;}
	.st20{fill:#3A5EB0;}
	.st21{fill:none;stroke:#FFFFFF;stroke-width:1.0327;stroke-miterlimit:10;}
	.st22{fill:#E01B1B;}
	.st23{fill:#4977DE;}
	.st24{fill:none;}
</style>
<g id="BACKGROUND" class="st0">
	<rect class="st1" width="500" height="500"/>
</g>
<g id="OBJECTS">
	<g>
		<circle class="st2" cx="249.9" cy="241.8" r="168"/>
		<circle class="st3" cx="249.9" cy="241.8" r="139.41"/>
		<g>
			<path class="st4" d="M249.9,422.27c-99.51,0-180.47-80.96-180.47-180.47S150.39,61.33,249.9,61.33
				c99.51,0,180.47,80.96,180.47,180.47S349.41,422.27,249.9,422.27z M249.9,93.32c-81.87,0-148.47,66.61-148.47,148.47
				c0,81.87,66.61,148.47,148.47,148.47s148.47-66.6,148.47-148.47C398.37,159.93,331.77,93.32,249.9,93.32z"/>
		</g>
		<path class="st5" d="M430.37,241.8c0-31.32-8.03-60.8-22.12-86.5l-28.08,15.34c11.6,21.14,18.2,45.4,18.2,71.17
			c0,81.87-66.61,148.47-148.47,148.47c-81.87,0-148.47-66.6-148.47-148.47c0-25.77,6.6-50.02,18.2-71.17l-28.08-15.34
			c-14.1,25.7-22.12,55.18-22.12,86.5c0,99.51,80.96,180.47,180.47,180.47C349.41,422.27,430.37,341.31,430.37,241.8z"/>
		<g>
			<g>
				<path class="st6" d="M326.89,261.94c0,0,3.26-19.05,24.87-26.45c4.34-27.91,19.6-23.79,19.6-23.79s-0.64-27.35,37.82-33.38
					c19.71,24.5,8.73,43.27,0.31,47.65c10.54,8.95,5.24,27.12-9.2,39.45c9.74,11.51,17.08,34.64-35.43,67.33L326.89,261.94z"/>
				<path class="st7" d="M409.17,178.32c0,0-14.16,57.86-60.57,124.11"/>
				<path class="st7" d="M387.53,187.44c0,0,3.31,19.32,7.36,31.44"/>
				<path class="st7" d="M409.94,233.9c0,0-15.24,8.34-27.15,11.24"/>
				<path class="st7" d="M362.26,219.43c0,0,1.32,37.46,7.98,49.97"/>
				<path class="st7" d="M399.58,276.87c0,0-17.38,8.4-38.55,6.84"/>
				<g>
					<path class="st5" d="M332.68,149.47c0,0-19.79,29.55-2.98,54.54c0,0,9.38-9.35,11.09-22.05
						C342.94,166.11,336.46,153.61,332.68,149.47z"/>
					<path class="st5" d="M301.25,183.89c0,0-11.24,25.72,15.62,39.46C322.09,205.53,309.67,188.48,301.25,183.89z"/>
					<path class="st5" d="M335.38,218.77c0,0,7.77-21.95,28.39-22.88C365.31,222.04,341.69,221.71,335.38,218.77z"/>
					<path class="st7" d="M333.72,154.67c0,0,1.75,58.85-18.71,91.28"/>
					<path class="st7" d="M302.22,188.74c0,0,5.06,22.29,20.01,42.61"/>
					<path class="st7" d="M325.54,221.62c0,0,23.96-4.31,35.44-21.3"/>
				</g>
				<path class="st8" d="M341.89,240.37c-12.79,8.69-15,21.57-15,21.57l37.96,70.81c6.32-3.93,11.76-7.73,16.45-11.38
					c0.03-0.4,0.06-0.8,0.09-1.2C384.38,270.4,341.96,240.42,341.89,240.37z"/>
			</g>
			<g>
				<path class="st6" d="M173.11,261.94c0,0-3.26-19.05-24.87-26.45c-4.34-27.91-19.6-23.79-19.6-23.79s0.64-27.35-37.81-33.38
					c-19.71,24.5-8.73,43.27-0.31,47.65c-10.54,8.95-5.24,27.12,9.2,39.45c-9.74,11.51-17.08,34.64,35.43,67.33L173.11,261.94z"/>
				<path class="st7" d="M90.83,178.32c0,0,14.16,57.86,60.57,124.11"/>
				<path class="st7" d="M112.47,187.44c0,0-3.31,19.32-7.36,31.44"/>
				<path class="st7" d="M90.06,233.9c0,0,15.24,8.34,27.15,11.24"/>
				<path class="st7" d="M137.74,219.43c0,0-1.32,37.46-7.98,49.97"/>
				<path class="st7" d="M100.42,276.87c0,0,17.38,8.4,38.55,6.84"/>
				<g>
					<path class="st5" d="M167.32,149.47c0,0,19.79,29.55,2.98,54.54c0,0-9.38-9.35-11.09-22.05
						C157.06,166.11,163.54,153.61,167.32,149.47z"/>
					<path class="st5" d="M198.75,183.89c0,0,11.24,25.72-15.62,39.46C177.91,205.53,190.34,188.48,198.75,183.89z"/>
					<path class="st5" d="M164.62,218.77c0,0-7.77-21.95-28.39-22.88C134.69,222.04,158.31,221.71,164.62,218.77z"/>
					<path class="st7" d="M166.28,154.67c0,0-1.75,58.85,18.71,91.28"/>
					<path class="st7" d="M197.78,188.74c0,0-5.06,22.29-20.01,42.61"/>
					<path class="st7" d="M174.46,221.62c0,0-23.96-4.31-35.44-21.3"/>
				</g>
				<path class="st8" d="M158.11,240.37c12.79,8.69,15,21.57,15,21.57l-37.96,70.81c-6.32-3.93-11.76-7.73-16.45-11.38
					c-0.03-0.4-0.06-0.8-0.09-1.2C115.62,270.4,158.04,240.42,158.11,240.37z"/>
			</g>
		</g>
		<g>
			<path class="st9" d="M277.16,221.25L250,231.86l-27.16-10.61l-8.4,4.2c8.4,88.41,35.56,139.61,35.56,139.61
				s27.16-51.2,35.56-139.61L277.16,221.25z"/>
			<polygon class="st10" points="255,242.9 250,230.75 245,242.9 224.4,370.26 250,370.26 275.6,370.26 			"/>
			<path class="st11" d="M361.61,292.46c-3.7-22.75-17.64-42.52-37.78-53.71c-9.77-5.43-22.29-11.37-38.27-17.5
				c0,0-15.56,97.41-35.56,137.91c-20-40.5-35.56-137.91-35.56-137.91c-15.98,6.13-28.49,12.07-38.27,17.5
				c-20.15,11.19-34.08,30.97-37.78,53.71l-9.1,55.9L250,393.97l120.71-45.6L361.61,292.46z"/>
			<polygon class="st12" points="148.11,355.47 168.16,314.46 221.73,383.28 			"/>
			<polygon class="st12" points="351.29,355.47 331.24,314.46 277.67,383.28 			"/>
			<g>
				<path class="st13" d="M224.16,156.87c0,0-5.6-6.2-11.46-1.5c-5.72,4.58-0.44,25.4,13.36,19.4L224.16,156.87z"/>
				<path class="st14" d="M214.56,162.27c0,0,1.44-7.56,10.12-0.48"/>
				<path class="st13" d="M275.84,156.87c0,0,5.6-6.2,11.46-1.5c5.72,4.58,0.44,25.4-13.36,19.4L275.84,156.87z"/>
				<path class="st14" d="M285.44,162.27c0,0-1.44-7.56-10.12-0.48"/>
			</g>
			<polygon class="st13" points="269.4,182.6 250,186.8 230.6,182.6 226.52,221.9 250,234.81 273.48,221.9 			"/>
			<path class="st15" d="M271.04,198.41l-1.64-15.82l-19.4,4.2l-19.4-4.2l-0.73,7.05c2.51,5.31,8.21,13.45,19.99,14.85
				C259.93,205.69,266.89,201.91,271.04,198.41z"/>
			<path class="st13" d="M250,136.07h-28.39c0,0,0.19,28,3.58,41.6c3.4,13.6,14.9,17.6,24.8,17.6c9.9,0,21.41-4,24.8-17.6
				c3.4-13.6,3.58-41.6,3.58-41.6H250z"/>
			<path class="st15" d="M252.85,181.83c0,0.95-1.54,1.72-3.45,1.72c-1.9,0-3.45-0.77-3.45-1.72c0-0.95,1.54-1.72,3.45-1.72
				C251.3,180.11,252.85,180.88,252.85,181.83z"/>
			<path d="M223.18,165.22l4.67-24.95c0,0,23.7,3.6,43.95-0.75l5.19,24.01l6.81-26.26c0,0,3.77-3.2,3.69-8
				c-0.15-8.28-10.24-13.4-19.99-11.6c0,0-24.15-21.6-45.89,5.4c0,0-9.82,6.25-9.37,16.15C212.7,149.12,223.18,165.22,223.18,165.22
				z"/>
			<g>
				<ellipse cx="241.4" cy="156.29" rx="2.3" ry="4.22"/>
				<ellipse cx="258.6" cy="156.29" rx="2.3" ry="4.22"/>
			</g>
			<path class="st16" d="M249.4,154.77v9.96c0,0-5,0.04-5,2.74c0,2.7,5,3.4,5,3.4"/>
			<path class="st16" d="M239.1,175.85c0,0,12.1,1.12,23.4-3.08"/>
			<g>
				<path class="st17" d="M255.54,147.67c4.47-3.8,10.41,0,10.41,0"/>
				<path class="st17" d="M245.05,147.01c-6.44-2.57-11,0.66-11,0.66"/>
			</g>
			<polygon class="st18" points="273.9,213.2 250,228.06 226.1,213.2 219.65,221.9 245,242.9 250,233.58 255,242.9 280.35,221.9 			
				"/>
			<line class="st19" x1="168.49" y1="305.66" x2="166.38" y2="362.37"/>
			<line class="st19" x1="160.89" y1="303.26" x2="167.75" y2="325.66"/>
			<path class="st20" d="M219.65,296.46l-9.23,14.8l39.58,47.9c-20-40.5-35.56-137.91-35.56-137.91l-23.15,41.2L219.65,296.46z"/>
			<line class="st19" x1="331.51" y1="305.66" x2="333.62" y2="362.37"/>
			<line class="st19" x1="339.11" y1="303.26" x2="332.25" y2="325.66"/>
			<path class="st20" d="M280.35,296.46l9.23,14.8L250,359.16c20-40.5,35.56-137.91,35.56-137.91l23.15,41.2L280.35,296.46z"/>
			<rect x="298.5" y="306.66" class="st18" width="24.6" height="6"/>
			<path class="st5" d="M269.33,102.07L250,79.46l-19.33,22.6l-19.33-13.2l9.38,37.87c7.52-3.54,20.29-6.06,29.29-6.06
				c9,0,21.77,2.53,29.29,6.06l9.38-37.87L269.33,102.07z"/>
			<polyline class="st21" points="213.09,95.97 231.9,109.97 249.86,87.66 268.7,109.97 286.71,96.75 			"/>
			<polygon class="st22" points="250,102.38 252.31,107.06 257.47,107.81 253.73,111.45 254.62,116.59 250,114.16 245.38,116.59 
				246.27,111.45 242.53,107.81 247.69,107.06 			"/>
		</g>
		<g>
			<g class="st12">
				<path d="M326.64,373.14c-49.7-19.43-86.4-55.28-108.44-81.93c-23.78-28.76-36.56-54.13-37.06-55.14l19.49-9.4
					c0.45,0.91,46.76,92.58,133.78,126.6L326.64,373.14z"/>
			</g>
			<g>
				<path class="st5" d="M330.06,368.38c-49.7-19.43-86.4-55.28-108.44-81.93c-23.78-28.76-35.86-52.82-36.36-53.83l19.1-9.5
					l-9.55,4.75l9.55-4.76c0.45,0.91,46.45,91.38,133.47,125.4L330.06,368.38z"/>
			</g>
			<g>
				<polygon class="st22" points="214.35,252.94 216.53,257.67 221.67,258.56 217.84,262.1 218.59,267.26 214.04,264.71 
					209.36,267.02 210.38,261.9 206.74,258.17 211.92,257.55 				"/>
				<polygon class="st22" points="230.04,272.43 232.23,277.17 237.37,278.05 233.54,281.59 234.28,286.75 229.73,284.21 
					225.06,286.51 226.07,281.4 222.43,277.66 227.61,277.05 				"/>
				<polygon class="st22" points="248.11,293.01 250.3,297.75 255.43,298.63 251.61,302.17 252.35,307.33 247.8,304.79 
					243.12,307.09 244.14,301.98 240.5,298.24 245.68,297.63 				"/>
				<polygon class="st22" points="268.49,311.26 270.68,315.99 275.82,316.88 271.99,320.42 272.73,325.58 268.18,323.03 
					263.51,325.33 264.52,320.22 260.88,316.48 266.06,315.87 				"/>
				<polygon class="st22" points="292.98,328.66 295.16,333.4 300.3,334.28 296.47,337.82 297.22,342.98 292.67,340.44 
					287.99,342.74 289.01,337.63 285.37,333.89 290.55,333.28 				"/>
			</g>
		</g>
		<g>
			<path class="st23" d="M96.91,265.46l-21.45,29.19l-43.88-19.09c8.3,53.89,36.17,101.41,76.07,135.09l42.57-50.53
				C122.26,336.53,102.73,303.23,96.91,265.46z"/>
			<path class="st23" d="M403.09,265.46l21.45,29.19l43.88-19.09c-8.3,53.89-36.17,101.41-76.07,135.09l-42.57-50.53
				C377.74,336.53,397.27,303.23,403.09,265.46z"/>
			<path class="st20" d="M386.77,314.4c-8.56,16.04-19.85,30.4-33.26,42.46l-2.86,4.31l41.69,49.49
				c22.78-19.22,41.62-42.95,55.16-69.81L386.77,314.4z"/>
			<path class="st20" d="M113.73,314.4c8.56,16.04,19.85,30.4,33.26,42.46l2.86,4.31l-41.69,49.49
				C85.38,391.44,66.53,367.7,53,340.85L113.73,314.4z"/>
			<polygon class="st3" points="420.52,339.94 392.35,410.66 370.75,385.02 			"/>
			<polygon class="st3" points="107.65,410.66 79.27,339.94 130.38,383.68 			"/>
			<path class="st23" d="M420.52,339.94l-55.47-31.91c-22.98,39.8-65.99,66.64-115.15,66.64s-92.17-26.84-115.15-66.64l-55.47,31.91
				c34.05,58.97,97.78,98.74,170.62,98.74S386.48,398.9,420.52,339.94z"/>
		</g>
		<path id="SVGID_x5F_1_x5F_" class="st24" d="M422.17,241.8c0-95.14-77.13-172.27-172.27-172.27S77.63,146.65,77.63,241.8
			s77.13,172.27,172.27,172.27S422.17,336.94,422.17,241.8z"/>
		<text>		<textPath  xlink:href="#SVGID_x5F_1_x5F_" startOffset="478.7477%">
<tspan  class="st18" style="font-family:'FranklinGothic-Medium'; font-size:22.4021px;">Rate features &amp; Earn Rewards</tspan>		</textPath>
</text>
	</g>
</g>
</svg>
