<svg id="Page_1" data-name="Page 1" xmlns="http://www.w3.org/2000/svg" viewBox="0 0 1365 294.84"><defs><style>.cls-1,.cls-4{fill:#1d2b44;}.cls-1,.cls-3{fill-rule:evenodd;}.cls-2,.cls-3{fill:#fff;}.cls-5{fill:#63b8d8;}</style></defs><title>mumbaiVECTOR</title><g id="Layer_1" data-name="Layer 1"><path class="cls-1" d="M769.5,409.28H738v57.61H705.14v41.2H684v-7.33H672.2V420.28h-2.27l-6.28-10.95H635.07v41.15h-11v9.83H618v21.42h-8.09V396.47H602.6V385.3h-8.09V374.82H586V364.7h-4.13V343.92h-3.14V364.7H574.6v10.12h-8.43V385.3h-8.09v11.17H550.8v119h-4V481.27H534.57v19.14h-4.08V461.25H473.63V372H396.81V514.79h-9.37V421H363.53v53.89h-4.89V440.53H330.7v61H288.33V462.88H263.19v53.65h-9.25V411L216.46,394.2l-14.08,8.38v71.35H191.61V430.29l-19.9,17.45v58.14H142.14V469.51H109.55v44.36h-2.44v-25.8H81.79V529.8H60.15V508.5H44.61V524H35.47v13.27H26.16v4.6h1365v-10.6h-12.39v-8.38h-9.26V506.17h-17V519.5h-6.92V452.05H1318V508H1315V412.54l-26.42-34.05v38.29h-4.07V354.05l-26.43,26.3v95.5l-3.49-1.74v-11.7h-39.05V514H1194V414.46h-41.55v78.1h-17.23V445.47l-10.24-12-15.13,27.18v56h-10.77v-113h-35.21v67H1023V502h-13.62v-55.4H991.47V410.67L971.39,393.8l-6.34,3.78v29.74H947.82V473.7h35.27v63.61h-2.91v-60.7H937.34V363H897.77v97.83H887.53V526h-5.12V418.3H855.93v84H840.45V434.82H821.71v76.65h-4.08v-114l-11.52-3.2V374.47l-10.42-2.91v-14H791v12.74l-12.86-3.6V386.4L769.5,384ZM406.71,358.94h22.17v-1.69H406.71Zm-2.62,3.26h30.38v1.62H404.09Zm-7.28,3.25h76.82v1.63H396.81Zm5.71,3.26h40.09v1.63H402.52Zm-25.73,29h-2.56v-9.54h2.56Zm2.51,1.57h-7.57v13.33h7.57Zm7.1,19.5H364.57v-3.49H386.4Zm687.53-33.23h2.5v15.66h-2.5Zm-4.19,0h2.5v15.66h-2.5Zm12.57,0h2.5v15.66h-2.5Zm-4.19,0h2.5v15.66h-2.5Zm12.57,0h2.5v15.66h-2.5Zm-4.19,0h2.5v15.66h-2.5ZM911.56,345.32H932v9.43H911.56Zm-12,15.07H935.6v-4.07H899.52Z" transform="translate(-26.16 -247.07)"/><rect class="cls-2" x="531.74" y="154.99" width="7.45" height="3.38"/><path class="cls-3" d="M757.63,414.05h3.61v4h-3.61v-4Z" transform="translate(-26.16 -247.07)"/><path class="cls-3" d="M751.93,414.05h3.26v4h-3.26v-4Z" transform="translate(-26.16 -247.07)"/><path class="cls-3" d="M746.58,414.05h2.85v4h-2.85v-4Z" transform="translate(-26.16 -247.07)"/><rect class="cls-2" x="715.41" y="166.98" width="2.5" height="3.96"/><rect class="cls-2" x="737.58" y="166.98" width="3.96" height="3.96"/><path class="cls-3" d="M757.63,421.32h3.61v4h-3.61v-4Z" transform="translate(-26.16 -247.07)"/><path class="cls-3" d="M751.93,421.32h3.26v4h-3.26v-4Z" transform="translate(-26.16 -247.07)"/><rect class="cls-2" x="715.41" y="174.26" width="2.5" height="3.96"/><rect class="cls-2" x="737.58" y="174.26" width="3.96" height="3.96"/><path class="cls-3" d="M757.63,428.6h3.61v3.9h-3.61v-3.9Z" transform="translate(-26.16 -247.07)"/><path class="cls-3" d="M751.93,428.6h3.26v3.9h-3.26v-3.9Z" transform="translate(-26.16 -247.07)"/><path class="cls-3" d="M746.58,428.6h2.85v3.9h-2.85v-3.9Z" transform="translate(-26.16 -247.07)"/><rect class="cls-2" x="715.41" y="181.53" width="2.5" height="3.9"/><rect class="cls-2" x="737.58" y="181.53" width="3.96" height="3.9"/><path class="cls-3" d="M757.63,435.81h3.61v4h-3.61v-4Z" transform="translate(-26.16 -247.07)"/><path class="cls-3" d="M746.58,435.81h2.85v4h-2.85v-4Z" transform="translate(-26.16 -247.07)"/><rect class="cls-2" x="715.41" y="188.75" width="2.5" height="3.96"/><path class="cls-3" d="M757.63,443.09h3.61v4h-3.61v-4Z" transform="translate(-26.16 -247.07)"/><path class="cls-3" d="M751.93,443.09h3.26v4h-3.26v-4Z" transform="translate(-26.16 -247.07)"/><path class="cls-3" d="M746.58,443.09h2.85v4h-2.85v-4Z" transform="translate(-26.16 -247.07)"/><rect class="cls-2" x="715.41" y="196.02" width="2.5" height="3.96"/><rect class="cls-2" x="737.58" y="196.02" width="3.96" height="3.96"/><path class="cls-3" d="M751.93,450.36h3.26v4h-3.26v-4Z" transform="translate(-26.16 -247.07)"/><rect class="cls-2" x="715.41" y="203.3" width="2.5" height="3.96"/><rect class="cls-2" x="737.58" y="203.3" width="3.96" height="3.96"/><path class="cls-3" d="M757.63,457.64h3.61v3.95h-3.61v-3.95Z" transform="translate(-26.16 -247.07)"/><path class="cls-3" d="M751.93,457.64h3.26v3.95h-3.26v-3.95Z" transform="translate(-26.16 -247.07)"/><path class="cls-3" d="M746.58,457.64h2.85v3.95h-2.85v-3.95Z" transform="translate(-26.16 -247.07)"/><rect class="cls-2" x="715.41" y="210.57" width="2.5" height="3.96"/><path class="cls-3" d="M757.63,464.91h3.61v4h-3.61v-4Z" transform="translate(-26.16 -247.07)"/><path class="cls-3" d="M751.93,464.91h3.26v2h-3.26Z" transform="translate(-26.16 -247.07)"/><path class="cls-3" d="M746.58,464.91h2.85v2h-2.85Z" transform="translate(-26.16 -247.07)"/><rect class="cls-2" x="715.41" y="217.84" width="2.5" height="1.98"/><rect class="cls-2" x="737.58" y="217.84" width="3.96" height="3.96"/><path class="cls-3" d="M757.63,472.19h3.61v3.9h-3.61v-3.9Z" transform="translate(-26.16 -247.07)"/><rect class="cls-2" x="737.58" y="225.12" width="3.96" height="3.9"/><path class="cls-3" d="M757.63,479.4h3.61v4h-3.61v-4Z" transform="translate(-26.16 -247.07)"/><rect class="cls-2" x="737.58" y="232.34" width="3.96" height="3.96"/><path class="cls-3" d="M757.63,486.68h3.61v4h-3.61v-4Z" transform="translate(-26.16 -247.07)"/><rect class="cls-2" x="737.58" y="239.61" width="3.96" height="3.96"/><rect class="cls-2" x="737.58" y="246.88" width="3.96" height="3.96"/><path class="cls-3" d="M757.63,501.23h3.61v3.95h-3.61v-3.95Z" transform="translate(-26.16 -247.07)"/><rect class="cls-2" x="737.58" y="254.16" width="3.96" height="3.96"/><path class="cls-3" d="M757.63,508.5h3.61v4h-3.61v-4Z" transform="translate(-26.16 -247.07)"/><rect class="cls-2" x="737.58" y="261.43" width="3.96" height="3.96"/><path class="cls-3" d="M757.63,515.78h3.61v3.9h-3.61v-3.9Z" transform="translate(-26.16 -247.07)"/><polygon class="cls-3" points="167.31 231.58 174.36 231.58 174.36 236.99 170.34 233.73 169 235.42 174.36 239.67 174.36 243.1 170.34 239.9 169 241.59 174.36 245.84 174.36 249.27 170.34 246.07 169 247.7 174.36 252.01 174.36 255.44 170.34 252.24 169 253.87 174.36 258.18 174.36 261.61 170.34 258.41 169 260.04 174.36 264.34 174.36 267.78 170.34 264.58 169 266.21 174.36 270.51 174.36 273.95 170.34 270.69 169 272.38 174.36 276.62 174.36 277.79 167.31 277.79 167.31 231.58"/><rect class="cls-2" x="401.67" y="277.21" width="34.04" height="5.12"/><rect class="cls-2" x="401.67" y="268.71" width="34.04" height="5.12"/><rect class="cls-2" x="396.09" y="260.15" width="39.63" height="5.18"/><rect class="cls-2" x="396.09" y="251.66" width="39.63" height="5.12"/><rect class="cls-2" x="396.09" y="243.16" width="39.63" height="5.12"/><rect class="cls-2" x="396.09" y="234.61" width="39.63" height="5.12"/><rect class="cls-2" x="396.09" y="226.11" width="39.63" height="5.12"/><rect class="cls-2" x="396.09" y="217.55" width="39.63" height="5.18"/><polygon class="cls-3" points="435.72 214.18 396.09 214.18 396.09 209.06 445.09 209.06 445.09 214.18 435.72 214.18"/><rect class="cls-2" x="378.22" y="131.36" width="4.42" height="136.35"/><rect class="cls-2" x="384.97" y="131.36" width="4.42" height="136.35"/><rect class="cls-2" x="396.09" y="200.56" width="49" height="5.12"/><rect class="cls-2" x="396.09" y="192.01" width="49" height="5.12"/><rect class="cls-2" x="396.09" y="183.51" width="49" height="5.12"/><rect class="cls-2" x="396.09" y="174.95" width="49" height="5.18"/><rect class="cls-2" x="396.09" y="166.46" width="49" height="5.12"/><rect class="cls-2" x="396.09" y="157.96" width="49" height="5.12"/><rect class="cls-2" x="396.09" y="149.41" width="49" height="5.12"/><rect class="cls-2" x="396.09" y="140.91" width="49" height="5.12"/><rect class="cls-2" x="396.09" y="132.35" width="49" height="5.12"/><path class="cls-3" d="M1292.17,419.46h2.33v2.15h-2.33v-2.15Z" transform="translate(-26.16 -247.07)"/><path class="cls-3" d="M1297.29,419.46h2.33v2.15h-2.33v-2.15Z" transform="translate(-26.16 -247.07)"/><path class="cls-3" d="M1302.41,419.46h2.39v2.15h-2.39v-2.15Z" transform="translate(-26.16 -247.07)"/><path class="cls-3" d="M1307.53,419.46h2.39v2.15h-2.39v-2.15Z" transform="translate(-26.16 -247.07)"/><path class="cls-3" d="M1292.17,424.41h2.33v2.15h-2.33v-2.15Z" transform="translate(-26.16 -247.07)"/><path class="cls-3" d="M1297.29,424.41h2.33v2.15h-2.33v-2.15Z" transform="translate(-26.16 -247.07)"/><path class="cls-3" d="M1302.41,424.41h2.39v2.15h-2.39v-2.15Z" transform="translate(-26.16 -247.07)"/><path class="cls-3" d="M1307.53,424.41h2.39v2.15h-2.39v-2.15Z" transform="translate(-26.16 -247.07)"/><path class="cls-3" d="M1292.17,429.35h2.33v2.22h-2.33v-2.22Z" transform="translate(-26.16 -247.07)"/><path class="cls-3" d="M1297.29,429.35h2.33v2.22h-2.33v-2.22Z" transform="translate(-26.16 -247.07)"/><path class="cls-3" d="M1302.41,429.35h2.39v2.22h-2.39v-2.22Z" transform="translate(-26.16 -247.07)"/><path class="cls-3" d="M1307.53,429.35h2.39v2.22h-2.39v-2.22Z" transform="translate(-26.16 -247.07)"/><path class="cls-3" d="M1292.17,434.36h2.33v2.15h-2.33v-2.15Z" transform="translate(-26.16 -247.07)"/><path class="cls-3" d="M1297.29,434.36h2.33v2.15h-2.33v-2.15Z" transform="translate(-26.16 -247.07)"/><path class="cls-3" d="M1302.41,434.36h2.39v2.15h-2.39v-2.15Z" transform="translate(-26.16 -247.07)"/><path class="cls-3" d="M1307.53,434.36h2.39v2.15h-2.39v-2.15Z" transform="translate(-26.16 -247.07)"/><path class="cls-3" d="M1292.17,439.31h2.33v2.15h-2.33v-2.15Z" transform="translate(-26.16 -247.07)"/><path class="cls-3" d="M1297.29,439.31h2.33v2.15h-2.33v-2.15Z" transform="translate(-26.16 -247.07)"/><path class="cls-3" d="M1302.41,439.31h2.39v2.15h-2.39v-2.15Z" transform="translate(-26.16 -247.07)"/><path class="cls-3" d="M1307.53,439.31h2.39v2.15h-2.39v-2.15Z" transform="translate(-26.16 -247.07)"/><path class="cls-3" d="M1292.17,444.25h2.33v2.16h-2.33v-2.16Z" transform="translate(-26.16 -247.07)"/><path class="cls-3" d="M1297.29,444.25h2.33v2.16h-2.33v-2.16Z" transform="translate(-26.16 -247.07)"/><path class="cls-3" d="M1307.53,444.25h2.39v2.16h-2.39v-2.16Z" transform="translate(-26.16 -247.07)"/><path class="cls-3" d="M1292.17,449.2h2.33v2.15h-2.33V449.2Z" transform="translate(-26.16 -247.07)"/><path class="cls-3" d="M1297.29,449.2h2.33v2.15h-2.33V449.2Z" transform="translate(-26.16 -247.07)"/><path class="cls-3" d="M1302.41,449.2h2.39v2.15h-2.39V449.2Z" transform="translate(-26.16 -247.07)"/><path class="cls-3" d="M1307.53,449.2h2.39v2.15h-2.39V449.2Z" transform="translate(-26.16 -247.07)"/><path class="cls-3" d="M1292.17,454.15h2.33v2.21h-2.33v-2.21Z" transform="translate(-26.16 -247.07)"/><path class="cls-3" d="M1297.29,454.15h2.33v2.21h-2.33v-2.21Z" transform="translate(-26.16 -247.07)"/><path class="cls-3" d="M1302.41,454.15h2.39v2.21h-2.39v-2.21Z" transform="translate(-26.16 -247.07)"/><path class="cls-3" d="M1307.53,454.15h2.39v2.21h-2.39v-2.21Z" transform="translate(-26.16 -247.07)"/><path class="cls-3" d="M1297.29,459.15h2.33v2.15h-2.33v-2.15Z" transform="translate(-26.16 -247.07)"/><path class="cls-3" d="M1302.41,459.15h2.39v2.15h-2.39v-2.15Z" transform="translate(-26.16 -247.07)"/><path class="cls-3" d="M1307.53,459.15h2.39v2.15h-2.39v-2.15Z" transform="translate(-26.16 -247.07)"/><path class="cls-3" d="M1292.17,464.1h2.33v2.15h-2.33V464.1Z" transform="translate(-26.16 -247.07)"/><path class="cls-3" d="M1297.29,464.1h2.33v2.15h-2.33V464.1Z" transform="translate(-26.16 -247.07)"/><path class="cls-3" d="M1302.41,464.1h2.39v2.15h-2.39V464.1Z" transform="translate(-26.16 -247.07)"/><path class="cls-3" d="M1307.53,464.1h2.39v2.15h-2.39V464.1Z" transform="translate(-26.16 -247.07)"/><path class="cls-3" d="M1292.17,469h2.33v2.16h-2.33V469Z" transform="translate(-26.16 -247.07)"/><path class="cls-3" d="M1297.29,469h2.33v2.16h-2.33V469Z" transform="translate(-26.16 -247.07)"/><path class="cls-3" d="M1302.41,469h2.39v2.16h-2.39V469Z" transform="translate(-26.16 -247.07)"/><path class="cls-3" d="M1307.53,469h2.39v2.16h-2.39V469Z" transform="translate(-26.16 -247.07)"/><path class="cls-3" d="M1292.17,474h2.33v2.15h-2.33V474Z" transform="translate(-26.16 -247.07)"/><path class="cls-3" d="M1302.41,474h2.39v2.15h-2.39V474Z" transform="translate(-26.16 -247.07)"/><path class="cls-3" d="M1307.53,474h2.39v2.15h-2.39V474Z" transform="translate(-26.16 -247.07)"/><path class="cls-3" d="M1292.17,478.94h2.33v2.21h-2.33v-2.21Z" transform="translate(-26.16 -247.07)"/><path class="cls-3" d="M1297.29,478.94h2.33v2.21h-2.33v-2.21Z" transform="translate(-26.16 -247.07)"/><path class="cls-3" d="M1302.41,478.94h2.39v2.21h-2.39v-2.21Z" transform="translate(-26.16 -247.07)"/><path class="cls-3" d="M1307.53,478.94h2.39v2.21h-2.39v-2.21Z" transform="translate(-26.16 -247.07)"/><path class="cls-3" d="M1292.17,483.94h2.33v2.16h-2.33v-2.16Z" transform="translate(-26.16 -247.07)"/><path class="cls-3" d="M1297.29,483.94h2.33v2.16h-2.33v-2.16Z" transform="translate(-26.16 -247.07)"/><path class="cls-3" d="M1302.41,483.94h2.39v2.16h-2.39v-2.16Z" transform="translate(-26.16 -247.07)"/><path class="cls-3" d="M1307.53,483.94h2.39v2.16h-2.39v-2.16Z" transform="translate(-26.16 -247.07)"/><path class="cls-3" d="M1292.17,488.89h2.33V491h-2.33v-2.15Z" transform="translate(-26.16 -247.07)"/><path class="cls-3" d="M1297.29,488.89h2.33V491h-2.33v-2.15Z" transform="translate(-26.16 -247.07)"/><path class="cls-3" d="M1302.41,488.89h2.39V491h-2.39v-2.15Z" transform="translate(-26.16 -247.07)"/><path class="cls-3" d="M1292.17,493.84h2.33V496h-2.33v-2.15Z" transform="translate(-26.16 -247.07)"/><path class="cls-3" d="M1297.29,493.84h2.33V496h-2.33v-2.15Z" transform="translate(-26.16 -247.07)"/><path class="cls-3" d="M1292.17,498.78h2.33v2.16h-2.33v-2.16Z" transform="translate(-26.16 -247.07)"/><path class="cls-3" d="M1297.29,498.78h2.33v2.16h-2.33v-2.16Z" transform="translate(-26.16 -247.07)"/><path class="cls-3" d="M1292.17,503.73h2.33v2.21h-2.33v-2.21Z" transform="translate(-26.16 -247.07)"/><path class="cls-3" d="M1292.17,508.73h2.33v2.16h-2.33v-2.16Z" transform="translate(-26.16 -247.07)"/><path class="cls-3" d="M1292.17,513.68h2.33v2.15h-2.33v-2.15Z" transform="translate(-26.16 -247.07)"/><path class="cls-3" d="M1292.17,518.63h2.33v2.15h-2.33v-2.15Z" transform="translate(-26.16 -247.07)"/><path class="cls-3" d="M1292.17,523.57h2.33v2.16h-2.33v-2.16Z" transform="translate(-26.16 -247.07)"/><rect class="cls-2" x="1266.01" y="281.45" width="2.33" height="2.21"/><rect class="cls-2" x="1266.01" y="167.45" width="2.33" height="2.15"/><rect class="cls-2" x="1271.13" y="167.45" width="2.33" height="2.15"/><rect class="cls-2" x="1276.25" y="167.45" width="2.39" height="2.15"/><rect class="cls-2" x="1281.37" y="167.45" width="2.39" height="2.15"/><path class="cls-3" d="M1269.36,391.06h3.37v3h-3.37v-3Z" transform="translate(-26.16 -247.07)"/><path class="cls-3" d="M1275.35,391.06h2.44v3h-2.44v-3Z" transform="translate(-26.16 -247.07)"/><path class="cls-3" d="M1280.41,391.06H1282v3h-1.58v-3Z" transform="translate(-26.16 -247.07)"/><path class="cls-3" d="M1262.49,391.06h4.31v3h-4.31v-3Z" transform="translate(-26.16 -247.07)"/><path class="cls-3" d="M1269.36,396.94h3.37v3h-3.37v-3Z" transform="translate(-26.16 -247.07)"/><path class="cls-3" d="M1275.35,396.94h2.44v3h-2.44v-3Z" transform="translate(-26.16 -247.07)"/><path class="cls-3" d="M1280.41,396.94H1282v3h-1.58v-3Z" transform="translate(-26.16 -247.07)"/><path class="cls-3" d="M1262.49,396.94h4.31v3h-4.31v-3Z" transform="translate(-26.16 -247.07)"/><path class="cls-3" d="M1269.36,402.82h3.37v3h-3.37v-3Z" transform="translate(-26.16 -247.07)"/><path class="cls-3" d="M1275.35,402.82h2.44v3h-2.44v-3Z" transform="translate(-26.16 -247.07)"/><path class="cls-3" d="M1280.41,402.82H1282v3h-1.58v-3Z" transform="translate(-26.16 -247.07)"/><path class="cls-3" d="M1262.49,402.82h4.31v3h-4.31v-3Z" transform="translate(-26.16 -247.07)"/><path class="cls-3" d="M1269.36,408.69h3.37v3h-3.37v-3Z" transform="translate(-26.16 -247.07)"/><path class="cls-3" d="M1275.35,408.69h2.44v3h-2.44v-3Z" transform="translate(-26.16 -247.07)"/><path class="cls-3" d="M1280.41,408.69H1282v3h-1.58v-3Z" transform="translate(-26.16 -247.07)"/><path class="cls-3" d="M1262.49,408.69h4.31v3h-4.31v-3Z" transform="translate(-26.16 -247.07)"/><path class="cls-3" d="M1269.36,414.57h3.37v3h-3.37v-3Z" transform="translate(-26.16 -247.07)"/><path class="cls-3" d="M1275.35,414.57h2.44v3h-2.44v-3Z" transform="translate(-26.16 -247.07)"/><path class="cls-3" d="M1280.41,414.57H1282v3h-1.58v-3Z" transform="translate(-26.16 -247.07)"/><path class="cls-3" d="M1262.49,414.57h4.31v3h-4.31v-3Z" transform="translate(-26.16 -247.07)"/><path class="cls-3" d="M1269.36,420.45h3.37v3h-3.37v-3Z" transform="translate(-26.16 -247.07)"/><path class="cls-3" d="M1275.35,420.45h2.44v3h-2.44v-3Z" transform="translate(-26.16 -247.07)"/><path class="cls-3" d="M1280.41,420.45H1282v3h-1.58v-3Z" transform="translate(-26.16 -247.07)"/><path class="cls-3" d="M1262.49,420.45h4.31v3h-4.31v-3Z" transform="translate(-26.16 -247.07)"/><path class="cls-3" d="M1269.36,426.33h3.37v3h-3.37v-3Z" transform="translate(-26.16 -247.07)"/><path class="cls-3" d="M1275.35,426.33h2.44v3h-2.44v-3Z" transform="translate(-26.16 -247.07)"/><path class="cls-3" d="M1280.41,426.33H1282v3h-1.58v-3Z" transform="translate(-26.16 -247.07)"/><path class="cls-3" d="M1262.49,426.33h4.31v3h-4.31v-3Z" transform="translate(-26.16 -247.07)"/><path class="cls-3" d="M1269.36,432.21h3.37v3h-3.37v-3Z" transform="translate(-26.16 -247.07)"/><path class="cls-3" d="M1275.35,432.21h2.44v3h-2.44v-3Z" transform="translate(-26.16 -247.07)"/><path class="cls-3" d="M1262.49,432.21h4.31v3h-4.31v-3Z" transform="translate(-26.16 -247.07)"/><path class="cls-3" d="M1269.36,438.08h3.37v3h-3.37v-3Z" transform="translate(-26.16 -247.07)"/><path class="cls-3" d="M1275.35,438.08h2.44v3h-2.44v-3Z" transform="translate(-26.16 -247.07)"/><path class="cls-3" d="M1262.49,438.08h4.31v3h-4.31v-3Z" transform="translate(-26.16 -247.07)"/><path class="cls-3" d="M1269.36,444h3.37v3h-3.37v-3Z" transform="translate(-26.16 -247.07)"/><path class="cls-3" d="M1275.35,444h2.44v3h-2.44v-3Z" transform="translate(-26.16 -247.07)"/><path class="cls-3" d="M1262.49,444h4.31v3h-4.31v-3Z" transform="translate(-26.16 -247.07)"/><path class="cls-3" d="M1269.36,449.84h3.37v3h-3.37v-3Z" transform="translate(-26.16 -247.07)"/><path class="cls-3" d="M1275.35,449.84h2.44v3h-2.44v-3Z" transform="translate(-26.16 -247.07)"/><path class="cls-3" d="M1262.49,449.84h4.31v3h-4.31v-3Z" transform="translate(-26.16 -247.07)"/><path class="cls-3" d="M1269.36,455.72h3.37v3h-3.37v-3Z" transform="translate(-26.16 -247.07)"/><path class="cls-3" d="M1275.35,455.72h2.44v3h-2.44v-3Z" transform="translate(-26.16 -247.07)"/><path class="cls-3" d="M1262.49,455.72h4.31v3h-4.31v-3Z" transform="translate(-26.16 -247.07)"/><path class="cls-3" d="M1269.36,461.59h3.37v3h-3.37v-3Z" transform="translate(-26.16 -247.07)"/><path class="cls-3" d="M1275.35,461.59h2.44v3h-2.44v-3Z" transform="translate(-26.16 -247.07)"/><path class="cls-3" d="M1262.49,461.59h4.31v3h-4.31v-3Z" transform="translate(-26.16 -247.07)"/><path class="cls-3" d="M1269.36,467.47h3.37v3h-3.37v-3Z" transform="translate(-26.16 -247.07)"/><path class="cls-3" d="M1275.35,467.47h2.44v3h-2.44v-3Z" transform="translate(-26.16 -247.07)"/><path class="cls-3" d="M1262.49,467.47h4.31v3h-4.31v-3Z" transform="translate(-26.16 -247.07)"/><path class="cls-3" d="M1269.36,473.35h3.37v3h-3.37v-3Z" transform="translate(-26.16 -247.07)"/><path class="cls-3" d="M1275.35,473.35h2.44v3h-2.44v-3Z" transform="translate(-26.16 -247.07)"/><path class="cls-3" d="M1262.49,473.35h4.31v3h-4.31v-3Z" transform="translate(-26.16 -247.07)"/><path class="cls-3" d="M1269.36,479.23h3.37v3h-3.37v-3Z" transform="translate(-26.16 -247.07)"/><path class="cls-3" d="M1275.35,479.23h2.44v3h-2.44v-3Z" transform="translate(-26.16 -247.07)"/><path class="cls-3" d="M1262.49,479.23h4.31v3h-4.31v-3Z" transform="translate(-26.16 -247.07)"/><path class="cls-3" d="M1269.36,485.11h3.37v3h-3.37v-3Z" transform="translate(-26.16 -247.07)"/><path class="cls-3" d="M1275.35,485.11h2.44v3h-2.44v-3Z" transform="translate(-26.16 -247.07)"/><path class="cls-3" d="M1262.49,485.11h4.31v3h-4.31v-3Z" transform="translate(-26.16 -247.07)"/><path class="cls-3" d="M1269.36,491h3.37v3h-3.37v-3Z" transform="translate(-26.16 -247.07)"/><path class="cls-3" d="M1275.35,491h2.44v3h-2.44v-3Z" transform="translate(-26.16 -247.07)"/><path class="cls-3" d="M1262.49,491h4.31v3h-4.31v-3Z" transform="translate(-26.16 -247.07)"/><path class="cls-3" d="M1269.36,496.86h3.37v3h-3.37v-3Z" transform="translate(-26.16 -247.07)"/><path class="cls-3" d="M1275.35,496.86h2.44v3h-2.44v-3Z" transform="translate(-26.16 -247.07)"/><path class="cls-3" d="M1262.49,496.86h4.31v3h-4.31v-3Z" transform="translate(-26.16 -247.07)"/><path class="cls-3" d="M1269.36,502.74h3.37v3h-3.37v-3Z" transform="translate(-26.16 -247.07)"/><path class="cls-3" d="M1275.35,502.74h2.44v3h-2.44v-3Z" transform="translate(-26.16 -247.07)"/><path class="cls-3" d="M1262.49,502.74h4.31v3h-4.31v-3Z" transform="translate(-26.16 -247.07)"/><path class="cls-3" d="M1269.36,508.62h3.37v3h-3.37v-3Z" transform="translate(-26.16 -247.07)"/><path class="cls-3" d="M1275.35,508.62h2.44v3h-2.44v-3Z" transform="translate(-26.16 -247.07)"/><path class="cls-3" d="M1262.49,508.62h4.31v3h-4.31v-3Z" transform="translate(-26.16 -247.07)"/><path class="cls-3" d="M1262.49,514.5h4.31v3h-4.31v-3Z" transform="translate(-26.16 -247.07)"/><rect class="cls-2" x="1236.33" y="273.31" width="4.31" height="3.03"/><path class="cls-3" d="M1269.36,385.18h3.37v3h-3.37v-3Z" transform="translate(-26.16 -247.07)"/><path class="cls-3" d="M1275.35,385.18h2.44v3h-2.44v-3Z" transform="translate(-26.16 -247.07)"/><rect class="cls-2" x="1254.25" y="138.12" width="1.57" height="3.03"/><rect class="cls-2" x="1236.33" y="138.12" width="4.31" height="3.03"/><rect class="cls-2" x="1131.23" y="193.34" width="31.66" height="4.02"/><rect class="cls-2" x="1131.23" y="198.81" width="31.66" height="2.27"/><rect class="cls-2" x="1131.23" y="178.5" width="31.66" height="4.07"/><rect class="cls-2" x="1131.23" y="184.03" width="31.66" height="2.27"/><rect class="cls-2" x="1131.23" y="208.13" width="31.66" height="4.07"/><rect class="cls-2" x="1131.23" y="213.6" width="31.66" height="2.33"/><rect class="cls-2" x="1131.23" y="222.97" width="31.66" height="4.02"/><rect class="cls-2" x="1131.23" y="228.44" width="31.66" height="2.27"/><rect class="cls-2" x="1131.23" y="237.75" width="31.66" height="4.02"/><polygon class="cls-3" points="1131.23 243.22 1162.89 243.22 1162.89 245.49 1149.62 245.49 1131.23 245.49 1131.23 243.22"/><rect class="cls-2" x="1149.62" y="252.53" width="13.27" height="4.07"/><rect class="cls-2" x="1149.62" y="258.06" width="13.27" height="2.27"/><rect class="cls-2" x="1149.62" y="267.37" width="13.27" height="4.02"/><rect class="cls-2" x="1149.62" y="272.84" width="13.27" height="2.27"/><rect class="cls-2" x="1122.85" y="264.93" width="5.47" height="3.49"/><rect class="cls-2" x="1131.52" y="264.93" width="4.48" height="3.49"/><rect class="cls-2" x="1139.14" y="264.93" width="2.79" height="3.49"/><rect class="cls-2" x="1122.85" y="271.97" width="5.47" height="3.43"/><rect class="cls-2" x="1131.52" y="271.97" width="4.48" height="3.43"/><rect class="cls-2" x="1122.85" y="250.9" width="5.47" height="3.43"/><rect class="cls-2" x="1131.52" y="250.9" width="4.48" height="3.43"/><rect class="cls-2" x="1139.14" y="250.9" width="2.79" height="3.43"/><rect class="cls-2" x="1122.85" y="257.88" width="5.47" height="3.49"/><rect class="cls-2" x="1131.52" y="257.88" width="4.48" height="3.49"/><rect class="cls-2" x="1139.14" y="257.88" width="2.79" height="3.49"/><rect class="cls-2" x="1057.03" y="205.51" width="3.32" height="5.35"/><rect class="cls-2" x="1057.03" y="182.87" width="3.32" height="5.35"/><rect class="cls-2" x="1051.44" y="187.41" width="3.32" height="5.35"/><rect class="cls-2" x="1046.14" y="168.26" width="3.32" height="5.35"/><rect class="cls-2" x="1015.42" y="243.86" width="4.66" height="5.59"/><rect class="cls-2" x="1015.42" y="251.02" width="4.66" height="2.44"/><rect class="cls-2" x="1022.22" y="243.86" width="4.6" height="5.59"/><rect class="cls-2" x="1022.22" y="251.02" width="4.6" height="2.44"/><rect class="cls-2" x="1015.42" y="229.19" width="4.66" height="5.59"/><rect class="cls-2" x="1015.42" y="236.35" width="4.66" height="2.44"/><rect class="cls-2" x="1022.22" y="229.19" width="4.6" height="5.59"/><rect class="cls-2" x="1022.22" y="236.35" width="4.6" height="2.44"/><rect class="cls-2" x="1015.42" y="258.52" width="4.66" height="5.59"/><rect class="cls-2" x="1015.42" y="265.68" width="4.66" height="2.44"/><rect class="cls-2" x="1022.22" y="258.52" width="4.6" height="5.59"/><rect class="cls-2" x="1022.22" y="265.68" width="4.6" height="2.44"/><rect class="cls-2" x="1015.42" y="273.19" width="4.66" height="5.59"/><rect class="cls-2" x="1015.42" y="280.35" width="4.66" height="2.44"/><rect class="cls-2" x="1022.22" y="273.19" width="4.6" height="5.59"/><rect class="cls-2" x="1022.22" y="280.35" width="4.6" height="2.44"/><rect class="cls-2" x="1000.58" y="243.86" width="4.6" height="5.59"/><rect class="cls-2" x="1000.58" y="251.02" width="4.6" height="2.44"/><rect class="cls-2" x="1007.33" y="243.86" width="4.66" height="5.59"/><rect class="cls-2" x="1007.33" y="251.02" width="4.66" height="2.44"/><rect class="cls-2" x="1000.58" y="229.19" width="4.6" height="5.59"/><rect class="cls-2" x="1000.58" y="236.35" width="4.6" height="2.44"/><rect class="cls-2" x="1007.33" y="229.19" width="4.66" height="5.59"/><rect class="cls-2" x="1007.33" y="236.35" width="4.66" height="2.44"/><rect class="cls-2" x="1000.58" y="258.52" width="4.6" height="5.59"/><rect class="cls-2" x="1000.58" y="265.68" width="4.6" height="2.44"/><rect class="cls-2" x="1007.33" y="258.52" width="4.66" height="5.59"/><rect class="cls-2" x="1007.33" y="265.68" width="4.66" height="2.44"/><rect class="cls-2" x="1000.58" y="273.19" width="4.6" height="5.59"/><rect class="cls-2" x="1000.58" y="280.35" width="4.6" height="2.44"/><rect class="cls-2" x="1007.33" y="273.19" width="4.66" height="5.59"/><rect class="cls-2" x="1007.33" y="280.35" width="4.66" height="2.44"/><rect class="cls-2" x="1030.31" y="243.86" width="4.66" height="5.59"/><rect class="cls-2" x="1030.31" y="251.02" width="4.66" height="2.44"/><rect class="cls-2" x="1037.12" y="243.86" width="4.6" height="5.59"/><rect class="cls-2" x="1037.12" y="251.02" width="4.6" height="2.44"/><rect class="cls-2" x="1030.31" y="229.19" width="4.66" height="5.59"/><rect class="cls-2" x="1030.31" y="236.35" width="4.66" height="2.44"/><rect class="cls-2" x="1037.12" y="229.19" width="4.6" height="5.59"/><rect class="cls-2" x="1037.12" y="236.35" width="4.6" height="2.44"/><rect class="cls-2" x="1030.31" y="258.52" width="4.66" height="5.59"/><rect class="cls-2" x="1030.31" y="265.68" width="4.66" height="2.44"/><rect class="cls-2" x="1037.12" y="258.52" width="4.6" height="5.59"/><rect class="cls-2" x="1037.12" y="265.68" width="4.6" height="2.44"/><rect class="cls-2" x="1030.31" y="273.19" width="4.66" height="5.59"/><rect class="cls-2" x="1030.31" y="280.35" width="4.66" height="2.44"/><rect class="cls-2" x="1037.12" y="273.19" width="4.6" height="5.59"/><rect class="cls-2" x="1037.12" y="280.35" width="4.6" height="2.44"/><rect class="cls-2" x="1045.21" y="243.86" width="4.6" height="5.59"/><rect class="cls-2" x="1045.21" y="251.02" width="4.6" height="2.44"/><rect class="cls-2" x="1052.02" y="243.86" width="4.6" height="5.59"/><rect class="cls-2" x="1052.02" y="251.02" width="4.6" height="2.44"/><rect class="cls-2" x="1045.21" y="229.19" width="4.6" height="5.59"/><rect class="cls-2" x="1045.21" y="236.35" width="4.6" height="2.44"/><rect class="cls-2" x="1052.02" y="229.19" width="4.6" height="5.59"/><rect class="cls-2" x="1052.02" y="236.35" width="4.6" height="2.44"/><rect class="cls-2" x="1045.21" y="258.52" width="4.6" height="5.59"/><rect class="cls-2" x="1045.21" y="265.68" width="4.6" height="2.44"/><rect class="cls-2" x="1052.02" y="258.52" width="4.6" height="5.59"/><rect class="cls-2" x="1052.02" y="265.68" width="4.6" height="2.44"/><rect class="cls-2" x="1045.21" y="273.19" width="4.6" height="5.59"/><rect class="cls-2" x="1045.21" y="280.35" width="4.6" height="2.44"/><rect class="cls-2" x="1052.02" y="273.19" width="4.6" height="5.59"/><rect class="cls-2" x="1052.02" y="280.35" width="4.6" height="2.44"/><polygon class="cls-3" points="947.15 171.29 953.78 176.23 953.78 180.25 953.09 180.25 947.15 175.83 947.15 171.29"/><polygon class="cls-3" points="947.15 161.39 953.78 166.34 953.78 170.88 947.15 165.93 947.15 161.39"/><rect class="cls-2" x="941.97" y="254.51" width="6.98" height="14.08"/><rect class="cls-2" x="941.97" y="235.77" width="6.98" height="14.03"/><rect class="cls-2" x="931.85" y="235.77" width="6.93" height="14.03"/><rect class="cls-2" x="921.66" y="235.77" width="6.93" height="14.03"/><path class="cls-3" d="M900.85,368.71h19.38l-.29,2H900.85v-2Z" transform="translate(-26.16 -247.07)"/><path class="cls-3" d="M933.44,368.71h2.45v2h-2.45Z" transform="translate(-26.16 -247.07)"/><path class="cls-3" d="M900.85,372.44h18.86l-.35,2H900.85v-2Z" transform="translate(-26.16 -247.07)"/><path class="cls-3" d="M933.44,372.44h2.45v2h-2.45Z" transform="translate(-26.16 -247.07)"/><path class="cls-3" d="M900.85,376.1h18.28l-.29,2h-18v-2Z" transform="translate(-26.16 -247.07)"/><path class="cls-3" d="M933.44,376.1h2.45v2h-2.45Z" transform="translate(-26.16 -247.07)"/><path class="cls-3" d="M900.85,379.83H918.6l-.29,2H900.85v-2Z" transform="translate(-26.16 -247.07)"/><path class="cls-3" d="M933.44,379.83h2.45v2h-2.45Z" transform="translate(-26.16 -247.07)"/><path class="cls-3" d="M900.85,383.5H918l-.29,2H900.85v-2Z" transform="translate(-26.16 -247.07)"/><path class="cls-3" d="M933.44,383.5h2.45v2h-2.45Z" transform="translate(-26.16 -247.07)"/><path class="cls-3" d="M900.85,387.22H917.5l-.29,2H900.85v-2Z" transform="translate(-26.16 -247.07)"/><path class="cls-3" d="M933.44,387.22h2.45v2h-2.45Z" transform="translate(-26.16 -247.07)"/><path class="cls-3" d="M900.85,390.89h16.07l-.29,2H900.85v-2Z" transform="translate(-26.16 -247.07)"/><path class="cls-3" d="M933.44,390.89h2.45v2h-2.45Z" transform="translate(-26.16 -247.07)"/><path class="cls-3" d="M900.85,394.61h15.54l-.29,2H900.85v-2Z" transform="translate(-26.16 -247.07)"/><path class="cls-3" d="M933.44,394.61h2.45v2h-2.45Z" transform="translate(-26.16 -247.07)"/><path class="cls-3" d="M900.85,398.28h15l-.35,2H900.85v-2Z" transform="translate(-26.16 -247.07)"/><path class="cls-3" d="M933.44,398.28h2.45v2h-2.45Z" transform="translate(-26.16 -247.07)"/><path class="cls-3" d="M900.85,402h14.44l-.29,2H900.85v-2Z" transform="translate(-26.16 -247.07)"/><path class="cls-3" d="M933.44,402h2.45v2h-2.45Z" transform="translate(-26.16 -247.07)"/><path class="cls-3" d="M900.85,405.67h13.91l-.29,2H900.85v-2Z" transform="translate(-26.16 -247.07)"/><path class="cls-3" d="M933.44,405.67h2.45v2h-2.45Z" transform="translate(-26.16 -247.07)"/><path class="cls-3" d="M900.85,409.39h13.33l-.29,2h-13v-2Z" transform="translate(-26.16 -247.07)"/><path class="cls-3" d="M933.44,409.39h2.45v2h-2.45Z" transform="translate(-26.16 -247.07)"/><path class="cls-3" d="M900.85,413.06h12.81l-.29,2H900.85v-2Z" transform="translate(-26.16 -247.07)"/><path class="cls-3" d="M933.44,413.06h2.45v2h-2.45Z" transform="translate(-26.16 -247.07)"/><path class="cls-3" d="M900.85,416.78h12.23l-.29,2H900.85v-2Z" transform="translate(-26.16 -247.07)"/><path class="cls-3" d="M933.44,416.78h2.45v2h-2.45Z" transform="translate(-26.16 -247.07)"/><path class="cls-3" d="M900.85,420.45h11.7l-.29,2H900.85v-2Z" transform="translate(-26.16 -247.07)"/><path class="cls-3" d="M933.44,420.45h2.45v2h-2.45Z" transform="translate(-26.16 -247.07)"/><path class="cls-3" d="M900.85,424.17H912l-.35,2H900.85v-2Z" transform="translate(-26.16 -247.07)"/><path class="cls-3" d="M933.44,424.17h2.45v2h-2.45Z" transform="translate(-26.16 -247.07)"/><path class="cls-3" d="M900.85,427.84h10.6l-.29,2H900.85v-2Z" transform="translate(-26.16 -247.07)"/><path class="cls-3" d="M933.44,427.84h2.45v2h-2.45Z" transform="translate(-26.16 -247.07)"/><path class="cls-3" d="M900.85,431.57h10.07l-.29,2h-9.78v-2Z" transform="translate(-26.16 -247.07)"/><path class="cls-3" d="M933.44,431.57h2.45v2h-2.45Z" transform="translate(-26.16 -247.07)"/><path class="cls-3" d="M900.85,435.23h9.49l-.29,2h-9.2v-2Z" transform="translate(-26.16 -247.07)"/><path class="cls-3" d="M933.44,435.23h2.45v2h-2.45Z" transform="translate(-26.16 -247.07)"/><path class="cls-3" d="M900.85,439h9l-.29,2h-8.68v-2Z" transform="translate(-26.16 -247.07)"/><path class="cls-3" d="M933.44,439h2.45v2h-2.45Z" transform="translate(-26.16 -247.07)"/><path class="cls-3" d="M900.85,442.62h8.39l-.3,2h-8.09v-2Z" transform="translate(-26.16 -247.07)"/><path class="cls-3" d="M933.44,442.62h2.45v2h-2.45Z" transform="translate(-26.16 -247.07)"/><path class="cls-3" d="M900.85,446.35h7.86l-.29,2h-7.57v-2Z" transform="translate(-26.16 -247.07)"/><path class="cls-3" d="M933.44,446.35h2.45v2h-2.45Z" transform="translate(-26.16 -247.07)"/><path class="cls-3" d="M900.85,450h7.45v2h-7.45v-2Z" transform="translate(-26.16 -247.07)"/><path class="cls-3" d="M933.44,450h2.45v2h-2.45Z" transform="translate(-26.16 -247.07)"/><path class="cls-3" d="M900.85,453.74h7.45v2h-7.45v-2Z" transform="translate(-26.16 -247.07)"/><path class="cls-3" d="M933.44,453.74h2.45v2h-2.45Z" transform="translate(-26.16 -247.07)"/><path class="cls-3" d="M900.85,457.4h7.45v2h-7.45v-2Z" transform="translate(-26.16 -247.07)"/><path class="cls-3" d="M933.44,457.4h2.45v2h-2.45Z" transform="translate(-26.16 -247.07)"/><path class="cls-3" d="M900.85,461.13h7.45v2h-7.45v-2Z" transform="translate(-26.16 -247.07)"/><path class="cls-3" d="M933.44,461.13h2.45v2h-2.45Z" transform="translate(-26.16 -247.07)"/><path class="cls-3" d="M900.85,464.8h7.45v2h-7.45v-2Z" transform="translate(-26.16 -247.07)"/><path class="cls-3" d="M933.44,464.8h2.45v2h-2.45Z" transform="translate(-26.16 -247.07)"/><path class="cls-3" d="M900.85,468.52h7.45v2h-7.45v-2Z" transform="translate(-26.16 -247.07)"/><path class="cls-3" d="M933.44,468.52h2.45v2h-2.45Z" transform="translate(-26.16 -247.07)"/><path class="cls-3" d="M900.85,472.19h7.45v2h-7.45v-2Z" transform="translate(-26.16 -247.07)"/><path class="cls-3" d="M933.44,472.19h2.45v2h-2.45Z" transform="translate(-26.16 -247.07)"/><path class="cls-3" d="M900.85,475.91h7.45v2h-7.45v-2Z" transform="translate(-26.16 -247.07)"/><path class="cls-3" d="M933.44,475.91h2.45v2h-2.45Z" transform="translate(-26.16 -247.07)"/><path class="cls-3" d="M900.85,479.58h7.45v2h-7.45v-2Z" transform="translate(-26.16 -247.07)"/><path class="cls-3" d="M933.44,479.58h2.45v2h-2.45Z" transform="translate(-26.16 -247.07)"/><path class="cls-3" d="M900.85,483.3h7.45v2h-7.45v-2Z" transform="translate(-26.16 -247.07)"/><path class="cls-3" d="M933.44,483.3h2.45v2h-2.45Z" transform="translate(-26.16 -247.07)"/><path class="cls-3" d="M900.85,487h7.45v2h-7.45v-2Z" transform="translate(-26.16 -247.07)"/><path class="cls-3" d="M933.44,487h2.45v2h-2.45Z" transform="translate(-26.16 -247.07)"/><path class="cls-3" d="M900.85,490.69h7.45v2h-7.45v-2Z" transform="translate(-26.16 -247.07)"/><path class="cls-3" d="M933.44,490.69h2.45v2h-2.45Z" transform="translate(-26.16 -247.07)"/><path class="cls-3" d="M900.85,494.36h7.45v2h-7.45v-2Z" transform="translate(-26.16 -247.07)"/><path class="cls-3" d="M933.44,494.36h2.45v2h-2.45Z" transform="translate(-26.16 -247.07)"/><path class="cls-3" d="M900.85,498.08h7.45v2h-7.45v-2Z" transform="translate(-26.16 -247.07)"/><path class="cls-3" d="M933.44,498.08h2.45v2h-2.45Z" transform="translate(-26.16 -247.07)"/><path class="cls-3" d="M900.85,501.75h7.45v2h-7.45v-2Z" transform="translate(-26.16 -247.07)"/><path class="cls-3" d="M933.44,501.75h2.45v2h-2.45Z" transform="translate(-26.16 -247.07)"/><path class="cls-3" d="M900.85,505.48h7.45v2h-7.45v-2Z" transform="translate(-26.16 -247.07)"/><path class="cls-3" d="M933.44,505.48h2.45v2h-2.45Z" transform="translate(-26.16 -247.07)"/><path class="cls-3" d="M900.85,509.14h7.45v2h-7.45v-2Z" transform="translate(-26.16 -247.07)"/><path class="cls-3" d="M933.44,509.14h2.45v2h-2.45Z" transform="translate(-26.16 -247.07)"/><path class="cls-3" d="M900.85,512.87h7.45v2h-7.45v-2Z" transform="translate(-26.16 -247.07)"/><path class="cls-3" d="M933.44,512.87h2.45v2h-2.45Z" transform="translate(-26.16 -247.07)"/><path class="cls-3" d="M900.85,516.53h7.45v2h-7.45v-2Z" transform="translate(-26.16 -247.07)"/><path class="cls-3" d="M933.44,516.53h2.45v2h-2.45Z" transform="translate(-26.16 -247.07)"/><path class="cls-3" d="M900.85,520.26h7.45v2h-7.45v-2Z" transform="translate(-26.16 -247.07)"/><path class="cls-3" d="M933.44,520.26h2.45v2h-2.45Z" transform="translate(-26.16 -247.07)"/><path class="cls-3" d="M900.85,523.92h7.45v2h-7.45v-2Z" transform="translate(-26.16 -247.07)"/><path class="cls-3" d="M933.44,523.92h2.45v2h-2.45Z" transform="translate(-26.16 -247.07)"/><path class="cls-3" d="M900.85,527.65h7.45v2h-7.45v-2Z" transform="translate(-26.16 -247.07)"/><path class="cls-3" d="M933.44,527.65h2.45v2h-2.45Z" transform="translate(-26.16 -247.07)"/><rect class="cls-2" x="874.7" y="284.25" width="7.45" height="2.04"/><rect class="cls-2" x="907.29" y="284.25" width="2.44" height="2.04"/><rect class="cls-2" x="874.7" y="117.98" width="35.03" height="2.04"/><polygon class="cls-3" points="834.31 184.91 840.3 194.51 840.3 200.33 834.31 190.78 834.31 184.91"/><polygon class="cls-3" points="834.31 235.36 837.33 240.13 837.33 246.01 834.31 241.24 834.31 235.36"/><polygon class="cls-3" points="850.84 173.44 852.7 176.41 852.7 182.29 847.11 173.44 850.84 173.44"/><polygon class="cls-3" points="846.64 179.2 852.64 188.75 852.64 194.62 846.64 185.08 840.71 175.54 844.38 175.54 846.64 179.2"/><polygon class="cls-3" points="840.48 180.66 841 181.47 841 187.35 840.48 186.53 836 179.26 839.66 179.26 840.48 180.66"/><polygon class="cls-3" points="843.79 185.95 846.47 190.2 846.47 196.08 843.79 191.83 843.79 185.95"/><rect class="cls-2" x="770.87" y="157.9" width="17.46" height="15.89"/><rect class="cls-2" x="770.87" y="179.9" width="17.46" height="15.95"/><rect class="cls-2" x="770.87" y="201.96" width="17.46" height="15.95"/><rect class="cls-2" x="770.87" y="224.01" width="17.46" height="15.95"/><rect class="cls-2" x="770.87" y="246.07" width="17.46" height="15.95"/><rect class="cls-2" x="683.69" y="231.17" width="3.84" height="46.85"/><rect class="cls-2" x="691.49" y="231.17" width="3.84" height="50.46"/><rect class="cls-2" x="699.23" y="231.17" width="3.84" height="50.46"/><rect class="cls-2" x="707.03" y="231.17" width="3.84" height="54.76"/><rect class="cls-2" x="714.83" y="231.17" width="3.84" height="54.76"/><rect class="cls-2" x="722.63" y="231.17" width="3.84" height="54.76"/><polygon class="cls-3" points="638.42 189.5 643.19 196.02 643.19 199.92 638.42 193.4 638.42 189.5"/><polygon class="cls-3" points="640.28 290.24 638.42 287.74 638.42 283.84 643.13 290.24 640.28 290.24"/><polygon class="cls-3" points="638.42 180.95 643.19 187.41 643.19 191.31 638.42 184.85 638.42 180.95"/><polygon class="cls-3" points="638.42 172.34 643.19 178.85 643.19 182.75 638.42 176.23 638.42 172.34"/><polygon class="cls-3" points="638.42 215.23 643.19 221.74 643.19 225.64 638.42 219.13 638.42 215.23"/><polygon class="cls-3" points="638.42 206.67 643.19 213.13 643.19 217.03 638.42 210.57 638.42 206.67"/><polygon class="cls-3" points="638.42 198.06 643.19 204.58 643.19 208.47 638.42 201.96 638.42 198.06"/><polygon class="cls-3" points="638.42 240.95 643.19 247.47 643.19 251.37 638.42 244.85 638.42 240.95"/><polygon class="cls-3" points="638.42 232.39 643.19 238.85 643.19 242.75 638.42 236.29 638.42 232.39"/><polygon class="cls-3" points="638.42 223.78 643.19 230.3 643.19 234.2 638.42 227.68 638.42 223.78"/><polygon class="cls-3" points="638.42 266.67 643.19 273.13 643.19 277.09 638.42 270.57 638.42 266.67"/><polygon class="cls-3" points="638.42 258.12 643.19 264.58 643.19 268.48 638.42 262.02 638.42 258.12"/><polygon class="cls-3" points="638.42 249.5 643.19 256.02 643.19 259.92 638.42 253.4 638.42 249.5"/><polygon class="cls-3" points="638.42 275.23 643.19 281.75 643.19 285.64 638.42 279.13 638.42 275.23"/><polygon class="cls-3" points="611.76 194.51 633.64 224.36 630.15 226.98 611.76 201.96 611.76 194.51"/><polygon class="cls-3" points="611.76 179.49 634.98 211.15 634.98 218.54 611.76 186.88 611.76 179.49"/><polygon class="cls-3" points="617.93 172.8 634.98 196.08 634.98 203.53 617.93 180.19 617.93 172.8"/><polygon class="cls-3" points="627.13 170.41 634.98 181.06 634.98 188.46 627.13 177.81 627.13 170.41"/><polygon class="cls-3" points="611.76 209.58 627.36 230.82 627.36 238.27 611.76 216.97 611.76 209.58"/><polygon class="cls-3" points="611.76 239.61 627.36 260.91 627.36 268.3 611.76 247.06 611.76 239.61"/><polygon class="cls-3" points="611.76 224.59 627.36 245.9 627.36 253.29 611.76 231.99 611.76 224.59"/><polygon class="cls-3" points="611.76 254.68 627.36 275.93 627.36 283.37 611.76 262.07 611.76 254.68"/><polygon class="cls-3" points="611.76 269.7 624.28 286.81 618.86 286.81 611.76 277.15 611.76 269.7"/><polygon class="cls-3" points="632.13 167.91 634.98 171.81 634.98 175.71 629.28 167.91 632.13 167.91"/><rect class="cls-2" x="533.78" y="146.67" width="40.8" height="2.74"/><rect class="cls-2" x="543.32" y="154.99" width="36.84" height="3.38"/><rect class="cls-2" x="531.74" y="160.06" width="48.42" height="3.38"/><rect class="cls-2" x="531.74" y="165.06" width="23.69" height="3.38"/><rect class="cls-2" x="559.56" y="165.06" width="4.13" height="3.38"/><rect class="cls-2" x="567.88" y="165.06" width="12.28" height="3.38"/><rect class="cls-2" x="531.74" y="170.12" width="16.41" height="3.38"/><rect class="cls-2" x="552.29" y="170.12" width="27.88" height="3.38"/><rect class="cls-2" x="531.74" y="177.34" width="23.16" height="3.38"/><rect class="cls-2" x="559.04" y="177.34" width="21.13" height="3.38"/><rect class="cls-2" x="531.74" y="182.4" width="9.43" height="3.38"/><rect class="cls-2" x="545.3" y="182.4" width="34.86" height="3.38"/><rect class="cls-2" x="531.74" y="187.41" width="34.63" height="3.38"/><rect class="cls-2" x="570.5" y="187.41" width="9.66" height="3.38"/><rect class="cls-2" x="531.74" y="192.47" width="40.27" height="3.38"/><rect class="cls-2" x="576.21" y="192.47" width="3.96" height="3.38"/><rect class="cls-2" x="531.74" y="199.69" width="25.96" height="3.38"/><rect class="cls-2" x="561.83" y="199.69" width="18.33" height="3.38"/><rect class="cls-2" x="531.74" y="204.75" width="8.32" height="3.38"/><rect class="cls-2" x="544.2" y="204.75" width="3.9" height="3.38"/><rect class="cls-2" x="552.23" y="204.75" width="27.93" height="3.38"/><rect class="cls-2" x="531.74" y="209.76" width="23.16" height="3.38"/><rect class="cls-2" x="559.04" y="209.76" width="21.13" height="3.38"/><rect class="cls-2" x="531.74" y="214.82" width="36.95" height="3.38"/><rect class="cls-2" x="572.83" y="214.82" width="7.33" height="3.38"/><rect class="cls-2" x="531.74" y="222.03" width="13.33" height="3.38"/><rect class="cls-2" x="549.26" y="222.03" width="30.9" height="3.38"/><rect class="cls-2" x="531.74" y="227.1" width="22.64" height="3.38"/><rect class="cls-2" x="558.51" y="227.1" width="21.65" height="3.38"/><rect class="cls-2" x="531.74" y="232.1" width="2.27" height="3.38"/><rect class="cls-2" x="538.14" y="232.1" width="42.02" height="3.38"/><rect class="cls-2" x="531.74" y="237.17" width="9.08" height="3.38"/><rect class="cls-2" x="544.95" y="237.17" width="35.21" height="3.38"/><rect class="cls-2" x="531.74" y="244.38" width="21.3" height="3.43"/><rect class="cls-2" x="557.17" y="244.38" width="13.44" height="3.43"/><rect class="cls-2" x="531.74" y="249.45" width="14.78" height="3.38"/><rect class="cls-2" x="550.66" y="249.45" width="12.1" height="3.38"/><rect class="cls-2" x="531.74" y="254.45" width="6.29" height="3.38"/><rect class="cls-2" x="542.16" y="254.45" width="24.91" height="3.38"/><rect class="cls-2" x="531.74" y="259.51" width="18.8" height="3.38"/><rect class="cls-2" x="550.66" y="125.43" width="7.04" height="2.33"/><rect class="cls-2" x="542.28" y="135.85" width="23.74" height="2.39"/><rect class="cls-2" x="454.69" y="222.15" width="2.74" height="8.79"/><rect class="cls-2" x="459.4" y="222.15" width="2.68" height="8.79"/><rect class="cls-2" x="464.06" y="222.15" width="2.68" height="8.79"/><rect class="cls-2" x="468.72" y="222.15" width="2.68" height="8.79"/><rect class="cls-2" x="482.1" y="222.15" width="2.68" height="8.79"/><rect class="cls-2" x="486.76" y="222.15" width="2.68" height="8.79"/><rect class="cls-2" x="491.41" y="222.15" width="2.74" height="8.79"/><rect class="cls-2" x="496.13" y="222.15" width="2.68" height="8.79"/><rect class="cls-2" x="440.49" y="222.15" width="9.19" height="13.39"/><rect class="cls-2" x="454.69" y="240.19" width="2.74" height="8.79"/><rect class="cls-2" x="459.4" y="240.19" width="2.68" height="8.79"/><rect class="cls-2" x="464.06" y="240.19" width="2.68" height="8.79"/><rect class="cls-2" x="468.72" y="240.19" width="2.68" height="8.79"/><rect class="cls-2" x="482.1" y="240.19" width="2.68" height="8.79"/><rect class="cls-2" x="486.76" y="240.19" width="2.68" height="8.79"/><rect class="cls-2" x="491.41" y="240.19" width="2.74" height="8.79"/><rect class="cls-2" x="496.13" y="240.19" width="2.68" height="8.79"/><rect class="cls-2" x="440.49" y="240.19" width="9.19" height="13.39"/><rect class="cls-2" x="454.69" y="258.17" width="2.74" height="8.85"/><rect class="cls-2" x="459.4" y="258.17" width="2.68" height="8.85"/><rect class="cls-2" x="464.06" y="258.17" width="2.68" height="8.85"/><rect class="cls-2" x="468.72" y="258.17" width="2.68" height="8.85"/><rect class="cls-2" x="482.1" y="258.17" width="2.68" height="8.85"/><rect class="cls-2" x="486.76" y="258.17" width="2.68" height="8.85"/><rect class="cls-2" x="491.41" y="258.17" width="2.74" height="8.85"/><rect class="cls-2" x="496.13" y="258.17" width="2.68" height="8.85"/><rect class="cls-2" x="440.49" y="258.17" width="9.19" height="13.44"/><rect class="cls-2" x="454.69" y="276.22" width="2.74" height="8.79"/><rect class="cls-2" x="459.4" y="276.22" width="2.68" height="8.79"/><rect class="cls-2" x="464.06" y="276.22" width="2.68" height="8.79"/><rect class="cls-2" x="468.72" y="276.22" width="2.68" height="8.79"/><rect class="cls-2" x="482.1" y="276.22" width="2.68" height="8.79"/><rect class="cls-2" x="486.76" y="276.22" width="2.68" height="8.79"/><rect class="cls-2" x="491.41" y="276.22" width="2.74" height="8.79"/><rect class="cls-2" x="496.13" y="276.22" width="2.68" height="8.79"/><rect class="cls-2" x="440.49" y="276.22" width="9.19" height="13.39"/><rect class="cls-2" x="327.47" y="198.64" width="3.26" height="3.26"/><rect class="cls-2" x="322.53" y="198.64" width="3.32" height="3.26"/><rect class="cls-2" x="317.64" y="198.64" width="3.26" height="3.26"/><rect class="cls-2" x="312.69" y="198.64" width="3.26" height="3.26"/><rect class="cls-2" x="327.47" y="203.53" width="3.26" height="3.26"/><rect class="cls-2" x="322.53" y="203.53" width="3.32" height="3.26"/><rect class="cls-2" x="312.69" y="203.53" width="3.26" height="3.26"/><rect class="cls-2" x="306.29" y="203.53" width="4.77" height="3.26"/><rect class="cls-2" x="327.47" y="208.42" width="3.26" height="3.26"/><rect class="cls-2" x="322.53" y="208.42" width="3.32" height="3.26"/><rect class="cls-2" x="317.64" y="208.42" width="3.26" height="3.26"/><rect class="cls-2" x="312.69" y="208.42" width="3.26" height="3.26"/><rect class="cls-2" x="306.29" y="208.42" width="4.77" height="3.26"/><rect class="cls-2" x="327.47" y="213.31" width="3.26" height="3.26"/><rect class="cls-2" x="312.69" y="213.31" width="3.26" height="3.26"/><rect class="cls-2" x="306.29" y="213.31" width="4.77" height="3.26"/><rect class="cls-2" x="327.47" y="218.19" width="3.26" height="3.26"/><rect class="cls-2" x="322.53" y="218.19" width="3.32" height="3.26"/><rect class="cls-2" x="317.64" y="218.19" width="3.26" height="3.26"/><rect class="cls-2" x="312.69" y="218.19" width="3.26" height="3.26"/><rect class="cls-2" x="327.47" y="223.08" width="3.26" height="3.26"/><rect class="cls-2" x="317.64" y="223.08" width="3.26" height="3.26"/><rect class="cls-2" x="306.29" y="223.08" width="4.77" height="3.26"/><rect class="cls-2" x="327.47" y="227.97" width="3.26" height="3.26"/><rect class="cls-2" x="322.53" y="227.97" width="3.32" height="3.26"/><rect class="cls-2" x="317.64" y="227.97" width="3.26" height="3.26"/><rect class="cls-2" x="312.69" y="227.97" width="3.26" height="3.26"/><rect class="cls-2" x="306.29" y="227.97" width="4.77" height="3.26"/><rect class="cls-2" x="327.47" y="232.86" width="3.26" height="3.26"/><rect class="cls-2" x="322.53" y="232.86" width="3.32" height="3.26"/><rect class="cls-2" x="312.69" y="232.86" width="3.26" height="3.26"/><rect class="cls-2" x="327.47" y="237.75" width="3.26" height="3.26"/><rect class="cls-2" x="317.64" y="237.75" width="3.26" height="3.26"/><rect class="cls-2" x="312.69" y="237.75" width="3.26" height="3.26"/><rect class="cls-2" x="306.29" y="237.75" width="4.77" height="3.26"/><rect class="cls-2" x="327.47" y="242.64" width="3.26" height="3.26"/><rect class="cls-2" x="322.53" y="242.64" width="3.32" height="3.26"/><rect class="cls-2" x="317.64" y="242.64" width="3.26" height="3.26"/><rect class="cls-2" x="312.69" y="242.64" width="3.26" height="3.26"/><rect class="cls-2" x="306.29" y="242.64" width="4.77" height="3.26"/><rect class="cls-2" x="327.47" y="247.52" width="3.26" height="3.26"/><rect class="cls-2" x="322.53" y="247.52" width="3.32" height="3.26"/><rect class="cls-2" x="317.64" y="247.52" width="3.26" height="3.26"/><rect class="cls-2" x="306.29" y="247.52" width="4.77" height="3.26"/><rect class="cls-2" x="327.47" y="252.36" width="3.26" height="3.32"/><rect class="cls-2" x="317.64" y="252.36" width="3.26" height="3.32"/><rect class="cls-2" x="312.69" y="252.36" width="3.26" height="3.32"/><rect class="cls-2" x="306.29" y="252.36" width="4.77" height="3.32"/><rect class="cls-2" x="327.47" y="257.24" width="3.26" height="3.32"/><rect class="cls-2" x="322.53" y="257.24" width="3.32" height="3.32"/><rect class="cls-2" x="317.64" y="257.24" width="3.26" height="3.32"/><rect class="cls-2" x="312.69" y="257.24" width="3.26" height="3.32"/><rect class="cls-2" x="327.47" y="262.13" width="3.26" height="3.32"/><rect class="cls-2" x="322.53" y="262.13" width="3.32" height="3.32"/><rect class="cls-2" x="312.69" y="262.13" width="3.26" height="3.32"/><rect class="cls-2" x="306.29" y="262.13" width="4.77" height="3.32"/><rect class="cls-2" x="327.47" y="267.02" width="3.26" height="3.32"/><rect class="cls-2" x="317.64" y="267.02" width="3.26" height="3.32"/><rect class="cls-2" x="312.69" y="267.02" width="3.26" height="3.32"/><rect class="cls-2" x="306.29" y="267.02" width="4.77" height="3.32"/><rect class="cls-2" x="327.47" y="271.91" width="3.26" height="3.32"/><rect class="cls-2" x="322.53" y="271.91" width="3.32" height="3.32"/><rect class="cls-2" x="317.64" y="271.91" width="3.26" height="3.32"/><rect class="cls-2" x="312.69" y="271.91" width="3.26" height="3.32"/><rect class="cls-2" x="317.64" y="276.8" width="3.26" height="3.32"/><rect class="cls-2" x="312.69" y="276.8" width="3.26" height="3.32"/><rect class="cls-2" x="306.29" y="276.8" width="4.77" height="3.32"/><rect class="cls-2" x="306.29" y="281.69" width="4.77" height="3.32"/><rect class="cls-2" x="240.35" y="219.71" width="3.03" height="14.08"/><rect class="cls-2" x="245.47" y="219.71" width="3.08" height="14.08"/><rect class="cls-2" x="250.65" y="219.71" width="3.08" height="14.08"/><rect class="cls-2" x="255.83" y="219.71" width="3.08" height="14.08"/><rect class="cls-2" x="240.35" y="237.34" width="3.03" height="14.03"/><rect class="cls-2" x="250.65" y="237.34" width="3.08" height="14.03"/><rect class="cls-2" x="255.83" y="237.34" width="3.08" height="14.03"/><rect class="cls-2" x="240.35" y="254.97" width="3.03" height="14.03"/><rect class="cls-2" x="245.47" y="254.97" width="3.08" height="14.03"/><rect class="cls-2" x="250.65" y="254.97" width="3.08" height="14.03"/><rect class="cls-2" x="255.83" y="254.97" width="3.08" height="14.03"/><rect class="cls-2" x="250.65" y="272.55" width="3.08" height="14.08"/><rect class="cls-2" x="255.83" y="272.55" width="3.08" height="14.08"/><rect class="cls-2" x="186.23" y="278.43" width="2.15" height="9.89"/><rect class="cls-2" x="182.16" y="278.43" width="2.15" height="2.79"/><rect class="cls-2" x="182.16" y="283.49" width="2.15" height="4.83"/><rect class="cls-2" x="178.02" y="278.43" width="2.15" height="9.89"/><rect class="cls-2" x="192.17" y="278.43" width="2.15" height="7.97"/><rect class="cls-2" x="196.53" y="278.43" width="2.15" height="7.97"/><rect class="cls-2" x="200.89" y="278.43" width="2.15" height="4.48"/><rect class="cls-2" x="205.32" y="278.43" width="2.15" height="4.48"/><rect class="cls-2" x="186.23" y="252.41" width="2.15" height="22.11"/><rect class="cls-2" x="182.16" y="252.41" width="2.15" height="8.73"/><rect class="cls-2" x="182.16" y="263.41" width="2.15" height="11.12"/><rect class="cls-2" x="178.02" y="252.41" width="2.15" height="14.14"/><rect class="cls-2" x="178.02" y="268.82" width="2.15" height="5.7"/><rect class="cls-2" x="192.17" y="252.41" width="2.15" height="22.11"/><rect class="cls-2" x="196.53" y="252.41" width="2.15" height="3.67"/><rect class="cls-2" x="196.53" y="258.35" width="2.15" height="16.18"/><rect class="cls-2" x="200.89" y="252.41" width="2.15" height="17.81"/><rect class="cls-2" x="200.89" y="272.49" width="2.15" height="2.04"/><rect class="cls-2" x="205.32" y="252.41" width="2.15" height="22.11"/><rect class="cls-2" x="209.68" y="252.41" width="2.15" height="11.35"/><rect class="cls-2" x="209.68" y="266.03" width="2.15" height="8.5"/><rect class="cls-2" x="214.11" y="252.41" width="2.15" height="15.6"/><rect class="cls-2" x="214.11" y="270.28" width="2.15" height="4.25"/><rect class="cls-2" x="218.47" y="252.41" width="2.15" height="2.91"/><rect class="cls-2" x="218.47" y="257.59" width="2.15" height="11.93"/><rect class="cls-2" x="222.84" y="252.41" width="2.15" height="17.11"/><rect class="cls-2" x="186.23" y="226.34" width="2.15" height="14.26"/><rect class="cls-2" x="186.23" y="242.87" width="2.15" height="5.64"/><rect class="cls-2" x="182.16" y="226.34" width="2.15" height="22.17"/><rect class="cls-2" x="178.02" y="226.34" width="2.15" height="6.52"/><rect class="cls-2" x="178.02" y="235.13" width="2.15" height="13.39"/><rect class="cls-2" x="186.23" y="200.27" width="2.15" height="22.17"/><rect class="cls-2" x="182.16" y="200.27" width="2.15" height="14.26"/><rect class="cls-2" x="182.16" y="216.8" width="2.15" height="5.65"/><rect class="cls-2" x="178.02" y="200.27" width="2.15" height="22.17"/><rect class="cls-2" x="186.23" y="171.35" width="2.15" height="18.45"/><rect class="cls-2" x="186.23" y="192.06" width="2.15" height="4.31"/><rect class="cls-2" x="182.16" y="171.35" width="2.15" height="6.23"/><rect class="cls-2" x="182.16" y="179.84" width="2.15" height="16.53"/><rect class="cls-2" x="178.02" y="171.35" width="2.15" height="12.92"/><rect class="cls-2" x="178.02" y="186.53" width="2.15" height="3.72"/><rect class="cls-2" x="178.02" y="192.53" width="2.15" height="3.84"/><rect class="cls-2" x="192.17" y="171.35" width="2.15" height="25.02"/><rect class="cls-2" x="196.53" y="171.35" width="2.15" height="17.98"/><rect class="cls-2" x="196.53" y="191.6" width="2.15" height="4.77"/><rect class="cls-2" x="200.89" y="171.35" width="2.15" height="14.32"/><rect class="cls-2" x="200.89" y="187.93" width="2.15" height="8.44"/><rect class="cls-2" x="205.32" y="171.35" width="2.15" height="25.02"/><rect class="cls-2" x="209.68" y="171.35" width="2.15" height="4.6"/><rect class="cls-2" x="209.68" y="178.21" width="2.15" height="18.16"/><rect class="cls-2" x="214.11" y="171.35" width="2.15" height="21.71"/><rect class="cls-2" x="214.11" y="195.32" width="2.15" height="1.05"/><rect class="cls-2" x="218.47" y="171.35" width="2.15" height="17.92"/><rect class="cls-2" x="218.47" y="191.54" width="2.15" height="4.83"/><rect class="cls-2" x="222.84" y="171.35" width="2.15" height="11.06"/><rect class="cls-2" x="222.84" y="184.67" width="2.15" height="11.7"/><rect class="cls-2" x="192.17" y="200.27" width="2.15" height="6.11"/><rect class="cls-2" x="192.17" y="208.65" width="2.15" height="13.79"/><rect class="cls-2" x="196.53" y="200.27" width="2.15" height="3.03"/><rect class="cls-2" x="196.53" y="205.57" width="2.15" height="16.88"/><rect class="cls-2" x="200.89" y="200.27" width="2.15" height="22.17"/><rect class="cls-2" x="205.32" y="200.27" width="2.15" height="11.46"/><rect class="cls-2" x="205.32" y="214" width="2.15" height="8.44"/><rect class="cls-2" x="209.68" y="200.27" width="2.15" height="9.31"/><rect class="cls-2" x="209.68" y="211.85" width="2.15" height="10.59"/><rect class="cls-2" x="214.11" y="200.27" width="2.15" height="22.17"/><rect class="cls-2" x="218.47" y="200.27" width="2.15" height="3.9"/><rect class="cls-2" x="218.47" y="206.44" width="2.15" height="16"/><rect class="cls-2" x="222.84" y="200.27" width="2.15" height="22.17"/><rect class="cls-2" x="192.17" y="226.34" width="2.15" height="22.17"/><rect class="cls-2" x="196.53" y="226.34" width="2.15" height="22.17"/><rect class="cls-2" x="200.89" y="226.34" width="2.15" height="6.29"/><rect class="cls-2" x="200.89" y="234.9" width="2.15" height="13.62"/><rect class="cls-2" x="205.32" y="226.34" width="2.15" height="16.94"/><rect class="cls-2" x="205.32" y="245.55" width="2.15" height="2.97"/><rect class="cls-2" x="209.68" y="226.34" width="2.15" height="12.8"/><rect class="cls-2" x="209.68" y="241.36" width="2.15" height="7.16"/><rect class="cls-2" x="214.11" y="226.34" width="2.15" height="9.08"/><rect class="cls-2" x="214.11" y="237.69" width="2.15" height="2.5"/><rect class="cls-2" x="214.11" y="242.46" width="2.15" height="6.05"/><rect class="cls-2" x="218.47" y="226.34" width="2.15" height="22.17"/><rect class="cls-2" x="222.84" y="226.34" width="2.15" height="5.41"/><rect class="cls-2" x="222.84" y="234.02" width="2.15" height="14.49"/><rect class="cls-2" x="153.23" y="260.27" width="8.73" height="5.3"/><rect class="cls-2" x="153.23" y="251.6" width="8.73" height="5.3"/><rect class="cls-2" x="153.23" y="234.26" width="8.73" height="5.3"/><rect class="cls-2" x="153.23" y="268.94" width="8.73" height="5.3"/><rect class="cls-2" x="153.23" y="242.93" width="8.73" height="5.3"/><rect class="cls-2" x="153.23" y="225.58" width="8.73" height="5.3"/><rect class="cls-2" x="153.23" y="208.24" width="8.73" height="5.3"/><rect class="cls-2" x="153.23" y="216.91" width="8.73" height="5.3"/><rect class="cls-2" x="88.46" y="267.54" width="9.2" height="2.85"/><rect class="cls-2" x="88.46" y="276.45" width="9.2" height="2.79"/><rect class="cls-2" x="88.46" y="272.03" width="9.2" height="2.79"/><rect class="cls-2" x="88.46" y="263.12" width="9.2" height="2.79"/><rect class="cls-2" x="88.46" y="258.7" width="9.2" height="2.79"/><rect class="cls-2" x="88.46" y="254.22" width="9.2" height="2.85"/><rect class="cls-2" x="88.46" y="237.63" width="9.2" height="2.79"/><rect class="cls-2" x="88.46" y="246.48" width="9.2" height="2.85"/><rect class="cls-2" x="88.46" y="242.05" width="9.2" height="2.85"/><rect class="cls-2" x="88.46" y="233.21" width="9.2" height="2.79"/><rect class="cls-2" x="88.46" y="228.73" width="9.2" height="2.85"/><rect class="cls-2" x="101.67" y="259.16" width="9.2" height="2.85"/><rect class="cls-2" x="101.67" y="268.07" width="9.2" height="2.79"/><rect class="cls-2" x="101.67" y="263.65" width="9.2" height="2.79"/><rect class="cls-2" x="101.67" y="254.74" width="9.2" height="2.79"/><rect class="cls-2" x="101.67" y="250.32" width="9.2" height="2.79"/><rect class="cls-2" x="101.67" y="233.21" width="9.2" height="2.79"/><rect class="cls-2" x="101.67" y="242.05" width="9.2" height="2.85"/><rect class="cls-2" x="101.67" y="228.73" width="9.2" height="2.85"/><rect class="cls-2" x="965.31" y="203.94" width="14.37" height="50.51"/><rect class="cls-2" x="1090.08" y="220.93" width="9.43" height="2.39"/><rect class="cls-2" x="1090.08" y="216.1" width="3.14" height="2.44"/><rect class="cls-2" x="1096.37" y="216.1" width="3.14" height="2.44"/><rect class="cls-2" x="1090.08" y="233.32" width="9.43" height="2.39"/><rect class="cls-2" x="1090.08" y="228.49" width="3.14" height="2.44"/><rect class="cls-2" x="1096.37" y="228.49" width="3.14" height="2.44"/><rect class="cls-2" x="1090.08" y="245.72" width="9.43" height="2.39"/><rect class="cls-2" x="1090.08" y="240.89" width="3.14" height="2.39"/><rect class="cls-2" x="1096.37" y="240.89" width="3.14" height="2.39"/><rect class="cls-2" x="1090.08" y="258.12" width="9.43" height="2.39"/><rect class="cls-2" x="1090.08" y="253.29" width="3.14" height="2.39"/><rect class="cls-2" x="1096.37" y="253.29" width="3.14" height="2.39"/><polygon class="cls-3" points="1095.38 208.53 1099.51 208.53 1099.51 210.92 1094.04 210.92 1095.38 208.53"/><polygon class="cls-3" points="1098.06 203.7 1099.51 203.7 1099.51 206.15 1096.72 206.15 1098.06 203.7"/><rect class="cls-4" x="967.64" y="206.38" width="9.72" height="16.24"/><rect class="cls-4" x="967.64" y="225.35" width="9.72" height="15.25"/><rect class="cls-4" x="967.64" y="243.33" width="9.72" height="8.73"/><path class="cls-5" d="M1360.89,353.39a4.84,4.84,0,0,1,.27,1,6.45,6.45,0,0,1,1-2" transform="translate(-26.16 -247.07)"/><path class="cls-4" d="M1204.61,360.77s0-.1,0-.15a3,3,0,0,0-5.09-2.07,5.66,5.66,0,0,0-10.45-1.23,3.73,3.73,0,0,0-.88-.12,3.65,3.65,0,0,0-1.82.5,5.87,5.87,0,0,0-11.25.56,4.74,4.74,0,0,0-2.35,2.34,4.47,4.47,0,0,0-.82-.08,4.74,4.74,0,0,0-2,.42,5.88,5.88,0,0,0-11.38,2.06,6,6,0,0,0,.1,1,4.76,4.76,0,0,0,.81,9.45h12.12a4.08,4.08,0,0,0,1.67.37h15.3v0a3.67,3.67,0,0,0,3.39-3.12h11.59a5,5,0,0,0,1-10Z" transform="translate(-26.16 -247.07)"/><path class="cls-4" d="M1081.69,311.75a.77.77,0,0,0,0-.15,3,3,0,0,0-5.09-2.07,5.67,5.67,0,0,0-10.45-1.24,3.6,3.6,0,0,0-.88-.11,3.68,3.68,0,0,0-1.81.49,5.88,5.88,0,0,0-11.26.57,4.78,4.78,0,0,0-2.35,2.34,4.46,4.46,0,0,0-.81-.09,4.68,4.68,0,0,0-2,.43,5.88,5.88,0,0,0-11.39,2.06,6,6,0,0,0,.1,1,4.76,4.76,0,0,0,.82,9.45h12.11a4.29,4.29,0,0,0,1.68.37h15.29v0a3.67,3.67,0,0,0,3.39-3.12h11.59a5,5,0,0,0,1-9.95Z" transform="translate(-26.16 -247.07)"/><path class="cls-4" d="M566.31,280.17c0-.05,0-.1,0-.15a2.92,2.92,0,0,0-3-2.88,3,3,0,0,0-2.12.87,5.73,5.73,0,0,0-10.46-1.2,3.6,3.6,0,0,0-.88-.11,3.7,3.7,0,0,0-1.81.48,5.92,5.92,0,0,0-11.25.55,4.66,4.66,0,0,0-2.36,2.27,5.29,5.29,0,0,0-.81-.08,4.86,4.86,0,0,0-1.95.41,5.91,5.91,0,0,0-11.39,2,5.69,5.69,0,0,0,.1,1,4.66,4.66,0,0,0-3.95,4.55,4.7,4.7,0,0,0,4.77,4.63h12.12a4,4,0,0,0,1.67.36h15.3v0a3.62,3.62,0,0,0,3.38-3h11.6a4.88,4.88,0,0,0,1-9.68Z" transform="translate(-26.16 -247.07)"/><path class="cls-4" d="M639,247.07c.23.45,1,.87,1.25,1.32.55.87,1.12,1.72,1.63,2.61.25.45.58,1.53,1,1.85a18,18,0,0,1,1.73,1.11,12.8,12.8,0,0,1,3.06,4.82,9.18,9.18,0,0,1,.52,1.85,13.18,13.18,0,0,1,1.89-3.82c1.37-2.2,2.56-4.31,4.87-5.66a15.62,15.62,0,0,1,8.13-1.74c1.58.11,3.18,0,4.77,0,1,0,2.47-.14,3.32.53l0,0-.24-.08-.08.08c-2.15.13-4.36,1.52-6.22,2.53s-3.84,1.35-5.7,2.22a14.25,14.25,0,0,0-5.46,4.48c-.72,1-1.92,3.17-1.9,4.62l0,.08c.25.25.49.51.72.77h0a2.71,2.71,0,0,0,.75,0c1.25-.21,2.16-1.08,3.32-1.48l0,0a5.78,5.78,0,0,1-2.77,2.08c.28,0,.57,0,.85.05s.37-.09.56-.12c1.33-.24,2.44-1,3.75-1.3l.07.12a8.42,8.42,0,0,1-2.42,1.4,13.41,13.41,0,0,1,3.29-.4c.06,0,.1.1,0,.13-1.49.66-3,1.29-4.48,2a7.77,7.77,0,0,1-3.92.1,6.16,6.16,0,0,0,1,.94,6,6,0,0,1,.9.67l0,0c-.49-.26-1-.25-1.54-.53a4.37,4.37,0,0,1-1.15-1l-.17-.19a9.3,9.3,0,0,1-2.75-.62,5.49,5.49,0,0,1-3.1-2.38c-.92,0-2-.26-2.23-1.27l0-.14-.19-.1a3.79,3.79,0,0,1-.78-.52h-.1a.2.2,0,0,1,0-.36,4.09,4.09,0,0,1,1.19-.41,1.2,1.2,0,0,1,1.2-.85,9.12,9.12,0,0,1,1.3.05v-.45c-.1-.7-.25-1.38-.42-2.11a22.45,22.45,0,0,0-2.06-3.16,9.22,9.22,0,0,1-1.23-3.55c-.4-1.51-1.9-2.75-2.16-4.24" transform="translate(-26.16 -247.07)"/><path class="cls-4" d="M156.42,342.85a1,1,0,0,0,0-.17,3.1,3.1,0,0,0-5.32-2.16,5.93,5.93,0,0,0-11-1.29,3.58,3.58,0,0,0-.92-.13,3.78,3.78,0,0,0-1.91.53,6.15,6.15,0,0,0-11.78.58,5,5,0,0,0-2.46,2.45,6,6,0,0,0-.86-.08,5,5,0,0,0-2,.44,6.15,6.15,0,0,0-11.92,2.16,6.59,6.59,0,0,0,.1,1.09,5,5,0,0,0,.86,9.89h12.69a4.08,4.08,0,0,0,1.75.39h16v0a3.83,3.83,0,0,0,3.54-3.26h12.15a5.26,5.26,0,0,0,1-10.42Z" transform="translate(-26.16 -247.07)"/></g></svg>